G04 EAGLE Gerber X2 export*
%TF.Part,Single*%
%TF.FileFunction,Copper,L1,Top,Mixed*%
%TF.FilePolarity,Positive*%
%TF.GenerationSoftware,Autodesk,EAGLE,9.0.1*%
%TF.CreationDate,2018-12-20T19:56:33Z*%
G75*
%MOMM*%
%FSLAX34Y34*%
%LPD*%
%AMOC8*
5,1,8,0,0,1.08239X$1,22.5*%
G01*
%ADD10C,0.125000*%
%ADD11C,0.450000*%
%ADD12C,0.127000*%
%ADD13C,0.400000*%
%ADD14C,0.250000*%

G36*
X146589Y-147697D02*
X146589Y-147697D01*
X146714Y-147688D01*
X146745Y-147677D01*
X146777Y-147673D01*
X146894Y-147627D01*
X147013Y-147586D01*
X147040Y-147568D01*
X147070Y-147556D01*
X147171Y-147482D01*
X147277Y-147413D01*
X147298Y-147389D01*
X147324Y-147370D01*
X147404Y-147272D01*
X147488Y-147179D01*
X147503Y-147150D01*
X147524Y-147125D01*
X147577Y-147011D01*
X147635Y-146900D01*
X147639Y-146874D01*
X147656Y-146839D01*
X147712Y-146528D01*
X147709Y-146489D01*
X147713Y-146464D01*
X147713Y146464D01*
X147697Y146589D01*
X147688Y146714D01*
X147677Y146745D01*
X147673Y146777D01*
X147627Y146894D01*
X147586Y147013D01*
X147568Y147040D01*
X147556Y147070D01*
X147482Y147171D01*
X147413Y147277D01*
X147389Y147298D01*
X147370Y147324D01*
X147272Y147404D01*
X147179Y147488D01*
X147150Y147503D01*
X147125Y147524D01*
X147011Y147577D01*
X146900Y147635D01*
X146874Y147639D01*
X146839Y147656D01*
X146528Y147712D01*
X146489Y147709D01*
X146464Y147713D01*
X-146464Y147713D01*
X-146589Y147697D01*
X-146714Y147688D01*
X-146745Y147677D01*
X-146777Y147673D01*
X-146894Y147627D01*
X-147013Y147586D01*
X-147040Y147568D01*
X-147070Y147556D01*
X-147171Y147482D01*
X-147277Y147413D01*
X-147298Y147389D01*
X-147324Y147370D01*
X-147404Y147272D01*
X-147488Y147179D01*
X-147503Y147150D01*
X-147524Y147125D01*
X-147577Y147011D01*
X-147635Y146900D01*
X-147639Y146874D01*
X-147656Y146839D01*
X-147712Y146528D01*
X-147709Y146489D01*
X-147713Y146464D01*
X-147713Y-146464D01*
X-147697Y-146589D01*
X-147688Y-146714D01*
X-147677Y-146745D01*
X-147673Y-146777D01*
X-147627Y-146894D01*
X-147586Y-147013D01*
X-147568Y-147040D01*
X-147556Y-147070D01*
X-147482Y-147171D01*
X-147413Y-147277D01*
X-147389Y-147298D01*
X-147370Y-147324D01*
X-147272Y-147404D01*
X-147179Y-147488D01*
X-147150Y-147503D01*
X-147125Y-147524D01*
X-147011Y-147577D01*
X-146900Y-147635D01*
X-146874Y-147639D01*
X-146839Y-147656D01*
X-146528Y-147712D01*
X-146489Y-147709D01*
X-146464Y-147713D01*
X146464Y-147713D01*
X146589Y-147697D01*
G37*
%LPC*%
G36*
X-21983Y-83287D02*
X-21983Y-83287D01*
X-24787Y-80483D01*
X-24787Y-76517D01*
X-21912Y-73643D01*
X-21835Y-73543D01*
X-21753Y-73448D01*
X-21743Y-73426D01*
X-21737Y-73420D01*
X-21734Y-73412D01*
X-21719Y-73393D01*
X-21669Y-73277D01*
X-21614Y-73165D01*
X-21609Y-73142D01*
X-21605Y-73133D01*
X-21604Y-73124D01*
X-21595Y-73103D01*
X-21576Y-72979D01*
X-21550Y-72856D01*
X-21551Y-72833D01*
X-21549Y-72822D01*
X-21550Y-72813D01*
X-21547Y-72792D01*
X-21560Y-72666D01*
X-21566Y-72541D01*
X-21572Y-72520D01*
X-21573Y-72508D01*
X-21577Y-72497D01*
X-21579Y-72478D01*
X-21622Y-72360D01*
X-21660Y-72240D01*
X-21669Y-72226D01*
X-21675Y-72209D01*
X-21682Y-72199D01*
X-21688Y-72182D01*
X-21777Y-72054D01*
X-21848Y-71946D01*
X-21859Y-71936D01*
X-21868Y-71923D01*
X-21898Y-71897D01*
X-21912Y-71876D01*
X-24515Y-69274D01*
X-24601Y-69207D01*
X-24683Y-69133D01*
X-24726Y-69110D01*
X-24764Y-69081D01*
X-24865Y-69037D01*
X-24962Y-68986D01*
X-24999Y-68980D01*
X-25054Y-68956D01*
X-25366Y-68908D01*
X-25385Y-68910D01*
X-25398Y-68908D01*
X-26825Y-68908D01*
X-28876Y-66857D01*
X-28876Y-64657D01*
X-28892Y-64533D01*
X-28901Y-64407D01*
X-28912Y-64376D01*
X-28916Y-64344D01*
X-28962Y-64228D01*
X-29003Y-64108D01*
X-29021Y-64081D01*
X-29033Y-64051D01*
X-29107Y-63950D01*
X-29176Y-63845D01*
X-29200Y-63823D01*
X-29219Y-63797D01*
X-29317Y-63717D01*
X-29410Y-63633D01*
X-29439Y-63618D01*
X-29464Y-63597D01*
X-29578Y-63545D01*
X-29689Y-63486D01*
X-29715Y-63482D01*
X-29750Y-63466D01*
X-30061Y-63410D01*
X-30100Y-63413D01*
X-30125Y-63408D01*
X-41151Y-63408D01*
X-41260Y-63422D01*
X-41369Y-63427D01*
X-41416Y-63442D01*
X-41464Y-63448D01*
X-41566Y-63489D01*
X-41671Y-63521D01*
X-41701Y-63543D01*
X-41757Y-63565D01*
X-42011Y-63751D01*
X-42023Y-63766D01*
X-42034Y-63774D01*
X-45611Y-67351D01*
X-53022Y-67351D01*
X-68406Y-51967D01*
X-68493Y-51899D01*
X-68574Y-51826D01*
X-68617Y-51803D01*
X-68655Y-51773D01*
X-68757Y-51730D01*
X-68854Y-51679D01*
X-68891Y-51672D01*
X-68945Y-51649D01*
X-69257Y-51601D01*
X-69276Y-51603D01*
X-69289Y-51601D01*
X-71856Y-51601D01*
X-73265Y-50192D01*
X-73351Y-50124D01*
X-73433Y-50051D01*
X-73476Y-50028D01*
X-73514Y-49998D01*
X-73615Y-49955D01*
X-73712Y-49904D01*
X-73749Y-49897D01*
X-73804Y-49874D01*
X-74116Y-49826D01*
X-74135Y-49828D01*
X-74148Y-49826D01*
X-75575Y-49826D01*
X-77626Y-47775D01*
X-77626Y-44875D01*
X-75564Y-42813D01*
X-75525Y-42808D01*
X-75400Y-42799D01*
X-75369Y-42788D01*
X-75337Y-42784D01*
X-75220Y-42738D01*
X-75101Y-42697D01*
X-75074Y-42679D01*
X-75044Y-42667D01*
X-74943Y-42593D01*
X-74837Y-42524D01*
X-74816Y-42500D01*
X-74790Y-42481D01*
X-74710Y-42383D01*
X-74626Y-42290D01*
X-74611Y-42261D01*
X-74590Y-42236D01*
X-74537Y-42122D01*
X-74479Y-42011D01*
X-74475Y-41985D01*
X-74458Y-41950D01*
X-74402Y-41639D01*
X-74405Y-41605D01*
X-74402Y-41591D01*
X-74403Y-41586D01*
X-74401Y-41575D01*
X-74401Y-25486D01*
X-74419Y-25346D01*
X-74433Y-25204D01*
X-74439Y-25189D01*
X-74441Y-25173D01*
X-74493Y-25041D01*
X-74542Y-24908D01*
X-74552Y-24895D01*
X-74558Y-24880D01*
X-74642Y-24765D01*
X-74722Y-24649D01*
X-74735Y-24639D01*
X-74744Y-24626D01*
X-74854Y-24536D01*
X-74962Y-24444D01*
X-74976Y-24437D01*
X-74989Y-24426D01*
X-75117Y-24367D01*
X-75245Y-24304D01*
X-75261Y-24301D01*
X-75275Y-24294D01*
X-75415Y-24269D01*
X-75554Y-24241D01*
X-75570Y-24241D01*
X-75586Y-24239D01*
X-75727Y-24249D01*
X-75869Y-24256D01*
X-75884Y-24261D01*
X-75900Y-24262D01*
X-76035Y-24308D01*
X-76170Y-24350D01*
X-76181Y-24358D01*
X-76199Y-24364D01*
X-76463Y-24537D01*
X-76503Y-24581D01*
X-76533Y-24603D01*
X-76617Y-24687D01*
X-80583Y-24687D01*
X-83387Y-21883D01*
X-83387Y-17917D01*
X-81253Y-15783D01*
X-81176Y-15684D01*
X-81094Y-15588D01*
X-81079Y-15559D01*
X-81060Y-15534D01*
X-81010Y-15418D01*
X-80954Y-15305D01*
X-80948Y-15274D01*
X-80935Y-15244D01*
X-80916Y-15119D01*
X-80891Y-14996D01*
X-80892Y-14964D01*
X-80887Y-14932D01*
X-80900Y-14807D01*
X-80906Y-14681D01*
X-80916Y-14650D01*
X-80919Y-14618D01*
X-80963Y-14500D01*
X-81000Y-14380D01*
X-81015Y-14359D01*
X-81029Y-14322D01*
X-81209Y-14063D01*
X-81238Y-14038D01*
X-81253Y-14017D01*
X-83387Y-11883D01*
X-83387Y-7917D01*
X-81253Y-5783D01*
X-81176Y-5684D01*
X-81094Y-5588D01*
X-81079Y-5559D01*
X-81060Y-5534D01*
X-81010Y-5418D01*
X-80954Y-5305D01*
X-80948Y-5274D01*
X-80935Y-5244D01*
X-80916Y-5119D01*
X-80891Y-4996D01*
X-80892Y-4964D01*
X-80887Y-4932D01*
X-80900Y-4807D01*
X-80906Y-4681D01*
X-80916Y-4650D01*
X-80919Y-4618D01*
X-80963Y-4500D01*
X-81000Y-4380D01*
X-81015Y-4359D01*
X-81029Y-4322D01*
X-81209Y-4063D01*
X-81238Y-4038D01*
X-81253Y-4017D01*
X-83387Y-1883D01*
X-83387Y2083D01*
X-81253Y4217D01*
X-81176Y4316D01*
X-81094Y4412D01*
X-81079Y4441D01*
X-81060Y4466D01*
X-81010Y4582D01*
X-80954Y4695D01*
X-80948Y4726D01*
X-80935Y4756D01*
X-80916Y4881D01*
X-80891Y5004D01*
X-80892Y5036D01*
X-80887Y5068D01*
X-80900Y5193D01*
X-80906Y5319D01*
X-80916Y5350D01*
X-80919Y5382D01*
X-80963Y5500D01*
X-81000Y5620D01*
X-81015Y5641D01*
X-81029Y5678D01*
X-81209Y5937D01*
X-81238Y5962D01*
X-81253Y5983D01*
X-83387Y8117D01*
X-83387Y12083D01*
X-81253Y14217D01*
X-81176Y14316D01*
X-81094Y14412D01*
X-81079Y14441D01*
X-81060Y14466D01*
X-81010Y14582D01*
X-80954Y14695D01*
X-80948Y14726D01*
X-80935Y14756D01*
X-80916Y14881D01*
X-80891Y15004D01*
X-80892Y15036D01*
X-80887Y15068D01*
X-80900Y15193D01*
X-80906Y15319D01*
X-80916Y15350D01*
X-80919Y15382D01*
X-80963Y15500D01*
X-81000Y15620D01*
X-81015Y15641D01*
X-81029Y15678D01*
X-81209Y15937D01*
X-81238Y15962D01*
X-81253Y15983D01*
X-83387Y18117D01*
X-83387Y22083D01*
X-80583Y24887D01*
X-76617Y24887D01*
X-76600Y24870D01*
X-76488Y24783D01*
X-76378Y24693D01*
X-76363Y24686D01*
X-76351Y24676D01*
X-76221Y24621D01*
X-76092Y24561D01*
X-76076Y24558D01*
X-76061Y24552D01*
X-75921Y24530D01*
X-75781Y24505D01*
X-75765Y24507D01*
X-75749Y24504D01*
X-75608Y24518D01*
X-75466Y24529D01*
X-75451Y24534D01*
X-75435Y24536D01*
X-75302Y24585D01*
X-75168Y24631D01*
X-75154Y24640D01*
X-75139Y24645D01*
X-75023Y24726D01*
X-74904Y24804D01*
X-74893Y24816D01*
X-74880Y24825D01*
X-74788Y24932D01*
X-74692Y25038D01*
X-74685Y25052D01*
X-74674Y25065D01*
X-74612Y25192D01*
X-74546Y25317D01*
X-74544Y25330D01*
X-74535Y25348D01*
X-74471Y25657D01*
X-74474Y25716D01*
X-74468Y25753D01*
X-74468Y27017D01*
X-73458Y28026D01*
X-73391Y28113D01*
X-73317Y28194D01*
X-73295Y28237D01*
X-73265Y28275D01*
X-73222Y28376D01*
X-73171Y28474D01*
X-73164Y28511D01*
X-73141Y28565D01*
X-73093Y28877D01*
X-73095Y28896D01*
X-73093Y28909D01*
X-73093Y40187D01*
X-54717Y58563D01*
X-54649Y58649D01*
X-54576Y58731D01*
X-54553Y58774D01*
X-54523Y58812D01*
X-54480Y58913D01*
X-54429Y59010D01*
X-54422Y59047D01*
X-54399Y59102D01*
X-54351Y59414D01*
X-54353Y59433D01*
X-54351Y59446D01*
X-54351Y60289D01*
X-50311Y64329D01*
X-24539Y64329D01*
X-24430Y64343D01*
X-24320Y64348D01*
X-24274Y64363D01*
X-24226Y64369D01*
X-24124Y64410D01*
X-24019Y64442D01*
X-23989Y64464D01*
X-23933Y64486D01*
X-23679Y64672D01*
X-23667Y64687D01*
X-23656Y64695D01*
X-23267Y65084D01*
X-20850Y67501D01*
X-17950Y67501D01*
X-15899Y65450D01*
X-15899Y62124D01*
X-15880Y61973D01*
X-15876Y61944D01*
X-15874Y61910D01*
X-15871Y61903D01*
X-15861Y61817D01*
X-15860Y61814D01*
X-15859Y61811D01*
X-15802Y61667D01*
X-15745Y61524D01*
X-15744Y61521D01*
X-15742Y61518D01*
X-15646Y61387D01*
X-15560Y61268D01*
X-15558Y61266D01*
X-15556Y61264D01*
X-15434Y61164D01*
X-15316Y61068D01*
X-15314Y61066D01*
X-15311Y61065D01*
X-15168Y60999D01*
X-15030Y60934D01*
X-15027Y60934D01*
X-15025Y60933D01*
X-14872Y60905D01*
X-14720Y60877D01*
X-14718Y60877D01*
X-14714Y60877D01*
X-14400Y60900D01*
X-14327Y60925D01*
X-14281Y60931D01*
X-9550Y62394D01*
X-2552Y62868D01*
X-2486Y62881D01*
X-2418Y62885D01*
X-2332Y62912D01*
X-2243Y62929D01*
X-2182Y62959D01*
X-2181Y62959D01*
X-1453Y62959D01*
X-1328Y62975D01*
X-1203Y62984D01*
X-1172Y62995D01*
X-1140Y62999D01*
X-1023Y63045D01*
X-904Y63086D01*
X-877Y63104D01*
X-847Y63116D01*
X-745Y63190D01*
X-640Y63259D01*
X-619Y63283D01*
X-593Y63302D01*
X-513Y63400D01*
X-428Y63493D01*
X-413Y63522D01*
X-393Y63547D01*
X-340Y63661D01*
X-282Y63773D01*
X-277Y63798D01*
X-261Y63833D01*
X-205Y64144D01*
X-208Y64183D01*
X-204Y64208D01*
X-204Y64531D01*
X438Y65092D01*
X472Y65130D01*
X499Y65149D01*
X1101Y65751D01*
X1336Y65736D01*
X1654Y65714D01*
X1952Y65694D01*
X2002Y65697D01*
X2035Y65692D01*
X2966Y65692D01*
X3068Y65648D01*
X3272Y65617D01*
X3329Y65602D01*
X4125Y65549D01*
X4126Y65549D01*
X8998Y65223D01*
X21164Y62094D01*
X22522Y61461D01*
X22600Y61436D01*
X22675Y61401D01*
X22750Y61388D01*
X22822Y61365D01*
X22905Y61360D01*
X22986Y61345D01*
X23061Y61351D01*
X23137Y61347D01*
X23218Y61363D01*
X23300Y61369D01*
X23372Y61393D01*
X23447Y61408D01*
X23521Y61444D01*
X23599Y61471D01*
X23663Y61512D01*
X23731Y61545D01*
X23794Y61599D01*
X23863Y61644D01*
X23914Y61700D01*
X23971Y61749D01*
X24019Y61817D01*
X24074Y61878D01*
X24110Y61945D01*
X24153Y62007D01*
X24183Y62084D01*
X24221Y62157D01*
X24231Y62211D01*
X24265Y62302D01*
X24292Y62555D01*
X24299Y62593D01*
X24299Y63250D01*
X26350Y65301D01*
X29250Y65301D01*
X31301Y63250D01*
X31301Y61823D01*
X31315Y61714D01*
X31320Y61604D01*
X31334Y61558D01*
X31341Y61510D01*
X31381Y61408D01*
X31414Y61303D01*
X31436Y61272D01*
X31458Y61217D01*
X31644Y60963D01*
X31659Y60950D01*
X31667Y60940D01*
X32776Y59830D01*
X32863Y59763D01*
X32944Y59689D01*
X32987Y59667D01*
X33025Y59637D01*
X33126Y59594D01*
X33224Y59543D01*
X33261Y59536D01*
X33315Y59513D01*
X33627Y59465D01*
X33646Y59467D01*
X33659Y59465D01*
X36544Y59465D01*
X44242Y51767D01*
X44329Y51699D01*
X44410Y51626D01*
X44453Y51603D01*
X44491Y51573D01*
X44593Y51530D01*
X44690Y51479D01*
X44727Y51472D01*
X44781Y51449D01*
X45093Y51401D01*
X45112Y51403D01*
X45125Y51401D01*
X55093Y51401D01*
X64901Y41593D01*
X64901Y38809D01*
X64915Y38700D01*
X64920Y38590D01*
X64934Y38544D01*
X64941Y38496D01*
X64981Y38394D01*
X65014Y38289D01*
X65036Y38258D01*
X65058Y38203D01*
X65244Y37948D01*
X65259Y37936D01*
X65267Y37925D01*
X68812Y34381D01*
X68812Y-7802D01*
X68825Y-7911D01*
X68831Y-8021D01*
X68836Y-8038D01*
X68837Y-8048D01*
X68846Y-8075D01*
X68851Y-8115D01*
X68892Y-8217D01*
X68925Y-8322D01*
X68936Y-8337D01*
X68939Y-8346D01*
X68952Y-8366D01*
X68968Y-8408D01*
X69073Y-8550D01*
X69112Y-8610D01*
X69126Y-8622D01*
X69155Y-8662D01*
X69170Y-8675D01*
X69177Y-8685D01*
X71581Y-11089D01*
X71692Y-11175D01*
X71803Y-11265D01*
X71817Y-11272D01*
X71830Y-11282D01*
X71960Y-11338D01*
X72089Y-11397D01*
X72105Y-11400D01*
X72120Y-11406D01*
X72261Y-11428D01*
X72400Y-11453D01*
X72416Y-11452D01*
X72432Y-11454D01*
X72573Y-11440D01*
X72714Y-11429D01*
X72730Y-11424D01*
X72746Y-11422D01*
X72878Y-11373D01*
X73013Y-11327D01*
X73027Y-11319D01*
X73042Y-11313D01*
X73158Y-11232D01*
X73277Y-11154D01*
X73288Y-11142D01*
X73301Y-11133D01*
X73393Y-11026D01*
X73488Y-10920D01*
X73496Y-10906D01*
X73506Y-10894D01*
X73569Y-10767D01*
X73635Y-10641D01*
X73637Y-10628D01*
X73646Y-10611D01*
X73710Y-10302D01*
X73707Y-10242D01*
X73713Y-10205D01*
X73713Y-8017D01*
X75847Y-5883D01*
X75924Y-5784D01*
X76006Y-5688D01*
X76021Y-5659D01*
X76040Y-5634D01*
X76090Y-5518D01*
X76146Y-5405D01*
X76152Y-5374D01*
X76165Y-5344D01*
X76184Y-5219D01*
X76209Y-5096D01*
X76208Y-5064D01*
X76213Y-5032D01*
X76200Y-4907D01*
X76194Y-4781D01*
X76184Y-4750D01*
X76181Y-4718D01*
X76137Y-4600D01*
X76100Y-4480D01*
X76085Y-4459D01*
X76071Y-4422D01*
X75891Y-4163D01*
X75862Y-4138D01*
X75847Y-4117D01*
X73713Y-1983D01*
X73713Y1983D01*
X75847Y4117D01*
X75924Y4216D01*
X76006Y4312D01*
X76021Y4341D01*
X76040Y4366D01*
X76090Y4482D01*
X76146Y4595D01*
X76152Y4626D01*
X76165Y4656D01*
X76184Y4781D01*
X76209Y4904D01*
X76208Y4936D01*
X76213Y4968D01*
X76200Y5093D01*
X76194Y5219D01*
X76184Y5250D01*
X76181Y5282D01*
X76137Y5400D01*
X76100Y5520D01*
X76085Y5541D01*
X76071Y5578D01*
X75891Y5837D01*
X75862Y5862D01*
X75847Y5883D01*
X73713Y8017D01*
X73713Y11983D01*
X75847Y14117D01*
X75924Y14216D01*
X76006Y14312D01*
X76021Y14341D01*
X76040Y14366D01*
X76090Y14482D01*
X76146Y14595D01*
X76152Y14626D01*
X76165Y14656D01*
X76184Y14781D01*
X76209Y14904D01*
X76208Y14936D01*
X76213Y14968D01*
X76200Y15093D01*
X76194Y15219D01*
X76184Y15250D01*
X76181Y15282D01*
X76137Y15400D01*
X76100Y15520D01*
X76085Y15541D01*
X76071Y15578D01*
X75891Y15837D01*
X75862Y15862D01*
X75847Y15883D01*
X73713Y18017D01*
X73713Y21983D01*
X76517Y24787D01*
X80483Y24787D01*
X83287Y21983D01*
X83287Y18017D01*
X81153Y15883D01*
X81076Y15784D01*
X80994Y15688D01*
X80979Y15659D01*
X80960Y15634D01*
X80910Y15518D01*
X80854Y15405D01*
X80848Y15374D01*
X80835Y15344D01*
X80816Y15219D01*
X80791Y15096D01*
X80792Y15064D01*
X80787Y15032D01*
X80800Y14907D01*
X80806Y14781D01*
X80816Y14750D01*
X80819Y14718D01*
X80863Y14600D01*
X80900Y14480D01*
X80915Y14459D01*
X80929Y14422D01*
X81109Y14163D01*
X81138Y14138D01*
X81153Y14117D01*
X83287Y11983D01*
X83287Y8017D01*
X81153Y5883D01*
X81076Y5784D01*
X80994Y5688D01*
X80979Y5659D01*
X80960Y5634D01*
X80910Y5518D01*
X80854Y5405D01*
X80848Y5374D01*
X80835Y5344D01*
X80816Y5219D01*
X80791Y5096D01*
X80792Y5064D01*
X80787Y5032D01*
X80800Y4907D01*
X80806Y4781D01*
X80816Y4750D01*
X80819Y4718D01*
X80863Y4600D01*
X80900Y4480D01*
X80915Y4459D01*
X80929Y4422D01*
X81109Y4163D01*
X81138Y4138D01*
X81153Y4117D01*
X83287Y1983D01*
X83287Y-1983D01*
X81153Y-4117D01*
X81076Y-4216D01*
X80994Y-4312D01*
X80979Y-4341D01*
X80960Y-4366D01*
X80910Y-4482D01*
X80854Y-4595D01*
X80848Y-4626D01*
X80835Y-4656D01*
X80816Y-4781D01*
X80791Y-4904D01*
X80792Y-4936D01*
X80787Y-4968D01*
X80800Y-5093D01*
X80806Y-5219D01*
X80816Y-5250D01*
X80819Y-5282D01*
X80863Y-5400D01*
X80900Y-5520D01*
X80915Y-5541D01*
X80929Y-5578D01*
X81109Y-5837D01*
X81138Y-5862D01*
X81153Y-5883D01*
X83287Y-8017D01*
X83287Y-11983D01*
X81153Y-14117D01*
X81076Y-14216D01*
X80994Y-14312D01*
X80979Y-14341D01*
X80960Y-14366D01*
X80910Y-14482D01*
X80854Y-14595D01*
X80848Y-14626D01*
X80835Y-14656D01*
X80816Y-14781D01*
X80791Y-14904D01*
X80792Y-14936D01*
X80787Y-14968D01*
X80800Y-15093D01*
X80806Y-15219D01*
X80816Y-15250D01*
X80819Y-15282D01*
X80863Y-15400D01*
X80900Y-15520D01*
X80915Y-15541D01*
X80929Y-15578D01*
X81109Y-15837D01*
X81138Y-15862D01*
X81153Y-15883D01*
X83287Y-18017D01*
X83287Y-21983D01*
X80483Y-24787D01*
X76517Y-24787D01*
X73713Y-21983D01*
X73713Y-21415D01*
X73695Y-21275D01*
X73681Y-21134D01*
X73675Y-21118D01*
X73673Y-21102D01*
X73621Y-20971D01*
X73572Y-20838D01*
X73562Y-20824D01*
X73556Y-20809D01*
X73472Y-20695D01*
X73392Y-20579D01*
X73379Y-20568D01*
X73370Y-20555D01*
X73260Y-20465D01*
X73152Y-20373D01*
X73138Y-20366D01*
X73125Y-20356D01*
X72996Y-20296D01*
X72869Y-20234D01*
X72854Y-20230D01*
X72839Y-20224D01*
X72699Y-20198D01*
X72560Y-20170D01*
X72544Y-20171D01*
X72528Y-20168D01*
X72387Y-20178D01*
X72245Y-20185D01*
X72230Y-20190D01*
X72214Y-20191D01*
X72079Y-20237D01*
X71944Y-20279D01*
X71933Y-20287D01*
X71915Y-20293D01*
X71651Y-20467D01*
X71611Y-20511D01*
X71581Y-20532D01*
X71051Y-21061D01*
X70984Y-21148D01*
X70910Y-21230D01*
X70888Y-21273D01*
X70858Y-21311D01*
X70815Y-21412D01*
X70764Y-21509D01*
X70757Y-21546D01*
X70734Y-21601D01*
X70686Y-21913D01*
X70688Y-21932D01*
X70685Y-21945D01*
X70685Y-43708D01*
X57205Y-57188D01*
X57128Y-57288D01*
X57046Y-57383D01*
X57032Y-57412D01*
X57012Y-57437D01*
X56963Y-57553D01*
X56907Y-57666D01*
X56901Y-57698D01*
X56888Y-57727D01*
X56869Y-57852D01*
X56843Y-57975D01*
X56845Y-58007D01*
X56840Y-58039D01*
X56853Y-58165D01*
X56859Y-58290D01*
X56868Y-58321D01*
X56872Y-58353D01*
X56915Y-58471D01*
X56953Y-58591D01*
X56968Y-58613D01*
X56981Y-58649D01*
X57161Y-58908D01*
X57191Y-58933D01*
X57205Y-58955D01*
X59001Y-60750D01*
X59001Y-63650D01*
X56950Y-65701D01*
X54050Y-65701D01*
X53041Y-64692D01*
X52954Y-64624D01*
X52872Y-64551D01*
X52830Y-64528D01*
X52791Y-64498D01*
X52690Y-64455D01*
X52593Y-64404D01*
X52556Y-64397D01*
X52501Y-64374D01*
X52190Y-64326D01*
X52170Y-64328D01*
X52157Y-64326D01*
X50509Y-64326D01*
X50400Y-64340D01*
X50291Y-64345D01*
X50244Y-64359D01*
X50197Y-64366D01*
X50094Y-64406D01*
X49989Y-64439D01*
X49959Y-64461D01*
X49903Y-64483D01*
X49649Y-64669D01*
X49637Y-64684D01*
X49626Y-64692D01*
X43281Y-71037D01*
X31993Y-71037D01*
X31884Y-71051D01*
X31774Y-71057D01*
X31728Y-71071D01*
X31680Y-71077D01*
X31578Y-71118D01*
X31473Y-71151D01*
X31442Y-71172D01*
X31387Y-71194D01*
X31133Y-71381D01*
X31121Y-71396D01*
X31110Y-71403D01*
X28776Y-73737D01*
X25023Y-73737D01*
X24882Y-73755D01*
X24741Y-73769D01*
X24726Y-73775D01*
X24710Y-73777D01*
X24578Y-73830D01*
X24445Y-73879D01*
X24432Y-73888D01*
X24417Y-73894D01*
X24302Y-73978D01*
X24186Y-74059D01*
X24175Y-74071D01*
X24162Y-74081D01*
X24073Y-74190D01*
X23980Y-74298D01*
X23973Y-74313D01*
X23963Y-74325D01*
X23903Y-74454D01*
X23841Y-74581D01*
X23838Y-74597D01*
X23831Y-74612D01*
X23806Y-74752D01*
X23777Y-74890D01*
X23778Y-74906D01*
X23775Y-74922D01*
X23786Y-75064D01*
X23793Y-75205D01*
X23798Y-75221D01*
X23799Y-75237D01*
X23845Y-75371D01*
X23887Y-75506D01*
X23894Y-75517D01*
X23900Y-75536D01*
X24074Y-75799D01*
X24118Y-75839D01*
X24139Y-75870D01*
X24787Y-76517D01*
X24787Y-80483D01*
X21983Y-83287D01*
X18017Y-83287D01*
X15883Y-81153D01*
X15784Y-81076D01*
X15688Y-80994D01*
X15659Y-80979D01*
X15634Y-80960D01*
X15518Y-80910D01*
X15405Y-80854D01*
X15374Y-80848D01*
X15344Y-80835D01*
X15219Y-80816D01*
X15096Y-80791D01*
X15064Y-80792D01*
X15032Y-80787D01*
X14907Y-80800D01*
X14781Y-80806D01*
X14750Y-80816D01*
X14718Y-80819D01*
X14600Y-80863D01*
X14480Y-80900D01*
X14459Y-80915D01*
X14422Y-80929D01*
X14163Y-81109D01*
X14138Y-81138D01*
X14117Y-81153D01*
X11983Y-83287D01*
X8017Y-83287D01*
X5883Y-81153D01*
X5784Y-81076D01*
X5688Y-80994D01*
X5659Y-80979D01*
X5634Y-80960D01*
X5518Y-80910D01*
X5405Y-80854D01*
X5374Y-80848D01*
X5344Y-80835D01*
X5219Y-80816D01*
X5096Y-80791D01*
X5064Y-80792D01*
X5032Y-80787D01*
X4907Y-80800D01*
X4781Y-80806D01*
X4750Y-80816D01*
X4718Y-80819D01*
X4600Y-80863D01*
X4480Y-80900D01*
X4459Y-80915D01*
X4422Y-80929D01*
X4163Y-81109D01*
X4138Y-81138D01*
X4117Y-81153D01*
X1983Y-83287D01*
X-1983Y-83287D01*
X-4117Y-81153D01*
X-4216Y-81076D01*
X-4312Y-80994D01*
X-4341Y-80979D01*
X-4366Y-80960D01*
X-4482Y-80910D01*
X-4595Y-80854D01*
X-4626Y-80848D01*
X-4656Y-80835D01*
X-4781Y-80816D01*
X-4904Y-80791D01*
X-4936Y-80792D01*
X-4968Y-80787D01*
X-5093Y-80800D01*
X-5219Y-80806D01*
X-5250Y-80816D01*
X-5282Y-80819D01*
X-5400Y-80863D01*
X-5520Y-80900D01*
X-5541Y-80915D01*
X-5578Y-80929D01*
X-5837Y-81109D01*
X-5862Y-81138D01*
X-5883Y-81153D01*
X-8017Y-83287D01*
X-11983Y-83287D01*
X-14117Y-81153D01*
X-14216Y-81076D01*
X-14312Y-80994D01*
X-14341Y-80979D01*
X-14366Y-80960D01*
X-14482Y-80910D01*
X-14595Y-80854D01*
X-14626Y-80848D01*
X-14656Y-80835D01*
X-14781Y-80816D01*
X-14904Y-80791D01*
X-14936Y-80792D01*
X-14968Y-80787D01*
X-15093Y-80800D01*
X-15219Y-80806D01*
X-15250Y-80816D01*
X-15282Y-80819D01*
X-15400Y-80863D01*
X-15520Y-80900D01*
X-15541Y-80915D01*
X-15578Y-80929D01*
X-15837Y-81109D01*
X-15862Y-81138D01*
X-15883Y-81153D01*
X-18017Y-83287D01*
X-21983Y-83287D01*
G37*
%LPD*%
%LPC*%
G36*
X121561Y107713D02*
X121561Y107713D01*
X115208Y110345D01*
X110345Y115208D01*
X107713Y121561D01*
X107713Y128439D01*
X110345Y134792D01*
X115208Y139655D01*
X121561Y142287D01*
X128439Y142287D01*
X134792Y139655D01*
X139655Y134792D01*
X142287Y128439D01*
X142287Y121561D01*
X139655Y115208D01*
X134792Y110345D01*
X128439Y107713D01*
X121561Y107713D01*
G37*
%LPD*%
%LPC*%
G36*
X-128439Y107713D02*
X-128439Y107713D01*
X-134792Y110345D01*
X-139655Y115208D01*
X-142287Y121561D01*
X-142287Y128439D01*
X-139655Y134792D01*
X-134792Y139655D01*
X-128439Y142287D01*
X-121561Y142287D01*
X-115208Y139655D01*
X-110345Y134792D01*
X-107713Y128439D01*
X-107713Y121561D01*
X-110345Y115208D01*
X-115208Y110345D01*
X-121561Y107713D01*
X-128439Y107713D01*
G37*
%LPD*%
%LPC*%
G36*
X121561Y-142287D02*
X121561Y-142287D01*
X115208Y-139655D01*
X110345Y-134792D01*
X107713Y-128439D01*
X107713Y-121561D01*
X110345Y-115208D01*
X115208Y-110345D01*
X121561Y-107713D01*
X128439Y-107713D01*
X134792Y-110345D01*
X139655Y-115208D01*
X142287Y-121561D01*
X142287Y-128439D01*
X139655Y-134792D01*
X134792Y-139655D01*
X128439Y-142287D01*
X121561Y-142287D01*
G37*
%LPD*%
%LPC*%
G36*
X-128439Y-142287D02*
X-128439Y-142287D01*
X-134792Y-139655D01*
X-139655Y-134792D01*
X-142287Y-128439D01*
X-142287Y-121561D01*
X-139655Y-115208D01*
X-134792Y-110345D01*
X-128439Y-107713D01*
X-121561Y-107713D01*
X-115208Y-110345D01*
X-110345Y-115208D01*
X-107713Y-121561D01*
X-107713Y-128439D01*
X-110345Y-134792D01*
X-115208Y-139655D01*
X-121561Y-142287D01*
X-128439Y-142287D01*
G37*
%LPD*%
G36*
X-72487Y-13627D02*
X-72487Y-13627D01*
X-72345Y-13620D01*
X-72330Y-13615D01*
X-72314Y-13614D01*
X-72179Y-13568D01*
X-72044Y-13526D01*
X-72033Y-13518D01*
X-72015Y-13512D01*
X-71751Y-13338D01*
X-71711Y-13294D01*
X-71681Y-13273D01*
X-69667Y-11259D01*
X-69599Y-11172D01*
X-69526Y-11091D01*
X-69503Y-11048D01*
X-69473Y-11009D01*
X-69430Y-10908D01*
X-69379Y-10811D01*
X-69372Y-10774D01*
X-69349Y-10720D01*
X-69301Y-10408D01*
X-69303Y-10389D01*
X-69301Y-10376D01*
X-69301Y-9850D01*
X-67250Y-7799D01*
X-64350Y-7799D01*
X-64241Y-7908D01*
X-64221Y-7924D01*
X-64203Y-7944D01*
X-64096Y-8020D01*
X-63992Y-8101D01*
X-63968Y-8111D01*
X-63946Y-8127D01*
X-63823Y-8174D01*
X-63702Y-8226D01*
X-63676Y-8230D01*
X-63651Y-8239D01*
X-63520Y-8253D01*
X-63390Y-8273D01*
X-63364Y-8271D01*
X-63338Y-8274D01*
X-63207Y-8255D01*
X-63076Y-8242D01*
X-63051Y-8232D01*
X-63025Y-8229D01*
X-62904Y-8178D01*
X-62780Y-8132D01*
X-62759Y-8117D01*
X-62734Y-8107D01*
X-62629Y-8027D01*
X-62521Y-7952D01*
X-62504Y-7932D01*
X-62483Y-7916D01*
X-62401Y-7813D01*
X-62315Y-7713D01*
X-62304Y-7689D01*
X-62288Y-7669D01*
X-62234Y-7548D01*
X-62176Y-7430D01*
X-62171Y-7404D01*
X-62160Y-7380D01*
X-62154Y-7321D01*
X-62112Y-7121D01*
X-62118Y-7001D01*
X-62112Y-6940D01*
X-62368Y-3152D01*
X-62381Y-3086D01*
X-62385Y-3018D01*
X-62412Y-2931D01*
X-62429Y-2843D01*
X-62459Y-2782D01*
X-62459Y-2781D01*
X-62459Y-1860D01*
X-62465Y-1809D01*
X-62462Y-1776D01*
X-62462Y-1769D01*
X-62478Y-1687D01*
X-62485Y-1603D01*
X-62496Y-1570D01*
X-62499Y-1547D01*
X-62513Y-1512D01*
X-62523Y-1460D01*
X-62559Y-1384D01*
X-62586Y-1304D01*
X-62610Y-1268D01*
X-62616Y-1254D01*
X-62632Y-1231D01*
X-62659Y-1175D01*
X-62713Y-1111D01*
X-62760Y-1040D01*
X-62798Y-1006D01*
X-62802Y-1000D01*
X-62818Y-987D01*
X-62862Y-934D01*
X-62931Y-885D01*
X-62994Y-828D01*
X-63045Y-802D01*
X-63047Y-800D01*
X-63055Y-796D01*
X-63059Y-794D01*
X-63120Y-751D01*
X-63198Y-721D01*
X-63273Y-682D01*
X-63323Y-673D01*
X-63333Y-668D01*
X-63341Y-667D01*
X-63414Y-639D01*
X-63631Y-615D01*
X-63644Y-612D01*
X-63649Y-613D01*
X-63675Y-610D01*
X-63709Y-604D01*
X-64031Y-604D01*
X-64592Y38D01*
X-64630Y72D01*
X-64649Y99D01*
X-65251Y701D01*
X-65236Y936D01*
X-65215Y1248D01*
X-65215Y1249D01*
X-65194Y1552D01*
X-65197Y1602D01*
X-65192Y1635D01*
X-65192Y2566D01*
X-65148Y2668D01*
X-65117Y2872D01*
X-65102Y2929D01*
X-65049Y3725D01*
X-65049Y3726D01*
X-64723Y8598D01*
X-61594Y20764D01*
X-57741Y29022D01*
X-57716Y29100D01*
X-57681Y29175D01*
X-57668Y29250D01*
X-57645Y29322D01*
X-57640Y29405D01*
X-57626Y29486D01*
X-57631Y29562D01*
X-57627Y29637D01*
X-57643Y29718D01*
X-57649Y29800D01*
X-57674Y29872D01*
X-57689Y29947D01*
X-57724Y30021D01*
X-57751Y30099D01*
X-57793Y30163D01*
X-57826Y30231D01*
X-57879Y30294D01*
X-57924Y30363D01*
X-57981Y30414D01*
X-58030Y30471D01*
X-58097Y30519D01*
X-58158Y30574D01*
X-58226Y30610D01*
X-58287Y30653D01*
X-58365Y30683D01*
X-58438Y30721D01*
X-58492Y30731D01*
X-58583Y30765D01*
X-58835Y30792D01*
X-58873Y30799D01*
X-60850Y30799D01*
X-62901Y32850D01*
X-62901Y35750D01*
X-62517Y36134D01*
X-62449Y36221D01*
X-62376Y36303D01*
X-62353Y36345D01*
X-62323Y36384D01*
X-62280Y36485D01*
X-62229Y36582D01*
X-62222Y36619D01*
X-62199Y36674D01*
X-62151Y36985D01*
X-62153Y37005D01*
X-62151Y37018D01*
X-62151Y42100D01*
X-62169Y42240D01*
X-62183Y42382D01*
X-62189Y42397D01*
X-62191Y42413D01*
X-62243Y42545D01*
X-62292Y42678D01*
X-62302Y42691D01*
X-62308Y42706D01*
X-62392Y42821D01*
X-62472Y42937D01*
X-62485Y42947D01*
X-62494Y42960D01*
X-62604Y43050D01*
X-62712Y43143D01*
X-62726Y43150D01*
X-62739Y43160D01*
X-62868Y43219D01*
X-62995Y43282D01*
X-63011Y43285D01*
X-63025Y43292D01*
X-63165Y43317D01*
X-63304Y43346D01*
X-63320Y43345D01*
X-63336Y43348D01*
X-63477Y43337D01*
X-63619Y43330D01*
X-63634Y43325D01*
X-63650Y43324D01*
X-63785Y43278D01*
X-63920Y43236D01*
X-63931Y43228D01*
X-63949Y43222D01*
X-64213Y43049D01*
X-64253Y43005D01*
X-64283Y42983D01*
X-68475Y38792D01*
X-68542Y38705D01*
X-68616Y38623D01*
X-68639Y38580D01*
X-68668Y38542D01*
X-68712Y38441D01*
X-68763Y38344D01*
X-68769Y38307D01*
X-68793Y38252D01*
X-68841Y37940D01*
X-68839Y37921D01*
X-68841Y37908D01*
X-68841Y28909D01*
X-68827Y28800D01*
X-68822Y28690D01*
X-68807Y28644D01*
X-68801Y28596D01*
X-68760Y28494D01*
X-68728Y28389D01*
X-68706Y28359D01*
X-68684Y28303D01*
X-68498Y28049D01*
X-68483Y28037D01*
X-68475Y28026D01*
X-67466Y27017D01*
X-67466Y24117D01*
X-69517Y22066D01*
X-72564Y22066D01*
X-72689Y22050D01*
X-72814Y22041D01*
X-72845Y22030D01*
X-72877Y22026D01*
X-72994Y21980D01*
X-73113Y21939D01*
X-73140Y21921D01*
X-73170Y21909D01*
X-73271Y21835D01*
X-73377Y21766D01*
X-73398Y21742D01*
X-73424Y21723D01*
X-73504Y21625D01*
X-73588Y21532D01*
X-73603Y21503D01*
X-73624Y21478D01*
X-73677Y21364D01*
X-73735Y21252D01*
X-73739Y21227D01*
X-73756Y21192D01*
X-73812Y20881D01*
X-73809Y20842D01*
X-73813Y20817D01*
X-73813Y18117D01*
X-75947Y15983D01*
X-76024Y15884D01*
X-76106Y15788D01*
X-76121Y15759D01*
X-76140Y15734D01*
X-76190Y15618D01*
X-76246Y15505D01*
X-76252Y15474D01*
X-76265Y15444D01*
X-76284Y15319D01*
X-76309Y15196D01*
X-76308Y15164D01*
X-76313Y15132D01*
X-76300Y15007D01*
X-76294Y14881D01*
X-76284Y14850D01*
X-76281Y14818D01*
X-76237Y14700D01*
X-76200Y14580D01*
X-76185Y14559D01*
X-76171Y14522D01*
X-75991Y14263D01*
X-75962Y14238D01*
X-75947Y14217D01*
X-73813Y12083D01*
X-73813Y8117D01*
X-75947Y5983D01*
X-76024Y5884D01*
X-76106Y5788D01*
X-76121Y5759D01*
X-76140Y5734D01*
X-76190Y5618D01*
X-76246Y5505D01*
X-76252Y5474D01*
X-76265Y5444D01*
X-76284Y5319D01*
X-76309Y5196D01*
X-76308Y5164D01*
X-76313Y5132D01*
X-76300Y5007D01*
X-76294Y4881D01*
X-76284Y4850D01*
X-76281Y4818D01*
X-76237Y4700D01*
X-76200Y4580D01*
X-76185Y4559D01*
X-76171Y4522D01*
X-75991Y4263D01*
X-75962Y4238D01*
X-75947Y4217D01*
X-73813Y2083D01*
X-73813Y-1883D01*
X-75947Y-4017D01*
X-76024Y-4116D01*
X-76106Y-4212D01*
X-76121Y-4241D01*
X-76140Y-4266D01*
X-76190Y-4382D01*
X-76246Y-4495D01*
X-76252Y-4526D01*
X-76265Y-4556D01*
X-76284Y-4681D01*
X-76309Y-4804D01*
X-76308Y-4836D01*
X-76313Y-4868D01*
X-76300Y-4993D01*
X-76294Y-5119D01*
X-76284Y-5150D01*
X-76281Y-5182D01*
X-76237Y-5300D01*
X-76200Y-5420D01*
X-76185Y-5441D01*
X-76171Y-5478D01*
X-75991Y-5737D01*
X-75962Y-5762D01*
X-75947Y-5783D01*
X-73813Y-7917D01*
X-73813Y-12390D01*
X-73795Y-12530D01*
X-73781Y-12671D01*
X-73775Y-12687D01*
X-73773Y-12703D01*
X-73721Y-12834D01*
X-73672Y-12967D01*
X-73662Y-12981D01*
X-73656Y-12996D01*
X-73573Y-13110D01*
X-73492Y-13226D01*
X-73479Y-13237D01*
X-73470Y-13250D01*
X-73360Y-13340D01*
X-73252Y-13432D01*
X-73238Y-13439D01*
X-73225Y-13449D01*
X-73096Y-13509D01*
X-72969Y-13571D01*
X-72953Y-13575D01*
X-72939Y-13581D01*
X-72799Y-13606D01*
X-72660Y-13635D01*
X-72644Y-13634D01*
X-72628Y-13637D01*
X-72487Y-13627D01*
G37*
%LPC*%
G36*
X-21983Y93713D02*
X-21983Y93713D01*
X-24787Y96517D01*
X-24787Y100483D01*
X-21983Y103287D01*
X-18017Y103287D01*
X-15883Y101153D01*
X-15784Y101076D01*
X-15688Y100994D01*
X-15659Y100979D01*
X-15634Y100960D01*
X-15518Y100910D01*
X-15405Y100854D01*
X-15374Y100848D01*
X-15344Y100835D01*
X-15219Y100816D01*
X-15096Y100791D01*
X-15064Y100792D01*
X-15032Y100787D01*
X-14907Y100800D01*
X-14781Y100806D01*
X-14750Y100816D01*
X-14718Y100819D01*
X-14600Y100863D01*
X-14480Y100900D01*
X-14459Y100915D01*
X-14422Y100929D01*
X-14163Y101109D01*
X-14138Y101138D01*
X-14117Y101153D01*
X-11983Y103287D01*
X-8017Y103287D01*
X-5883Y101153D01*
X-5784Y101076D01*
X-5688Y100994D01*
X-5659Y100979D01*
X-5634Y100960D01*
X-5518Y100910D01*
X-5405Y100854D01*
X-5374Y100848D01*
X-5344Y100835D01*
X-5219Y100816D01*
X-5096Y100791D01*
X-5064Y100792D01*
X-5032Y100787D01*
X-4907Y100800D01*
X-4781Y100806D01*
X-4750Y100816D01*
X-4718Y100819D01*
X-4600Y100863D01*
X-4480Y100900D01*
X-4459Y100915D01*
X-4422Y100929D01*
X-4163Y101109D01*
X-4138Y101138D01*
X-4117Y101153D01*
X-1983Y103287D01*
X1983Y103287D01*
X4117Y101153D01*
X4216Y101076D01*
X4312Y100994D01*
X4341Y100979D01*
X4366Y100960D01*
X4482Y100910D01*
X4595Y100854D01*
X4626Y100848D01*
X4656Y100835D01*
X4781Y100816D01*
X4904Y100791D01*
X4936Y100792D01*
X4968Y100787D01*
X5093Y100800D01*
X5219Y100806D01*
X5250Y100816D01*
X5282Y100819D01*
X5400Y100863D01*
X5520Y100900D01*
X5541Y100915D01*
X5578Y100929D01*
X5837Y101109D01*
X5862Y101138D01*
X5883Y101153D01*
X8017Y103287D01*
X11983Y103287D01*
X14117Y101153D01*
X14216Y101076D01*
X14312Y100994D01*
X14341Y100979D01*
X14366Y100960D01*
X14482Y100910D01*
X14595Y100854D01*
X14626Y100848D01*
X14656Y100835D01*
X14781Y100816D01*
X14904Y100791D01*
X14936Y100792D01*
X14968Y100787D01*
X15093Y100800D01*
X15219Y100806D01*
X15250Y100816D01*
X15282Y100819D01*
X15400Y100863D01*
X15520Y100900D01*
X15541Y100915D01*
X15578Y100929D01*
X15837Y101109D01*
X15862Y101138D01*
X15883Y101153D01*
X18017Y103287D01*
X21983Y103287D01*
X24787Y100483D01*
X24787Y96517D01*
X21983Y93713D01*
X18017Y93713D01*
X15883Y95847D01*
X15784Y95924D01*
X15688Y96006D01*
X15659Y96021D01*
X15634Y96040D01*
X15518Y96090D01*
X15405Y96146D01*
X15374Y96152D01*
X15344Y96165D01*
X15219Y96184D01*
X15096Y96209D01*
X15064Y96208D01*
X15032Y96213D01*
X14907Y96200D01*
X14781Y96194D01*
X14750Y96184D01*
X14718Y96181D01*
X14600Y96137D01*
X14480Y96100D01*
X14459Y96085D01*
X14422Y96071D01*
X14163Y95891D01*
X14138Y95862D01*
X14117Y95847D01*
X11983Y93713D01*
X8017Y93713D01*
X5883Y95847D01*
X5784Y95924D01*
X5688Y96006D01*
X5659Y96021D01*
X5634Y96040D01*
X5518Y96090D01*
X5405Y96146D01*
X5374Y96152D01*
X5344Y96165D01*
X5219Y96184D01*
X5096Y96209D01*
X5064Y96208D01*
X5032Y96213D01*
X4907Y96200D01*
X4781Y96194D01*
X4750Y96184D01*
X4718Y96181D01*
X4600Y96137D01*
X4480Y96100D01*
X4459Y96085D01*
X4422Y96071D01*
X4163Y95891D01*
X4138Y95862D01*
X4117Y95847D01*
X1983Y93713D01*
X-1983Y93713D01*
X-4117Y95847D01*
X-4216Y95924D01*
X-4312Y96006D01*
X-4341Y96021D01*
X-4366Y96040D01*
X-4482Y96090D01*
X-4595Y96146D01*
X-4626Y96152D01*
X-4656Y96165D01*
X-4781Y96184D01*
X-4904Y96209D01*
X-4936Y96208D01*
X-4968Y96213D01*
X-5093Y96200D01*
X-5219Y96194D01*
X-5250Y96184D01*
X-5282Y96181D01*
X-5400Y96137D01*
X-5520Y96100D01*
X-5541Y96085D01*
X-5578Y96071D01*
X-5837Y95891D01*
X-5862Y95862D01*
X-5883Y95847D01*
X-8017Y93713D01*
X-11983Y93713D01*
X-14117Y95847D01*
X-14216Y95924D01*
X-14312Y96006D01*
X-14341Y96021D01*
X-14366Y96040D01*
X-14482Y96090D01*
X-14595Y96146D01*
X-14626Y96152D01*
X-14656Y96165D01*
X-14781Y96184D01*
X-14904Y96209D01*
X-14936Y96208D01*
X-14968Y96213D01*
X-15093Y96200D01*
X-15219Y96194D01*
X-15250Y96184D01*
X-15282Y96181D01*
X-15400Y96137D01*
X-15520Y96100D01*
X-15541Y96085D01*
X-15578Y96071D01*
X-15837Y95891D01*
X-15862Y95862D01*
X-15883Y95847D01*
X-18017Y93713D01*
X-21983Y93713D01*
G37*
%LPD*%
%LPC*%
G36*
X-21983Y73713D02*
X-21983Y73713D01*
X-24787Y76517D01*
X-24787Y80483D01*
X-21983Y83287D01*
X-18017Y83287D01*
X-15883Y81153D01*
X-15784Y81076D01*
X-15688Y80994D01*
X-15659Y80979D01*
X-15634Y80960D01*
X-15518Y80910D01*
X-15405Y80854D01*
X-15374Y80848D01*
X-15344Y80835D01*
X-15219Y80816D01*
X-15096Y80791D01*
X-15064Y80792D01*
X-15032Y80787D01*
X-14907Y80800D01*
X-14781Y80806D01*
X-14750Y80816D01*
X-14718Y80819D01*
X-14600Y80863D01*
X-14480Y80900D01*
X-14459Y80915D01*
X-14422Y80929D01*
X-14163Y81109D01*
X-14138Y81138D01*
X-14117Y81153D01*
X-11983Y83287D01*
X-8017Y83287D01*
X-5883Y81153D01*
X-5784Y81076D01*
X-5688Y80994D01*
X-5659Y80979D01*
X-5634Y80960D01*
X-5518Y80910D01*
X-5405Y80854D01*
X-5374Y80848D01*
X-5344Y80835D01*
X-5219Y80816D01*
X-5096Y80791D01*
X-5064Y80792D01*
X-5032Y80787D01*
X-4907Y80800D01*
X-4781Y80806D01*
X-4750Y80816D01*
X-4718Y80819D01*
X-4600Y80863D01*
X-4480Y80900D01*
X-4459Y80915D01*
X-4422Y80929D01*
X-4163Y81109D01*
X-4138Y81138D01*
X-4117Y81153D01*
X-1983Y83287D01*
X1983Y83287D01*
X4117Y81153D01*
X4216Y81076D01*
X4312Y80994D01*
X4341Y80979D01*
X4366Y80960D01*
X4482Y80910D01*
X4595Y80854D01*
X4626Y80848D01*
X4656Y80835D01*
X4781Y80816D01*
X4904Y80791D01*
X4936Y80792D01*
X4968Y80787D01*
X5093Y80800D01*
X5219Y80806D01*
X5250Y80816D01*
X5282Y80819D01*
X5400Y80863D01*
X5520Y80900D01*
X5541Y80915D01*
X5578Y80929D01*
X5837Y81109D01*
X5862Y81138D01*
X5883Y81153D01*
X8017Y83287D01*
X11983Y83287D01*
X14117Y81153D01*
X14216Y81076D01*
X14312Y80994D01*
X14341Y80979D01*
X14366Y80960D01*
X14482Y80910D01*
X14595Y80854D01*
X14626Y80848D01*
X14656Y80835D01*
X14781Y80816D01*
X14904Y80791D01*
X14936Y80792D01*
X14968Y80787D01*
X15093Y80800D01*
X15219Y80806D01*
X15250Y80816D01*
X15282Y80819D01*
X15400Y80863D01*
X15520Y80900D01*
X15541Y80915D01*
X15578Y80929D01*
X15837Y81109D01*
X15862Y81138D01*
X15883Y81153D01*
X18017Y83287D01*
X21983Y83287D01*
X24787Y80483D01*
X24787Y76517D01*
X21983Y73713D01*
X18017Y73713D01*
X15883Y75847D01*
X15784Y75924D01*
X15688Y76006D01*
X15659Y76021D01*
X15634Y76040D01*
X15518Y76090D01*
X15405Y76146D01*
X15374Y76152D01*
X15344Y76165D01*
X15219Y76184D01*
X15096Y76209D01*
X15064Y76208D01*
X15032Y76213D01*
X14907Y76200D01*
X14781Y76194D01*
X14750Y76184D01*
X14718Y76181D01*
X14600Y76137D01*
X14480Y76100D01*
X14459Y76085D01*
X14422Y76071D01*
X14163Y75891D01*
X14138Y75862D01*
X14117Y75847D01*
X11983Y73713D01*
X8017Y73713D01*
X5883Y75847D01*
X5784Y75924D01*
X5688Y76006D01*
X5659Y76021D01*
X5634Y76040D01*
X5518Y76090D01*
X5405Y76146D01*
X5374Y76152D01*
X5344Y76165D01*
X5219Y76184D01*
X5096Y76209D01*
X5064Y76208D01*
X5032Y76213D01*
X4907Y76200D01*
X4781Y76194D01*
X4750Y76184D01*
X4718Y76181D01*
X4600Y76137D01*
X4480Y76100D01*
X4459Y76085D01*
X4422Y76071D01*
X4163Y75891D01*
X4138Y75862D01*
X4117Y75847D01*
X1983Y73713D01*
X-1983Y73713D01*
X-4117Y75847D01*
X-4216Y75924D01*
X-4312Y76006D01*
X-4341Y76021D01*
X-4366Y76040D01*
X-4482Y76090D01*
X-4595Y76146D01*
X-4626Y76152D01*
X-4656Y76165D01*
X-4781Y76184D01*
X-4904Y76209D01*
X-4936Y76208D01*
X-4968Y76213D01*
X-5093Y76200D01*
X-5219Y76194D01*
X-5250Y76184D01*
X-5282Y76181D01*
X-5400Y76137D01*
X-5520Y76100D01*
X-5541Y76085D01*
X-5578Y76071D01*
X-5837Y75891D01*
X-5862Y75862D01*
X-5883Y75847D01*
X-8017Y73713D01*
X-11983Y73713D01*
X-14117Y75847D01*
X-14216Y75924D01*
X-14312Y76006D01*
X-14341Y76021D01*
X-14366Y76040D01*
X-14482Y76090D01*
X-14595Y76146D01*
X-14626Y76152D01*
X-14656Y76165D01*
X-14781Y76184D01*
X-14904Y76209D01*
X-14936Y76208D01*
X-14968Y76213D01*
X-15093Y76200D01*
X-15219Y76194D01*
X-15250Y76184D01*
X-15282Y76181D01*
X-15400Y76137D01*
X-15520Y76100D01*
X-15541Y76085D01*
X-15578Y76071D01*
X-15837Y75891D01*
X-15862Y75862D01*
X-15883Y75847D01*
X-18017Y73713D01*
X-21983Y73713D01*
G37*
%LPD*%
%LPC*%
G36*
X-100583Y-24687D02*
X-100583Y-24687D01*
X-103387Y-21883D01*
X-103387Y-17917D01*
X-101253Y-15783D01*
X-101176Y-15684D01*
X-101094Y-15588D01*
X-101079Y-15559D01*
X-101060Y-15534D01*
X-101010Y-15418D01*
X-100954Y-15305D01*
X-100948Y-15274D01*
X-100935Y-15244D01*
X-100916Y-15119D01*
X-100891Y-14996D01*
X-100892Y-14964D01*
X-100887Y-14932D01*
X-100900Y-14807D01*
X-100906Y-14681D01*
X-100916Y-14650D01*
X-100919Y-14618D01*
X-100963Y-14500D01*
X-101000Y-14380D01*
X-101015Y-14359D01*
X-101029Y-14322D01*
X-101209Y-14063D01*
X-101238Y-14038D01*
X-101253Y-14017D01*
X-103387Y-11883D01*
X-103387Y-7917D01*
X-101253Y-5783D01*
X-101176Y-5684D01*
X-101094Y-5588D01*
X-101079Y-5559D01*
X-101060Y-5534D01*
X-101010Y-5418D01*
X-100954Y-5305D01*
X-100948Y-5274D01*
X-100935Y-5244D01*
X-100916Y-5119D01*
X-100891Y-4996D01*
X-100892Y-4964D01*
X-100887Y-4932D01*
X-100900Y-4807D01*
X-100906Y-4681D01*
X-100916Y-4650D01*
X-100919Y-4618D01*
X-100963Y-4500D01*
X-101000Y-4380D01*
X-101015Y-4359D01*
X-101029Y-4322D01*
X-101209Y-4063D01*
X-101238Y-4038D01*
X-101253Y-4017D01*
X-103387Y-1883D01*
X-103387Y2083D01*
X-101253Y4217D01*
X-101176Y4316D01*
X-101094Y4412D01*
X-101079Y4441D01*
X-101060Y4466D01*
X-101010Y4582D01*
X-100954Y4695D01*
X-100948Y4726D01*
X-100935Y4756D01*
X-100916Y4881D01*
X-100891Y5004D01*
X-100892Y5036D01*
X-100887Y5068D01*
X-100900Y5193D01*
X-100906Y5319D01*
X-100916Y5350D01*
X-100919Y5382D01*
X-100963Y5500D01*
X-101000Y5620D01*
X-101015Y5641D01*
X-101029Y5678D01*
X-101209Y5937D01*
X-101238Y5962D01*
X-101253Y5983D01*
X-103387Y8117D01*
X-103387Y12083D01*
X-101253Y14217D01*
X-101176Y14316D01*
X-101094Y14412D01*
X-101079Y14441D01*
X-101060Y14466D01*
X-101010Y14582D01*
X-100954Y14695D01*
X-100948Y14726D01*
X-100935Y14756D01*
X-100916Y14881D01*
X-100891Y15004D01*
X-100892Y15036D01*
X-100887Y15068D01*
X-100900Y15193D01*
X-100906Y15319D01*
X-100916Y15350D01*
X-100919Y15382D01*
X-100963Y15500D01*
X-101000Y15620D01*
X-101015Y15641D01*
X-101029Y15678D01*
X-101209Y15937D01*
X-101238Y15962D01*
X-101253Y15983D01*
X-103387Y18117D01*
X-103387Y22083D01*
X-100583Y24887D01*
X-96617Y24887D01*
X-93813Y22083D01*
X-93813Y18117D01*
X-95947Y15983D01*
X-96024Y15884D01*
X-96106Y15788D01*
X-96121Y15759D01*
X-96140Y15734D01*
X-96190Y15618D01*
X-96246Y15505D01*
X-96252Y15474D01*
X-96265Y15444D01*
X-96284Y15319D01*
X-96309Y15196D01*
X-96308Y15164D01*
X-96313Y15132D01*
X-96300Y15007D01*
X-96294Y14881D01*
X-96284Y14850D01*
X-96281Y14818D01*
X-96237Y14700D01*
X-96200Y14580D01*
X-96185Y14559D01*
X-96171Y14522D01*
X-95991Y14263D01*
X-95962Y14238D01*
X-95947Y14217D01*
X-93813Y12083D01*
X-93813Y8117D01*
X-95947Y5983D01*
X-96024Y5884D01*
X-96106Y5788D01*
X-96121Y5759D01*
X-96140Y5734D01*
X-96190Y5618D01*
X-96246Y5505D01*
X-96252Y5474D01*
X-96265Y5444D01*
X-96284Y5319D01*
X-96309Y5196D01*
X-96308Y5164D01*
X-96313Y5132D01*
X-96300Y5007D01*
X-96294Y4881D01*
X-96284Y4850D01*
X-96281Y4818D01*
X-96237Y4700D01*
X-96200Y4580D01*
X-96185Y4559D01*
X-96171Y4522D01*
X-95991Y4263D01*
X-95962Y4238D01*
X-95947Y4217D01*
X-93813Y2083D01*
X-93813Y-1883D01*
X-95947Y-4017D01*
X-96024Y-4116D01*
X-96106Y-4212D01*
X-96121Y-4241D01*
X-96140Y-4266D01*
X-96190Y-4382D01*
X-96246Y-4495D01*
X-96252Y-4526D01*
X-96265Y-4556D01*
X-96284Y-4681D01*
X-96309Y-4804D01*
X-96308Y-4836D01*
X-96313Y-4868D01*
X-96300Y-4993D01*
X-96294Y-5119D01*
X-96284Y-5150D01*
X-96281Y-5182D01*
X-96237Y-5300D01*
X-96200Y-5420D01*
X-96185Y-5441D01*
X-96171Y-5478D01*
X-95991Y-5737D01*
X-95962Y-5762D01*
X-95947Y-5783D01*
X-93813Y-7917D01*
X-93813Y-11883D01*
X-95947Y-14017D01*
X-96024Y-14116D01*
X-96106Y-14212D01*
X-96121Y-14241D01*
X-96140Y-14266D01*
X-96190Y-14382D01*
X-96246Y-14495D01*
X-96252Y-14526D01*
X-96265Y-14556D01*
X-96284Y-14681D01*
X-96309Y-14804D01*
X-96308Y-14836D01*
X-96313Y-14868D01*
X-96300Y-14993D01*
X-96294Y-15119D01*
X-96284Y-15150D01*
X-96281Y-15182D01*
X-96237Y-15300D01*
X-96200Y-15420D01*
X-96185Y-15441D01*
X-96171Y-15478D01*
X-95991Y-15737D01*
X-95962Y-15762D01*
X-95947Y-15783D01*
X-93813Y-17917D01*
X-93813Y-21883D01*
X-96617Y-24687D01*
X-100583Y-24687D01*
G37*
%LPD*%
%LPC*%
G36*
X-21983Y-103287D02*
X-21983Y-103287D01*
X-24787Y-100483D01*
X-24787Y-96517D01*
X-21983Y-93713D01*
X-18017Y-93713D01*
X-15883Y-95847D01*
X-15784Y-95924D01*
X-15688Y-96006D01*
X-15659Y-96021D01*
X-15634Y-96040D01*
X-15518Y-96090D01*
X-15405Y-96146D01*
X-15374Y-96152D01*
X-15344Y-96165D01*
X-15219Y-96184D01*
X-15096Y-96209D01*
X-15064Y-96208D01*
X-15032Y-96213D01*
X-14907Y-96200D01*
X-14781Y-96194D01*
X-14750Y-96184D01*
X-14718Y-96181D01*
X-14600Y-96137D01*
X-14480Y-96100D01*
X-14459Y-96085D01*
X-14422Y-96071D01*
X-14163Y-95891D01*
X-14138Y-95862D01*
X-14117Y-95847D01*
X-11983Y-93713D01*
X-8017Y-93713D01*
X-5883Y-95847D01*
X-5784Y-95924D01*
X-5688Y-96006D01*
X-5659Y-96021D01*
X-5634Y-96040D01*
X-5518Y-96090D01*
X-5405Y-96146D01*
X-5374Y-96152D01*
X-5344Y-96165D01*
X-5219Y-96184D01*
X-5096Y-96209D01*
X-5064Y-96208D01*
X-5032Y-96213D01*
X-4907Y-96200D01*
X-4781Y-96194D01*
X-4750Y-96184D01*
X-4718Y-96181D01*
X-4600Y-96137D01*
X-4480Y-96100D01*
X-4459Y-96085D01*
X-4422Y-96071D01*
X-4163Y-95891D01*
X-4138Y-95862D01*
X-4117Y-95847D01*
X-1983Y-93713D01*
X1983Y-93713D01*
X4117Y-95847D01*
X4216Y-95924D01*
X4312Y-96006D01*
X4341Y-96021D01*
X4366Y-96040D01*
X4482Y-96090D01*
X4595Y-96146D01*
X4626Y-96152D01*
X4656Y-96165D01*
X4781Y-96184D01*
X4904Y-96209D01*
X4936Y-96208D01*
X4968Y-96213D01*
X5093Y-96200D01*
X5219Y-96194D01*
X5250Y-96184D01*
X5282Y-96181D01*
X5400Y-96137D01*
X5520Y-96100D01*
X5541Y-96085D01*
X5578Y-96071D01*
X5837Y-95891D01*
X5862Y-95862D01*
X5883Y-95847D01*
X8017Y-93713D01*
X11983Y-93713D01*
X14117Y-95847D01*
X14216Y-95924D01*
X14312Y-96006D01*
X14341Y-96021D01*
X14366Y-96040D01*
X14482Y-96090D01*
X14595Y-96146D01*
X14626Y-96152D01*
X14656Y-96165D01*
X14781Y-96184D01*
X14904Y-96209D01*
X14936Y-96208D01*
X14968Y-96213D01*
X15093Y-96200D01*
X15219Y-96194D01*
X15250Y-96184D01*
X15282Y-96181D01*
X15400Y-96137D01*
X15520Y-96100D01*
X15541Y-96085D01*
X15578Y-96071D01*
X15837Y-95891D01*
X15862Y-95862D01*
X15883Y-95847D01*
X18017Y-93713D01*
X21983Y-93713D01*
X24787Y-96517D01*
X24787Y-100483D01*
X21983Y-103287D01*
X18017Y-103287D01*
X15883Y-101153D01*
X15784Y-101076D01*
X15688Y-100994D01*
X15659Y-100979D01*
X15634Y-100960D01*
X15518Y-100910D01*
X15405Y-100854D01*
X15374Y-100848D01*
X15344Y-100835D01*
X15219Y-100816D01*
X15096Y-100791D01*
X15064Y-100792D01*
X15032Y-100787D01*
X14907Y-100800D01*
X14781Y-100806D01*
X14750Y-100816D01*
X14718Y-100819D01*
X14600Y-100863D01*
X14480Y-100900D01*
X14459Y-100915D01*
X14422Y-100929D01*
X14163Y-101109D01*
X14138Y-101138D01*
X14117Y-101153D01*
X11983Y-103287D01*
X8017Y-103287D01*
X5883Y-101153D01*
X5784Y-101076D01*
X5688Y-100994D01*
X5659Y-100979D01*
X5634Y-100960D01*
X5518Y-100910D01*
X5405Y-100854D01*
X5374Y-100848D01*
X5344Y-100835D01*
X5219Y-100816D01*
X5096Y-100791D01*
X5064Y-100792D01*
X5032Y-100787D01*
X4907Y-100800D01*
X4781Y-100806D01*
X4750Y-100816D01*
X4718Y-100819D01*
X4600Y-100863D01*
X4480Y-100900D01*
X4459Y-100915D01*
X4422Y-100929D01*
X4163Y-101109D01*
X4138Y-101138D01*
X4117Y-101153D01*
X1983Y-103287D01*
X-1983Y-103287D01*
X-4117Y-101153D01*
X-4216Y-101076D01*
X-4312Y-100994D01*
X-4341Y-100979D01*
X-4366Y-100960D01*
X-4482Y-100910D01*
X-4595Y-100854D01*
X-4626Y-100848D01*
X-4656Y-100835D01*
X-4781Y-100816D01*
X-4904Y-100791D01*
X-4936Y-100792D01*
X-4968Y-100787D01*
X-5093Y-100800D01*
X-5219Y-100806D01*
X-5250Y-100816D01*
X-5282Y-100819D01*
X-5400Y-100863D01*
X-5520Y-100900D01*
X-5541Y-100915D01*
X-5578Y-100929D01*
X-5837Y-101109D01*
X-5862Y-101138D01*
X-5883Y-101153D01*
X-8017Y-103287D01*
X-11983Y-103287D01*
X-14117Y-101153D01*
X-14216Y-101076D01*
X-14312Y-100994D01*
X-14341Y-100979D01*
X-14366Y-100960D01*
X-14482Y-100910D01*
X-14595Y-100854D01*
X-14626Y-100848D01*
X-14656Y-100835D01*
X-14781Y-100816D01*
X-14904Y-100791D01*
X-14936Y-100792D01*
X-14968Y-100787D01*
X-15093Y-100800D01*
X-15219Y-100806D01*
X-15250Y-100816D01*
X-15282Y-100819D01*
X-15400Y-100863D01*
X-15520Y-100900D01*
X-15541Y-100915D01*
X-15578Y-100929D01*
X-15837Y-101109D01*
X-15862Y-101138D01*
X-15883Y-101153D01*
X-18017Y-103287D01*
X-21983Y-103287D01*
G37*
%LPD*%
%LPC*%
G36*
X96517Y-24787D02*
X96517Y-24787D01*
X93713Y-21983D01*
X93713Y-18017D01*
X95847Y-15883D01*
X95924Y-15784D01*
X96006Y-15688D01*
X96021Y-15659D01*
X96040Y-15634D01*
X96090Y-15518D01*
X96146Y-15405D01*
X96152Y-15374D01*
X96165Y-15344D01*
X96184Y-15219D01*
X96209Y-15096D01*
X96208Y-15064D01*
X96213Y-15032D01*
X96200Y-14907D01*
X96194Y-14781D01*
X96184Y-14750D01*
X96181Y-14718D01*
X96137Y-14600D01*
X96100Y-14480D01*
X96085Y-14459D01*
X96071Y-14422D01*
X95891Y-14163D01*
X95862Y-14138D01*
X95847Y-14117D01*
X93713Y-11983D01*
X93713Y-8017D01*
X95847Y-5883D01*
X95924Y-5784D01*
X96006Y-5688D01*
X96021Y-5659D01*
X96040Y-5634D01*
X96090Y-5518D01*
X96146Y-5405D01*
X96152Y-5374D01*
X96165Y-5344D01*
X96184Y-5219D01*
X96209Y-5096D01*
X96208Y-5064D01*
X96213Y-5032D01*
X96200Y-4907D01*
X96194Y-4781D01*
X96184Y-4750D01*
X96181Y-4718D01*
X96137Y-4600D01*
X96100Y-4480D01*
X96085Y-4459D01*
X96071Y-4422D01*
X95891Y-4163D01*
X95862Y-4138D01*
X95847Y-4117D01*
X93713Y-1983D01*
X93713Y1983D01*
X95847Y4117D01*
X95924Y4216D01*
X96006Y4312D01*
X96021Y4341D01*
X96040Y4366D01*
X96090Y4482D01*
X96146Y4595D01*
X96152Y4626D01*
X96165Y4656D01*
X96184Y4781D01*
X96209Y4904D01*
X96208Y4936D01*
X96213Y4968D01*
X96200Y5093D01*
X96194Y5219D01*
X96184Y5250D01*
X96181Y5282D01*
X96137Y5400D01*
X96100Y5520D01*
X96085Y5541D01*
X96071Y5578D01*
X95891Y5837D01*
X95862Y5862D01*
X95847Y5883D01*
X93713Y8017D01*
X93713Y11983D01*
X95847Y14117D01*
X95924Y14216D01*
X96006Y14312D01*
X96021Y14341D01*
X96040Y14366D01*
X96090Y14482D01*
X96146Y14595D01*
X96152Y14626D01*
X96165Y14656D01*
X96184Y14781D01*
X96209Y14904D01*
X96208Y14936D01*
X96213Y14968D01*
X96200Y15093D01*
X96194Y15219D01*
X96184Y15250D01*
X96181Y15282D01*
X96137Y15400D01*
X96100Y15520D01*
X96085Y15541D01*
X96071Y15578D01*
X95891Y15837D01*
X95862Y15862D01*
X95847Y15883D01*
X93713Y18017D01*
X93713Y21983D01*
X96517Y24787D01*
X100483Y24787D01*
X103287Y21983D01*
X103287Y18017D01*
X101153Y15883D01*
X101076Y15784D01*
X100994Y15688D01*
X100979Y15659D01*
X100960Y15634D01*
X100910Y15518D01*
X100854Y15405D01*
X100848Y15374D01*
X100835Y15344D01*
X100816Y15219D01*
X100791Y15096D01*
X100792Y15064D01*
X100787Y15032D01*
X100800Y14907D01*
X100806Y14781D01*
X100816Y14750D01*
X100819Y14718D01*
X100863Y14600D01*
X100900Y14480D01*
X100915Y14459D01*
X100929Y14422D01*
X101109Y14163D01*
X101138Y14138D01*
X101153Y14117D01*
X103287Y11983D01*
X103287Y8017D01*
X101153Y5883D01*
X101076Y5784D01*
X100994Y5688D01*
X100979Y5659D01*
X100960Y5634D01*
X100910Y5518D01*
X100854Y5405D01*
X100848Y5374D01*
X100835Y5344D01*
X100816Y5219D01*
X100791Y5096D01*
X100792Y5064D01*
X100787Y5032D01*
X100800Y4907D01*
X100806Y4781D01*
X100816Y4750D01*
X100819Y4718D01*
X100863Y4600D01*
X100900Y4480D01*
X100915Y4459D01*
X100929Y4422D01*
X101109Y4163D01*
X101138Y4138D01*
X101153Y4117D01*
X103287Y1983D01*
X103287Y-1983D01*
X101153Y-4117D01*
X101076Y-4216D01*
X100994Y-4312D01*
X100979Y-4341D01*
X100960Y-4366D01*
X100910Y-4482D01*
X100854Y-4595D01*
X100848Y-4626D01*
X100835Y-4656D01*
X100816Y-4781D01*
X100791Y-4904D01*
X100792Y-4936D01*
X100787Y-4968D01*
X100800Y-5093D01*
X100806Y-5219D01*
X100816Y-5250D01*
X100819Y-5282D01*
X100863Y-5400D01*
X100900Y-5520D01*
X100915Y-5541D01*
X100929Y-5578D01*
X101109Y-5837D01*
X101138Y-5862D01*
X101153Y-5883D01*
X103287Y-8017D01*
X103287Y-11983D01*
X101153Y-14117D01*
X101076Y-14216D01*
X100994Y-14312D01*
X100979Y-14341D01*
X100960Y-14366D01*
X100910Y-14482D01*
X100854Y-14595D01*
X100848Y-14626D01*
X100835Y-14656D01*
X100816Y-14781D01*
X100791Y-14904D01*
X100792Y-14936D01*
X100787Y-14968D01*
X100800Y-15093D01*
X100806Y-15219D01*
X100816Y-15250D01*
X100819Y-15282D01*
X100863Y-15400D01*
X100900Y-15520D01*
X100915Y-15541D01*
X100929Y-15578D01*
X101109Y-15837D01*
X101138Y-15862D01*
X101153Y-15883D01*
X103287Y-18017D01*
X103287Y-21983D01*
X100483Y-24787D01*
X96517Y-24787D01*
G37*
%LPD*%
G36*
X-58791Y-40762D02*
X-58791Y-40762D01*
X-58650Y-40751D01*
X-58634Y-40746D01*
X-58618Y-40744D01*
X-58486Y-40695D01*
X-58351Y-40649D01*
X-58337Y-40640D01*
X-58322Y-40635D01*
X-58206Y-40554D01*
X-58087Y-40476D01*
X-58076Y-40464D01*
X-58063Y-40455D01*
X-57971Y-40347D01*
X-57876Y-40242D01*
X-57868Y-40228D01*
X-57858Y-40216D01*
X-57795Y-40088D01*
X-57729Y-39963D01*
X-57727Y-39950D01*
X-57718Y-39932D01*
X-57654Y-39623D01*
X-57657Y-39564D01*
X-57651Y-39527D01*
X-57651Y-38246D01*
X-55454Y-36049D01*
X-52895Y-36049D01*
X-52754Y-36031D01*
X-52613Y-36017D01*
X-52598Y-36011D01*
X-52582Y-36009D01*
X-52450Y-35957D01*
X-52317Y-35908D01*
X-52304Y-35898D01*
X-52289Y-35892D01*
X-52174Y-35809D01*
X-52058Y-35728D01*
X-52047Y-35715D01*
X-52034Y-35706D01*
X-51944Y-35596D01*
X-51852Y-35488D01*
X-51845Y-35474D01*
X-51835Y-35461D01*
X-51775Y-35332D01*
X-51713Y-35205D01*
X-51710Y-35189D01*
X-51703Y-35175D01*
X-51678Y-35035D01*
X-51649Y-34896D01*
X-51650Y-34880D01*
X-51647Y-34864D01*
X-51658Y-34723D01*
X-51665Y-34581D01*
X-51669Y-34569D01*
X-51671Y-34550D01*
X-51772Y-34251D01*
X-51805Y-34201D01*
X-51818Y-34166D01*
X-57305Y-24847D01*
X-57382Y-24748D01*
X-57454Y-24645D01*
X-57479Y-24623D01*
X-57499Y-24598D01*
X-57598Y-24521D01*
X-57694Y-24439D01*
X-57722Y-24425D01*
X-57748Y-24405D01*
X-57864Y-24355D01*
X-57977Y-24300D01*
X-58008Y-24293D01*
X-58038Y-24280D01*
X-58163Y-24261D01*
X-58286Y-24236D01*
X-58318Y-24237D01*
X-58350Y-24232D01*
X-58475Y-24245D01*
X-58601Y-24251D01*
X-58632Y-24261D01*
X-58664Y-24264D01*
X-58782Y-24308D01*
X-58902Y-24345D01*
X-58923Y-24360D01*
X-58960Y-24374D01*
X-59219Y-24554D01*
X-59244Y-24583D01*
X-59265Y-24598D01*
X-60087Y-25420D01*
X-60154Y-25506D01*
X-60228Y-25588D01*
X-60251Y-25631D01*
X-60280Y-25669D01*
X-60324Y-25770D01*
X-60374Y-25867D01*
X-60381Y-25904D01*
X-60405Y-25959D01*
X-60452Y-26271D01*
X-60451Y-26290D01*
X-60453Y-26303D01*
X-60453Y-39223D01*
X-60439Y-39332D01*
X-60434Y-39442D01*
X-60419Y-39488D01*
X-60413Y-39536D01*
X-60372Y-39639D01*
X-60340Y-39743D01*
X-60318Y-39774D01*
X-60296Y-39829D01*
X-60109Y-40084D01*
X-60095Y-40096D01*
X-60087Y-40107D01*
X-59783Y-40410D01*
X-59671Y-40497D01*
X-59561Y-40587D01*
X-59547Y-40594D01*
X-59534Y-40604D01*
X-59404Y-40659D01*
X-59275Y-40719D01*
X-59259Y-40722D01*
X-59244Y-40728D01*
X-59104Y-40750D01*
X-58964Y-40775D01*
X-58948Y-40773D01*
X-58932Y-40776D01*
X-58791Y-40762D01*
G37*
D10*
X-6146Y55297D02*
X-6871Y55179D01*
X-54422Y9776D02*
X-54581Y9022D01*
X-9404Y52153D02*
X-8646Y52319D01*
X-51244Y12310D02*
X-51457Y11522D01*
X-11940Y48945D02*
X-11146Y49168D01*
X-47861Y14848D02*
X-48140Y14022D01*
X-63021Y2189D02*
X-63066Y1522D01*
X-1813Y60788D02*
X-1146Y60833D01*
X-60289Y4716D02*
X-60365Y4022D01*
X-14480Y45515D02*
X-13646Y45811D01*
X-44228Y17389D02*
X-44591Y16522D01*
X-6146Y6522D02*
X-6146Y55297D01*
X-8646Y52319D02*
X-8646Y9022D01*
X-3646Y4022D02*
X-3646Y58129D01*
X-1146Y60833D02*
X-1146Y1522D01*
X-11146Y11522D02*
X-51457Y11522D01*
X-16146Y16522D02*
X-16146Y42202D01*
X-11146Y49168D02*
X-11146Y11522D01*
X-13646Y14022D02*
X-13646Y45811D01*
X-4341Y58050D02*
X-3646Y58129D01*
X-57429Y7244D02*
X-57543Y6522D01*
X-60365Y4022D02*
X-3646Y4022D01*
X-16146Y16522D02*
X-44591Y16522D01*
X-54581Y9022D02*
X-8646Y9022D01*
X-1146Y1522D02*
X-63066Y1522D01*
X-48140Y14022D02*
X-13646Y14022D01*
X-6146Y6522D02*
X-57543Y6522D01*
X-17024Y41813D02*
X-16146Y42202D01*
X-40279Y19934D02*
X-40752Y19022D01*
X-18646Y19022D01*
X-54422Y9776D02*
X-54112Y11168D01*
X-53767Y12552D01*
X-53388Y13927D01*
X-52976Y15292D01*
X-52530Y16647D01*
X-52052Y17990D01*
X-51540Y19321D01*
X-50996Y20639D01*
X-50420Y21944D01*
X-49812Y23234D01*
X-49172Y24508D01*
X-48502Y25767D01*
X-47801Y27009D01*
X-47069Y28233D01*
X-46308Y29439D01*
X-45517Y30626D01*
X-44698Y31793D01*
X-43850Y32939D01*
X-42974Y34065D01*
X-42071Y35168D01*
X-41141Y36249D01*
X-40185Y37307D01*
X-39203Y38342D01*
X-38196Y39352D01*
X-37164Y40336D01*
X-36109Y41296D01*
X-35031Y42229D01*
X-33930Y43135D01*
X-32807Y44014D01*
X-31662Y44865D01*
X-30498Y45688D01*
X-29313Y46482D01*
X-28110Y47247D01*
X-26887Y47982D01*
X-25648Y48687D01*
X-24391Y49361D01*
X-23118Y50004D01*
X-21830Y50616D01*
X-20527Y51196D01*
X-19211Y51743D01*
X-17881Y52259D01*
X-16539Y52741D01*
X-15186Y53191D01*
X-13822Y53607D01*
X-12448Y53990D01*
X-11065Y54338D01*
X-9674Y54653D01*
X-8276Y54933D01*
X-6871Y55180D01*
X-9404Y52153D02*
X-10719Y51849D01*
X-12027Y51513D01*
X-13326Y51146D01*
X-14616Y50747D01*
X-15896Y50317D01*
X-17164Y49856D01*
X-18422Y49365D01*
X-19667Y48843D01*
X-20899Y48291D01*
X-22117Y47709D01*
X-23321Y47098D01*
X-24509Y46458D01*
X-25682Y45790D01*
X-26838Y45093D01*
X-27977Y44368D01*
X-29098Y43616D01*
X-30200Y42836D01*
X-31284Y42030D01*
X-32347Y41199D01*
X-33390Y40341D01*
X-34411Y39459D01*
X-35411Y38552D01*
X-36389Y37621D01*
X-37344Y36666D01*
X-38275Y35689D01*
X-39182Y34690D01*
X-40065Y33668D01*
X-40923Y32626D01*
X-41755Y31563D01*
X-42561Y30480D01*
X-43341Y29378D01*
X-44093Y28257D01*
X-44819Y27119D01*
X-45516Y25963D01*
X-46185Y24790D01*
X-46826Y23602D01*
X-47437Y22398D01*
X-48019Y21180D01*
X-48571Y19948D01*
X-49094Y18703D01*
X-49586Y17446D01*
X-50047Y16178D01*
X-50477Y14898D01*
X-50876Y13608D01*
X-51244Y12310D01*
X-47861Y14848D02*
X-47433Y16063D01*
X-46976Y17267D01*
X-46490Y18460D01*
X-45975Y19640D01*
X-45431Y20808D01*
X-44859Y21962D01*
X-44260Y23102D01*
X-43633Y24227D01*
X-42979Y25337D01*
X-42298Y26430D01*
X-41591Y27507D01*
X-40858Y28566D01*
X-40100Y29607D01*
X-39316Y30630D01*
X-38508Y31633D01*
X-37676Y32616D01*
X-36821Y33579D01*
X-35942Y34520D01*
X-35040Y35440D01*
X-34117Y36338D01*
X-33172Y37214D01*
X-32206Y38066D01*
X-31220Y38895D01*
X-30214Y39699D01*
X-29189Y40479D01*
X-28145Y41233D01*
X-27084Y41963D01*
X-26004Y42666D01*
X-24909Y43343D01*
X-23797Y43993D01*
X-22669Y44615D01*
X-21527Y45211D01*
X-20371Y45778D01*
X-19201Y46318D01*
X-18019Y46829D01*
X-16824Y47311D01*
X-15618Y47763D01*
X-14402Y48187D01*
X-13176Y48581D01*
X-11940Y48945D01*
X-42963Y45175D02*
X-44080Y44078D01*
X-45171Y42955D01*
X-46234Y41806D01*
X-47270Y40632D01*
X-48277Y39433D01*
X-49256Y38211D01*
X-50205Y36966D01*
X-51124Y35699D01*
X-52013Y34410D01*
X-52870Y33100D01*
X-53696Y31770D01*
X-54491Y30421D01*
X-55252Y29053D01*
X-55981Y27668D01*
X-56677Y26265D01*
X-57339Y24847D01*
X-57967Y23412D01*
X-58561Y21964D01*
X-59119Y20501D01*
X-59643Y19026D01*
X-60132Y17539D01*
X-60585Y16040D01*
X-61002Y14531D01*
X-61382Y13012D01*
X-61727Y11485D01*
X-62035Y9950D01*
X-62306Y8408D01*
X-62541Y6860D01*
X-62738Y5307D01*
X-62898Y3750D01*
X-63022Y2189D01*
X-60289Y4715D02*
X-60101Y6247D01*
X-59876Y7773D01*
X-59614Y9294D01*
X-59315Y10808D01*
X-58978Y12314D01*
X-58605Y13811D01*
X-58196Y15299D01*
X-57750Y16777D01*
X-57269Y18243D01*
X-56751Y19696D01*
X-56199Y21137D01*
X-55611Y22564D01*
X-54988Y23976D01*
X-54331Y25372D01*
X-53641Y26752D01*
X-52916Y28115D01*
X-52159Y29459D01*
X-51369Y30785D01*
X-50547Y32091D01*
X-49693Y33376D01*
X-48808Y34640D01*
X-47892Y35882D01*
X-46946Y37102D01*
X-45971Y38298D01*
X-44967Y39469D01*
X-43934Y40616D01*
X-42874Y41737D01*
X-41787Y42832D01*
X-40673Y43900D01*
X-39533Y44941D01*
X-38369Y45953D01*
X-37179Y46937D01*
X-35967Y47891D01*
X-34731Y48815D01*
X-33473Y49709D01*
X-32194Y50572D01*
X-30893Y51403D01*
X-29573Y52202D01*
X-28234Y52969D01*
X-26877Y53702D01*
X-25502Y54403D01*
X-24110Y55069D01*
X-22702Y55702D01*
X-21279Y56299D01*
X-19843Y56862D01*
X-18392Y57389D01*
X-16930Y57881D01*
X-15455Y58337D01*
X-13970Y58757D01*
X-12476Y59140D01*
X-10972Y59487D01*
X-9460Y59797D01*
X-7941Y60070D01*
X-6416Y60305D01*
X-4886Y60503D01*
X-3351Y60664D01*
X-1813Y60787D01*
X-14480Y45516D02*
X-15643Y45087D01*
X-16795Y44629D01*
X-17936Y44144D01*
X-19064Y43631D01*
X-20179Y43090D01*
X-21281Y42522D01*
X-22369Y41928D01*
X-23442Y41307D01*
X-24499Y40660D01*
X-25540Y39987D01*
X-26564Y39289D01*
X-27571Y38566D01*
X-28560Y37818D01*
X-29530Y37047D01*
X-30481Y36252D01*
X-31413Y35434D01*
X-32324Y34594D01*
X-33214Y33731D01*
X-34083Y32847D01*
X-34930Y31942D01*
X-35754Y31016D01*
X-36556Y30071D01*
X-37334Y29106D01*
X-38088Y28122D01*
X-38818Y27121D01*
X-39524Y26101D01*
X-40204Y25065D01*
X-40858Y24012D01*
X-41487Y22944D01*
X-42089Y21861D01*
X-42665Y20763D01*
X-43213Y19651D01*
X-43734Y18526D01*
X-44228Y17389D01*
X-57429Y7245D02*
X-57184Y8686D01*
X-56904Y10121D01*
X-56590Y11549D01*
X-56242Y12968D01*
X-55859Y14379D01*
X-55443Y15780D01*
X-54993Y17171D01*
X-54509Y18551D01*
X-53992Y19918D01*
X-53443Y21273D01*
X-52861Y22614D01*
X-52247Y23941D01*
X-51601Y25252D01*
X-50923Y26547D01*
X-50215Y27826D01*
X-49476Y29087D01*
X-48706Y30330D01*
X-47907Y31554D01*
X-47079Y32759D01*
X-46222Y33943D01*
X-45336Y35106D01*
X-44423Y36248D01*
X-43483Y37367D01*
X-42516Y38463D01*
X-41522Y39536D01*
X-40503Y40584D01*
X-39460Y41608D01*
X-38391Y42605D01*
X-37299Y43577D01*
X-36184Y44523D01*
X-35047Y45441D01*
X-33887Y46331D01*
X-32707Y47193D01*
X-31506Y48027D01*
X-30285Y48831D01*
X-29045Y49606D01*
X-27787Y50350D01*
X-26512Y51064D01*
X-25219Y51747D01*
X-23910Y52399D01*
X-22587Y53019D01*
X-21248Y53606D01*
X-19896Y54162D01*
X-18531Y54684D01*
X-17153Y55174D01*
X-15764Y55630D01*
X-14365Y56052D01*
X-12955Y56441D01*
X-11537Y56796D01*
X-10111Y57116D01*
X-8677Y57402D01*
X-7237Y57653D01*
X-5791Y57869D01*
X-4341Y58051D01*
X-17024Y41814D02*
X-18081Y41331D01*
X-19126Y40822D01*
X-20159Y40288D01*
X-21178Y39729D01*
X-22183Y39146D01*
X-23175Y38539D01*
X-24151Y37908D01*
X-25112Y37254D01*
X-26056Y36577D01*
X-26984Y35877D01*
X-27895Y35155D01*
X-28788Y34411D01*
X-29663Y33645D01*
X-30519Y32859D01*
X-31356Y32053D01*
X-32173Y31226D01*
X-32970Y30380D01*
X-33746Y29515D01*
X-34502Y28631D01*
X-35235Y27730D01*
X-35947Y26811D01*
X-36636Y25875D01*
X-37303Y24922D01*
X-37946Y23954D01*
X-38566Y22971D01*
X-39161Y21973D01*
X-39733Y20961D01*
X-40280Y19935D01*
D11*
X-23200Y29600D03*
X-49600Y44800D03*
X-28500Y24000D03*
D10*
X55579Y7371D02*
X55697Y6646D01*
X10176Y54922D02*
X9422Y55081D01*
X52553Y9904D02*
X52719Y9146D01*
X12710Y51744D02*
X11922Y51957D01*
X49345Y12440D02*
X49568Y11646D01*
X15248Y48361D02*
X14422Y48640D01*
X2589Y63521D02*
X1922Y63566D01*
X61188Y2313D02*
X61233Y1646D01*
X5116Y60789D02*
X4422Y60865D01*
X45915Y14980D02*
X46211Y14146D01*
X17789Y44728D02*
X16922Y45091D01*
X6922Y6646D02*
X55697Y6646D01*
X52719Y9146D02*
X9422Y9146D01*
X4422Y4146D02*
X58529Y4146D01*
X61233Y1646D02*
X1922Y1646D01*
X11922Y11646D02*
X11922Y51957D01*
X16922Y16646D02*
X42602Y16646D01*
X49568Y11646D02*
X11922Y11646D01*
X14422Y14146D02*
X46211Y14146D01*
X58450Y4841D02*
X58529Y4146D01*
X7644Y57929D02*
X6922Y58043D01*
X4422Y60865D02*
X4422Y4146D01*
X16922Y16646D02*
X16922Y45091D01*
X9422Y55081D02*
X9422Y9146D01*
X1922Y1646D02*
X1922Y63566D01*
X14422Y48640D02*
X14422Y14146D01*
X6922Y6646D02*
X6922Y58043D01*
X42213Y17524D02*
X42602Y16646D01*
X20334Y40779D02*
X19422Y41252D01*
X19422Y19146D01*
X10176Y54922D02*
X11568Y54612D01*
X12952Y54267D01*
X14327Y53888D01*
X15692Y53476D01*
X17047Y53030D01*
X18390Y52552D01*
X19721Y52040D01*
X21039Y51496D01*
X22344Y50920D01*
X23634Y50312D01*
X24908Y49672D01*
X26167Y49002D01*
X27409Y48301D01*
X28633Y47569D01*
X29839Y46808D01*
X31026Y46017D01*
X32193Y45198D01*
X33339Y44350D01*
X34465Y43474D01*
X35568Y42571D01*
X36649Y41641D01*
X37707Y40685D01*
X38742Y39703D01*
X39752Y38696D01*
X40736Y37664D01*
X41696Y36609D01*
X42629Y35531D01*
X43535Y34430D01*
X44414Y33307D01*
X45265Y32162D01*
X46088Y30998D01*
X46882Y29813D01*
X47647Y28610D01*
X48382Y27387D01*
X49087Y26148D01*
X49761Y24891D01*
X50404Y23618D01*
X51016Y22330D01*
X51596Y21027D01*
X52143Y19711D01*
X52659Y18381D01*
X53141Y17039D01*
X53591Y15686D01*
X54007Y14322D01*
X54390Y12948D01*
X54738Y11565D01*
X55053Y10174D01*
X55333Y8776D01*
X55580Y7371D01*
X52553Y9904D02*
X52249Y11219D01*
X51913Y12527D01*
X51546Y13826D01*
X51147Y15116D01*
X50717Y16396D01*
X50256Y17664D01*
X49765Y18922D01*
X49243Y20167D01*
X48691Y21399D01*
X48109Y22617D01*
X47498Y23821D01*
X46858Y25009D01*
X46190Y26182D01*
X45493Y27338D01*
X44768Y28477D01*
X44016Y29598D01*
X43236Y30700D01*
X42430Y31784D01*
X41599Y32847D01*
X40741Y33890D01*
X39859Y34911D01*
X38952Y35911D01*
X38021Y36889D01*
X37066Y37844D01*
X36089Y38775D01*
X35090Y39682D01*
X34068Y40565D01*
X33026Y41423D01*
X31963Y42255D01*
X30880Y43061D01*
X29778Y43841D01*
X28657Y44593D01*
X27519Y45319D01*
X26363Y46016D01*
X25190Y46685D01*
X24002Y47326D01*
X22798Y47937D01*
X21580Y48519D01*
X20348Y49071D01*
X19103Y49594D01*
X17846Y50086D01*
X16578Y50547D01*
X15298Y50977D01*
X14008Y51376D01*
X12710Y51744D01*
X15248Y48361D02*
X16463Y47933D01*
X17667Y47476D01*
X18860Y46990D01*
X20040Y46475D01*
X21208Y45931D01*
X22362Y45359D01*
X23502Y44760D01*
X24627Y44133D01*
X25737Y43479D01*
X26830Y42798D01*
X27907Y42091D01*
X28966Y41358D01*
X30007Y40600D01*
X31030Y39816D01*
X32033Y39008D01*
X33016Y38176D01*
X33979Y37321D01*
X34920Y36442D01*
X35840Y35540D01*
X36738Y34617D01*
X37614Y33672D01*
X38466Y32706D01*
X39295Y31720D01*
X40099Y30714D01*
X40879Y29689D01*
X41633Y28645D01*
X42363Y27584D01*
X43066Y26504D01*
X43743Y25409D01*
X44393Y24297D01*
X45015Y23169D01*
X45611Y22027D01*
X46178Y20871D01*
X46718Y19701D01*
X47229Y18519D01*
X47711Y17324D01*
X48163Y16118D01*
X48587Y14902D01*
X48981Y13676D01*
X49345Y12440D01*
X45575Y43463D02*
X44478Y44580D01*
X43355Y45671D01*
X42206Y46734D01*
X41032Y47770D01*
X39833Y48777D01*
X38611Y49756D01*
X37366Y50705D01*
X36099Y51624D01*
X34810Y52513D01*
X33500Y53370D01*
X32170Y54196D01*
X30821Y54991D01*
X29453Y55752D01*
X28068Y56481D01*
X26665Y57177D01*
X25247Y57839D01*
X23812Y58467D01*
X22364Y59061D01*
X20901Y59619D01*
X19426Y60143D01*
X17939Y60632D01*
X16440Y61085D01*
X14931Y61502D01*
X13412Y61882D01*
X11885Y62227D01*
X10350Y62535D01*
X8808Y62806D01*
X7260Y63041D01*
X5707Y63238D01*
X4150Y63398D01*
X2589Y63522D01*
X5115Y60789D02*
X6647Y60601D01*
X8173Y60376D01*
X9694Y60114D01*
X11208Y59815D01*
X12714Y59478D01*
X14211Y59105D01*
X15699Y58696D01*
X17177Y58250D01*
X18643Y57769D01*
X20096Y57251D01*
X21537Y56699D01*
X22964Y56111D01*
X24376Y55488D01*
X25772Y54831D01*
X27152Y54141D01*
X28515Y53416D01*
X29859Y52659D01*
X31185Y51869D01*
X32491Y51047D01*
X33776Y50193D01*
X35040Y49308D01*
X36282Y48392D01*
X37502Y47446D01*
X38698Y46471D01*
X39869Y45467D01*
X41016Y44434D01*
X42137Y43374D01*
X43232Y42287D01*
X44300Y41173D01*
X45341Y40033D01*
X46353Y38869D01*
X47337Y37679D01*
X48291Y36467D01*
X49215Y35231D01*
X50109Y33973D01*
X50972Y32694D01*
X51803Y31393D01*
X52602Y30073D01*
X53369Y28734D01*
X54102Y27377D01*
X54803Y26002D01*
X55469Y24610D01*
X56102Y23202D01*
X56699Y21779D01*
X57262Y20343D01*
X57789Y18892D01*
X58281Y17430D01*
X58737Y15955D01*
X59157Y14470D01*
X59540Y12976D01*
X59887Y11472D01*
X60197Y9960D01*
X60470Y8441D01*
X60705Y6916D01*
X60903Y5386D01*
X61064Y3851D01*
X61187Y2313D01*
X45916Y14980D02*
X45487Y16143D01*
X45029Y17295D01*
X44544Y18436D01*
X44031Y19564D01*
X43490Y20679D01*
X42922Y21781D01*
X42328Y22869D01*
X41707Y23942D01*
X41060Y24999D01*
X40387Y26040D01*
X39689Y27064D01*
X38966Y28071D01*
X38218Y29060D01*
X37447Y30030D01*
X36652Y30981D01*
X35834Y31913D01*
X34994Y32824D01*
X34131Y33714D01*
X33247Y34583D01*
X32342Y35430D01*
X31416Y36254D01*
X30471Y37056D01*
X29506Y37834D01*
X28522Y38588D01*
X27521Y39318D01*
X26501Y40024D01*
X25465Y40704D01*
X24412Y41358D01*
X23344Y41987D01*
X22261Y42589D01*
X21163Y43165D01*
X20051Y43713D01*
X18926Y44234D01*
X17789Y44728D01*
X7645Y57929D02*
X9086Y57684D01*
X10521Y57404D01*
X11949Y57090D01*
X13368Y56742D01*
X14779Y56359D01*
X16180Y55943D01*
X17571Y55493D01*
X18951Y55009D01*
X20318Y54492D01*
X21673Y53943D01*
X23014Y53361D01*
X24341Y52747D01*
X25652Y52101D01*
X26947Y51423D01*
X28226Y50715D01*
X29487Y49976D01*
X30730Y49206D01*
X31954Y48407D01*
X33159Y47579D01*
X34343Y46722D01*
X35506Y45836D01*
X36648Y44923D01*
X37767Y43983D01*
X38863Y43016D01*
X39936Y42022D01*
X40984Y41003D01*
X42008Y39960D01*
X43005Y38891D01*
X43977Y37799D01*
X44923Y36684D01*
X45841Y35547D01*
X46731Y34387D01*
X47593Y33207D01*
X48427Y32006D01*
X49231Y30785D01*
X50006Y29545D01*
X50750Y28287D01*
X51464Y27012D01*
X52147Y25719D01*
X52799Y24410D01*
X53419Y23087D01*
X54006Y21748D01*
X54562Y20396D01*
X55084Y19031D01*
X55574Y17653D01*
X56030Y16264D01*
X56452Y14865D01*
X56841Y13455D01*
X57196Y12037D01*
X57516Y10611D01*
X57802Y9177D01*
X58053Y7737D01*
X58269Y6291D01*
X58451Y4841D01*
X42214Y17524D02*
X41731Y18581D01*
X41222Y19626D01*
X40688Y20659D01*
X40129Y21678D01*
X39546Y22683D01*
X38939Y23675D01*
X38308Y24651D01*
X37654Y25612D01*
X36977Y26556D01*
X36277Y27484D01*
X35555Y28395D01*
X34811Y29288D01*
X34045Y30163D01*
X33259Y31019D01*
X32453Y31856D01*
X31626Y32673D01*
X30780Y33470D01*
X29915Y34246D01*
X29031Y35002D01*
X28130Y35735D01*
X27211Y36447D01*
X26275Y37136D01*
X25322Y37803D01*
X24354Y38446D01*
X23371Y39066D01*
X22373Y39661D01*
X21361Y40233D01*
X20335Y40780D01*
D11*
X30100Y23900D03*
X58400Y38900D03*
X25600Y28700D03*
D10*
X7671Y-55379D02*
X6946Y-55497D01*
X55222Y-9976D02*
X55381Y-9222D01*
X10204Y-52353D02*
X9446Y-52519D01*
X52044Y-12510D02*
X52257Y-11722D01*
X12740Y-49145D02*
X11946Y-49368D01*
X48661Y-15048D02*
X48940Y-14222D01*
X63821Y-2389D02*
X63866Y-1722D01*
X2613Y-60988D02*
X1946Y-61033D01*
X61089Y-4916D02*
X61165Y-4222D01*
X15280Y-45715D02*
X14446Y-46011D01*
X45028Y-17589D02*
X45391Y-16722D01*
X6946Y-6722D02*
X6946Y-55497D01*
X9446Y-52519D02*
X9446Y-9222D01*
X4446Y-4222D02*
X4446Y-58329D01*
X1946Y-61033D02*
X1946Y-1722D01*
X11946Y-11722D02*
X52257Y-11722D01*
X16946Y-16722D02*
X16946Y-42402D01*
X11946Y-49368D02*
X11946Y-11722D01*
X14446Y-14222D02*
X14446Y-46011D01*
X5141Y-58250D02*
X4446Y-58329D01*
X58229Y-7444D02*
X58343Y-6722D01*
X61165Y-4222D02*
X4446Y-4222D01*
X16946Y-16722D02*
X45391Y-16722D01*
X55381Y-9222D02*
X9446Y-9222D01*
X1946Y-1722D02*
X63866Y-1722D01*
X48940Y-14222D02*
X14446Y-14222D01*
X6946Y-6722D02*
X58343Y-6722D01*
X17824Y-42013D02*
X16946Y-42402D01*
X41079Y-20134D02*
X41552Y-19222D01*
X55222Y-9976D02*
X54912Y-11368D01*
X54567Y-12752D01*
X54188Y-14127D01*
X53776Y-15492D01*
X53330Y-16847D01*
X52852Y-18190D01*
X52340Y-19521D01*
X51796Y-20839D01*
X51220Y-22144D01*
X50612Y-23434D01*
X49972Y-24708D01*
X49302Y-25967D01*
X48601Y-27209D01*
X47869Y-28433D01*
X47108Y-29639D01*
X46317Y-30826D01*
X45498Y-31993D01*
X44650Y-33139D01*
X43774Y-34265D01*
X42871Y-35368D01*
X41941Y-36449D01*
X40985Y-37507D01*
X40003Y-38542D01*
X38996Y-39552D01*
X37964Y-40536D01*
X36909Y-41496D01*
X35831Y-42429D01*
X34730Y-43335D01*
X33607Y-44214D01*
X32462Y-45065D01*
X31298Y-45888D01*
X30113Y-46682D01*
X28910Y-47447D01*
X27687Y-48182D01*
X26448Y-48887D01*
X25191Y-49561D01*
X23918Y-50204D01*
X22630Y-50816D01*
X21327Y-51396D01*
X20011Y-51943D01*
X18681Y-52459D01*
X17339Y-52941D01*
X15986Y-53391D01*
X14622Y-53807D01*
X13248Y-54190D01*
X11865Y-54538D01*
X10474Y-54853D01*
X9076Y-55133D01*
X7671Y-55380D01*
X10204Y-52353D02*
X11519Y-52049D01*
X12827Y-51713D01*
X14126Y-51346D01*
X15416Y-50947D01*
X16696Y-50517D01*
X17964Y-50056D01*
X19222Y-49565D01*
X20467Y-49043D01*
X21699Y-48491D01*
X22917Y-47909D01*
X24121Y-47298D01*
X25309Y-46658D01*
X26482Y-45990D01*
X27638Y-45293D01*
X28777Y-44568D01*
X29898Y-43816D01*
X31000Y-43036D01*
X32084Y-42230D01*
X33147Y-41399D01*
X34190Y-40541D01*
X35211Y-39659D01*
X36211Y-38752D01*
X37189Y-37821D01*
X38144Y-36866D01*
X39075Y-35889D01*
X39982Y-34890D01*
X40865Y-33868D01*
X41723Y-32826D01*
X42555Y-31763D01*
X43361Y-30680D01*
X44141Y-29578D01*
X44893Y-28457D01*
X45619Y-27319D01*
X46316Y-26163D01*
X46985Y-24990D01*
X47626Y-23802D01*
X48237Y-22598D01*
X48819Y-21380D01*
X49371Y-20148D01*
X49894Y-18903D01*
X50386Y-17646D01*
X50847Y-16378D01*
X51277Y-15098D01*
X51676Y-13808D01*
X52044Y-12510D01*
X48661Y-15048D02*
X48233Y-16263D01*
X47776Y-17467D01*
X47290Y-18660D01*
X46775Y-19840D01*
X46231Y-21008D01*
X45659Y-22162D01*
X45060Y-23302D01*
X44433Y-24427D01*
X43779Y-25537D01*
X43098Y-26630D01*
X42391Y-27707D01*
X41658Y-28766D01*
X40900Y-29807D01*
X40116Y-30830D01*
X39308Y-31833D01*
X38476Y-32816D01*
X37621Y-33779D01*
X36742Y-34720D01*
X35840Y-35640D01*
X34917Y-36538D01*
X33972Y-37414D01*
X33006Y-38266D01*
X32020Y-39095D01*
X31014Y-39899D01*
X29989Y-40679D01*
X28945Y-41433D01*
X27884Y-42163D01*
X26804Y-42866D01*
X25709Y-43543D01*
X24597Y-44193D01*
X23469Y-44815D01*
X22327Y-45411D01*
X21171Y-45978D01*
X20001Y-46518D01*
X18819Y-47029D01*
X17624Y-47511D01*
X16418Y-47963D01*
X15202Y-48387D01*
X13976Y-48781D01*
X12740Y-49145D01*
X43763Y-45375D02*
X44880Y-44278D01*
X45971Y-43155D01*
X47034Y-42006D01*
X48070Y-40832D01*
X49077Y-39633D01*
X50056Y-38411D01*
X51005Y-37166D01*
X51924Y-35899D01*
X52813Y-34610D01*
X53670Y-33300D01*
X54496Y-31970D01*
X55291Y-30621D01*
X56052Y-29253D01*
X56781Y-27868D01*
X57477Y-26465D01*
X58139Y-25047D01*
X58767Y-23612D01*
X59361Y-22164D01*
X59919Y-20701D01*
X60443Y-19226D01*
X60932Y-17739D01*
X61385Y-16240D01*
X61802Y-14731D01*
X62182Y-13212D01*
X62527Y-11685D01*
X62835Y-10150D01*
X63106Y-8608D01*
X63341Y-7060D01*
X63538Y-5507D01*
X63698Y-3950D01*
X63822Y-2389D01*
X61089Y-4915D02*
X60901Y-6447D01*
X60676Y-7973D01*
X60414Y-9494D01*
X60115Y-11008D01*
X59778Y-12514D01*
X59405Y-14011D01*
X58996Y-15499D01*
X58550Y-16977D01*
X58069Y-18443D01*
X57551Y-19896D01*
X56999Y-21337D01*
X56411Y-22764D01*
X55788Y-24176D01*
X55131Y-25572D01*
X54441Y-26952D01*
X53716Y-28315D01*
X52959Y-29659D01*
X52169Y-30985D01*
X51347Y-32291D01*
X50493Y-33576D01*
X49608Y-34840D01*
X48692Y-36082D01*
X47746Y-37302D01*
X46771Y-38498D01*
X45767Y-39669D01*
X44734Y-40816D01*
X43674Y-41937D01*
X42587Y-43032D01*
X41473Y-44100D01*
X40333Y-45141D01*
X39169Y-46153D01*
X37979Y-47137D01*
X36767Y-48091D01*
X35531Y-49015D01*
X34273Y-49909D01*
X32994Y-50772D01*
X31693Y-51603D01*
X30373Y-52402D01*
X29034Y-53169D01*
X27677Y-53902D01*
X26302Y-54603D01*
X24910Y-55269D01*
X23502Y-55902D01*
X22079Y-56499D01*
X20643Y-57062D01*
X19192Y-57589D01*
X17730Y-58081D01*
X16255Y-58537D01*
X14770Y-58957D01*
X13276Y-59340D01*
X11772Y-59687D01*
X10260Y-59997D01*
X8741Y-60270D01*
X7216Y-60505D01*
X5686Y-60703D01*
X4151Y-60864D01*
X2613Y-60987D01*
X15280Y-45716D02*
X16443Y-45287D01*
X17595Y-44829D01*
X18736Y-44344D01*
X19864Y-43831D01*
X20979Y-43290D01*
X22081Y-42722D01*
X23169Y-42128D01*
X24242Y-41507D01*
X25299Y-40860D01*
X26340Y-40187D01*
X27364Y-39489D01*
X28371Y-38766D01*
X29360Y-38018D01*
X30330Y-37247D01*
X31281Y-36452D01*
X32213Y-35634D01*
X33124Y-34794D01*
X34014Y-33931D01*
X34883Y-33047D01*
X35730Y-32142D01*
X36554Y-31216D01*
X37356Y-30271D01*
X38134Y-29306D01*
X38888Y-28322D01*
X39618Y-27321D01*
X40324Y-26301D01*
X41004Y-25265D01*
X41658Y-24212D01*
X42287Y-23144D01*
X42889Y-22061D01*
X43465Y-20963D01*
X44013Y-19851D01*
X44534Y-18726D01*
X45028Y-17589D01*
X58229Y-7445D02*
X57984Y-8886D01*
X57704Y-10321D01*
X57390Y-11749D01*
X57042Y-13168D01*
X56659Y-14579D01*
X56243Y-15980D01*
X55793Y-17371D01*
X55309Y-18751D01*
X54792Y-20118D01*
X54243Y-21473D01*
X53661Y-22814D01*
X53047Y-24141D01*
X52401Y-25452D01*
X51723Y-26747D01*
X51015Y-28026D01*
X50276Y-29287D01*
X49506Y-30530D01*
X48707Y-31754D01*
X47879Y-32959D01*
X47022Y-34143D01*
X46136Y-35306D01*
X45223Y-36448D01*
X44283Y-37567D01*
X43316Y-38663D01*
X42322Y-39736D01*
X41303Y-40784D01*
X40260Y-41808D01*
X39191Y-42805D01*
X38099Y-43777D01*
X36984Y-44723D01*
X35847Y-45641D01*
X34687Y-46531D01*
X33507Y-47393D01*
X32306Y-48227D01*
X31085Y-49031D01*
X29845Y-49806D01*
X28587Y-50550D01*
X27312Y-51264D01*
X26019Y-51947D01*
X24710Y-52599D01*
X23387Y-53219D01*
X22048Y-53806D01*
X20696Y-54362D01*
X19331Y-54884D01*
X17953Y-55374D01*
X16564Y-55830D01*
X15165Y-56252D01*
X13755Y-56641D01*
X12337Y-56996D01*
X10911Y-57316D01*
X9477Y-57602D01*
X8037Y-57853D01*
X6591Y-58069D01*
X5141Y-58251D01*
X17824Y-42014D02*
X18881Y-41531D01*
X19926Y-41022D01*
X20959Y-40488D01*
X21978Y-39929D01*
X22983Y-39346D01*
X23975Y-38739D01*
X24951Y-38108D01*
X25912Y-37454D01*
X26856Y-36777D01*
X27784Y-36077D01*
X28695Y-35355D01*
X29588Y-34611D01*
X30463Y-33845D01*
X31319Y-33059D01*
X32156Y-32253D01*
X32973Y-31426D01*
X33770Y-30580D01*
X34546Y-29715D01*
X35302Y-28831D01*
X36035Y-27930D01*
X36747Y-27011D01*
X37436Y-26075D01*
X38103Y-25122D01*
X38746Y-24154D01*
X39366Y-23171D01*
X39961Y-22173D01*
X40533Y-21161D01*
X41080Y-20135D01*
D11*
X23900Y-30300D03*
X30100Y-62200D03*
X30400Y-23700D03*
D10*
X-54679Y-7471D02*
X-54797Y-6746D01*
X-9276Y-55022D02*
X-8522Y-55181D01*
X-51653Y-10004D02*
X-51819Y-9246D01*
X-11810Y-51844D02*
X-11022Y-52057D01*
X-48445Y-12540D02*
X-48668Y-11746D01*
X-14348Y-48461D02*
X-13522Y-48740D01*
X-1689Y-63621D02*
X-1022Y-63666D01*
X-60288Y-2413D02*
X-60333Y-1746D01*
X-4216Y-60889D02*
X-3522Y-60965D01*
X-45015Y-15080D02*
X-45311Y-14246D01*
X-16889Y-44828D02*
X-16022Y-45191D01*
X-6022Y-6746D02*
X-54797Y-6746D01*
X-51819Y-9246D02*
X-8522Y-9246D01*
X-3522Y-4246D02*
X-57629Y-4246D01*
X-60333Y-1746D02*
X-1022Y-1746D01*
X-11022Y-11746D02*
X-11022Y-52057D01*
X-16022Y-16746D02*
X-41702Y-16746D01*
X-48668Y-11746D02*
X-11022Y-11746D01*
X-13522Y-14246D02*
X-45311Y-14246D01*
X-57550Y-4941D02*
X-57629Y-4246D01*
X-6744Y-58029D02*
X-6022Y-58143D01*
X-3522Y-60965D02*
X-3522Y-4246D01*
X-16022Y-16746D02*
X-16022Y-45191D01*
X-8522Y-55181D02*
X-8522Y-9246D01*
X-1022Y-1746D02*
X-1022Y-63666D01*
X-13522Y-48740D02*
X-13522Y-14246D01*
X-6022Y-6746D02*
X-6022Y-58143D01*
X-41313Y-17624D02*
X-41702Y-16746D01*
X-19434Y-40879D02*
X-18522Y-41352D01*
X-18522Y-19246D01*
X-9276Y-55022D02*
X-10668Y-54712D01*
X-12052Y-54367D01*
X-13427Y-53988D01*
X-14792Y-53576D01*
X-16147Y-53130D01*
X-17490Y-52652D01*
X-18821Y-52140D01*
X-20139Y-51596D01*
X-21444Y-51020D01*
X-22734Y-50412D01*
X-24008Y-49772D01*
X-25267Y-49102D01*
X-26509Y-48401D01*
X-27733Y-47669D01*
X-28939Y-46908D01*
X-30126Y-46117D01*
X-31293Y-45298D01*
X-32439Y-44450D01*
X-33565Y-43574D01*
X-34668Y-42671D01*
X-35749Y-41741D01*
X-36807Y-40785D01*
X-37842Y-39803D01*
X-38852Y-38796D01*
X-39836Y-37764D01*
X-40796Y-36709D01*
X-41729Y-35631D01*
X-42635Y-34530D01*
X-43514Y-33407D01*
X-44365Y-32262D01*
X-45188Y-31098D01*
X-45982Y-29913D01*
X-46747Y-28710D01*
X-47482Y-27487D01*
X-48187Y-26248D01*
X-48861Y-24991D01*
X-49504Y-23718D01*
X-50116Y-22430D01*
X-50696Y-21127D01*
X-51243Y-19811D01*
X-51759Y-18481D01*
X-52241Y-17139D01*
X-52691Y-15786D01*
X-53107Y-14422D01*
X-53490Y-13048D01*
X-53838Y-11665D01*
X-54153Y-10274D01*
X-54433Y-8876D01*
X-54680Y-7471D01*
X-51653Y-10004D02*
X-51349Y-11319D01*
X-51013Y-12627D01*
X-50646Y-13926D01*
X-50247Y-15216D01*
X-49817Y-16496D01*
X-49356Y-17764D01*
X-48865Y-19022D01*
X-48343Y-20267D01*
X-47791Y-21499D01*
X-47209Y-22717D01*
X-46598Y-23921D01*
X-45958Y-25109D01*
X-45290Y-26282D01*
X-44593Y-27438D01*
X-43868Y-28577D01*
X-43116Y-29698D01*
X-42336Y-30800D01*
X-41530Y-31884D01*
X-40699Y-32947D01*
X-39841Y-33990D01*
X-38959Y-35011D01*
X-38052Y-36011D01*
X-37121Y-36989D01*
X-36166Y-37944D01*
X-35189Y-38875D01*
X-34190Y-39782D01*
X-33168Y-40665D01*
X-32126Y-41523D01*
X-31063Y-42355D01*
X-29980Y-43161D01*
X-28878Y-43941D01*
X-27757Y-44693D01*
X-26619Y-45419D01*
X-25463Y-46116D01*
X-24290Y-46785D01*
X-23102Y-47426D01*
X-21898Y-48037D01*
X-20680Y-48619D01*
X-19448Y-49171D01*
X-18203Y-49694D01*
X-16946Y-50186D01*
X-15678Y-50647D01*
X-14398Y-51077D01*
X-13108Y-51476D01*
X-11810Y-51844D01*
X-14348Y-48461D02*
X-15563Y-48033D01*
X-16767Y-47576D01*
X-17960Y-47090D01*
X-19140Y-46575D01*
X-20308Y-46031D01*
X-21462Y-45459D01*
X-22602Y-44860D01*
X-23727Y-44233D01*
X-24837Y-43579D01*
X-25930Y-42898D01*
X-27007Y-42191D01*
X-28066Y-41458D01*
X-29107Y-40700D01*
X-30130Y-39916D01*
X-31133Y-39108D01*
X-32116Y-38276D01*
X-33079Y-37421D01*
X-34020Y-36542D01*
X-34940Y-35640D01*
X-35838Y-34717D01*
X-36714Y-33772D01*
X-37566Y-32806D01*
X-38395Y-31820D01*
X-39199Y-30814D01*
X-39979Y-29789D01*
X-40733Y-28745D01*
X-41463Y-27684D01*
X-42166Y-26604D01*
X-42843Y-25509D01*
X-43493Y-24397D01*
X-44115Y-23269D01*
X-44711Y-22127D01*
X-45278Y-20971D01*
X-45818Y-19801D01*
X-46329Y-18619D01*
X-46811Y-17424D01*
X-47263Y-16218D01*
X-47687Y-15002D01*
X-48081Y-13776D01*
X-48445Y-12540D01*
X-44675Y-43563D02*
X-43578Y-44680D01*
X-42455Y-45771D01*
X-41306Y-46834D01*
X-40132Y-47870D01*
X-38933Y-48877D01*
X-37711Y-49856D01*
X-36466Y-50805D01*
X-35199Y-51724D01*
X-33910Y-52613D01*
X-32600Y-53470D01*
X-31270Y-54296D01*
X-29921Y-55091D01*
X-28553Y-55852D01*
X-27168Y-56581D01*
X-25765Y-57277D01*
X-24347Y-57939D01*
X-22912Y-58567D01*
X-21464Y-59161D01*
X-20001Y-59719D01*
X-18526Y-60243D01*
X-17039Y-60732D01*
X-15540Y-61185D01*
X-14031Y-61602D01*
X-12512Y-61982D01*
X-10985Y-62327D01*
X-9450Y-62635D01*
X-7908Y-62906D01*
X-6360Y-63141D01*
X-4807Y-63338D01*
X-3250Y-63498D01*
X-1689Y-63622D01*
X-4215Y-60889D02*
X-5747Y-60701D01*
X-7273Y-60476D01*
X-8794Y-60214D01*
X-10308Y-59915D01*
X-11814Y-59578D01*
X-13311Y-59205D01*
X-14799Y-58796D01*
X-16277Y-58350D01*
X-17743Y-57869D01*
X-19196Y-57351D01*
X-20637Y-56799D01*
X-22064Y-56211D01*
X-23476Y-55588D01*
X-24872Y-54931D01*
X-26252Y-54241D01*
X-27615Y-53516D01*
X-28959Y-52759D01*
X-30285Y-51969D01*
X-31591Y-51147D01*
X-32876Y-50293D01*
X-34140Y-49408D01*
X-35382Y-48492D01*
X-36602Y-47546D01*
X-37798Y-46571D01*
X-38969Y-45567D01*
X-40116Y-44534D01*
X-41237Y-43474D01*
X-42332Y-42387D01*
X-43400Y-41273D01*
X-44441Y-40133D01*
X-45453Y-38969D01*
X-46437Y-37779D01*
X-47391Y-36567D01*
X-48315Y-35331D01*
X-49209Y-34073D01*
X-50072Y-32794D01*
X-50903Y-31493D01*
X-51702Y-30173D01*
X-52469Y-28834D01*
X-53202Y-27477D01*
X-53903Y-26102D01*
X-54569Y-24710D01*
X-55202Y-23302D01*
X-55799Y-21879D01*
X-56362Y-20443D01*
X-56889Y-18992D01*
X-57381Y-17530D01*
X-57837Y-16055D01*
X-58257Y-14570D01*
X-58640Y-13076D01*
X-58987Y-11572D01*
X-59297Y-10060D01*
X-59570Y-8541D01*
X-59805Y-7016D01*
X-60003Y-5486D01*
X-60164Y-3951D01*
X-60287Y-2413D01*
X-45016Y-15080D02*
X-44587Y-16243D01*
X-44129Y-17395D01*
X-43644Y-18536D01*
X-43131Y-19664D01*
X-42590Y-20779D01*
X-42022Y-21881D01*
X-41428Y-22969D01*
X-40807Y-24042D01*
X-40160Y-25099D01*
X-39487Y-26140D01*
X-38789Y-27164D01*
X-38066Y-28171D01*
X-37318Y-29160D01*
X-36547Y-30130D01*
X-35752Y-31081D01*
X-34934Y-32013D01*
X-34094Y-32924D01*
X-33231Y-33814D01*
X-32347Y-34683D01*
X-31442Y-35530D01*
X-30516Y-36354D01*
X-29571Y-37156D01*
X-28606Y-37934D01*
X-27622Y-38688D01*
X-26621Y-39418D01*
X-25601Y-40124D01*
X-24565Y-40804D01*
X-23512Y-41458D01*
X-22444Y-42087D01*
X-21361Y-42689D01*
X-20263Y-43265D01*
X-19151Y-43813D01*
X-18026Y-44334D01*
X-16889Y-44828D01*
X-6745Y-58029D02*
X-8186Y-57784D01*
X-9621Y-57504D01*
X-11049Y-57190D01*
X-12468Y-56842D01*
X-13879Y-56459D01*
X-15280Y-56043D01*
X-16671Y-55593D01*
X-18051Y-55109D01*
X-19418Y-54592D01*
X-20773Y-54043D01*
X-22114Y-53461D01*
X-23441Y-52847D01*
X-24752Y-52201D01*
X-26047Y-51523D01*
X-27326Y-50815D01*
X-28587Y-50076D01*
X-29830Y-49306D01*
X-31054Y-48507D01*
X-32259Y-47679D01*
X-33443Y-46822D01*
X-34606Y-45936D01*
X-35748Y-45023D01*
X-36867Y-44083D01*
X-37963Y-43116D01*
X-39036Y-42122D01*
X-40084Y-41103D01*
X-41108Y-40060D01*
X-42105Y-38991D01*
X-43077Y-37899D01*
X-44023Y-36784D01*
X-44941Y-35647D01*
X-45831Y-34487D01*
X-46693Y-33307D01*
X-47527Y-32106D01*
X-48331Y-30885D01*
X-49106Y-29645D01*
X-49850Y-28387D01*
X-50564Y-27112D01*
X-51247Y-25819D01*
X-51899Y-24510D01*
X-52519Y-23187D01*
X-53106Y-21848D01*
X-53662Y-20496D01*
X-54184Y-19131D01*
X-54674Y-17753D01*
X-55130Y-16364D01*
X-55552Y-14965D01*
X-55941Y-13555D01*
X-56296Y-12137D01*
X-56616Y-10711D01*
X-56902Y-9277D01*
X-57153Y-7837D01*
X-57369Y-6391D01*
X-57551Y-4941D01*
X-41314Y-17624D02*
X-40831Y-18681D01*
X-40322Y-19726D01*
X-39788Y-20759D01*
X-39229Y-21778D01*
X-38646Y-22783D01*
X-38039Y-23775D01*
X-37408Y-24751D01*
X-36754Y-25712D01*
X-36077Y-26656D01*
X-35377Y-27584D01*
X-34655Y-28495D01*
X-33911Y-29388D01*
X-33145Y-30263D01*
X-32359Y-31119D01*
X-31553Y-31956D01*
X-30726Y-32773D01*
X-29880Y-33570D01*
X-29015Y-34346D01*
X-28131Y-35102D01*
X-27230Y-35835D01*
X-26311Y-36547D01*
X-25375Y-37236D01*
X-24422Y-37903D01*
X-23454Y-38546D01*
X-22471Y-39166D01*
X-21473Y-39761D01*
X-20461Y-40333D01*
X-19435Y-40880D01*
D11*
X-26500Y-25200D03*
X-53900Y-39800D03*
X-23000Y-33300D03*
X-45000Y50400D03*
D10*
X-44400Y43800D02*
X-45100Y43100D01*
D11*
X51100Y44900D03*
D10*
X44200Y44900D02*
X43800Y45300D01*
D11*
X52800Y-52400D03*
X-48500Y-46500D03*
D10*
X-48500Y-46600D02*
X-41600Y-46600D01*
X-40800Y-47400D01*
X45700Y-43400D02*
X46300Y-42800D01*
D12*
X-20500Y-19100D02*
X-26500Y-25100D01*
X-20500Y-19100D02*
X-18600Y-19100D01*
X52900Y-34400D02*
X52900Y-52400D01*
X52900Y-34400D02*
X53300Y-34000D01*
X51000Y45000D02*
X44100Y45000D01*
X43500Y45600D01*
X30200Y24000D02*
X25400Y19200D01*
X19500Y19200D01*
X-45100Y43100D02*
X-45100Y50400D01*
X-45100Y43100D02*
X-46200Y42000D01*
X-22900Y29600D02*
X-18600Y25300D01*
X-18600Y19000D01*
X19600Y-19100D02*
X41700Y-19100D01*
X23900Y-30400D02*
X19600Y-26100D01*
X19600Y-19200D01*
D13*
X-65800Y-11300D03*
X-48200Y-61100D03*
X-59400Y34300D03*
D14*
X-59400Y46100D01*
X-48100Y57400D01*
X-48100Y57700D01*
D13*
X-48100Y57700D03*
X1200Y-67402D03*
X55500Y-62200D03*
X-25375Y-65407D03*
D14*
X-57726Y-54524D02*
X-71650Y-40600D01*
X-67168Y-12650D02*
X-67150Y-12650D01*
X-65800Y-11300D01*
X-71650Y-17132D02*
X-71650Y-40600D01*
X-71650Y-17132D02*
X-67168Y-12650D01*
D10*
X-20725Y-70057D02*
X-17191Y-70057D01*
X-20725Y-70057D02*
X-25375Y-65407D01*
X-14536Y-67402D02*
X1200Y-67402D01*
X-14536Y-67402D02*
X-17191Y-70057D01*
X1200Y-67402D02*
X1290Y-67312D01*
X27895Y-71612D02*
X30595Y-68912D01*
X27895Y-71612D02*
X5410Y-71612D01*
X1200Y-67402D01*
X30595Y-68912D02*
X42400Y-68912D01*
X49112Y-62200D01*
X55500Y-62200D01*
D14*
X-48200Y-61100D02*
X-52025Y-57275D01*
X-54781Y-57275D01*
X-57532Y-54524D01*
X-57726Y-54524D01*
D13*
X-69600Y-53600D03*
X74900Y-46700D03*
X72700Y-51500D03*
X66500Y-55500D03*
X63100Y-67200D03*
X56800Y56500D03*
X53600Y64300D03*
X64100Y52100D03*
X74200Y45700D03*
X-70400Y48700D03*
D14*
X-48600Y66800D02*
X-48500Y66800D01*
D13*
X-48600Y66800D03*
X-73800Y73400D03*
X72900Y73900D03*
X72900Y60800D03*
X72400Y51300D03*
X74200Y31500D03*
X73600Y-59700D03*
X72100Y-67400D03*
X60000Y-72500D03*
X64400Y-60900D03*
X-74100Y-71000D03*
X73800Y-37900D03*
X-29600Y73800D03*
X30700Y72800D03*
X-24850Y66328D03*
D14*
X-48028Y66328D01*
X-48500Y66800D01*
D13*
X-65900Y35600D03*
X-58400Y-32600D03*
X-18900Y-65932D03*
D10*
X-19300Y63900D02*
X-21445Y63900D01*
X-19400Y64000D02*
X-19300Y63900D01*
D13*
X-19400Y64000D03*
X-74125Y-46325D03*
X-70967Y25567D03*
D10*
X-70975Y-49475D02*
X-67891Y-49475D01*
X-70975Y-49475D02*
X-74125Y-46325D01*
X-42549Y-61282D02*
X-23666Y-61282D01*
X-42549Y-61282D02*
X-46491Y-65225D01*
X-52141Y-65225D01*
X-67891Y-49475D01*
X-19016Y-65932D02*
X-18900Y-65932D01*
X-19016Y-65932D02*
X-23666Y-61282D01*
X-52225Y58048D02*
X-52225Y59409D01*
X-23141Y62203D02*
X-21445Y63900D01*
X-49431Y62203D02*
X-52225Y59409D01*
X-49431Y62203D02*
X-23141Y62203D01*
X-70967Y39306D02*
X-70967Y25567D01*
X-70967Y39306D02*
X-52225Y58048D01*
D13*
X-62579Y-22960D03*
D10*
X-62579Y-40621D01*
X-56700Y-46500D01*
X-48500Y-46500D01*
D13*
X-45700Y-53900D03*
X-65200Y-17400D03*
D10*
X-67100Y-19300D01*
X-67100Y-40183D01*
X-53383Y-53900D02*
X-45700Y-53900D01*
X-53383Y-53900D02*
X-67100Y-40183D01*
D13*
X60127Y32327D03*
X65435Y-17838D03*
D10*
X64435Y-40765D02*
X52800Y-52400D01*
X64435Y-40765D02*
X64435Y-18838D01*
X65435Y-17838D01*
D13*
X26187Y-67487D03*
X27800Y61800D03*
D10*
X25725Y-60388D02*
X25725Y-64012D01*
X26187Y-64474D02*
X26187Y-67487D01*
X26187Y-64474D02*
X25725Y-64012D01*
X25725Y-60388D02*
X29338Y-56775D01*
X54612Y-56775D01*
X66686Y-9200D02*
X66686Y33500D01*
X68560Y-20547D02*
X68560Y-42827D01*
X68560Y-20547D02*
X69560Y-19547D01*
X69560Y-12074D01*
X66686Y-9200D01*
X68560Y-42827D02*
X54612Y-56775D01*
X62775Y37411D02*
X62775Y40712D01*
X62775Y37411D02*
X66686Y33500D01*
X54212Y49275D02*
X43727Y49275D01*
X54212Y49275D02*
X62775Y40712D01*
X32261Y57339D02*
X27800Y61800D01*
X32261Y57339D02*
X35664Y57339D01*
X43727Y49275D01*
M02*
