G04 EAGLE Gerber X2 export*
%TF.Part,Single*%
%TF.FileFunction,Copper,L3,Inr,Mixed*%
%TF.FilePolarity,Positive*%
%TF.GenerationSoftware,Autodesk,EAGLE,9.0.1*%
%TF.CreationDate,2018-12-20T19:56:33Z*%
G75*
%MOMM*%
%FSLAX34Y34*%
%LPD*%
%AMOC8*
5,1,8,0,0,1.08239X$1,22.5*%
G01*
%ADD10C,0.125000*%
%ADD11C,0.450000*%
%ADD12C,0.127000*%
%ADD13C,0.300000*%


D10*
X-54516Y8996D02*
X-8594Y8996D01*
X-6896Y55128D02*
X-6094Y55258D01*
X-54377Y9660D02*
X-54516Y8996D01*
X-4366Y58003D02*
X-3594Y58090D01*
X-57379Y7128D02*
X-57479Y6496D01*
X-6094Y6496D01*
X-1094Y1496D02*
X-1094Y60795D01*
X-1094Y60795D01*
X-1839Y60744D01*
X-60235Y4599D02*
X-60301Y3996D01*
X-3594Y3996D02*
X-3594Y58090D01*
X-6094Y55258D02*
X-6094Y6496D01*
X-9428Y52098D02*
X-8594Y52280D01*
X-51203Y12195D02*
X-51392Y11496D01*
X-8594Y8996D02*
X-8594Y52280D01*
X-13594Y45771D02*
X-14500Y45450D01*
X-44197Y17277D02*
X-44525Y16496D01*
X-13594Y13996D02*
X-13594Y45771D01*
X-11962Y48884D02*
X-11094Y49128D01*
X-47825Y14734D02*
X-48075Y13996D01*
X-11094Y11496D02*
X-11094Y49129D01*
X-16094Y42161D02*
X-16094Y16496D01*
X-17041Y41742D02*
X-16094Y42161D01*
X-40256Y19825D02*
X-40685Y18996D01*
X-62964Y2072D02*
X-63002Y1496D01*
X-51392Y11496D02*
X-11094Y11496D01*
X-13594Y13996D02*
X-48075Y13996D01*
X-44525Y16496D02*
X-16094Y16496D01*
X-18594Y18996D02*
X-40685Y18996D01*
X-63002Y1496D02*
X-1094Y1496D01*
X-3594Y3996D02*
X-60301Y3996D01*
X-18594Y18996D02*
X-18594Y38231D01*
X-19586Y37684D01*
X-35901Y22379D02*
X-36470Y21496D01*
X-54376Y9660D02*
X-54067Y11052D01*
X-53724Y12436D01*
X-53348Y13811D01*
X-52938Y15177D01*
X-52494Y16532D01*
X-52017Y17876D01*
X-51508Y19208D01*
X-50966Y20527D01*
X-50391Y21832D01*
X-49785Y23122D01*
X-49148Y24398D01*
X-48479Y25657D01*
X-47780Y26900D01*
X-47050Y28125D01*
X-46291Y29332D01*
X-45502Y30520D01*
X-44684Y31688D01*
X-43838Y32836D01*
X-42964Y33962D01*
X-42062Y35067D01*
X-41134Y36149D01*
X-40179Y37209D01*
X-39199Y38244D01*
X-38194Y39255D01*
X-37164Y40242D01*
X-36110Y41202D01*
X-35033Y42137D01*
X-33933Y43045D01*
X-32812Y43925D01*
X-31669Y44778D01*
X-30506Y45602D01*
X-29322Y46398D01*
X-28120Y47164D01*
X-26899Y47901D01*
X-25660Y48608D01*
X-24405Y49284D01*
X-23133Y49929D01*
X-21846Y50542D01*
X-20544Y51124D01*
X-19228Y51673D01*
X-17900Y52191D01*
X-16558Y52675D01*
X-15206Y53127D01*
X-13843Y53545D01*
X-12469Y53929D01*
X-11087Y54280D01*
X-9697Y54597D01*
X-8299Y54879D01*
X-6895Y55127D01*
X-4366Y58002D02*
X-5816Y57819D01*
X-7261Y57600D01*
X-8701Y57347D01*
X-10134Y57060D01*
X-11560Y56737D01*
X-12977Y56381D01*
X-14386Y55990D01*
X-15785Y55566D01*
X-17173Y55108D01*
X-18549Y54616D01*
X-19914Y54092D01*
X-21265Y53535D01*
X-22603Y52945D01*
X-23926Y52324D01*
X-25233Y51670D01*
X-26525Y50986D01*
X-27799Y50270D01*
X-29056Y49524D01*
X-30295Y48748D01*
X-31514Y47942D01*
X-32714Y47107D01*
X-33893Y46243D01*
X-35051Y45351D01*
X-36187Y44431D01*
X-37301Y43485D01*
X-38391Y42511D01*
X-39458Y41512D01*
X-40500Y40487D01*
X-41518Y39438D01*
X-42510Y38364D01*
X-43475Y37266D01*
X-44414Y36146D01*
X-45325Y35003D01*
X-46209Y33839D01*
X-47065Y32654D01*
X-47891Y31448D01*
X-48688Y30223D01*
X-49456Y28979D01*
X-50193Y27717D01*
X-50900Y26437D01*
X-51575Y25141D01*
X-52219Y23829D01*
X-52832Y22502D01*
X-53412Y21160D01*
X-53959Y19805D01*
X-54474Y18437D01*
X-54956Y17057D01*
X-55404Y15665D01*
X-55818Y14264D01*
X-56199Y12852D01*
X-56545Y11432D01*
X-56858Y10004D01*
X-57135Y8569D01*
X-57378Y7128D01*
X-60234Y4599D02*
X-60049Y6130D01*
X-59826Y7657D01*
X-59565Y9178D01*
X-59268Y10692D01*
X-58934Y12199D01*
X-58563Y13696D01*
X-58156Y15185D01*
X-57712Y16662D01*
X-57232Y18129D01*
X-56717Y19583D01*
X-56166Y21025D01*
X-55580Y22452D01*
X-54960Y23865D01*
X-54305Y25262D01*
X-53616Y26643D01*
X-52893Y28006D01*
X-52138Y29351D01*
X-51350Y30678D01*
X-50529Y31985D01*
X-49677Y33271D01*
X-48794Y34536D01*
X-47880Y35780D01*
X-46936Y37000D01*
X-45962Y38197D01*
X-44960Y39370D01*
X-43929Y40518D01*
X-42870Y41641D01*
X-41784Y42737D01*
X-40672Y43806D01*
X-39534Y44848D01*
X-38371Y45862D01*
X-37183Y46847D01*
X-35972Y47803D01*
X-34737Y48729D01*
X-33481Y49624D01*
X-32203Y50488D01*
X-30904Y51321D01*
X-29585Y52122D01*
X-28247Y52891D01*
X-26890Y53626D01*
X-25516Y54328D01*
X-24126Y54996D01*
X-22719Y55630D01*
X-21297Y56230D01*
X-19861Y56795D01*
X-18412Y57324D01*
X-16950Y57818D01*
X-15476Y58276D01*
X-13992Y58697D01*
X-12498Y59083D01*
X-10995Y59431D01*
X-9484Y59743D01*
X-7965Y60018D01*
X-6441Y60255D01*
X-4911Y60456D01*
X-3377Y60618D01*
X-1839Y60744D01*
X-9427Y52097D02*
X-10742Y51791D01*
X-12049Y51453D01*
X-13347Y51084D01*
X-14636Y50684D01*
X-15915Y50252D01*
X-17183Y49789D01*
X-18439Y49296D01*
X-19684Y48772D01*
X-20915Y48218D01*
X-22132Y47635D01*
X-23335Y47022D01*
X-24522Y46380D01*
X-25694Y45710D01*
X-26849Y45011D01*
X-27986Y44285D01*
X-29106Y43531D01*
X-30207Y42750D01*
X-31289Y41943D01*
X-32351Y41109D01*
X-33392Y40250D01*
X-34412Y39367D01*
X-35411Y38458D01*
X-36387Y37526D01*
X-37340Y36570D01*
X-38270Y35591D01*
X-39175Y34591D01*
X-40057Y33568D01*
X-40913Y32524D01*
X-41743Y31460D01*
X-42548Y30376D01*
X-43325Y29273D01*
X-44076Y28151D01*
X-44800Y27012D01*
X-45495Y25855D01*
X-46163Y24682D01*
X-46801Y23492D01*
X-47411Y22288D01*
X-47991Y21069D01*
X-48541Y19837D01*
X-49062Y18591D01*
X-49552Y17333D01*
X-50011Y16064D01*
X-50439Y14784D01*
X-50837Y13494D01*
X-51202Y12195D01*
X-44197Y17276D02*
X-43705Y18414D01*
X-43186Y19540D01*
X-42639Y20652D01*
X-42066Y21751D01*
X-41465Y22835D01*
X-40839Y23904D01*
X-40186Y24958D01*
X-39508Y25995D01*
X-38804Y27016D01*
X-38076Y28018D01*
X-37323Y29003D01*
X-36547Y29969D01*
X-35747Y30916D01*
X-34924Y31843D01*
X-34079Y32749D01*
X-33211Y33635D01*
X-32323Y34498D01*
X-31413Y35340D01*
X-30483Y36160D01*
X-29534Y36956D01*
X-28565Y37729D01*
X-27577Y38478D01*
X-26572Y39203D01*
X-25549Y39902D01*
X-24509Y40577D01*
X-23453Y41226D01*
X-22381Y41848D01*
X-21295Y42445D01*
X-20194Y43014D01*
X-19079Y43557D01*
X-17952Y44072D01*
X-16813Y44559D01*
X-15661Y45018D01*
X-14499Y45449D01*
X-11962Y48883D02*
X-13196Y48517D01*
X-14422Y48121D01*
X-15637Y47696D01*
X-16842Y47241D01*
X-18036Y46758D01*
X-19217Y46245D01*
X-20386Y45704D01*
X-21541Y45134D01*
X-22682Y44537D01*
X-23809Y43913D01*
X-24920Y43261D01*
X-26014Y42583D01*
X-27092Y41878D01*
X-28153Y41147D01*
X-29195Y40391D01*
X-30219Y39609D01*
X-31223Y38804D01*
X-32208Y37974D01*
X-33173Y37120D01*
X-34116Y36243D01*
X-35038Y35344D01*
X-35938Y34422D01*
X-36815Y33479D01*
X-37669Y32515D01*
X-38499Y31531D01*
X-39305Y30527D01*
X-40087Y29503D01*
X-40844Y28461D01*
X-41575Y27401D01*
X-42280Y26323D01*
X-42959Y25229D01*
X-43612Y24118D01*
X-44237Y22992D01*
X-44834Y21852D01*
X-45404Y20697D01*
X-45946Y19528D01*
X-46459Y18347D01*
X-46943Y17153D01*
X-47398Y15949D01*
X-47824Y14733D01*
X-40255Y19824D02*
X-39710Y20851D01*
X-39140Y21864D01*
X-38546Y22863D01*
X-37929Y23847D01*
X-37287Y24816D01*
X-36622Y25770D01*
X-35935Y26707D01*
X-35225Y27627D01*
X-34493Y28530D01*
X-33739Y29415D01*
X-32965Y30281D01*
X-32169Y31128D01*
X-31354Y31956D01*
X-30518Y32764D01*
X-29664Y33552D01*
X-28790Y34318D01*
X-27898Y35064D01*
X-26989Y35787D01*
X-26062Y36489D01*
X-25119Y37168D01*
X-24160Y37824D01*
X-23185Y38456D01*
X-22195Y39065D01*
X-21190Y39650D01*
X-20172Y40210D01*
X-19141Y40746D01*
X-18096Y41256D01*
X-17040Y41741D01*
X-36180Y50771D02*
X-37456Y49815D01*
X-38708Y48829D01*
X-39936Y47812D01*
X-41139Y46766D01*
X-42317Y45691D01*
X-43467Y44588D01*
X-44591Y43457D01*
X-45687Y42300D01*
X-46754Y41116D01*
X-47792Y39906D01*
X-48801Y38672D01*
X-49779Y37413D01*
X-50727Y36131D01*
X-51643Y34826D01*
X-52527Y33500D01*
X-53378Y32152D01*
X-54197Y30784D01*
X-54982Y29397D01*
X-55733Y27991D01*
X-56450Y26567D01*
X-57132Y25126D01*
X-57779Y23669D01*
X-58390Y22197D01*
X-58965Y20710D01*
X-59504Y19210D01*
X-60007Y17697D01*
X-60472Y16172D01*
X-60901Y14637D01*
X-61291Y13091D01*
X-61645Y11537D01*
X-61960Y9974D01*
X-62237Y8405D01*
X-62476Y6828D01*
X-62677Y5247D01*
X-62839Y3661D01*
X-62963Y2072D01*
X-35901Y22379D02*
X-35310Y23278D01*
X-34697Y24163D01*
X-34065Y25034D01*
X-33411Y25889D01*
X-32738Y26728D01*
X-32045Y27552D01*
X-31333Y28359D01*
X-30603Y29149D01*
X-29853Y29921D01*
X-29086Y30676D01*
X-28301Y31412D01*
X-27499Y32130D01*
X-26680Y32828D01*
X-25845Y33507D01*
X-24994Y34166D01*
X-24128Y34805D01*
X-23247Y35423D01*
X-22352Y36020D01*
X-21443Y36596D01*
X-20521Y37151D01*
X-19585Y37683D01*
D11*
X-23200Y29600D03*
X-49600Y44800D03*
X-28500Y24000D03*
D10*
X9396Y9094D02*
X9396Y55016D01*
X55528Y7396D02*
X55658Y6594D01*
X10060Y54877D02*
X9396Y55016D01*
X58403Y4866D02*
X58490Y4094D01*
X7528Y57879D02*
X6896Y57979D01*
X6896Y6594D01*
X1896Y1594D02*
X61195Y1594D01*
X61195Y1594D01*
X61144Y2339D01*
X4999Y60735D02*
X4396Y60801D01*
X4396Y4094D02*
X58490Y4094D01*
X55658Y6594D02*
X6896Y6594D01*
X52498Y9928D02*
X52680Y9094D01*
X12595Y51703D02*
X11896Y51892D01*
X9396Y9094D02*
X52680Y9094D01*
X46171Y14094D02*
X45850Y15000D01*
X17677Y44697D02*
X16896Y45025D01*
X14396Y14094D02*
X46171Y14094D01*
X49284Y12462D02*
X49528Y11594D01*
X15134Y48325D02*
X14396Y48575D01*
X11896Y11594D02*
X49529Y11594D01*
X42561Y16594D02*
X16896Y16594D01*
X42142Y17541D02*
X42561Y16594D01*
X20225Y40756D02*
X19396Y41185D01*
X2472Y63464D02*
X1896Y63502D01*
X11896Y51892D02*
X11896Y11594D01*
X14396Y14094D02*
X14396Y48575D01*
X16896Y45025D02*
X16896Y16594D01*
X19396Y19094D02*
X19396Y41185D01*
X1896Y63502D02*
X1896Y1594D01*
X4396Y4094D02*
X4396Y60801D01*
X19396Y19094D02*
X38631Y19094D01*
X38084Y20086D01*
X22779Y36401D02*
X21896Y36970D01*
X10060Y54876D02*
X11452Y54567D01*
X12836Y54224D01*
X14211Y53848D01*
X15577Y53438D01*
X16932Y52994D01*
X18276Y52517D01*
X19608Y52008D01*
X20927Y51466D01*
X22232Y50891D01*
X23522Y50285D01*
X24798Y49648D01*
X26057Y48979D01*
X27300Y48280D01*
X28525Y47550D01*
X29732Y46791D01*
X30920Y46002D01*
X32088Y45184D01*
X33236Y44338D01*
X34362Y43464D01*
X35467Y42562D01*
X36549Y41634D01*
X37609Y40679D01*
X38644Y39699D01*
X39655Y38694D01*
X40642Y37664D01*
X41602Y36610D01*
X42537Y35533D01*
X43445Y34433D01*
X44325Y33312D01*
X45178Y32169D01*
X46002Y31006D01*
X46798Y29822D01*
X47564Y28620D01*
X48301Y27399D01*
X49008Y26160D01*
X49684Y24905D01*
X50329Y23633D01*
X50942Y22346D01*
X51524Y21044D01*
X52073Y19728D01*
X52591Y18400D01*
X53075Y17058D01*
X53527Y15706D01*
X53945Y14343D01*
X54329Y12969D01*
X54680Y11587D01*
X54997Y10197D01*
X55279Y8799D01*
X55527Y7395D01*
X58402Y4866D02*
X58219Y6316D01*
X58000Y7761D01*
X57747Y9201D01*
X57460Y10634D01*
X57137Y12060D01*
X56781Y13477D01*
X56390Y14886D01*
X55966Y16285D01*
X55508Y17673D01*
X55016Y19049D01*
X54492Y20414D01*
X53935Y21765D01*
X53345Y23103D01*
X52724Y24426D01*
X52070Y25733D01*
X51386Y27025D01*
X50670Y28299D01*
X49924Y29556D01*
X49148Y30795D01*
X48342Y32014D01*
X47507Y33214D01*
X46643Y34393D01*
X45751Y35551D01*
X44831Y36687D01*
X43885Y37801D01*
X42911Y38891D01*
X41912Y39958D01*
X40887Y41000D01*
X39838Y42018D01*
X38764Y43010D01*
X37666Y43975D01*
X36546Y44914D01*
X35403Y45825D01*
X34239Y46709D01*
X33054Y47565D01*
X31848Y48391D01*
X30623Y49188D01*
X29379Y49956D01*
X28117Y50693D01*
X26837Y51400D01*
X25541Y52075D01*
X24229Y52719D01*
X22902Y53332D01*
X21560Y53912D01*
X20205Y54459D01*
X18837Y54974D01*
X17457Y55456D01*
X16065Y55904D01*
X14664Y56318D01*
X13252Y56699D01*
X11832Y57045D01*
X10404Y57358D01*
X8969Y57635D01*
X7528Y57878D01*
X4999Y60734D02*
X6530Y60549D01*
X8057Y60326D01*
X9578Y60065D01*
X11092Y59768D01*
X12599Y59434D01*
X14096Y59063D01*
X15585Y58656D01*
X17062Y58212D01*
X18529Y57732D01*
X19983Y57217D01*
X21425Y56666D01*
X22852Y56080D01*
X24265Y55460D01*
X25662Y54805D01*
X27043Y54116D01*
X28406Y53393D01*
X29751Y52638D01*
X31078Y51850D01*
X32385Y51029D01*
X33671Y50177D01*
X34936Y49294D01*
X36180Y48380D01*
X37400Y47436D01*
X38597Y46462D01*
X39770Y45460D01*
X40918Y44429D01*
X42041Y43370D01*
X43137Y42284D01*
X44206Y41172D01*
X45248Y40034D01*
X46262Y38871D01*
X47247Y37683D01*
X48203Y36472D01*
X49129Y35237D01*
X50024Y33981D01*
X50888Y32703D01*
X51721Y31404D01*
X52522Y30085D01*
X53291Y28747D01*
X54026Y27390D01*
X54728Y26016D01*
X55396Y24626D01*
X56030Y23219D01*
X56630Y21797D01*
X57195Y20361D01*
X57724Y18912D01*
X58218Y17450D01*
X58676Y15976D01*
X59097Y14492D01*
X59483Y12998D01*
X59831Y11495D01*
X60143Y9984D01*
X60418Y8465D01*
X60655Y6941D01*
X60856Y5411D01*
X61018Y3877D01*
X61144Y2339D01*
X52497Y9927D02*
X52191Y11242D01*
X51853Y12549D01*
X51484Y13847D01*
X51084Y15136D01*
X50652Y16415D01*
X50189Y17683D01*
X49696Y18939D01*
X49172Y20184D01*
X48618Y21415D01*
X48035Y22632D01*
X47422Y23835D01*
X46780Y25022D01*
X46110Y26194D01*
X45411Y27349D01*
X44685Y28486D01*
X43931Y29606D01*
X43150Y30707D01*
X42343Y31789D01*
X41509Y32851D01*
X40650Y33892D01*
X39767Y34912D01*
X38858Y35911D01*
X37926Y36887D01*
X36970Y37840D01*
X35991Y38770D01*
X34991Y39675D01*
X33968Y40557D01*
X32924Y41413D01*
X31860Y42243D01*
X30776Y43048D01*
X29673Y43825D01*
X28551Y44576D01*
X27412Y45300D01*
X26255Y45995D01*
X25082Y46663D01*
X23892Y47301D01*
X22688Y47911D01*
X21469Y48491D01*
X20237Y49041D01*
X18991Y49562D01*
X17733Y50052D01*
X16464Y50511D01*
X15184Y50939D01*
X13894Y51337D01*
X12595Y51702D01*
X17676Y44697D02*
X18814Y44205D01*
X19940Y43686D01*
X21052Y43139D01*
X22151Y42566D01*
X23235Y41965D01*
X24304Y41339D01*
X25358Y40686D01*
X26395Y40008D01*
X27416Y39304D01*
X28418Y38576D01*
X29403Y37823D01*
X30369Y37047D01*
X31316Y36247D01*
X32243Y35424D01*
X33149Y34579D01*
X34035Y33711D01*
X34898Y32823D01*
X35740Y31913D01*
X36560Y30983D01*
X37356Y30034D01*
X38129Y29065D01*
X38878Y28077D01*
X39603Y27072D01*
X40302Y26049D01*
X40977Y25009D01*
X41626Y23953D01*
X42248Y22881D01*
X42845Y21795D01*
X43414Y20694D01*
X43957Y19579D01*
X44472Y18452D01*
X44959Y17313D01*
X45418Y16161D01*
X45849Y14999D01*
X49283Y12462D02*
X48917Y13696D01*
X48521Y14922D01*
X48096Y16137D01*
X47641Y17342D01*
X47158Y18536D01*
X46645Y19717D01*
X46104Y20886D01*
X45534Y22041D01*
X44937Y23182D01*
X44313Y24309D01*
X43661Y25420D01*
X42983Y26514D01*
X42278Y27592D01*
X41547Y28653D01*
X40791Y29695D01*
X40009Y30719D01*
X39204Y31723D01*
X38374Y32708D01*
X37520Y33673D01*
X36643Y34616D01*
X35744Y35538D01*
X34822Y36438D01*
X33879Y37315D01*
X32915Y38169D01*
X31931Y38999D01*
X30927Y39805D01*
X29903Y40587D01*
X28861Y41344D01*
X27801Y42075D01*
X26723Y42780D01*
X25629Y43459D01*
X24518Y44112D01*
X23392Y44737D01*
X22252Y45334D01*
X21097Y45904D01*
X19928Y46446D01*
X18747Y46959D01*
X17553Y47443D01*
X16349Y47898D01*
X15133Y48324D01*
X20224Y40755D02*
X21251Y40210D01*
X22264Y39640D01*
X23263Y39046D01*
X24247Y38429D01*
X25216Y37787D01*
X26170Y37122D01*
X27107Y36435D01*
X28027Y35725D01*
X28930Y34993D01*
X29815Y34239D01*
X30681Y33465D01*
X31528Y32669D01*
X32356Y31854D01*
X33164Y31018D01*
X33952Y30164D01*
X34718Y29290D01*
X35464Y28398D01*
X36187Y27489D01*
X36889Y26562D01*
X37568Y25619D01*
X38224Y24660D01*
X38856Y23685D01*
X39465Y22695D01*
X40050Y21690D01*
X40610Y20672D01*
X41146Y19641D01*
X41656Y18596D01*
X42141Y17540D01*
X51171Y36680D02*
X50215Y37956D01*
X49229Y39208D01*
X48212Y40436D01*
X47166Y41639D01*
X46091Y42817D01*
X44988Y43967D01*
X43857Y45091D01*
X42700Y46187D01*
X41516Y47254D01*
X40306Y48292D01*
X39072Y49301D01*
X37813Y50279D01*
X36531Y51227D01*
X35226Y52143D01*
X33900Y53027D01*
X32552Y53878D01*
X31184Y54697D01*
X29797Y55482D01*
X28391Y56233D01*
X26967Y56950D01*
X25526Y57632D01*
X24069Y58279D01*
X22597Y58890D01*
X21110Y59465D01*
X19610Y60004D01*
X18097Y60507D01*
X16572Y60972D01*
X15037Y61401D01*
X13491Y61791D01*
X11937Y62145D01*
X10374Y62460D01*
X8805Y62737D01*
X7228Y62976D01*
X5647Y63177D01*
X4061Y63339D01*
X2472Y63463D01*
X22779Y36401D02*
X23678Y35810D01*
X24563Y35197D01*
X25434Y34565D01*
X26289Y33911D01*
X27128Y33238D01*
X27952Y32545D01*
X28759Y31833D01*
X29549Y31103D01*
X30321Y30353D01*
X31076Y29586D01*
X31812Y28801D01*
X32530Y27999D01*
X33228Y27180D01*
X33907Y26345D01*
X34566Y25494D01*
X35205Y24628D01*
X35823Y23747D01*
X36420Y22852D01*
X36996Y21943D01*
X37551Y21021D01*
X38083Y20085D01*
D11*
X30100Y23900D03*
X58400Y38900D03*
X25600Y28700D03*
D10*
X9394Y-9196D02*
X55316Y-9196D01*
X7696Y-55328D02*
X6894Y-55458D01*
X55177Y-9860D02*
X55316Y-9196D01*
X5166Y-58203D02*
X4394Y-58290D01*
X58179Y-7328D02*
X58279Y-6696D01*
X6894Y-6696D01*
X1894Y-1696D02*
X1894Y-60995D01*
X1894Y-60995D01*
X2639Y-60944D01*
X61035Y-4799D02*
X61101Y-4196D01*
X4394Y-4196D02*
X4394Y-58290D01*
X6894Y-55458D02*
X6894Y-6696D01*
X10228Y-52298D02*
X9394Y-52480D01*
X52003Y-12395D02*
X52192Y-11696D01*
X9394Y-9196D02*
X9394Y-52480D01*
X14394Y-45971D02*
X15300Y-45650D01*
X44997Y-17477D02*
X45325Y-16696D01*
X14394Y-14196D02*
X14394Y-45971D01*
X12762Y-49084D02*
X11894Y-49328D01*
X48625Y-14934D02*
X48875Y-14196D01*
X11894Y-11696D02*
X11894Y-49329D01*
X16894Y-42361D02*
X16894Y-16696D01*
X17841Y-41942D02*
X16894Y-42361D01*
X41056Y-20025D02*
X41485Y-19196D01*
X63764Y-2272D02*
X63802Y-1696D01*
X52192Y-11696D02*
X11894Y-11696D01*
X14394Y-14196D02*
X48875Y-14196D01*
X45325Y-16696D02*
X16894Y-16696D01*
X19394Y-19196D02*
X41485Y-19196D01*
X63802Y-1696D02*
X1894Y-1696D01*
X4394Y-4196D02*
X61101Y-4196D01*
X19394Y-19196D02*
X19394Y-38431D01*
X20386Y-37884D01*
X36701Y-22579D02*
X37270Y-21696D01*
X55176Y-9860D02*
X54867Y-11252D01*
X54524Y-12636D01*
X54148Y-14011D01*
X53738Y-15377D01*
X53294Y-16732D01*
X52817Y-18076D01*
X52308Y-19408D01*
X51766Y-20727D01*
X51191Y-22032D01*
X50585Y-23322D01*
X49948Y-24598D01*
X49279Y-25857D01*
X48580Y-27100D01*
X47850Y-28325D01*
X47091Y-29532D01*
X46302Y-30720D01*
X45484Y-31888D01*
X44638Y-33036D01*
X43764Y-34162D01*
X42862Y-35267D01*
X41934Y-36349D01*
X40979Y-37409D01*
X39999Y-38444D01*
X38994Y-39455D01*
X37964Y-40442D01*
X36910Y-41402D01*
X35833Y-42337D01*
X34733Y-43245D01*
X33612Y-44125D01*
X32469Y-44978D01*
X31306Y-45802D01*
X30122Y-46598D01*
X28920Y-47364D01*
X27699Y-48101D01*
X26460Y-48808D01*
X25205Y-49484D01*
X23933Y-50129D01*
X22646Y-50742D01*
X21344Y-51324D01*
X20028Y-51873D01*
X18700Y-52391D01*
X17358Y-52875D01*
X16006Y-53327D01*
X14643Y-53745D01*
X13269Y-54129D01*
X11887Y-54480D01*
X10497Y-54797D01*
X9099Y-55079D01*
X7695Y-55327D01*
X5166Y-58202D02*
X6616Y-58019D01*
X8061Y-57800D01*
X9501Y-57547D01*
X10934Y-57260D01*
X12360Y-56937D01*
X13777Y-56581D01*
X15186Y-56190D01*
X16585Y-55766D01*
X17973Y-55308D01*
X19349Y-54816D01*
X20714Y-54292D01*
X22065Y-53735D01*
X23403Y-53145D01*
X24726Y-52524D01*
X26033Y-51870D01*
X27325Y-51186D01*
X28599Y-50470D01*
X29856Y-49724D01*
X31095Y-48948D01*
X32314Y-48142D01*
X33514Y-47307D01*
X34693Y-46443D01*
X35851Y-45551D01*
X36987Y-44631D01*
X38101Y-43685D01*
X39191Y-42711D01*
X40258Y-41712D01*
X41300Y-40687D01*
X42318Y-39638D01*
X43310Y-38564D01*
X44275Y-37466D01*
X45214Y-36346D01*
X46125Y-35203D01*
X47009Y-34039D01*
X47865Y-32854D01*
X48691Y-31648D01*
X49488Y-30423D01*
X50256Y-29179D01*
X50993Y-27917D01*
X51700Y-26637D01*
X52375Y-25341D01*
X53019Y-24029D01*
X53632Y-22702D01*
X54212Y-21360D01*
X54759Y-20005D01*
X55274Y-18637D01*
X55756Y-17257D01*
X56204Y-15865D01*
X56618Y-14464D01*
X56999Y-13052D01*
X57345Y-11632D01*
X57658Y-10204D01*
X57935Y-8769D01*
X58178Y-7328D01*
X61034Y-4799D02*
X60849Y-6330D01*
X60626Y-7857D01*
X60365Y-9378D01*
X60068Y-10892D01*
X59734Y-12399D01*
X59363Y-13896D01*
X58956Y-15385D01*
X58512Y-16862D01*
X58032Y-18329D01*
X57517Y-19783D01*
X56966Y-21225D01*
X56380Y-22652D01*
X55760Y-24065D01*
X55105Y-25462D01*
X54416Y-26843D01*
X53693Y-28206D01*
X52938Y-29551D01*
X52150Y-30878D01*
X51329Y-32185D01*
X50477Y-33471D01*
X49594Y-34736D01*
X48680Y-35980D01*
X47736Y-37200D01*
X46762Y-38397D01*
X45760Y-39570D01*
X44729Y-40718D01*
X43670Y-41841D01*
X42584Y-42937D01*
X41472Y-44006D01*
X40334Y-45048D01*
X39171Y-46062D01*
X37983Y-47047D01*
X36772Y-48003D01*
X35537Y-48929D01*
X34281Y-49824D01*
X33003Y-50688D01*
X31704Y-51521D01*
X30385Y-52322D01*
X29047Y-53091D01*
X27690Y-53826D01*
X26316Y-54528D01*
X24926Y-55196D01*
X23519Y-55830D01*
X22097Y-56430D01*
X20661Y-56995D01*
X19212Y-57524D01*
X17750Y-58018D01*
X16276Y-58476D01*
X14792Y-58897D01*
X13298Y-59283D01*
X11795Y-59631D01*
X10284Y-59943D01*
X8765Y-60218D01*
X7241Y-60455D01*
X5711Y-60656D01*
X4177Y-60818D01*
X2639Y-60944D01*
X10227Y-52297D02*
X11542Y-51991D01*
X12849Y-51653D01*
X14147Y-51284D01*
X15436Y-50884D01*
X16715Y-50452D01*
X17983Y-49989D01*
X19239Y-49496D01*
X20484Y-48972D01*
X21715Y-48418D01*
X22932Y-47835D01*
X24135Y-47222D01*
X25322Y-46580D01*
X26494Y-45910D01*
X27649Y-45211D01*
X28786Y-44485D01*
X29906Y-43731D01*
X31007Y-42950D01*
X32089Y-42143D01*
X33151Y-41309D01*
X34192Y-40450D01*
X35212Y-39567D01*
X36211Y-38658D01*
X37187Y-37726D01*
X38140Y-36770D01*
X39070Y-35791D01*
X39975Y-34791D01*
X40857Y-33768D01*
X41713Y-32724D01*
X42543Y-31660D01*
X43348Y-30576D01*
X44125Y-29473D01*
X44876Y-28351D01*
X45600Y-27212D01*
X46295Y-26055D01*
X46963Y-24882D01*
X47601Y-23692D01*
X48211Y-22488D01*
X48791Y-21269D01*
X49341Y-20037D01*
X49862Y-18791D01*
X50352Y-17533D01*
X50811Y-16264D01*
X51239Y-14984D01*
X51637Y-13694D01*
X52002Y-12395D01*
X44997Y-17476D02*
X44505Y-18614D01*
X43986Y-19740D01*
X43439Y-20852D01*
X42866Y-21951D01*
X42265Y-23035D01*
X41639Y-24104D01*
X40986Y-25158D01*
X40308Y-26195D01*
X39604Y-27216D01*
X38876Y-28218D01*
X38123Y-29203D01*
X37347Y-30169D01*
X36547Y-31116D01*
X35724Y-32043D01*
X34879Y-32949D01*
X34011Y-33835D01*
X33123Y-34698D01*
X32213Y-35540D01*
X31283Y-36360D01*
X30334Y-37156D01*
X29365Y-37929D01*
X28377Y-38678D01*
X27372Y-39403D01*
X26349Y-40102D01*
X25309Y-40777D01*
X24253Y-41426D01*
X23181Y-42048D01*
X22095Y-42645D01*
X20994Y-43214D01*
X19879Y-43757D01*
X18752Y-44272D01*
X17613Y-44759D01*
X16461Y-45218D01*
X15299Y-45649D01*
X12762Y-49083D02*
X13996Y-48717D01*
X15222Y-48321D01*
X16437Y-47896D01*
X17642Y-47441D01*
X18836Y-46958D01*
X20017Y-46445D01*
X21186Y-45904D01*
X22341Y-45334D01*
X23482Y-44737D01*
X24609Y-44113D01*
X25720Y-43461D01*
X26814Y-42783D01*
X27892Y-42078D01*
X28953Y-41347D01*
X29995Y-40591D01*
X31019Y-39809D01*
X32023Y-39004D01*
X33008Y-38174D01*
X33973Y-37320D01*
X34916Y-36443D01*
X35838Y-35544D01*
X36738Y-34622D01*
X37615Y-33679D01*
X38469Y-32715D01*
X39299Y-31731D01*
X40105Y-30727D01*
X40887Y-29703D01*
X41644Y-28661D01*
X42375Y-27601D01*
X43080Y-26523D01*
X43759Y-25429D01*
X44412Y-24318D01*
X45037Y-23192D01*
X45634Y-22052D01*
X46204Y-20897D01*
X46746Y-19728D01*
X47259Y-18547D01*
X47743Y-17353D01*
X48198Y-16149D01*
X48624Y-14933D01*
X41055Y-20024D02*
X40510Y-21051D01*
X39940Y-22064D01*
X39346Y-23063D01*
X38729Y-24047D01*
X38087Y-25016D01*
X37422Y-25970D01*
X36735Y-26907D01*
X36025Y-27827D01*
X35293Y-28730D01*
X34539Y-29615D01*
X33765Y-30481D01*
X32969Y-31328D01*
X32154Y-32156D01*
X31318Y-32964D01*
X30464Y-33752D01*
X29590Y-34518D01*
X28698Y-35264D01*
X27789Y-35987D01*
X26862Y-36689D01*
X25919Y-37368D01*
X24960Y-38024D01*
X23985Y-38656D01*
X22995Y-39265D01*
X21990Y-39850D01*
X20972Y-40410D01*
X19941Y-40946D01*
X18896Y-41456D01*
X17840Y-41941D01*
X36980Y-50971D02*
X38256Y-50015D01*
X39508Y-49029D01*
X40736Y-48012D01*
X41939Y-46966D01*
X43117Y-45891D01*
X44267Y-44788D01*
X45391Y-43657D01*
X46487Y-42500D01*
X47554Y-41316D01*
X48592Y-40106D01*
X49601Y-38872D01*
X50579Y-37613D01*
X51527Y-36331D01*
X52443Y-35026D01*
X53327Y-33700D01*
X54178Y-32352D01*
X54997Y-30984D01*
X55782Y-29597D01*
X56533Y-28191D01*
X57250Y-26767D01*
X57932Y-25326D01*
X58579Y-23869D01*
X59190Y-22397D01*
X59765Y-20910D01*
X60304Y-19410D01*
X60807Y-17897D01*
X61272Y-16372D01*
X61701Y-14837D01*
X62091Y-13291D01*
X62445Y-11737D01*
X62760Y-10174D01*
X63037Y-8605D01*
X63276Y-7028D01*
X63477Y-5447D01*
X63639Y-3861D01*
X63763Y-2272D01*
X36701Y-22579D02*
X36110Y-23478D01*
X35497Y-24363D01*
X34865Y-25234D01*
X34211Y-26089D01*
X33538Y-26928D01*
X32845Y-27752D01*
X32133Y-28559D01*
X31403Y-29349D01*
X30653Y-30121D01*
X29886Y-30876D01*
X29101Y-31612D01*
X28299Y-32330D01*
X27480Y-33028D01*
X26645Y-33707D01*
X25794Y-34366D01*
X24928Y-35005D01*
X24047Y-35623D01*
X23152Y-36220D01*
X22243Y-36796D01*
X21321Y-37351D01*
X20385Y-37883D01*
D11*
X23900Y-30300D03*
X30100Y-62200D03*
X30400Y-23700D03*
D10*
X-8496Y-9194D02*
X-8496Y-55116D01*
X-54628Y-7496D02*
X-54758Y-6694D01*
X-9160Y-54977D02*
X-8496Y-55116D01*
X-57503Y-4966D02*
X-57590Y-4194D01*
X-6628Y-57979D02*
X-5996Y-58079D01*
X-5996Y-6694D01*
X-996Y-1694D02*
X-60295Y-1694D01*
X-60295Y-1694D01*
X-60244Y-2439D01*
X-4099Y-60835D02*
X-3496Y-60901D01*
X-3496Y-4194D02*
X-57590Y-4194D01*
X-54758Y-6694D02*
X-5996Y-6694D01*
X-51598Y-10028D02*
X-51780Y-9194D01*
X-11695Y-51803D02*
X-10996Y-51992D01*
X-8496Y-9194D02*
X-51780Y-9194D01*
X-45271Y-14194D02*
X-44950Y-15100D01*
X-16777Y-44797D02*
X-15996Y-45125D01*
X-13496Y-14194D02*
X-45271Y-14194D01*
X-48384Y-12562D02*
X-48628Y-11694D01*
X-14234Y-48425D02*
X-13496Y-48675D01*
X-10996Y-11694D02*
X-48629Y-11694D01*
X-41661Y-16694D02*
X-15996Y-16694D01*
X-41242Y-17641D02*
X-41661Y-16694D01*
X-19325Y-40856D02*
X-18496Y-41285D01*
X-1572Y-63564D02*
X-996Y-63602D01*
X-10996Y-51992D02*
X-10996Y-11694D01*
X-13496Y-14194D02*
X-13496Y-48675D01*
X-15996Y-45125D02*
X-15996Y-16694D01*
X-996Y-1694D02*
X-996Y-63602D01*
X-3496Y-60901D02*
X-3496Y-4194D01*
X-9160Y-54976D02*
X-10552Y-54667D01*
X-11936Y-54324D01*
X-13311Y-53948D01*
X-14677Y-53538D01*
X-16032Y-53094D01*
X-17376Y-52617D01*
X-18708Y-52108D01*
X-20027Y-51566D01*
X-21332Y-50991D01*
X-22622Y-50385D01*
X-23898Y-49748D01*
X-25157Y-49079D01*
X-26400Y-48380D01*
X-27625Y-47650D01*
X-28832Y-46891D01*
X-30020Y-46102D01*
X-31188Y-45284D01*
X-32336Y-44438D01*
X-33462Y-43564D01*
X-34567Y-42662D01*
X-35649Y-41734D01*
X-36709Y-40779D01*
X-37744Y-39799D01*
X-38755Y-38794D01*
X-39742Y-37764D01*
X-40702Y-36710D01*
X-41637Y-35633D01*
X-42545Y-34533D01*
X-43425Y-33412D01*
X-44278Y-32269D01*
X-45102Y-31106D01*
X-45898Y-29922D01*
X-46664Y-28720D01*
X-47401Y-27499D01*
X-48108Y-26260D01*
X-48784Y-25005D01*
X-49429Y-23733D01*
X-50042Y-22446D01*
X-50624Y-21144D01*
X-51173Y-19828D01*
X-51691Y-18500D01*
X-52175Y-17158D01*
X-52627Y-15806D01*
X-53045Y-14443D01*
X-53429Y-13069D01*
X-53780Y-11687D01*
X-54097Y-10297D01*
X-54379Y-8899D01*
X-54627Y-7495D01*
X-57502Y-4966D02*
X-57319Y-6416D01*
X-57100Y-7861D01*
X-56847Y-9301D01*
X-56560Y-10734D01*
X-56237Y-12160D01*
X-55881Y-13577D01*
X-55490Y-14986D01*
X-55066Y-16385D01*
X-54608Y-17773D01*
X-54116Y-19149D01*
X-53592Y-20514D01*
X-53035Y-21865D01*
X-52445Y-23203D01*
X-51824Y-24526D01*
X-51170Y-25833D01*
X-50486Y-27125D01*
X-49770Y-28399D01*
X-49024Y-29656D01*
X-48248Y-30895D01*
X-47442Y-32114D01*
X-46607Y-33314D01*
X-45743Y-34493D01*
X-44851Y-35651D01*
X-43931Y-36787D01*
X-42985Y-37901D01*
X-42011Y-38991D01*
X-41012Y-40058D01*
X-39987Y-41100D01*
X-38938Y-42118D01*
X-37864Y-43110D01*
X-36766Y-44075D01*
X-35646Y-45014D01*
X-34503Y-45925D01*
X-33339Y-46809D01*
X-32154Y-47665D01*
X-30948Y-48491D01*
X-29723Y-49288D01*
X-28479Y-50056D01*
X-27217Y-50793D01*
X-25937Y-51500D01*
X-24641Y-52175D01*
X-23329Y-52819D01*
X-22002Y-53432D01*
X-20660Y-54012D01*
X-19305Y-54559D01*
X-17937Y-55074D01*
X-16557Y-55556D01*
X-15165Y-56004D01*
X-13764Y-56418D01*
X-12352Y-56799D01*
X-10932Y-57145D01*
X-9504Y-57458D01*
X-8069Y-57735D01*
X-6628Y-57978D01*
X-4099Y-60834D02*
X-5630Y-60649D01*
X-7157Y-60426D01*
X-8678Y-60165D01*
X-10192Y-59868D01*
X-11699Y-59534D01*
X-13196Y-59163D01*
X-14685Y-58756D01*
X-16162Y-58312D01*
X-17629Y-57832D01*
X-19083Y-57317D01*
X-20525Y-56766D01*
X-21952Y-56180D01*
X-23365Y-55560D01*
X-24762Y-54905D01*
X-26143Y-54216D01*
X-27506Y-53493D01*
X-28851Y-52738D01*
X-30178Y-51950D01*
X-31485Y-51129D01*
X-32771Y-50277D01*
X-34036Y-49394D01*
X-35280Y-48480D01*
X-36500Y-47536D01*
X-37697Y-46562D01*
X-38870Y-45560D01*
X-40018Y-44529D01*
X-41141Y-43470D01*
X-42237Y-42384D01*
X-43306Y-41272D01*
X-44348Y-40134D01*
X-45362Y-38971D01*
X-46347Y-37783D01*
X-47303Y-36572D01*
X-48229Y-35337D01*
X-49124Y-34081D01*
X-49988Y-32803D01*
X-50821Y-31504D01*
X-51622Y-30185D01*
X-52391Y-28847D01*
X-53126Y-27490D01*
X-53828Y-26116D01*
X-54496Y-24726D01*
X-55130Y-23319D01*
X-55730Y-21897D01*
X-56295Y-20461D01*
X-56824Y-19012D01*
X-57318Y-17550D01*
X-57776Y-16076D01*
X-58197Y-14592D01*
X-58583Y-13098D01*
X-58931Y-11595D01*
X-59243Y-10084D01*
X-59518Y-8565D01*
X-59755Y-7041D01*
X-59956Y-5511D01*
X-60118Y-3977D01*
X-60244Y-2439D01*
X-51597Y-10027D02*
X-51291Y-11342D01*
X-50953Y-12649D01*
X-50584Y-13947D01*
X-50184Y-15236D01*
X-49752Y-16515D01*
X-49289Y-17783D01*
X-48796Y-19039D01*
X-48272Y-20284D01*
X-47718Y-21515D01*
X-47135Y-22732D01*
X-46522Y-23935D01*
X-45880Y-25122D01*
X-45210Y-26294D01*
X-44511Y-27449D01*
X-43785Y-28586D01*
X-43031Y-29706D01*
X-42250Y-30807D01*
X-41443Y-31889D01*
X-40609Y-32951D01*
X-39750Y-33992D01*
X-38867Y-35012D01*
X-37958Y-36011D01*
X-37026Y-36987D01*
X-36070Y-37940D01*
X-35091Y-38870D01*
X-34091Y-39775D01*
X-33068Y-40657D01*
X-32024Y-41513D01*
X-30960Y-42343D01*
X-29876Y-43148D01*
X-28773Y-43925D01*
X-27651Y-44676D01*
X-26512Y-45400D01*
X-25355Y-46095D01*
X-24182Y-46763D01*
X-22992Y-47401D01*
X-21788Y-48011D01*
X-20569Y-48591D01*
X-19337Y-49141D01*
X-18091Y-49662D01*
X-16833Y-50152D01*
X-15564Y-50611D01*
X-14284Y-51039D01*
X-12994Y-51437D01*
X-11695Y-51802D01*
X-16776Y-44797D02*
X-17914Y-44305D01*
X-19040Y-43786D01*
X-20152Y-43239D01*
X-21251Y-42666D01*
X-22335Y-42065D01*
X-23404Y-41439D01*
X-24458Y-40786D01*
X-25495Y-40108D01*
X-26516Y-39404D01*
X-27518Y-38676D01*
X-28503Y-37923D01*
X-29469Y-37147D01*
X-30416Y-36347D01*
X-31343Y-35524D01*
X-32249Y-34679D01*
X-33135Y-33811D01*
X-33998Y-32923D01*
X-34840Y-32013D01*
X-35660Y-31083D01*
X-36456Y-30134D01*
X-37229Y-29165D01*
X-37978Y-28177D01*
X-38703Y-27172D01*
X-39402Y-26149D01*
X-40077Y-25109D01*
X-40726Y-24053D01*
X-41348Y-22981D01*
X-41945Y-21895D01*
X-42514Y-20794D01*
X-43057Y-19679D01*
X-43572Y-18552D01*
X-44059Y-17413D01*
X-44518Y-16261D01*
X-44949Y-15099D01*
X-48383Y-12562D02*
X-48017Y-13796D01*
X-47621Y-15022D01*
X-47196Y-16237D01*
X-46741Y-17442D01*
X-46258Y-18636D01*
X-45745Y-19817D01*
X-45204Y-20986D01*
X-44634Y-22141D01*
X-44037Y-23282D01*
X-43413Y-24409D01*
X-42761Y-25520D01*
X-42083Y-26614D01*
X-41378Y-27692D01*
X-40647Y-28753D01*
X-39891Y-29795D01*
X-39109Y-30819D01*
X-38304Y-31823D01*
X-37474Y-32808D01*
X-36620Y-33773D01*
X-35743Y-34716D01*
X-34844Y-35638D01*
X-33922Y-36538D01*
X-32979Y-37415D01*
X-32015Y-38269D01*
X-31031Y-39099D01*
X-30027Y-39905D01*
X-29003Y-40687D01*
X-27961Y-41444D01*
X-26901Y-42175D01*
X-25823Y-42880D01*
X-24729Y-43559D01*
X-23618Y-44212D01*
X-22492Y-44837D01*
X-21352Y-45434D01*
X-20197Y-46004D01*
X-19028Y-46546D01*
X-17847Y-47059D01*
X-16653Y-47543D01*
X-15449Y-47998D01*
X-14233Y-48424D01*
X-19324Y-40855D02*
X-20351Y-40310D01*
X-21364Y-39740D01*
X-22363Y-39146D01*
X-23347Y-38529D01*
X-24316Y-37887D01*
X-25270Y-37222D01*
X-26207Y-36535D01*
X-27127Y-35825D01*
X-28030Y-35093D01*
X-28915Y-34339D01*
X-29781Y-33565D01*
X-30628Y-32769D01*
X-31456Y-31954D01*
X-32264Y-31118D01*
X-33052Y-30264D01*
X-33818Y-29390D01*
X-34564Y-28498D01*
X-35287Y-27589D01*
X-35989Y-26662D01*
X-36668Y-25719D01*
X-37324Y-24760D01*
X-37956Y-23785D01*
X-38565Y-22795D01*
X-39150Y-21790D01*
X-39710Y-20772D01*
X-40246Y-19741D01*
X-40756Y-18696D01*
X-41241Y-17640D01*
X-50271Y-36780D02*
X-49315Y-38056D01*
X-48329Y-39308D01*
X-47312Y-40536D01*
X-46266Y-41739D01*
X-45191Y-42917D01*
X-44088Y-44067D01*
X-42957Y-45191D01*
X-41800Y-46287D01*
X-40616Y-47354D01*
X-39406Y-48392D01*
X-38172Y-49401D01*
X-36913Y-50379D01*
X-35631Y-51327D01*
X-34326Y-52243D01*
X-33000Y-53127D01*
X-31652Y-53978D01*
X-30284Y-54797D01*
X-28897Y-55582D01*
X-27491Y-56333D01*
X-26067Y-57050D01*
X-24626Y-57732D01*
X-23169Y-58379D01*
X-21697Y-58990D01*
X-20210Y-59565D01*
X-18710Y-60104D01*
X-17197Y-60607D01*
X-15672Y-61072D01*
X-14137Y-61501D01*
X-12591Y-61891D01*
X-11037Y-62245D01*
X-9474Y-62560D01*
X-7905Y-62837D01*
X-6328Y-63076D01*
X-4747Y-63277D01*
X-3161Y-63439D01*
X-1572Y-63563D01*
D11*
X-26500Y-25200D03*
X-53900Y-39800D03*
X-23000Y-33300D03*
D10*
X28800Y-56299D02*
X29503Y-55973D01*
X30198Y-55629D01*
X30885Y-55269D01*
X31563Y-54892D01*
X32231Y-54499D01*
X32890Y-54090D01*
X33539Y-53666D01*
X34177Y-53225D01*
X34805Y-52770D01*
X35421Y-52299D01*
X36026Y-51813D01*
X36619Y-51314D01*
X37200Y-50799D01*
X-60100Y1500D02*
X-61700Y1500D01*
D11*
X-45000Y50400D03*
X51100Y44900D03*
X52800Y-52400D03*
X-48500Y-46500D03*
D12*
X49800Y39000D02*
X58400Y39000D01*
X49800Y39000D02*
X48000Y40800D01*
X-48400Y-39800D02*
X-54000Y-39800D01*
X-48400Y-39800D02*
X-46200Y-42000D01*
X29900Y-57600D02*
X29900Y-62200D01*
X29900Y-57600D02*
X34600Y-52900D01*
X30300Y-23700D02*
X32200Y-21800D01*
X37000Y-21800D01*
X21700Y36900D02*
X21800Y37000D01*
X21700Y32700D02*
X25700Y28700D01*
X21700Y32700D02*
X21700Y36900D01*
X-28700Y24100D02*
X-31300Y21500D01*
X-36400Y21500D01*
X-49600Y37800D02*
X-49600Y44900D01*
X-49600Y37800D02*
X-50100Y37300D01*
X-23100Y-33200D02*
X-18600Y-37700D01*
X-18600Y-41100D01*
D13*
X-65800Y-11300D03*
X-48200Y-61100D03*
X-59400Y34300D03*
X-48100Y57700D03*
X1200Y-67402D03*
X55500Y-62200D03*
X-25375Y-65407D03*
X-69600Y-53600D03*
X74900Y-46700D03*
X72700Y-51500D03*
X66500Y-55500D03*
X63100Y-67200D03*
X56800Y56500D03*
X53600Y64300D03*
X64100Y52100D03*
X74200Y45700D03*
X-70400Y48700D03*
X-48600Y66800D03*
X-73800Y73400D03*
X72900Y73900D03*
X72900Y60800D03*
X72400Y51300D03*
X74200Y31500D03*
X73600Y-59700D03*
X72100Y-67400D03*
X60000Y-72500D03*
X64400Y-60900D03*
X-74100Y-71000D03*
X73800Y-37900D03*
X-29600Y73800D03*
X30700Y72800D03*
X-24850Y66328D03*
X-65900Y35600D03*
X-58400Y-32600D03*
X-18900Y-65932D03*
X-19400Y64000D03*
X-74125Y-46325D03*
X-70967Y25567D03*
X-62579Y-22960D03*
X-45700Y-53900D03*
X-65200Y-17400D03*
X60127Y32327D03*
X65435Y-17838D03*
X26187Y-67487D03*
X27800Y61800D03*
M02*
