M48
;GenerationSoftware,Autodesk,EAGLE,9.0.1*%
;CreationDate,2018-12-20T19:56:33Z*%
FMAT,2
ICI,OFF
METRIC,TZ,000.000
T3C0.200
T2C0.500
T1C3.000
%
G90
M71
T1
X12500Y-12500
X12500Y12500
X-12500Y12500
X-12500Y-12500
T2
X-1000Y7850
X0Y7850
X-9860Y-990
X-2000Y7850
X1000Y7850
X2000Y7850
X-2000Y9850
X-1000Y9850
X0Y9850
X1000Y9850
X2000Y9850
X-7860Y-1990
X-7860Y-990
X-7860Y10
X-7860Y1010
X-7860Y2010
X-9860Y-1990
X-9860Y10
X-9860Y1010
X-9860Y2010
X9850Y-2000
X9850Y-1000
X9850Y0
X9850Y1000
X9850Y2000
X7850Y-2000
X7850Y-1000
X7850Y0
X7850Y1000
X7850Y2000
X-2000Y-9850
X-1000Y-9850
X0Y-9850
X1000Y-9850
X2000Y-9850
X-2000Y-7850
X-1000Y-7850
X0Y-7850
X1000Y-7850
X2000Y-7850
T3
X-7412Y-4633
X-7097Y2557
X-6258Y-2296
X-6520Y-1740
X6013Y3233
X6543Y-1784
X2619Y-6749
X2780Y6180
X5360Y6430
X-6580Y-1130
X-4820Y-6110
X-5940Y3430
X-4810Y5770
X120Y-6740
X5550Y-6220
X-2538Y-6541
X-6960Y-5360
X7490Y-4670
X7270Y-5150
X6650Y-5550
X6310Y-6720
X-4570Y-5390
X5680Y5650
X6410Y5210
X7420Y4570
X-7040Y4870
X-4860Y6680
X-7380Y7340
X7290Y7390
X7290Y6080
X7240Y5130
X7420Y3150
X7360Y-5970
X7210Y-6740
X6000Y-7250
X6440Y-6090
X-7410Y-7100
X7380Y-3790
X-2960Y7380
X3070Y7280
X-2485Y6633
X-6590Y3560
X-5840Y-3260
X-1890Y-6593
X-1940Y6400
X-2320Y2960
X-4960Y4480
X-2850Y2400
X3010Y2390
X5840Y3890
X2560Y2870
X2390Y-3030
X3010Y-6220
X3040Y-2370
X-2650Y-2520
X-5390Y-3980
X-2300Y-3330
X-4500Y5040
X5110Y4490
X5280Y-5240
X-4850Y-4650
M30