G04 EAGLE Gerber X2 export*
%TF.Part,Single*%
%TF.FileFunction,Paste,Bot*%
%TF.FilePolarity,Positive*%
%TF.GenerationSoftware,Autodesk,EAGLE,9.0.1*%
%TF.CreationDate,2018-12-20T19:56:33Z*%
G75*
%MOMM*%
%FSLAX34Y34*%
%LPD*%
%AMOC8*
5,1,8,0,0,1.08239X$1,22.5*%
G01*
%ADD10C,0.062500*%
%ADD11R,2.600000X2.600000*%
%ADD12R,0.700000X0.900000*%
%ADD13R,1.270000X2.540000*%
%ADD14R,0.280000X0.430000*%


D10*
X6995Y-16375D02*
X10795Y-20175D01*
X9469Y-21501D01*
X5669Y-17701D01*
X6995Y-16375D01*
X8845Y-20877D02*
X10093Y-20877D01*
X10717Y-20253D02*
X8221Y-20253D01*
X7597Y-19629D02*
X10249Y-19629D01*
X9625Y-19005D02*
X6973Y-19005D01*
X6349Y-18381D02*
X9001Y-18381D01*
X8377Y-17757D02*
X5725Y-17757D01*
X6237Y-17133D02*
X7753Y-17133D01*
X7129Y-16509D02*
X6861Y-16509D01*
X10530Y-12840D02*
X14330Y-16640D01*
X13004Y-17966D01*
X9204Y-14166D01*
X10530Y-12840D01*
X12380Y-17342D02*
X13628Y-17342D01*
X14252Y-16718D02*
X11756Y-16718D01*
X11132Y-16094D02*
X13784Y-16094D01*
X13160Y-15470D02*
X10508Y-15470D01*
X9884Y-14846D02*
X12536Y-14846D01*
X11912Y-14222D02*
X9260Y-14222D01*
X9772Y-13598D02*
X11288Y-13598D01*
X10664Y-12974D02*
X10396Y-12974D01*
X14066Y-9304D02*
X17866Y-13104D01*
X16540Y-14430D01*
X12740Y-10630D01*
X14066Y-9304D01*
X15916Y-13806D02*
X17164Y-13806D01*
X17788Y-13182D02*
X15292Y-13182D01*
X14668Y-12558D02*
X17320Y-12558D01*
X16696Y-11934D02*
X14044Y-11934D01*
X13420Y-11310D02*
X16072Y-11310D01*
X15448Y-10686D02*
X12796Y-10686D01*
X13308Y-10062D02*
X14824Y-10062D01*
X14200Y-9438D02*
X13932Y-9438D01*
X17601Y-5769D02*
X21401Y-9569D01*
X20075Y-10895D01*
X16275Y-7095D01*
X17601Y-5769D01*
X19451Y-10271D02*
X20699Y-10271D01*
X21323Y-9647D02*
X18827Y-9647D01*
X18203Y-9023D02*
X20855Y-9023D01*
X20231Y-8399D02*
X17579Y-8399D01*
X16955Y-7775D02*
X19607Y-7775D01*
X18983Y-7151D02*
X16331Y-7151D01*
X16843Y-6527D02*
X18359Y-6527D01*
X17735Y-5903D02*
X17467Y-5903D01*
X-16075Y6695D02*
X-19875Y10495D01*
X-16075Y6695D02*
X-17401Y5369D01*
X-21201Y9169D01*
X-19875Y10495D01*
X-18025Y5993D02*
X-16777Y5993D01*
X-16153Y6617D02*
X-18649Y6617D01*
X-19273Y7241D02*
X-16621Y7241D01*
X-17245Y7865D02*
X-19897Y7865D01*
X-20521Y8489D02*
X-17869Y8489D01*
X-18493Y9113D02*
X-21145Y9113D01*
X-20633Y9737D02*
X-19117Y9737D01*
X-19741Y10361D02*
X-20009Y10361D01*
X-16340Y14030D02*
X-12540Y10230D01*
X-13866Y8904D01*
X-17666Y12704D01*
X-16340Y14030D01*
X-14490Y9528D02*
X-13242Y9528D01*
X-12618Y10152D02*
X-15114Y10152D01*
X-15738Y10776D02*
X-13086Y10776D01*
X-13710Y11400D02*
X-16362Y11400D01*
X-16986Y12024D02*
X-14334Y12024D01*
X-14958Y12648D02*
X-17610Y12648D01*
X-17098Y13272D02*
X-15582Y13272D01*
X-16206Y13896D02*
X-16474Y13896D01*
X-12804Y17566D02*
X-9004Y13766D01*
X-10330Y12440D01*
X-14130Y16240D01*
X-12804Y17566D01*
X-10954Y13064D02*
X-9706Y13064D01*
X-9082Y13688D02*
X-11578Y13688D01*
X-12202Y14312D02*
X-9550Y14312D01*
X-10174Y14936D02*
X-12826Y14936D01*
X-13450Y15560D02*
X-10798Y15560D01*
X-11422Y16184D02*
X-14074Y16184D01*
X-13562Y16808D02*
X-12046Y16808D01*
X-12670Y17432D02*
X-12938Y17432D01*
X-9269Y21101D02*
X-5469Y17301D01*
X-6795Y15975D01*
X-10595Y19775D01*
X-9269Y21101D01*
X-7419Y16599D02*
X-6171Y16599D01*
X-5547Y17223D02*
X-8043Y17223D01*
X-8667Y17847D02*
X-6015Y17847D01*
X-6639Y18471D02*
X-9291Y18471D01*
X-9915Y19095D02*
X-7263Y19095D01*
X-7887Y19719D02*
X-10539Y19719D01*
X-10027Y20343D02*
X-8511Y20343D01*
X-9135Y20967D02*
X-9403Y20967D01*
X6995Y15975D02*
X10795Y19775D01*
X6995Y15975D02*
X5669Y17301D01*
X9469Y21101D01*
X10795Y19775D01*
X7619Y16599D02*
X6371Y16599D01*
X5747Y17223D02*
X8243Y17223D01*
X8867Y17847D02*
X6215Y17847D01*
X6839Y18471D02*
X9491Y18471D01*
X10115Y19095D02*
X7463Y19095D01*
X8087Y19719D02*
X10739Y19719D01*
X10227Y20343D02*
X8711Y20343D01*
X9335Y20967D02*
X9603Y20967D01*
X14330Y16240D02*
X10530Y12440D01*
X9204Y13766D01*
X13004Y17566D01*
X14330Y16240D01*
X11154Y13064D02*
X9906Y13064D01*
X9282Y13688D02*
X11778Y13688D01*
X12402Y14312D02*
X9750Y14312D01*
X10374Y14936D02*
X13026Y14936D01*
X13650Y15560D02*
X10998Y15560D01*
X11622Y16184D02*
X14274Y16184D01*
X13762Y16808D02*
X12246Y16808D01*
X12870Y17432D02*
X13138Y17432D01*
X17866Y12704D02*
X14066Y8904D01*
X12740Y10230D01*
X16540Y14030D01*
X17866Y12704D01*
X14690Y9528D02*
X13442Y9528D01*
X12818Y10152D02*
X15314Y10152D01*
X15938Y10776D02*
X13286Y10776D01*
X13910Y11400D02*
X16562Y11400D01*
X17186Y12024D02*
X14534Y12024D01*
X15158Y12648D02*
X17810Y12648D01*
X17298Y13272D02*
X15782Y13272D01*
X16406Y13896D02*
X16674Y13896D01*
X20075Y10495D02*
X16275Y6695D01*
X20075Y10495D02*
X21401Y9169D01*
X17601Y5369D01*
X16275Y6695D01*
X16977Y5993D02*
X18225Y5993D01*
X18849Y6617D02*
X16353Y6617D01*
X16821Y7241D02*
X19473Y7241D01*
X20097Y7865D02*
X17445Y7865D01*
X18069Y8489D02*
X20721Y8489D01*
X21345Y9113D02*
X18693Y9113D01*
X19317Y9737D02*
X20833Y9737D01*
X20209Y10361D02*
X19941Y10361D01*
X-16075Y-7095D02*
X-19875Y-10895D01*
X-21201Y-9569D01*
X-17401Y-5769D01*
X-16075Y-7095D01*
X-19251Y-10271D02*
X-20499Y-10271D01*
X-21123Y-9647D02*
X-18627Y-9647D01*
X-18003Y-9023D02*
X-20655Y-9023D01*
X-20031Y-8399D02*
X-17379Y-8399D01*
X-16755Y-7775D02*
X-19407Y-7775D01*
X-18783Y-7151D02*
X-16131Y-7151D01*
X-16643Y-6527D02*
X-18159Y-6527D01*
X-17535Y-5903D02*
X-17267Y-5903D01*
X-12540Y-10630D02*
X-16340Y-14430D01*
X-17666Y-13104D01*
X-13866Y-9304D01*
X-12540Y-10630D01*
X-15716Y-13806D02*
X-16964Y-13806D01*
X-17588Y-13182D02*
X-15092Y-13182D01*
X-14468Y-12558D02*
X-17120Y-12558D01*
X-16496Y-11934D02*
X-13844Y-11934D01*
X-13220Y-11310D02*
X-15872Y-11310D01*
X-15248Y-10686D02*
X-12596Y-10686D01*
X-13108Y-10062D02*
X-14624Y-10062D01*
X-14000Y-9438D02*
X-13732Y-9438D01*
X-9004Y-14166D02*
X-12804Y-17966D01*
X-14130Y-16640D01*
X-10330Y-12840D01*
X-9004Y-14166D01*
X-12180Y-17342D02*
X-13428Y-17342D01*
X-14052Y-16718D02*
X-11556Y-16718D01*
X-10932Y-16094D02*
X-13584Y-16094D01*
X-12960Y-15470D02*
X-10308Y-15470D01*
X-9684Y-14846D02*
X-12336Y-14846D01*
X-11712Y-14222D02*
X-9060Y-14222D01*
X-9572Y-13598D02*
X-11088Y-13598D01*
X-10464Y-12974D02*
X-10196Y-12974D01*
X-6795Y-16375D02*
X-10595Y-20175D01*
X-6795Y-16375D02*
X-5469Y-17701D01*
X-9269Y-21501D01*
X-10595Y-20175D01*
X-9893Y-20877D02*
X-8645Y-20877D01*
X-8021Y-20253D02*
X-10517Y-20253D01*
X-10049Y-19629D02*
X-7397Y-19629D01*
X-6773Y-19005D02*
X-9425Y-19005D01*
X-8801Y-18381D02*
X-6149Y-18381D01*
X-5525Y-17757D02*
X-8177Y-17757D01*
X-7553Y-17133D02*
X-6037Y-17133D01*
X-6661Y-16509D02*
X-6929Y-16509D01*
D11*
G36*
X100Y18184D02*
X18484Y-200D01*
X100Y-18584D01*
X-18284Y-200D01*
X100Y18184D01*
G37*
D12*
X47100Y-29700D03*
X60100Y-29700D03*
X47100Y-40200D03*
X60100Y-40200D03*
G36*
X-28097Y-6940D02*
X-23148Y-11889D01*
X-29511Y-18252D01*
X-34460Y-13303D01*
X-28097Y-6940D01*
G37*
G36*
X-37289Y2252D02*
X-32340Y-2697D01*
X-38703Y-9060D01*
X-43652Y-4111D01*
X-37289Y2252D01*
G37*
D13*
X-34700Y-60200D03*
X-59900Y-60200D03*
X-9500Y-60200D03*
X15700Y-60200D03*
X40900Y-60200D03*
X-34700Y55000D03*
X-59900Y55000D03*
X-9500Y55000D03*
X15700Y55000D03*
X40900Y55000D03*
D14*
G36*
X3693Y-33567D02*
X5673Y-31587D01*
X8713Y-34627D01*
X6733Y-36607D01*
X3693Y-33567D01*
G37*
G36*
X87Y-37173D02*
X2067Y-35193D01*
X5107Y-38233D01*
X3127Y-40213D01*
X87Y-37173D01*
G37*
G36*
X10993Y-26067D02*
X12973Y-24087D01*
X16013Y-27127D01*
X14033Y-29107D01*
X10993Y-26067D01*
G37*
G36*
X7387Y-29673D02*
X9367Y-27693D01*
X12407Y-30733D01*
X10427Y-32713D01*
X7387Y-29673D01*
G37*
M02*
