G04 EAGLE Gerber X2 export*
%TF.Part,Single*%
%TF.FileFunction,Copper,L4,Bot,Mixed*%
%TF.FilePolarity,Positive*%
%TF.GenerationSoftware,Autodesk,EAGLE,9.0.1*%
%TF.CreationDate,2018-12-20T16:05:16Z*%
G75*
%MOMM*%
%FSLAX34Y34*%
%LPD*%
%AMOC8*
5,1,8,0,0,1.08239X$1,22.5*%
G01*
%ADD10C,0.062500*%
%ADD11R,2.600000X2.600000*%
%ADD12R,0.700000X0.900000*%
%ADD13C,0.450000*%
%ADD14R,1.270000X2.540000*%
%ADD15R,0.280000X0.430000*%
%ADD16C,0.125000*%
%ADD17C,0.250000*%
%ADD18C,0.400000*%

G36*
X146589Y-147697D02*
X146589Y-147697D01*
X146714Y-147688D01*
X146745Y-147677D01*
X146777Y-147673D01*
X146894Y-147627D01*
X147013Y-147586D01*
X147040Y-147568D01*
X147070Y-147556D01*
X147171Y-147482D01*
X147277Y-147413D01*
X147298Y-147389D01*
X147324Y-147370D01*
X147404Y-147272D01*
X147488Y-147179D01*
X147503Y-147150D01*
X147524Y-147125D01*
X147577Y-147011D01*
X147635Y-146900D01*
X147639Y-146874D01*
X147656Y-146839D01*
X147712Y-146528D01*
X147709Y-146489D01*
X147713Y-146464D01*
X147713Y146464D01*
X147697Y146589D01*
X147688Y146714D01*
X147677Y146745D01*
X147673Y146777D01*
X147627Y146894D01*
X147586Y147013D01*
X147568Y147040D01*
X147556Y147070D01*
X147482Y147171D01*
X147413Y147277D01*
X147389Y147298D01*
X147370Y147324D01*
X147272Y147404D01*
X147179Y147488D01*
X147150Y147503D01*
X147125Y147524D01*
X147011Y147577D01*
X146900Y147635D01*
X146874Y147639D01*
X146839Y147656D01*
X146528Y147712D01*
X146489Y147709D01*
X146464Y147713D01*
X-146464Y147713D01*
X-146589Y147697D01*
X-146714Y147688D01*
X-146745Y147677D01*
X-146777Y147673D01*
X-146894Y147627D01*
X-147013Y147586D01*
X-147040Y147568D01*
X-147070Y147556D01*
X-147171Y147482D01*
X-147277Y147413D01*
X-147298Y147389D01*
X-147324Y147370D01*
X-147404Y147272D01*
X-147488Y147179D01*
X-147503Y147150D01*
X-147524Y147125D01*
X-147577Y147011D01*
X-147635Y146900D01*
X-147639Y146874D01*
X-147656Y146839D01*
X-147712Y146528D01*
X-147709Y146489D01*
X-147713Y146464D01*
X-147713Y-146464D01*
X-147697Y-146589D01*
X-147688Y-146714D01*
X-147677Y-146745D01*
X-147673Y-146777D01*
X-147627Y-146894D01*
X-147586Y-147013D01*
X-147568Y-147040D01*
X-147556Y-147070D01*
X-147482Y-147171D01*
X-147413Y-147277D01*
X-147389Y-147298D01*
X-147370Y-147324D01*
X-147272Y-147404D01*
X-147179Y-147488D01*
X-147150Y-147503D01*
X-147125Y-147524D01*
X-147011Y-147577D01*
X-146900Y-147635D01*
X-146874Y-147639D01*
X-146839Y-147656D01*
X-146528Y-147712D01*
X-146489Y-147709D01*
X-146464Y-147713D01*
X146464Y-147713D01*
X146589Y-147697D01*
G37*
%LPC*%
G36*
X-21983Y-83287D02*
X-21983Y-83287D01*
X-24787Y-80483D01*
X-24787Y-76517D01*
X-21983Y-73713D01*
X-18600Y-73713D01*
X-18475Y-73697D01*
X-18350Y-73688D01*
X-18319Y-73677D01*
X-18287Y-73673D01*
X-18170Y-73627D01*
X-18051Y-73586D01*
X-18024Y-73568D01*
X-17994Y-73556D01*
X-17893Y-73482D01*
X-17787Y-73413D01*
X-17766Y-73389D01*
X-17740Y-73370D01*
X-17660Y-73272D01*
X-17576Y-73179D01*
X-17561Y-73150D01*
X-17540Y-73125D01*
X-17487Y-73011D01*
X-17429Y-72900D01*
X-17425Y-72874D01*
X-17408Y-72839D01*
X-17352Y-72528D01*
X-17355Y-72489D01*
X-17351Y-72464D01*
X-17351Y-46878D01*
X-16472Y-45999D01*
X-14521Y-45999D01*
X-14381Y-45981D01*
X-14240Y-45967D01*
X-14224Y-45961D01*
X-14208Y-45959D01*
X-14077Y-45907D01*
X-13944Y-45858D01*
X-13930Y-45848D01*
X-13915Y-45842D01*
X-13801Y-45758D01*
X-13685Y-45678D01*
X-13674Y-45665D01*
X-13661Y-45656D01*
X-13571Y-45546D01*
X-13479Y-45438D01*
X-13472Y-45424D01*
X-13461Y-45411D01*
X-13402Y-45282D01*
X-13340Y-45155D01*
X-13336Y-45139D01*
X-13330Y-45125D01*
X-13304Y-44985D01*
X-13276Y-44846D01*
X-13277Y-44830D01*
X-13274Y-44814D01*
X-13284Y-44673D01*
X-13291Y-44531D01*
X-13296Y-44516D01*
X-13297Y-44500D01*
X-13343Y-44365D01*
X-13385Y-44230D01*
X-13393Y-44219D01*
X-13399Y-44201D01*
X-13572Y-43937D01*
X-13617Y-43897D01*
X-13638Y-43867D01*
X-18274Y-39231D01*
X-18373Y-39154D01*
X-18469Y-39072D01*
X-18498Y-39057D01*
X-18523Y-39038D01*
X-18639Y-38988D01*
X-18752Y-38932D01*
X-18784Y-38926D01*
X-18813Y-38913D01*
X-18938Y-38894D01*
X-19061Y-38869D01*
X-19093Y-38870D01*
X-19125Y-38865D01*
X-19250Y-38878D01*
X-19376Y-38884D01*
X-19407Y-38894D01*
X-19439Y-38897D01*
X-19557Y-38941D01*
X-19677Y-38978D01*
X-19698Y-38993D01*
X-19735Y-39006D01*
X-19994Y-39186D01*
X-20019Y-39216D01*
X-20041Y-39231D01*
X-26483Y-45674D01*
X-26551Y-45760D01*
X-26624Y-45842D01*
X-26647Y-45885D01*
X-26677Y-45923D01*
X-26720Y-46024D01*
X-26771Y-46121D01*
X-26778Y-46158D01*
X-26801Y-46213D01*
X-26849Y-46525D01*
X-26847Y-46544D01*
X-26849Y-46557D01*
X-26849Y-62457D01*
X-26833Y-62582D01*
X-26824Y-62708D01*
X-26813Y-62738D01*
X-26809Y-62770D01*
X-26763Y-62887D01*
X-26722Y-63006D01*
X-26704Y-63033D01*
X-26692Y-63063D01*
X-26618Y-63165D01*
X-26549Y-63270D01*
X-26525Y-63292D01*
X-26506Y-63318D01*
X-26408Y-63397D01*
X-26315Y-63482D01*
X-26286Y-63497D01*
X-26261Y-63517D01*
X-26147Y-63570D01*
X-26036Y-63628D01*
X-26010Y-63633D01*
X-25975Y-63649D01*
X-25664Y-63705D01*
X-25625Y-63702D01*
X-25600Y-63707D01*
X-22525Y-63707D01*
X-20474Y-65757D01*
X-20474Y-68657D01*
X-22525Y-70708D01*
X-25600Y-70708D01*
X-25725Y-70724D01*
X-25850Y-70733D01*
X-25881Y-70744D01*
X-25913Y-70748D01*
X-26030Y-70794D01*
X-26149Y-70835D01*
X-26176Y-70853D01*
X-26206Y-70865D01*
X-26307Y-70939D01*
X-26413Y-71008D01*
X-26434Y-71032D01*
X-26460Y-71051D01*
X-26540Y-71149D01*
X-26624Y-71242D01*
X-26639Y-71271D01*
X-26660Y-71296D01*
X-26713Y-71410D01*
X-26771Y-71522D01*
X-26775Y-71547D01*
X-26792Y-71582D01*
X-26848Y-71893D01*
X-26845Y-71932D01*
X-26849Y-71957D01*
X-26849Y-73522D01*
X-27728Y-74401D01*
X-37793Y-74401D01*
X-37902Y-74415D01*
X-38012Y-74420D01*
X-38058Y-74434D01*
X-38106Y-74441D01*
X-38208Y-74481D01*
X-38313Y-74514D01*
X-38344Y-74536D01*
X-38399Y-74558D01*
X-38654Y-74744D01*
X-38666Y-74759D01*
X-38677Y-74767D01*
X-39561Y-75651D01*
X-44882Y-75651D01*
X-44991Y-75665D01*
X-45101Y-75670D01*
X-45148Y-75684D01*
X-45195Y-75691D01*
X-45298Y-75731D01*
X-45402Y-75764D01*
X-45433Y-75786D01*
X-45488Y-75808D01*
X-45743Y-75994D01*
X-45755Y-76009D01*
X-45766Y-76017D01*
X-46950Y-77201D01*
X-49850Y-77201D01*
X-52238Y-74813D01*
X-52244Y-74804D01*
X-52257Y-74794D01*
X-52267Y-74784D01*
X-52310Y-74751D01*
X-52346Y-74721D01*
X-52444Y-74634D01*
X-52468Y-74622D01*
X-52489Y-74605D01*
X-52512Y-74594D01*
X-52516Y-74591D01*
X-52553Y-74575D01*
X-52608Y-74550D01*
X-52725Y-74490D01*
X-52751Y-74484D01*
X-52775Y-74473D01*
X-52803Y-74468D01*
X-52806Y-74467D01*
X-52838Y-74462D01*
X-52905Y-74450D01*
X-53033Y-74421D01*
X-53054Y-74423D01*
X-53086Y-74417D01*
X-53114Y-74419D01*
X-53118Y-74419D01*
X-53148Y-74422D01*
X-53188Y-74425D01*
X-57401Y-74425D01*
X-57401Y-62699D01*
X-52025Y-62699D01*
X-52025Y-63859D01*
X-52007Y-63999D01*
X-51993Y-64140D01*
X-51987Y-64156D01*
X-51985Y-64172D01*
X-51933Y-64303D01*
X-51884Y-64436D01*
X-51874Y-64449D01*
X-51868Y-64465D01*
X-51784Y-64579D01*
X-51704Y-64695D01*
X-51691Y-64706D01*
X-51682Y-64719D01*
X-51572Y-64809D01*
X-51464Y-64901D01*
X-51450Y-64908D01*
X-51437Y-64918D01*
X-51308Y-64978D01*
X-51181Y-65040D01*
X-51165Y-65043D01*
X-51151Y-65050D01*
X-51011Y-65075D01*
X-50872Y-65104D01*
X-50856Y-65103D01*
X-50840Y-65106D01*
X-50699Y-65095D01*
X-50557Y-65088D01*
X-50542Y-65084D01*
X-50526Y-65082D01*
X-50391Y-65037D01*
X-50256Y-64994D01*
X-50245Y-64987D01*
X-50227Y-64981D01*
X-49963Y-64807D01*
X-49923Y-64763D01*
X-49893Y-64742D01*
X-49792Y-64641D01*
X-49724Y-64554D01*
X-49651Y-64472D01*
X-49628Y-64430D01*
X-49598Y-64391D01*
X-49555Y-64290D01*
X-49504Y-64193D01*
X-49497Y-64156D01*
X-49474Y-64101D01*
X-49426Y-63790D01*
X-49428Y-63771D01*
X-49426Y-63758D01*
X-49426Y-49864D01*
X-42793Y-43231D01*
X-42764Y-43230D01*
X-42718Y-43216D01*
X-42670Y-43209D01*
X-42568Y-43169D01*
X-42463Y-43136D01*
X-42432Y-43115D01*
X-42377Y-43092D01*
X-42123Y-42906D01*
X-42110Y-42891D01*
X-42100Y-42883D01*
X-36207Y-36990D01*
X-36139Y-36904D01*
X-36066Y-36822D01*
X-36043Y-36779D01*
X-36013Y-36741D01*
X-35970Y-36640D01*
X-35919Y-36543D01*
X-35912Y-36506D01*
X-35889Y-36451D01*
X-35841Y-36139D01*
X-35843Y-36120D01*
X-35841Y-36107D01*
X-35841Y-34326D01*
X-33582Y-32067D01*
X-33520Y-32043D01*
X-33401Y-32002D01*
X-33374Y-31984D01*
X-33344Y-31972D01*
X-33243Y-31898D01*
X-33137Y-31829D01*
X-33116Y-31805D01*
X-33090Y-31786D01*
X-33010Y-31688D01*
X-32926Y-31595D01*
X-32911Y-31566D01*
X-32890Y-31541D01*
X-32837Y-31427D01*
X-32779Y-31316D01*
X-32775Y-31290D01*
X-32758Y-31255D01*
X-32702Y-30944D01*
X-32705Y-30905D01*
X-32701Y-30880D01*
X-32701Y-28846D01*
X-30504Y-26649D01*
X-27811Y-26649D01*
X-27686Y-26633D01*
X-27560Y-26624D01*
X-27530Y-26613D01*
X-27498Y-26609D01*
X-27381Y-26563D01*
X-27262Y-26522D01*
X-27235Y-26504D01*
X-27205Y-26492D01*
X-27103Y-26418D01*
X-26998Y-26349D01*
X-26976Y-26325D01*
X-26950Y-26306D01*
X-26871Y-26208D01*
X-26786Y-26115D01*
X-26771Y-26086D01*
X-26751Y-26061D01*
X-26698Y-25947D01*
X-26640Y-25836D01*
X-26635Y-25810D01*
X-26619Y-25775D01*
X-26563Y-25464D01*
X-26566Y-25425D01*
X-26561Y-25400D01*
X-26561Y-23682D01*
X-22520Y-19641D01*
X-22453Y-19554D01*
X-22379Y-19472D01*
X-22357Y-19429D01*
X-22327Y-19391D01*
X-22284Y-19290D01*
X-22233Y-19193D01*
X-22226Y-19156D01*
X-22203Y-19101D01*
X-22155Y-18789D01*
X-22157Y-18770D01*
X-22155Y-18757D01*
X-22155Y-18084D01*
X-22172Y-17944D01*
X-22187Y-17802D01*
X-22192Y-17787D01*
X-22194Y-17771D01*
X-22247Y-17639D01*
X-22296Y-17506D01*
X-22305Y-17493D01*
X-22311Y-17478D01*
X-22395Y-17363D01*
X-22476Y-17247D01*
X-22488Y-17237D01*
X-22498Y-17224D01*
X-22608Y-17134D01*
X-22715Y-17042D01*
X-22730Y-17034D01*
X-22742Y-17024D01*
X-22872Y-16965D01*
X-22999Y-16902D01*
X-23014Y-16899D01*
X-23029Y-16892D01*
X-23169Y-16867D01*
X-23307Y-16839D01*
X-23324Y-16839D01*
X-23340Y-16836D01*
X-23481Y-16847D01*
X-23623Y-16854D01*
X-23638Y-16859D01*
X-23654Y-16860D01*
X-23663Y-16863D01*
X-27006Y-13521D01*
X-27105Y-13443D01*
X-27201Y-13361D01*
X-27229Y-13347D01*
X-27255Y-13327D01*
X-27371Y-13278D01*
X-27484Y-13222D01*
X-27515Y-13216D01*
X-27545Y-13203D01*
X-27670Y-13184D01*
X-27793Y-13158D01*
X-27825Y-13160D01*
X-27857Y-13155D01*
X-27982Y-13168D01*
X-28108Y-13174D01*
X-28139Y-13184D01*
X-28171Y-13187D01*
X-28289Y-13230D01*
X-28409Y-13268D01*
X-28430Y-13283D01*
X-28467Y-13296D01*
X-28591Y-13382D01*
X-28615Y-13361D01*
X-28644Y-13347D01*
X-28670Y-13327D01*
X-28786Y-13278D01*
X-28898Y-13222D01*
X-28930Y-13216D01*
X-28960Y-13203D01*
X-29084Y-13184D01*
X-29207Y-13158D01*
X-29239Y-13160D01*
X-29271Y-13155D01*
X-29397Y-13168D01*
X-29522Y-13174D01*
X-29553Y-13184D01*
X-29585Y-13187D01*
X-29703Y-13231D01*
X-29823Y-13268D01*
X-29845Y-13283D01*
X-29881Y-13296D01*
X-30140Y-13476D01*
X-30166Y-13506D01*
X-30187Y-13521D01*
X-34093Y-17427D01*
X-35473Y-16047D01*
X-35674Y-15699D01*
X-35778Y-15312D01*
X-35778Y-15230D01*
X-35796Y-15090D01*
X-35810Y-14948D01*
X-35816Y-14933D01*
X-35818Y-14917D01*
X-35870Y-14785D01*
X-35919Y-14652D01*
X-35929Y-14639D01*
X-35935Y-14624D01*
X-36019Y-14509D01*
X-36099Y-14393D01*
X-36112Y-14383D01*
X-36121Y-14370D01*
X-36231Y-14280D01*
X-36339Y-14187D01*
X-36353Y-14180D01*
X-36366Y-14170D01*
X-36495Y-14111D01*
X-36622Y-14048D01*
X-36638Y-14045D01*
X-36652Y-14038D01*
X-36792Y-14013D01*
X-36931Y-13984D01*
X-36947Y-13985D01*
X-36963Y-13982D01*
X-37104Y-13993D01*
X-37246Y-14000D01*
X-37261Y-14005D01*
X-37277Y-14006D01*
X-37412Y-14052D01*
X-37547Y-14094D01*
X-37558Y-14102D01*
X-37576Y-14108D01*
X-37840Y-14281D01*
X-37880Y-14325D01*
X-37910Y-14347D01*
X-48604Y-25041D01*
X-56617Y-25041D01*
X-56726Y-25055D01*
X-56836Y-25060D01*
X-56882Y-25074D01*
X-56930Y-25081D01*
X-57032Y-25121D01*
X-57137Y-25154D01*
X-57168Y-25175D01*
X-57223Y-25198D01*
X-57477Y-25384D01*
X-57489Y-25399D01*
X-57500Y-25407D01*
X-63383Y-31290D01*
X-63451Y-31376D01*
X-63524Y-31458D01*
X-63547Y-31501D01*
X-63577Y-31539D01*
X-63620Y-31640D01*
X-63671Y-31737D01*
X-63678Y-31774D01*
X-63701Y-31829D01*
X-63749Y-32141D01*
X-63747Y-32160D01*
X-63749Y-32173D01*
X-63749Y-33954D01*
X-65447Y-35652D01*
X-65524Y-35751D01*
X-65606Y-35847D01*
X-65615Y-35864D01*
X-65619Y-35869D01*
X-65624Y-35880D01*
X-65640Y-35901D01*
X-65690Y-36017D01*
X-65746Y-36130D01*
X-65752Y-36161D01*
X-65765Y-36191D01*
X-65784Y-36316D01*
X-65809Y-36439D01*
X-65808Y-36471D01*
X-65813Y-36503D01*
X-65800Y-36628D01*
X-65794Y-36754D01*
X-65784Y-36785D01*
X-65781Y-36817D01*
X-65737Y-36935D01*
X-65700Y-37055D01*
X-65685Y-37076D01*
X-65672Y-37113D01*
X-65492Y-37372D01*
X-65462Y-37397D01*
X-65447Y-37418D01*
X-63409Y-39456D01*
X-63409Y-42564D01*
X-64688Y-43843D01*
X-64775Y-43955D01*
X-64865Y-44065D01*
X-64872Y-44079D01*
X-64881Y-44092D01*
X-64937Y-44222D01*
X-64997Y-44351D01*
X-65000Y-44367D01*
X-65006Y-44382D01*
X-65028Y-44523D01*
X-65053Y-44662D01*
X-65051Y-44678D01*
X-65054Y-44694D01*
X-65040Y-44835D01*
X-65029Y-44976D01*
X-65024Y-44992D01*
X-65022Y-45008D01*
X-64973Y-45140D01*
X-64927Y-45275D01*
X-64918Y-45289D01*
X-64913Y-45304D01*
X-64832Y-45419D01*
X-64754Y-45539D01*
X-64742Y-45550D01*
X-64733Y-45563D01*
X-64626Y-45655D01*
X-64520Y-45750D01*
X-64506Y-45758D01*
X-64493Y-45768D01*
X-64366Y-45831D01*
X-64240Y-45897D01*
X-64228Y-45899D01*
X-64210Y-45908D01*
X-63901Y-45972D01*
X-63842Y-45969D01*
X-63805Y-45975D01*
X-62399Y-45975D01*
X-62399Y-57701D01*
X-66333Y-57701D01*
X-66442Y-57715D01*
X-66551Y-57720D01*
X-66598Y-57735D01*
X-66646Y-57741D01*
X-66748Y-57781D01*
X-66853Y-57814D01*
X-66883Y-57836D01*
X-66939Y-57858D01*
X-67193Y-58044D01*
X-67205Y-58059D01*
X-67216Y-58067D01*
X-68850Y-59701D01*
X-71750Y-59701D01*
X-73801Y-57650D01*
X-73801Y-56223D01*
X-73815Y-56114D01*
X-73820Y-56004D01*
X-73834Y-55958D01*
X-73841Y-55910D01*
X-73881Y-55808D01*
X-73914Y-55703D01*
X-73936Y-55672D01*
X-73958Y-55617D01*
X-74144Y-55363D01*
X-74159Y-55350D01*
X-74167Y-55340D01*
X-74726Y-54781D01*
X-74726Y-25811D01*
X-74744Y-25671D01*
X-74758Y-25529D01*
X-74764Y-25514D01*
X-74766Y-25498D01*
X-74818Y-25367D01*
X-74867Y-25233D01*
X-74877Y-25220D01*
X-74883Y-25205D01*
X-74967Y-25091D01*
X-75047Y-24974D01*
X-75060Y-24964D01*
X-75069Y-24951D01*
X-75179Y-24861D01*
X-75287Y-24769D01*
X-75301Y-24761D01*
X-75314Y-24751D01*
X-75443Y-24692D01*
X-75570Y-24629D01*
X-75586Y-24626D01*
X-75600Y-24619D01*
X-75740Y-24594D01*
X-75879Y-24566D01*
X-75895Y-24566D01*
X-75911Y-24564D01*
X-76053Y-24574D01*
X-76194Y-24581D01*
X-76209Y-24586D01*
X-76225Y-24587D01*
X-76360Y-24633D01*
X-76495Y-24675D01*
X-76506Y-24683D01*
X-76517Y-24687D01*
X-80583Y-24687D01*
X-83387Y-21883D01*
X-83387Y-17917D01*
X-81253Y-15783D01*
X-81176Y-15684D01*
X-81094Y-15588D01*
X-81079Y-15559D01*
X-81060Y-15534D01*
X-81010Y-15418D01*
X-80954Y-15305D01*
X-80948Y-15274D01*
X-80935Y-15244D01*
X-80916Y-15119D01*
X-80891Y-14996D01*
X-80892Y-14964D01*
X-80887Y-14932D01*
X-80900Y-14807D01*
X-80906Y-14681D01*
X-80916Y-14650D01*
X-80919Y-14618D01*
X-80963Y-14500D01*
X-81000Y-14380D01*
X-81015Y-14359D01*
X-81029Y-14322D01*
X-81209Y-14063D01*
X-81238Y-14038D01*
X-81253Y-14017D01*
X-83387Y-11883D01*
X-83387Y-7917D01*
X-81253Y-5783D01*
X-81176Y-5684D01*
X-81094Y-5588D01*
X-81079Y-5559D01*
X-81060Y-5534D01*
X-81010Y-5418D01*
X-80954Y-5305D01*
X-80948Y-5274D01*
X-80935Y-5244D01*
X-80916Y-5119D01*
X-80891Y-4996D01*
X-80892Y-4964D01*
X-80887Y-4932D01*
X-80900Y-4807D01*
X-80906Y-4681D01*
X-80916Y-4650D01*
X-80919Y-4618D01*
X-80963Y-4500D01*
X-81000Y-4380D01*
X-81015Y-4359D01*
X-81029Y-4322D01*
X-81209Y-4063D01*
X-81238Y-4038D01*
X-81253Y-4017D01*
X-83387Y-1883D01*
X-83387Y2083D01*
X-81253Y4217D01*
X-81176Y4316D01*
X-81094Y4412D01*
X-81079Y4441D01*
X-81060Y4466D01*
X-81010Y4582D01*
X-80954Y4695D01*
X-80948Y4726D01*
X-80935Y4756D01*
X-80916Y4881D01*
X-80891Y5004D01*
X-80892Y5036D01*
X-80887Y5068D01*
X-80900Y5193D01*
X-80906Y5319D01*
X-80916Y5350D01*
X-80919Y5382D01*
X-80963Y5500D01*
X-81000Y5620D01*
X-81015Y5641D01*
X-81029Y5678D01*
X-81209Y5937D01*
X-81238Y5962D01*
X-81253Y5983D01*
X-83387Y8117D01*
X-83387Y12083D01*
X-81253Y14217D01*
X-81176Y14316D01*
X-81094Y14412D01*
X-81079Y14441D01*
X-81060Y14466D01*
X-81010Y14582D01*
X-80954Y14695D01*
X-80948Y14726D01*
X-80935Y14756D01*
X-80916Y14881D01*
X-80891Y15004D01*
X-80892Y15036D01*
X-80887Y15068D01*
X-80900Y15193D01*
X-80906Y15319D01*
X-80916Y15350D01*
X-80919Y15382D01*
X-80963Y15500D01*
X-81000Y15620D01*
X-81015Y15641D01*
X-81029Y15678D01*
X-81209Y15937D01*
X-81238Y15962D01*
X-81253Y15983D01*
X-83387Y18117D01*
X-83387Y22083D01*
X-80583Y24887D01*
X-76617Y24887D01*
X-73813Y22083D01*
X-73813Y18117D01*
X-75947Y15983D01*
X-76024Y15884D01*
X-76106Y15788D01*
X-76121Y15759D01*
X-76140Y15734D01*
X-76190Y15618D01*
X-76246Y15505D01*
X-76252Y15474D01*
X-76265Y15444D01*
X-76284Y15319D01*
X-76309Y15196D01*
X-76308Y15164D01*
X-76313Y15132D01*
X-76300Y15007D01*
X-76294Y14881D01*
X-76284Y14850D01*
X-76281Y14818D01*
X-76237Y14700D01*
X-76200Y14580D01*
X-76185Y14559D01*
X-76171Y14522D01*
X-75991Y14263D01*
X-75962Y14238D01*
X-75947Y14217D01*
X-73813Y12083D01*
X-73813Y8117D01*
X-75947Y5983D01*
X-76024Y5884D01*
X-76106Y5788D01*
X-76121Y5759D01*
X-76140Y5734D01*
X-76190Y5618D01*
X-76246Y5505D01*
X-76252Y5474D01*
X-76265Y5444D01*
X-76284Y5319D01*
X-76309Y5196D01*
X-76308Y5164D01*
X-76313Y5132D01*
X-76300Y5007D01*
X-76294Y4881D01*
X-76284Y4850D01*
X-76281Y4818D01*
X-76237Y4700D01*
X-76200Y4580D01*
X-76185Y4559D01*
X-76171Y4522D01*
X-75991Y4263D01*
X-75962Y4238D01*
X-75947Y4217D01*
X-73813Y2083D01*
X-73813Y-1883D01*
X-75947Y-4017D01*
X-76024Y-4116D01*
X-76106Y-4212D01*
X-76121Y-4241D01*
X-76140Y-4266D01*
X-76190Y-4382D01*
X-76246Y-4495D01*
X-76252Y-4526D01*
X-76265Y-4556D01*
X-76284Y-4681D01*
X-76309Y-4804D01*
X-76308Y-4836D01*
X-76313Y-4868D01*
X-76300Y-4993D01*
X-76294Y-5119D01*
X-76284Y-5150D01*
X-76281Y-5182D01*
X-76237Y-5300D01*
X-76200Y-5420D01*
X-76185Y-5441D01*
X-76171Y-5478D01*
X-75991Y-5737D01*
X-75962Y-5762D01*
X-75947Y-5783D01*
X-73813Y-7917D01*
X-73813Y-11883D01*
X-75947Y-14017D01*
X-76024Y-14116D01*
X-76106Y-14212D01*
X-76121Y-14241D01*
X-76140Y-14266D01*
X-76190Y-14382D01*
X-76246Y-14495D01*
X-76252Y-14526D01*
X-76265Y-14556D01*
X-76284Y-14681D01*
X-76309Y-14804D01*
X-76308Y-14836D01*
X-76313Y-14868D01*
X-76300Y-14993D01*
X-76294Y-15119D01*
X-76284Y-15150D01*
X-76281Y-15182D01*
X-76237Y-15300D01*
X-76200Y-15420D01*
X-76185Y-15441D01*
X-76171Y-15478D01*
X-75991Y-15737D01*
X-75962Y-15762D01*
X-75947Y-15783D01*
X-75352Y-16379D01*
X-75252Y-16456D01*
X-75157Y-16538D01*
X-75128Y-16552D01*
X-75102Y-16572D01*
X-74986Y-16622D01*
X-74874Y-16677D01*
X-74842Y-16684D01*
X-74812Y-16696D01*
X-74688Y-16716D01*
X-74565Y-16741D01*
X-74532Y-16739D01*
X-74501Y-16744D01*
X-74375Y-16732D01*
X-74250Y-16725D01*
X-74219Y-16716D01*
X-74187Y-16713D01*
X-74068Y-16669D01*
X-73948Y-16631D01*
X-73927Y-16617D01*
X-73891Y-16603D01*
X-73632Y-16423D01*
X-73606Y-16394D01*
X-73585Y-16379D01*
X-40065Y17142D01*
X-39978Y17254D01*
X-39888Y17364D01*
X-39881Y17378D01*
X-39871Y17391D01*
X-39815Y17522D01*
X-39756Y17650D01*
X-39753Y17666D01*
X-39747Y17681D01*
X-39725Y17822D01*
X-39700Y17961D01*
X-39702Y17977D01*
X-39699Y17993D01*
X-39713Y18134D01*
X-39724Y18275D01*
X-39729Y18291D01*
X-39731Y18307D01*
X-39780Y18440D01*
X-39826Y18574D01*
X-39835Y18588D01*
X-39840Y18603D01*
X-39921Y18719D01*
X-39999Y18838D01*
X-40011Y18849D01*
X-40020Y18862D01*
X-40127Y18954D01*
X-40233Y19049D01*
X-40247Y19057D01*
X-40260Y19067D01*
X-40387Y19130D01*
X-40512Y19196D01*
X-40525Y19198D01*
X-40543Y19207D01*
X-40852Y19271D01*
X-40911Y19268D01*
X-40948Y19274D01*
X-54281Y19274D01*
X-63518Y28511D01*
X-63617Y28588D01*
X-63713Y28671D01*
X-63742Y28685D01*
X-63767Y28705D01*
X-63883Y28754D01*
X-63996Y28810D01*
X-64027Y28816D01*
X-64057Y28829D01*
X-64182Y28848D01*
X-64305Y28874D01*
X-64337Y28872D01*
X-64369Y28877D01*
X-64494Y28864D01*
X-64620Y28858D01*
X-64651Y28848D01*
X-64683Y28845D01*
X-64801Y28801D01*
X-64921Y28764D01*
X-64942Y28749D01*
X-64979Y28736D01*
X-65238Y28556D01*
X-65263Y28526D01*
X-65284Y28511D01*
X-65497Y28298D01*
X-65574Y28199D01*
X-65656Y28103D01*
X-65671Y28074D01*
X-65690Y28049D01*
X-65740Y27933D01*
X-65796Y27820D01*
X-65802Y27789D01*
X-65815Y27759D01*
X-65834Y27634D01*
X-65859Y27511D01*
X-65858Y27479D01*
X-65863Y27447D01*
X-65850Y27322D01*
X-65844Y27196D01*
X-65834Y27165D01*
X-65831Y27133D01*
X-65787Y27015D01*
X-65750Y26895D01*
X-65735Y26874D01*
X-65722Y26837D01*
X-65541Y26578D01*
X-65512Y26553D01*
X-65497Y26532D01*
X-63309Y24344D01*
X-63309Y21236D01*
X-65506Y19039D01*
X-68614Y19039D01*
X-70811Y21236D01*
X-70811Y24344D01*
X-69363Y25792D01*
X-69286Y25891D01*
X-69204Y25987D01*
X-69189Y26016D01*
X-69170Y26041D01*
X-69120Y26157D01*
X-69064Y26270D01*
X-69058Y26301D01*
X-69045Y26331D01*
X-69026Y26456D01*
X-69001Y26579D01*
X-69002Y26611D01*
X-68997Y26643D01*
X-69010Y26768D01*
X-69016Y26894D01*
X-69026Y26925D01*
X-69029Y26957D01*
X-69073Y27075D01*
X-69110Y27195D01*
X-69125Y27216D01*
X-69138Y27253D01*
X-69318Y27512D01*
X-69348Y27537D01*
X-69363Y27558D01*
X-71551Y29746D01*
X-71551Y32854D01*
X-69354Y35051D01*
X-66246Y35051D01*
X-64987Y33792D01*
X-64901Y33724D01*
X-64819Y33651D01*
X-64776Y33628D01*
X-64738Y33599D01*
X-64637Y33555D01*
X-64539Y33504D01*
X-64503Y33497D01*
X-64448Y33474D01*
X-64136Y33426D01*
X-64117Y33428D01*
X-64104Y33426D01*
X-62419Y33426D01*
X-52885Y23892D01*
X-52799Y23824D01*
X-52717Y23751D01*
X-52674Y23728D01*
X-52636Y23698D01*
X-52535Y23655D01*
X-52438Y23604D01*
X-52401Y23597D01*
X-52346Y23574D01*
X-52034Y23526D01*
X-52015Y23528D01*
X-52002Y23526D01*
X-36116Y23526D01*
X-35976Y23544D01*
X-35834Y23558D01*
X-35819Y23564D01*
X-35803Y23566D01*
X-35672Y23618D01*
X-35538Y23667D01*
X-35525Y23677D01*
X-35510Y23683D01*
X-35396Y23766D01*
X-35279Y23847D01*
X-35269Y23860D01*
X-35256Y23869D01*
X-35166Y23979D01*
X-35074Y24087D01*
X-35066Y24101D01*
X-35056Y24114D01*
X-34997Y24243D01*
X-34934Y24370D01*
X-34931Y24386D01*
X-34924Y24400D01*
X-34899Y24540D01*
X-34870Y24679D01*
X-34871Y24695D01*
X-34868Y24711D01*
X-34879Y24852D01*
X-34886Y24994D01*
X-34891Y25009D01*
X-34892Y25025D01*
X-34938Y25160D01*
X-34980Y25295D01*
X-34988Y25306D01*
X-34994Y25324D01*
X-35167Y25588D01*
X-35211Y25628D01*
X-35233Y25658D01*
X-36041Y26466D01*
X-36041Y29574D01*
X-33828Y31786D01*
X-33825Y31787D01*
X-33700Y31796D01*
X-33669Y31807D01*
X-33637Y31811D01*
X-33520Y31857D01*
X-33401Y31898D01*
X-33374Y31916D01*
X-33344Y31928D01*
X-33243Y32002D01*
X-33137Y32071D01*
X-33116Y32095D01*
X-33090Y32114D01*
X-33010Y32212D01*
X-32926Y32305D01*
X-32911Y32334D01*
X-32890Y32359D01*
X-32837Y32473D01*
X-32779Y32584D01*
X-32775Y32610D01*
X-32758Y32645D01*
X-32702Y32956D01*
X-32705Y32995D01*
X-32701Y33020D01*
X-32701Y34954D01*
X-30504Y37151D01*
X-27396Y37151D01*
X-25199Y34954D01*
X-25199Y31395D01*
X-25183Y31270D01*
X-25174Y31145D01*
X-25163Y31114D01*
X-25159Y31082D01*
X-25113Y30965D01*
X-25072Y30846D01*
X-25054Y30819D01*
X-25042Y30789D01*
X-24968Y30688D01*
X-24899Y30582D01*
X-24875Y30561D01*
X-24856Y30535D01*
X-24758Y30455D01*
X-24665Y30371D01*
X-24636Y30356D01*
X-24611Y30335D01*
X-24497Y30282D01*
X-24386Y30224D01*
X-24360Y30220D01*
X-24325Y30203D01*
X-24014Y30147D01*
X-23975Y30150D01*
X-23950Y30146D01*
X-16633Y30146D01*
X-9768Y23281D01*
X-9681Y23214D01*
X-9599Y23140D01*
X-9557Y23117D01*
X-9518Y23088D01*
X-9417Y23044D01*
X-9320Y22993D01*
X-9283Y22987D01*
X-9228Y22963D01*
X-8917Y22915D01*
X-8897Y22917D01*
X-8884Y22915D01*
X-8518Y22915D01*
X-3805Y18202D01*
X-3706Y18125D01*
X-3611Y18043D01*
X-3582Y18029D01*
X-3556Y18009D01*
X-3440Y17959D01*
X-3327Y17904D01*
X-3296Y17897D01*
X-3266Y17885D01*
X-3141Y17865D01*
X-3018Y17840D01*
X-2986Y17842D01*
X-2954Y17837D01*
X-2829Y17849D01*
X-2703Y17856D01*
X-2672Y17865D01*
X-2640Y17869D01*
X-2522Y17912D01*
X-2402Y17950D01*
X-2381Y17964D01*
X-2344Y17978D01*
X-2085Y18158D01*
X-2060Y18187D01*
X-2039Y18202D01*
X-836Y19405D01*
X-488Y19606D01*
X-101Y19709D01*
X301Y19709D01*
X688Y19606D01*
X1036Y19405D01*
X2239Y18202D01*
X2338Y18125D01*
X2434Y18043D01*
X2463Y18029D01*
X2488Y18009D01*
X2604Y17959D01*
X2717Y17904D01*
X2748Y17897D01*
X2778Y17885D01*
X2903Y17865D01*
X3026Y17840D01*
X3058Y17842D01*
X3090Y17837D01*
X3215Y17849D01*
X3341Y17856D01*
X3372Y17865D01*
X3404Y17869D01*
X3522Y17912D01*
X3642Y17950D01*
X3663Y17964D01*
X3700Y17978D01*
X3959Y18158D01*
X3984Y18187D01*
X4005Y18202D01*
X8718Y22915D01*
X9085Y22915D01*
X9194Y22929D01*
X9303Y22934D01*
X9350Y22949D01*
X9397Y22955D01*
X9500Y22995D01*
X9605Y23028D01*
X9635Y23050D01*
X9691Y23072D01*
X9945Y23258D01*
X9957Y23273D01*
X9968Y23281D01*
X22282Y35595D01*
X23893Y37206D01*
X28794Y37206D01*
X28903Y37220D01*
X29013Y37225D01*
X29059Y37239D01*
X29107Y37246D01*
X29209Y37286D01*
X29314Y37319D01*
X29345Y37341D01*
X29400Y37363D01*
X29654Y37549D01*
X29666Y37564D01*
X29677Y37572D01*
X30936Y38831D01*
X32881Y38831D01*
X33021Y38849D01*
X33163Y38863D01*
X33178Y38869D01*
X33194Y38871D01*
X33325Y38923D01*
X33459Y38972D01*
X33472Y38982D01*
X33487Y38988D01*
X33601Y39071D01*
X33718Y39152D01*
X33728Y39165D01*
X33741Y39174D01*
X33831Y39284D01*
X33923Y39392D01*
X33931Y39406D01*
X33941Y39419D01*
X34000Y39547D01*
X34063Y39675D01*
X34066Y39691D01*
X34073Y39705D01*
X34098Y39845D01*
X34127Y39984D01*
X34126Y40000D01*
X34129Y40016D01*
X34118Y40157D01*
X34111Y40299D01*
X34106Y40314D01*
X34105Y40330D01*
X34059Y40465D01*
X34017Y40600D01*
X34009Y40611D01*
X34003Y40629D01*
X33830Y40893D01*
X33786Y40933D01*
X33764Y40963D01*
X33049Y41678D01*
X33049Y62583D01*
X33031Y62723D01*
X33017Y62864D01*
X33011Y62880D01*
X33009Y62896D01*
X32957Y63027D01*
X32908Y63160D01*
X32898Y63173D01*
X32892Y63189D01*
X32808Y63304D01*
X32728Y63419D01*
X32715Y63430D01*
X32706Y63443D01*
X32595Y63533D01*
X32488Y63625D01*
X32474Y63632D01*
X32461Y63642D01*
X32332Y63702D01*
X32205Y63764D01*
X32190Y63767D01*
X32175Y63774D01*
X32035Y63799D01*
X31896Y63828D01*
X31880Y63827D01*
X31864Y63830D01*
X31723Y63820D01*
X31581Y63812D01*
X31566Y63808D01*
X31550Y63806D01*
X31415Y63761D01*
X31280Y63718D01*
X31269Y63711D01*
X31251Y63705D01*
X30987Y63531D01*
X30947Y63487D01*
X30917Y63466D01*
X30650Y63199D01*
X27423Y63199D01*
X27314Y63185D01*
X27204Y63180D01*
X27158Y63166D01*
X27110Y63159D01*
X27008Y63119D01*
X26903Y63086D01*
X26872Y63064D01*
X26817Y63042D01*
X26563Y62856D01*
X26550Y62841D01*
X26540Y62833D01*
X23917Y60210D01*
X23849Y60124D01*
X23776Y60042D01*
X23753Y59999D01*
X23723Y59961D01*
X23680Y59860D01*
X23629Y59763D01*
X23622Y59726D01*
X23599Y59671D01*
X23551Y59359D01*
X23553Y59340D01*
X23551Y59327D01*
X23551Y41678D01*
X22672Y40799D01*
X8728Y40799D01*
X7849Y41678D01*
X7849Y68322D01*
X8728Y69201D01*
X22672Y69201D01*
X23827Y68045D01*
X23927Y67968D01*
X24022Y67886D01*
X24051Y67872D01*
X24077Y67852D01*
X24193Y67802D01*
X24306Y67747D01*
X24337Y67740D01*
X24367Y67727D01*
X24491Y67708D01*
X24614Y67683D01*
X24647Y67684D01*
X24679Y67679D01*
X24804Y67692D01*
X24930Y67698D01*
X24960Y67708D01*
X24993Y67711D01*
X25111Y67755D01*
X25231Y67792D01*
X25252Y67807D01*
X25288Y67821D01*
X25548Y68001D01*
X25573Y68030D01*
X25594Y68045D01*
X27750Y70201D01*
X30650Y70201D01*
X31906Y68945D01*
X32006Y68868D01*
X32101Y68786D01*
X32130Y68772D01*
X32155Y68752D01*
X32271Y68702D01*
X32384Y68647D01*
X32416Y68640D01*
X32445Y68627D01*
X32570Y68608D01*
X32693Y68583D01*
X32725Y68584D01*
X32757Y68579D01*
X32882Y68592D01*
X33008Y68598D01*
X33039Y68608D01*
X33071Y68611D01*
X33189Y68655D01*
X33309Y68692D01*
X33330Y68707D01*
X33367Y68721D01*
X33626Y68901D01*
X33651Y68930D01*
X33673Y68945D01*
X33928Y69201D01*
X47872Y69201D01*
X48751Y68322D01*
X48751Y50673D01*
X48765Y50564D01*
X48770Y50454D01*
X48784Y50408D01*
X48791Y50360D01*
X48831Y50258D01*
X48864Y50153D01*
X48886Y50122D01*
X48908Y50067D01*
X49094Y49813D01*
X49109Y49800D01*
X49117Y49790D01*
X51730Y47177D01*
X51816Y47109D01*
X51898Y47036D01*
X51941Y47013D01*
X51979Y46983D01*
X52080Y46940D01*
X52177Y46889D01*
X52214Y46882D01*
X52269Y46859D01*
X52581Y46811D01*
X52600Y46813D01*
X52613Y46811D01*
X69853Y46811D01*
X74001Y42663D01*
X74001Y25286D01*
X74019Y25146D01*
X74033Y25004D01*
X74039Y24989D01*
X74041Y24973D01*
X74093Y24841D01*
X74142Y24708D01*
X74152Y24695D01*
X74158Y24680D01*
X74242Y24565D01*
X74322Y24449D01*
X74335Y24439D01*
X74344Y24426D01*
X74454Y24336D01*
X74562Y24244D01*
X74576Y24237D01*
X74589Y24226D01*
X74718Y24167D01*
X74845Y24104D01*
X74860Y24101D01*
X74875Y24094D01*
X75015Y24069D01*
X75154Y24041D01*
X75170Y24041D01*
X75186Y24039D01*
X75327Y24049D01*
X75469Y24056D01*
X75484Y24061D01*
X75500Y24062D01*
X75635Y24108D01*
X75770Y24150D01*
X75781Y24158D01*
X75799Y24164D01*
X76063Y24337D01*
X76103Y24381D01*
X76133Y24403D01*
X76517Y24787D01*
X80483Y24787D01*
X83287Y21983D01*
X83287Y18017D01*
X81153Y15883D01*
X81076Y15784D01*
X80994Y15688D01*
X80979Y15659D01*
X80960Y15634D01*
X80910Y15518D01*
X80854Y15405D01*
X80848Y15374D01*
X80835Y15344D01*
X80816Y15219D01*
X80791Y15096D01*
X80792Y15064D01*
X80787Y15032D01*
X80800Y14907D01*
X80806Y14781D01*
X80816Y14750D01*
X80819Y14718D01*
X80863Y14600D01*
X80900Y14480D01*
X80915Y14459D01*
X80929Y14422D01*
X81109Y14163D01*
X81138Y14138D01*
X81153Y14117D01*
X83287Y11983D01*
X83287Y8017D01*
X81153Y5883D01*
X81076Y5784D01*
X80994Y5688D01*
X80979Y5659D01*
X80960Y5634D01*
X80910Y5518D01*
X80854Y5405D01*
X80848Y5374D01*
X80835Y5344D01*
X80816Y5219D01*
X80791Y5096D01*
X80792Y5064D01*
X80787Y5032D01*
X80800Y4907D01*
X80806Y4781D01*
X80816Y4750D01*
X80819Y4718D01*
X80863Y4600D01*
X80900Y4480D01*
X80915Y4459D01*
X80929Y4422D01*
X81109Y4163D01*
X81138Y4138D01*
X81153Y4117D01*
X83287Y1983D01*
X83287Y-1983D01*
X81153Y-4117D01*
X81076Y-4216D01*
X80994Y-4312D01*
X80979Y-4341D01*
X80960Y-4366D01*
X80910Y-4482D01*
X80854Y-4595D01*
X80848Y-4626D01*
X80835Y-4656D01*
X80816Y-4781D01*
X80791Y-4904D01*
X80792Y-4936D01*
X80787Y-4968D01*
X80800Y-5093D01*
X80806Y-5219D01*
X80816Y-5250D01*
X80819Y-5282D01*
X80863Y-5400D01*
X80900Y-5520D01*
X80915Y-5541D01*
X80929Y-5578D01*
X81109Y-5837D01*
X81138Y-5862D01*
X81153Y-5883D01*
X83287Y-8017D01*
X83287Y-11983D01*
X81153Y-14117D01*
X81076Y-14216D01*
X80994Y-14312D01*
X80979Y-14341D01*
X80960Y-14366D01*
X80910Y-14482D01*
X80854Y-14595D01*
X80848Y-14626D01*
X80835Y-14656D01*
X80816Y-14781D01*
X80791Y-14904D01*
X80792Y-14936D01*
X80787Y-14968D01*
X80800Y-15093D01*
X80806Y-15219D01*
X80816Y-15250D01*
X80819Y-15282D01*
X80863Y-15400D01*
X80900Y-15520D01*
X80915Y-15541D01*
X80929Y-15578D01*
X81109Y-15837D01*
X81138Y-15862D01*
X81153Y-15883D01*
X83287Y-18017D01*
X83287Y-21983D01*
X80483Y-24787D01*
X76517Y-24787D01*
X73713Y-21983D01*
X73713Y-18515D01*
X73695Y-18375D01*
X73681Y-18233D01*
X73675Y-18218D01*
X73673Y-18202D01*
X73621Y-18071D01*
X73572Y-17938D01*
X73562Y-17924D01*
X73556Y-17909D01*
X73472Y-17795D01*
X73392Y-17678D01*
X73379Y-17668D01*
X73370Y-17655D01*
X73260Y-17565D01*
X73152Y-17473D01*
X73138Y-17466D01*
X73125Y-17456D01*
X72997Y-17396D01*
X72869Y-17334D01*
X72853Y-17330D01*
X72839Y-17324D01*
X72699Y-17299D01*
X72560Y-17270D01*
X72544Y-17271D01*
X72528Y-17268D01*
X72386Y-17278D01*
X72245Y-17285D01*
X72230Y-17290D01*
X72214Y-17291D01*
X72079Y-17337D01*
X71944Y-17380D01*
X71933Y-17387D01*
X71915Y-17393D01*
X71651Y-17567D01*
X71611Y-17611D01*
X71581Y-17632D01*
X71435Y-17778D01*
X69824Y-19389D01*
X64645Y-19389D01*
X64615Y-19358D01*
X64515Y-19281D01*
X64420Y-19199D01*
X64391Y-19185D01*
X64365Y-19165D01*
X64249Y-19115D01*
X64137Y-19060D01*
X64105Y-19053D01*
X64075Y-19041D01*
X63951Y-19021D01*
X63828Y-18996D01*
X63796Y-18998D01*
X63764Y-18993D01*
X63638Y-19005D01*
X63513Y-19012D01*
X63482Y-19021D01*
X63450Y-19024D01*
X63331Y-19068D01*
X63211Y-19106D01*
X63190Y-19120D01*
X63154Y-19134D01*
X62895Y-19314D01*
X62869Y-19343D01*
X62848Y-19358D01*
X58667Y-23540D01*
X58599Y-23626D01*
X58526Y-23708D01*
X58503Y-23751D01*
X58473Y-23789D01*
X58430Y-23890D01*
X58379Y-23987D01*
X58372Y-24024D01*
X58349Y-24079D01*
X58301Y-24391D01*
X58303Y-24410D01*
X58301Y-24423D01*
X58301Y-35161D01*
X58315Y-35270D01*
X58320Y-35380D01*
X58334Y-35426D01*
X58341Y-35474D01*
X58381Y-35576D01*
X58401Y-35638D01*
X58401Y-46022D01*
X57522Y-46901D01*
X56775Y-46901D01*
X56650Y-46917D01*
X56525Y-46926D01*
X56494Y-46937D01*
X56462Y-46941D01*
X56345Y-46987D01*
X56226Y-47028D01*
X56199Y-47046D01*
X56169Y-47058D01*
X56068Y-47132D01*
X55962Y-47201D01*
X55941Y-47225D01*
X55915Y-47244D01*
X55835Y-47342D01*
X55751Y-47435D01*
X55736Y-47464D01*
X55715Y-47489D01*
X55662Y-47603D01*
X55604Y-47714D01*
X55600Y-47740D01*
X55583Y-47775D01*
X55527Y-48086D01*
X55530Y-48125D01*
X55526Y-48150D01*
X55526Y-55402D01*
X55540Y-55511D01*
X55545Y-55621D01*
X55559Y-55667D01*
X55566Y-55715D01*
X55606Y-55817D01*
X55639Y-55922D01*
X55661Y-55953D01*
X55683Y-56008D01*
X55869Y-56262D01*
X55884Y-56275D01*
X55892Y-56285D01*
X65440Y-65833D01*
X65526Y-65901D01*
X65608Y-65974D01*
X65651Y-65997D01*
X65689Y-66027D01*
X65790Y-66070D01*
X65887Y-66121D01*
X65924Y-66128D01*
X65979Y-66151D01*
X66291Y-66199D01*
X66310Y-66197D01*
X66323Y-66199D01*
X67750Y-66199D01*
X69801Y-68250D01*
X69801Y-71150D01*
X67750Y-73201D01*
X64850Y-73201D01*
X62799Y-71150D01*
X62799Y-69723D01*
X62785Y-69614D01*
X62780Y-69504D01*
X62766Y-69458D01*
X62759Y-69410D01*
X62719Y-69308D01*
X62686Y-69203D01*
X62664Y-69172D01*
X62642Y-69117D01*
X62456Y-68863D01*
X62441Y-68850D01*
X62433Y-68840D01*
X51274Y-57681D01*
X51274Y-48150D01*
X51258Y-48025D01*
X51249Y-47900D01*
X51238Y-47869D01*
X51234Y-47837D01*
X51188Y-47720D01*
X51147Y-47601D01*
X51129Y-47574D01*
X51117Y-47544D01*
X51043Y-47443D01*
X50974Y-47337D01*
X50950Y-47316D01*
X50931Y-47290D01*
X50833Y-47210D01*
X50740Y-47126D01*
X50711Y-47111D01*
X50686Y-47090D01*
X50572Y-47037D01*
X50461Y-46979D01*
X50435Y-46975D01*
X50400Y-46958D01*
X50089Y-46902D01*
X50072Y-46904D01*
X50064Y-46902D01*
X50043Y-46904D01*
X50025Y-46901D01*
X50000Y-46901D01*
X49875Y-46917D01*
X49750Y-46926D01*
X49719Y-46937D01*
X49687Y-46941D01*
X49570Y-46987D01*
X49451Y-47028D01*
X49424Y-47046D01*
X49394Y-47058D01*
X49293Y-47132D01*
X49187Y-47201D01*
X49166Y-47225D01*
X49140Y-47244D01*
X49060Y-47342D01*
X48976Y-47435D01*
X48961Y-47464D01*
X48940Y-47489D01*
X48887Y-47603D01*
X48829Y-47714D01*
X48825Y-47740D01*
X48808Y-47775D01*
X48752Y-48086D01*
X48755Y-48125D01*
X48751Y-48150D01*
X48751Y-73522D01*
X47872Y-74401D01*
X33928Y-74401D01*
X33049Y-73522D01*
X33049Y-70090D01*
X33031Y-69950D01*
X33017Y-69809D01*
X33011Y-69793D01*
X33009Y-69777D01*
X32957Y-69646D01*
X32908Y-69513D01*
X32898Y-69499D01*
X32892Y-69484D01*
X32809Y-69370D01*
X32728Y-69254D01*
X32715Y-69243D01*
X32706Y-69230D01*
X32596Y-69140D01*
X32488Y-69048D01*
X32474Y-69041D01*
X32461Y-69031D01*
X32332Y-68971D01*
X32205Y-68909D01*
X32189Y-68906D01*
X32175Y-68899D01*
X32035Y-68874D01*
X31896Y-68845D01*
X31880Y-68846D01*
X31864Y-68843D01*
X31723Y-68854D01*
X31581Y-68861D01*
X31566Y-68865D01*
X31550Y-68867D01*
X31415Y-68912D01*
X31280Y-68955D01*
X31269Y-68962D01*
X31251Y-68968D01*
X30987Y-69142D01*
X30947Y-69186D01*
X30917Y-69207D01*
X29537Y-70587D01*
X26636Y-70587D01*
X25683Y-69634D01*
X25571Y-69547D01*
X25461Y-69458D01*
X25447Y-69451D01*
X25434Y-69441D01*
X25304Y-69385D01*
X25175Y-69326D01*
X25159Y-69323D01*
X25144Y-69316D01*
X25003Y-69295D01*
X24864Y-69270D01*
X24848Y-69271D01*
X24832Y-69269D01*
X24691Y-69283D01*
X24550Y-69294D01*
X24534Y-69299D01*
X24518Y-69300D01*
X24386Y-69349D01*
X24251Y-69395D01*
X24237Y-69404D01*
X24222Y-69410D01*
X24107Y-69490D01*
X23987Y-69569D01*
X23976Y-69581D01*
X23963Y-69590D01*
X23871Y-69697D01*
X23776Y-69802D01*
X23768Y-69817D01*
X23758Y-69829D01*
X23695Y-69957D01*
X23629Y-70082D01*
X23627Y-70095D01*
X23618Y-70112D01*
X23554Y-70421D01*
X23557Y-70480D01*
X23551Y-70517D01*
X23551Y-73523D01*
X23477Y-73618D01*
X23395Y-73713D01*
X23381Y-73742D01*
X23361Y-73767D01*
X23311Y-73883D01*
X23256Y-73996D01*
X23249Y-74028D01*
X23237Y-74057D01*
X23218Y-74182D01*
X23192Y-74305D01*
X23194Y-74337D01*
X23189Y-74369D01*
X23201Y-74495D01*
X23208Y-74620D01*
X23217Y-74651D01*
X23221Y-74683D01*
X23264Y-74801D01*
X23302Y-74921D01*
X23316Y-74943D01*
X23330Y-74979D01*
X23510Y-75238D01*
X23540Y-75264D01*
X23554Y-75285D01*
X24787Y-76517D01*
X24787Y-80483D01*
X21983Y-83287D01*
X18017Y-83287D01*
X15883Y-81153D01*
X15784Y-81076D01*
X15688Y-80994D01*
X15659Y-80979D01*
X15634Y-80960D01*
X15518Y-80910D01*
X15405Y-80854D01*
X15374Y-80848D01*
X15344Y-80835D01*
X15219Y-80816D01*
X15096Y-80791D01*
X15064Y-80792D01*
X15032Y-80787D01*
X14907Y-80800D01*
X14781Y-80806D01*
X14750Y-80816D01*
X14718Y-80819D01*
X14600Y-80863D01*
X14480Y-80900D01*
X14459Y-80915D01*
X14422Y-80929D01*
X14163Y-81109D01*
X14138Y-81138D01*
X14117Y-81153D01*
X11983Y-83287D01*
X8017Y-83287D01*
X5883Y-81153D01*
X5784Y-81076D01*
X5688Y-80994D01*
X5659Y-80979D01*
X5634Y-80960D01*
X5518Y-80910D01*
X5405Y-80854D01*
X5374Y-80848D01*
X5344Y-80835D01*
X5219Y-80816D01*
X5096Y-80791D01*
X5064Y-80792D01*
X5032Y-80787D01*
X4907Y-80800D01*
X4781Y-80806D01*
X4750Y-80816D01*
X4718Y-80819D01*
X4600Y-80863D01*
X4480Y-80900D01*
X4459Y-80915D01*
X4422Y-80929D01*
X4163Y-81109D01*
X4138Y-81138D01*
X4117Y-81153D01*
X1983Y-83287D01*
X-1983Y-83287D01*
X-4117Y-81153D01*
X-4216Y-81076D01*
X-4312Y-80994D01*
X-4341Y-80979D01*
X-4366Y-80960D01*
X-4482Y-80910D01*
X-4595Y-80854D01*
X-4626Y-80848D01*
X-4656Y-80835D01*
X-4781Y-80816D01*
X-4904Y-80791D01*
X-4936Y-80792D01*
X-4968Y-80787D01*
X-5093Y-80800D01*
X-5219Y-80806D01*
X-5250Y-80816D01*
X-5282Y-80819D01*
X-5400Y-80863D01*
X-5520Y-80900D01*
X-5541Y-80915D01*
X-5578Y-80929D01*
X-5837Y-81109D01*
X-5862Y-81138D01*
X-5883Y-81153D01*
X-8017Y-83287D01*
X-11983Y-83287D01*
X-14117Y-81153D01*
X-14216Y-81076D01*
X-14312Y-80994D01*
X-14341Y-80979D01*
X-14366Y-80960D01*
X-14482Y-80910D01*
X-14595Y-80854D01*
X-14626Y-80848D01*
X-14656Y-80835D01*
X-14781Y-80816D01*
X-14904Y-80791D01*
X-14936Y-80792D01*
X-14968Y-80787D01*
X-15093Y-80800D01*
X-15219Y-80806D01*
X-15250Y-80816D01*
X-15282Y-80819D01*
X-15400Y-80863D01*
X-15520Y-80900D01*
X-15541Y-80915D01*
X-15578Y-80929D01*
X-15837Y-81109D01*
X-15862Y-81138D01*
X-15883Y-81153D01*
X-18017Y-83287D01*
X-21983Y-83287D01*
G37*
%LPD*%
%LPC*%
G36*
X121561Y107713D02*
X121561Y107713D01*
X115208Y110345D01*
X110345Y115208D01*
X107713Y121561D01*
X107713Y128439D01*
X110345Y134792D01*
X115208Y139655D01*
X121561Y142287D01*
X128439Y142287D01*
X134792Y139655D01*
X139655Y134792D01*
X142287Y128439D01*
X142287Y121561D01*
X139655Y115208D01*
X134792Y110345D01*
X128439Y107713D01*
X121561Y107713D01*
G37*
%LPD*%
%LPC*%
G36*
X-128439Y107713D02*
X-128439Y107713D01*
X-134792Y110345D01*
X-139655Y115208D01*
X-142287Y121561D01*
X-142287Y128439D01*
X-139655Y134792D01*
X-134792Y139655D01*
X-128439Y142287D01*
X-121561Y142287D01*
X-115208Y139655D01*
X-110345Y134792D01*
X-107713Y128439D01*
X-107713Y121561D01*
X-110345Y115208D01*
X-115208Y110345D01*
X-121561Y107713D01*
X-128439Y107713D01*
G37*
%LPD*%
%LPC*%
G36*
X121561Y-142287D02*
X121561Y-142287D01*
X115208Y-139655D01*
X110345Y-134792D01*
X107713Y-128439D01*
X107713Y-121561D01*
X110345Y-115208D01*
X115208Y-110345D01*
X121561Y-107713D01*
X128439Y-107713D01*
X134792Y-110345D01*
X139655Y-115208D01*
X142287Y-121561D01*
X142287Y-128439D01*
X139655Y-134792D01*
X134792Y-139655D01*
X128439Y-142287D01*
X121561Y-142287D01*
G37*
%LPD*%
%LPC*%
G36*
X-128439Y-142287D02*
X-128439Y-142287D01*
X-134792Y-139655D01*
X-139655Y-134792D01*
X-142287Y-128439D01*
X-142287Y-121561D01*
X-139655Y-115208D01*
X-134792Y-110345D01*
X-128439Y-107713D01*
X-121561Y-107713D01*
X-115208Y-110345D01*
X-110345Y-115208D01*
X-107713Y-121561D01*
X-107713Y-128439D01*
X-110345Y-134792D01*
X-115208Y-139655D01*
X-121561Y-142287D01*
X-128439Y-142287D01*
G37*
%LPD*%
%LPC*%
G36*
X-41672Y40799D02*
X-41672Y40799D01*
X-42551Y41678D01*
X-42551Y54643D01*
X-42565Y54752D01*
X-42570Y54862D01*
X-42584Y54908D01*
X-42591Y54956D01*
X-42631Y55058D01*
X-42664Y55163D01*
X-42685Y55194D01*
X-42708Y55249D01*
X-42855Y55450D01*
X-42873Y55478D01*
X-42880Y55484D01*
X-42894Y55503D01*
X-42909Y55516D01*
X-42917Y55526D01*
X-49893Y62503D01*
X-50005Y62589D01*
X-50115Y62679D01*
X-50129Y62686D01*
X-50142Y62696D01*
X-50273Y62752D01*
X-50401Y62811D01*
X-50417Y62814D01*
X-50432Y62820D01*
X-50573Y62842D01*
X-50712Y62867D01*
X-50728Y62866D01*
X-50744Y62868D01*
X-50885Y62854D01*
X-51026Y62843D01*
X-51042Y62838D01*
X-51058Y62836D01*
X-51191Y62787D01*
X-51325Y62741D01*
X-51339Y62732D01*
X-51354Y62727D01*
X-51470Y62646D01*
X-51589Y62568D01*
X-51600Y62556D01*
X-51613Y62547D01*
X-51705Y62440D01*
X-51800Y62334D01*
X-51808Y62320D01*
X-51818Y62308D01*
X-51881Y62181D01*
X-51947Y62055D01*
X-51949Y62042D01*
X-51958Y62024D01*
X-52022Y61715D01*
X-52019Y61656D01*
X-52025Y61619D01*
X-52025Y57499D01*
X-57401Y57499D01*
X-57401Y69225D01*
X-53349Y69225D01*
X-53160Y69174D01*
X-53046Y69158D01*
X-52933Y69135D01*
X-52890Y69137D01*
X-52847Y69132D01*
X-52733Y69145D01*
X-52618Y69151D01*
X-52577Y69164D01*
X-52534Y69169D01*
X-52427Y69211D01*
X-52317Y69245D01*
X-52289Y69264D01*
X-52240Y69283D01*
X-51984Y69468D01*
X-51968Y69487D01*
X-51953Y69497D01*
X-51450Y70001D01*
X-48550Y70001D01*
X-46499Y67950D01*
X-46499Y67407D01*
X-46485Y67298D01*
X-46480Y67188D01*
X-46466Y67142D01*
X-46459Y67094D01*
X-46419Y66992D01*
X-46386Y66887D01*
X-46364Y66856D01*
X-46342Y66801D01*
X-46156Y66546D01*
X-46141Y66534D01*
X-46133Y66523D01*
X-44683Y65073D01*
X-44571Y64987D01*
X-44461Y64897D01*
X-44447Y64890D01*
X-44434Y64880D01*
X-44303Y64824D01*
X-44175Y64765D01*
X-44159Y64762D01*
X-44144Y64756D01*
X-44003Y64734D01*
X-43864Y64709D01*
X-43848Y64710D01*
X-43832Y64708D01*
X-43691Y64722D01*
X-43550Y64733D01*
X-43534Y64738D01*
X-43518Y64740D01*
X-43385Y64789D01*
X-43251Y64835D01*
X-43237Y64844D01*
X-43222Y64849D01*
X-43106Y64930D01*
X-42987Y65008D01*
X-42976Y65020D01*
X-42963Y65029D01*
X-42871Y65136D01*
X-42776Y65242D01*
X-42768Y65256D01*
X-42758Y65268D01*
X-42695Y65395D01*
X-42629Y65521D01*
X-42627Y65534D01*
X-42618Y65552D01*
X-42554Y65861D01*
X-42557Y65920D01*
X-42551Y65957D01*
X-42551Y68322D01*
X-41672Y69201D01*
X-27728Y69201D01*
X-26849Y68322D01*
X-26849Y41678D01*
X-27728Y40799D01*
X-41672Y40799D01*
G37*
%LPD*%
%LPC*%
G36*
X-21983Y93713D02*
X-21983Y93713D01*
X-24787Y96517D01*
X-24787Y100483D01*
X-21983Y103287D01*
X-18017Y103287D01*
X-15883Y101153D01*
X-15784Y101076D01*
X-15688Y100994D01*
X-15659Y100979D01*
X-15634Y100960D01*
X-15518Y100910D01*
X-15405Y100854D01*
X-15374Y100848D01*
X-15344Y100835D01*
X-15219Y100816D01*
X-15096Y100791D01*
X-15064Y100792D01*
X-15032Y100787D01*
X-14907Y100800D01*
X-14781Y100806D01*
X-14750Y100816D01*
X-14718Y100819D01*
X-14600Y100863D01*
X-14480Y100900D01*
X-14459Y100915D01*
X-14422Y100929D01*
X-14163Y101109D01*
X-14138Y101138D01*
X-14117Y101153D01*
X-11983Y103287D01*
X-8017Y103287D01*
X-5883Y101153D01*
X-5784Y101076D01*
X-5688Y100994D01*
X-5659Y100979D01*
X-5634Y100960D01*
X-5518Y100910D01*
X-5405Y100854D01*
X-5374Y100848D01*
X-5344Y100835D01*
X-5219Y100816D01*
X-5096Y100791D01*
X-5064Y100792D01*
X-5032Y100787D01*
X-4907Y100800D01*
X-4781Y100806D01*
X-4750Y100816D01*
X-4718Y100819D01*
X-4600Y100863D01*
X-4480Y100900D01*
X-4459Y100915D01*
X-4422Y100929D01*
X-4163Y101109D01*
X-4138Y101138D01*
X-4117Y101153D01*
X-1983Y103287D01*
X1983Y103287D01*
X4117Y101153D01*
X4216Y101076D01*
X4312Y100994D01*
X4341Y100979D01*
X4366Y100960D01*
X4482Y100910D01*
X4595Y100854D01*
X4626Y100848D01*
X4656Y100835D01*
X4781Y100816D01*
X4904Y100791D01*
X4936Y100792D01*
X4968Y100787D01*
X5093Y100800D01*
X5219Y100806D01*
X5250Y100816D01*
X5282Y100819D01*
X5400Y100863D01*
X5520Y100900D01*
X5541Y100915D01*
X5578Y100929D01*
X5837Y101109D01*
X5862Y101138D01*
X5883Y101153D01*
X8017Y103287D01*
X11983Y103287D01*
X14117Y101153D01*
X14216Y101076D01*
X14312Y100994D01*
X14341Y100979D01*
X14366Y100960D01*
X14482Y100910D01*
X14595Y100854D01*
X14626Y100848D01*
X14656Y100835D01*
X14781Y100816D01*
X14904Y100791D01*
X14936Y100792D01*
X14968Y100787D01*
X15093Y100800D01*
X15219Y100806D01*
X15250Y100816D01*
X15282Y100819D01*
X15400Y100863D01*
X15520Y100900D01*
X15541Y100915D01*
X15578Y100929D01*
X15837Y101109D01*
X15862Y101138D01*
X15883Y101153D01*
X18017Y103287D01*
X21983Y103287D01*
X24787Y100483D01*
X24787Y96517D01*
X21983Y93713D01*
X18017Y93713D01*
X15883Y95847D01*
X15784Y95924D01*
X15688Y96006D01*
X15659Y96021D01*
X15634Y96040D01*
X15518Y96090D01*
X15405Y96146D01*
X15374Y96152D01*
X15344Y96165D01*
X15219Y96184D01*
X15096Y96209D01*
X15064Y96208D01*
X15032Y96213D01*
X14907Y96200D01*
X14781Y96194D01*
X14750Y96184D01*
X14718Y96181D01*
X14600Y96137D01*
X14480Y96100D01*
X14459Y96085D01*
X14422Y96071D01*
X14163Y95891D01*
X14138Y95862D01*
X14117Y95847D01*
X11983Y93713D01*
X8017Y93713D01*
X5883Y95847D01*
X5784Y95924D01*
X5688Y96006D01*
X5659Y96021D01*
X5634Y96040D01*
X5518Y96090D01*
X5405Y96146D01*
X5374Y96152D01*
X5344Y96165D01*
X5219Y96184D01*
X5096Y96209D01*
X5064Y96208D01*
X5032Y96213D01*
X4907Y96200D01*
X4781Y96194D01*
X4750Y96184D01*
X4718Y96181D01*
X4600Y96137D01*
X4480Y96100D01*
X4459Y96085D01*
X4422Y96071D01*
X4163Y95891D01*
X4138Y95862D01*
X4117Y95847D01*
X1983Y93713D01*
X-1983Y93713D01*
X-4117Y95847D01*
X-4216Y95924D01*
X-4312Y96006D01*
X-4341Y96021D01*
X-4366Y96040D01*
X-4482Y96090D01*
X-4595Y96146D01*
X-4626Y96152D01*
X-4656Y96165D01*
X-4781Y96184D01*
X-4904Y96209D01*
X-4936Y96208D01*
X-4968Y96213D01*
X-5093Y96200D01*
X-5219Y96194D01*
X-5250Y96184D01*
X-5282Y96181D01*
X-5400Y96137D01*
X-5520Y96100D01*
X-5541Y96085D01*
X-5578Y96071D01*
X-5837Y95891D01*
X-5862Y95862D01*
X-5883Y95847D01*
X-8017Y93713D01*
X-11983Y93713D01*
X-14117Y95847D01*
X-14216Y95924D01*
X-14312Y96006D01*
X-14341Y96021D01*
X-14366Y96040D01*
X-14482Y96090D01*
X-14595Y96146D01*
X-14626Y96152D01*
X-14656Y96165D01*
X-14781Y96184D01*
X-14904Y96209D01*
X-14936Y96208D01*
X-14968Y96213D01*
X-15093Y96200D01*
X-15219Y96194D01*
X-15250Y96184D01*
X-15282Y96181D01*
X-15400Y96137D01*
X-15520Y96100D01*
X-15541Y96085D01*
X-15578Y96071D01*
X-15837Y95891D01*
X-15862Y95862D01*
X-15883Y95847D01*
X-18017Y93713D01*
X-21983Y93713D01*
G37*
%LPD*%
%LPC*%
G36*
X-21983Y73713D02*
X-21983Y73713D01*
X-24787Y76517D01*
X-24787Y80483D01*
X-21983Y83287D01*
X-18017Y83287D01*
X-15883Y81153D01*
X-15784Y81076D01*
X-15688Y80994D01*
X-15659Y80979D01*
X-15634Y80960D01*
X-15518Y80910D01*
X-15405Y80854D01*
X-15374Y80848D01*
X-15344Y80835D01*
X-15219Y80816D01*
X-15096Y80791D01*
X-15064Y80792D01*
X-15032Y80787D01*
X-14907Y80800D01*
X-14781Y80806D01*
X-14750Y80816D01*
X-14718Y80819D01*
X-14600Y80863D01*
X-14480Y80900D01*
X-14459Y80915D01*
X-14422Y80929D01*
X-14163Y81109D01*
X-14138Y81138D01*
X-14117Y81153D01*
X-11983Y83287D01*
X-8017Y83287D01*
X-5883Y81153D01*
X-5784Y81076D01*
X-5688Y80994D01*
X-5659Y80979D01*
X-5634Y80960D01*
X-5518Y80910D01*
X-5405Y80854D01*
X-5374Y80848D01*
X-5344Y80835D01*
X-5219Y80816D01*
X-5096Y80791D01*
X-5064Y80792D01*
X-5032Y80787D01*
X-4907Y80800D01*
X-4781Y80806D01*
X-4750Y80816D01*
X-4718Y80819D01*
X-4600Y80863D01*
X-4480Y80900D01*
X-4459Y80915D01*
X-4422Y80929D01*
X-4163Y81109D01*
X-4138Y81138D01*
X-4117Y81153D01*
X-1983Y83287D01*
X1983Y83287D01*
X4117Y81153D01*
X4216Y81076D01*
X4312Y80994D01*
X4341Y80979D01*
X4366Y80960D01*
X4482Y80910D01*
X4595Y80854D01*
X4626Y80848D01*
X4656Y80835D01*
X4781Y80816D01*
X4904Y80791D01*
X4936Y80792D01*
X4968Y80787D01*
X5093Y80800D01*
X5219Y80806D01*
X5250Y80816D01*
X5282Y80819D01*
X5400Y80863D01*
X5520Y80900D01*
X5541Y80915D01*
X5578Y80929D01*
X5837Y81109D01*
X5862Y81138D01*
X5883Y81153D01*
X8017Y83287D01*
X11983Y83287D01*
X14117Y81153D01*
X14216Y81076D01*
X14312Y80994D01*
X14341Y80979D01*
X14366Y80960D01*
X14482Y80910D01*
X14595Y80854D01*
X14626Y80848D01*
X14656Y80835D01*
X14781Y80816D01*
X14904Y80791D01*
X14936Y80792D01*
X14968Y80787D01*
X15093Y80800D01*
X15219Y80806D01*
X15250Y80816D01*
X15282Y80819D01*
X15400Y80863D01*
X15520Y80900D01*
X15541Y80915D01*
X15578Y80929D01*
X15837Y81109D01*
X15862Y81138D01*
X15883Y81153D01*
X18017Y83287D01*
X21983Y83287D01*
X24787Y80483D01*
X24787Y76517D01*
X21983Y73713D01*
X18017Y73713D01*
X15883Y75847D01*
X15784Y75924D01*
X15688Y76006D01*
X15659Y76021D01*
X15634Y76040D01*
X15518Y76090D01*
X15405Y76146D01*
X15374Y76152D01*
X15344Y76165D01*
X15219Y76184D01*
X15096Y76209D01*
X15064Y76208D01*
X15032Y76213D01*
X14907Y76200D01*
X14781Y76194D01*
X14750Y76184D01*
X14718Y76181D01*
X14600Y76137D01*
X14480Y76100D01*
X14459Y76085D01*
X14422Y76071D01*
X14163Y75891D01*
X14138Y75862D01*
X14117Y75847D01*
X11983Y73713D01*
X8017Y73713D01*
X5883Y75847D01*
X5784Y75924D01*
X5688Y76006D01*
X5659Y76021D01*
X5634Y76040D01*
X5518Y76090D01*
X5405Y76146D01*
X5374Y76152D01*
X5344Y76165D01*
X5219Y76184D01*
X5096Y76209D01*
X5064Y76208D01*
X5032Y76213D01*
X4907Y76200D01*
X4781Y76194D01*
X4750Y76184D01*
X4718Y76181D01*
X4600Y76137D01*
X4480Y76100D01*
X4459Y76085D01*
X4422Y76071D01*
X4163Y75891D01*
X4138Y75862D01*
X4117Y75847D01*
X1983Y73713D01*
X-1983Y73713D01*
X-4117Y75847D01*
X-4216Y75924D01*
X-4312Y76006D01*
X-4341Y76021D01*
X-4366Y76040D01*
X-4482Y76090D01*
X-4595Y76146D01*
X-4626Y76152D01*
X-4656Y76165D01*
X-4781Y76184D01*
X-4904Y76209D01*
X-4936Y76208D01*
X-4968Y76213D01*
X-5093Y76200D01*
X-5219Y76194D01*
X-5250Y76184D01*
X-5282Y76181D01*
X-5400Y76137D01*
X-5520Y76100D01*
X-5541Y76085D01*
X-5578Y76071D01*
X-5837Y75891D01*
X-5862Y75862D01*
X-5883Y75847D01*
X-8017Y73713D01*
X-11983Y73713D01*
X-14117Y75847D01*
X-14216Y75924D01*
X-14312Y76006D01*
X-14341Y76021D01*
X-14366Y76040D01*
X-14482Y76090D01*
X-14595Y76146D01*
X-14626Y76152D01*
X-14656Y76165D01*
X-14781Y76184D01*
X-14904Y76209D01*
X-14936Y76208D01*
X-14968Y76213D01*
X-15093Y76200D01*
X-15219Y76194D01*
X-15250Y76184D01*
X-15282Y76181D01*
X-15400Y76137D01*
X-15520Y76100D01*
X-15541Y76085D01*
X-15578Y76071D01*
X-15837Y75891D01*
X-15862Y75862D01*
X-15883Y75847D01*
X-18017Y73713D01*
X-21983Y73713D01*
G37*
%LPD*%
%LPC*%
G36*
X-100583Y-24687D02*
X-100583Y-24687D01*
X-103387Y-21883D01*
X-103387Y-17917D01*
X-101253Y-15783D01*
X-101176Y-15684D01*
X-101094Y-15588D01*
X-101079Y-15559D01*
X-101060Y-15534D01*
X-101010Y-15418D01*
X-100954Y-15305D01*
X-100948Y-15274D01*
X-100935Y-15244D01*
X-100916Y-15119D01*
X-100891Y-14996D01*
X-100892Y-14964D01*
X-100887Y-14932D01*
X-100900Y-14807D01*
X-100906Y-14681D01*
X-100916Y-14650D01*
X-100919Y-14618D01*
X-100963Y-14500D01*
X-101000Y-14380D01*
X-101015Y-14359D01*
X-101029Y-14322D01*
X-101209Y-14063D01*
X-101238Y-14038D01*
X-101253Y-14017D01*
X-103387Y-11883D01*
X-103387Y-7917D01*
X-101253Y-5783D01*
X-101176Y-5684D01*
X-101094Y-5588D01*
X-101079Y-5559D01*
X-101060Y-5534D01*
X-101010Y-5418D01*
X-100954Y-5305D01*
X-100948Y-5274D01*
X-100935Y-5244D01*
X-100916Y-5119D01*
X-100891Y-4996D01*
X-100892Y-4964D01*
X-100887Y-4932D01*
X-100900Y-4807D01*
X-100906Y-4681D01*
X-100916Y-4650D01*
X-100919Y-4618D01*
X-100963Y-4500D01*
X-101000Y-4380D01*
X-101015Y-4359D01*
X-101029Y-4322D01*
X-101209Y-4063D01*
X-101238Y-4038D01*
X-101253Y-4017D01*
X-103387Y-1883D01*
X-103387Y2083D01*
X-101253Y4217D01*
X-101176Y4316D01*
X-101094Y4412D01*
X-101079Y4441D01*
X-101060Y4466D01*
X-101010Y4582D01*
X-100954Y4695D01*
X-100948Y4726D01*
X-100935Y4756D01*
X-100916Y4881D01*
X-100891Y5004D01*
X-100892Y5036D01*
X-100887Y5068D01*
X-100900Y5193D01*
X-100906Y5319D01*
X-100916Y5350D01*
X-100919Y5382D01*
X-100963Y5500D01*
X-101000Y5620D01*
X-101015Y5641D01*
X-101029Y5678D01*
X-101209Y5937D01*
X-101238Y5962D01*
X-101253Y5983D01*
X-103387Y8117D01*
X-103387Y12083D01*
X-101253Y14217D01*
X-101176Y14316D01*
X-101094Y14412D01*
X-101079Y14441D01*
X-101060Y14466D01*
X-101010Y14582D01*
X-100954Y14695D01*
X-100948Y14726D01*
X-100935Y14756D01*
X-100916Y14881D01*
X-100891Y15004D01*
X-100892Y15036D01*
X-100887Y15068D01*
X-100900Y15193D01*
X-100906Y15319D01*
X-100916Y15350D01*
X-100919Y15382D01*
X-100963Y15500D01*
X-101000Y15620D01*
X-101015Y15641D01*
X-101029Y15678D01*
X-101209Y15937D01*
X-101238Y15962D01*
X-101253Y15983D01*
X-103387Y18117D01*
X-103387Y22083D01*
X-100583Y24887D01*
X-96617Y24887D01*
X-93813Y22083D01*
X-93813Y18117D01*
X-95947Y15983D01*
X-96024Y15884D01*
X-96106Y15788D01*
X-96121Y15759D01*
X-96140Y15734D01*
X-96190Y15618D01*
X-96246Y15505D01*
X-96252Y15474D01*
X-96265Y15444D01*
X-96284Y15319D01*
X-96309Y15196D01*
X-96308Y15164D01*
X-96313Y15132D01*
X-96300Y15007D01*
X-96294Y14881D01*
X-96284Y14850D01*
X-96281Y14818D01*
X-96237Y14700D01*
X-96200Y14580D01*
X-96185Y14559D01*
X-96171Y14522D01*
X-95991Y14263D01*
X-95962Y14238D01*
X-95947Y14217D01*
X-93813Y12083D01*
X-93813Y8117D01*
X-95947Y5983D01*
X-96024Y5884D01*
X-96106Y5788D01*
X-96121Y5759D01*
X-96140Y5734D01*
X-96190Y5618D01*
X-96246Y5505D01*
X-96252Y5474D01*
X-96265Y5444D01*
X-96284Y5319D01*
X-96309Y5196D01*
X-96308Y5164D01*
X-96313Y5132D01*
X-96300Y5007D01*
X-96294Y4881D01*
X-96284Y4850D01*
X-96281Y4818D01*
X-96237Y4700D01*
X-96200Y4580D01*
X-96185Y4559D01*
X-96171Y4522D01*
X-95991Y4263D01*
X-95962Y4238D01*
X-95947Y4217D01*
X-93813Y2083D01*
X-93813Y-1883D01*
X-95947Y-4017D01*
X-96024Y-4116D01*
X-96106Y-4212D01*
X-96121Y-4241D01*
X-96140Y-4266D01*
X-96190Y-4382D01*
X-96246Y-4495D01*
X-96252Y-4526D01*
X-96265Y-4556D01*
X-96284Y-4681D01*
X-96309Y-4804D01*
X-96308Y-4836D01*
X-96313Y-4868D01*
X-96300Y-4993D01*
X-96294Y-5119D01*
X-96284Y-5150D01*
X-96281Y-5182D01*
X-96237Y-5300D01*
X-96200Y-5420D01*
X-96185Y-5441D01*
X-96171Y-5478D01*
X-95991Y-5737D01*
X-95962Y-5762D01*
X-95947Y-5783D01*
X-93813Y-7917D01*
X-93813Y-11883D01*
X-95947Y-14017D01*
X-96024Y-14116D01*
X-96106Y-14212D01*
X-96121Y-14241D01*
X-96140Y-14266D01*
X-96190Y-14382D01*
X-96246Y-14495D01*
X-96252Y-14526D01*
X-96265Y-14556D01*
X-96284Y-14681D01*
X-96309Y-14804D01*
X-96308Y-14836D01*
X-96313Y-14868D01*
X-96300Y-14993D01*
X-96294Y-15119D01*
X-96284Y-15150D01*
X-96281Y-15182D01*
X-96237Y-15300D01*
X-96200Y-15420D01*
X-96185Y-15441D01*
X-96171Y-15478D01*
X-95991Y-15737D01*
X-95962Y-15762D01*
X-95947Y-15783D01*
X-93813Y-17917D01*
X-93813Y-21883D01*
X-96617Y-24687D01*
X-100583Y-24687D01*
G37*
%LPD*%
%LPC*%
G36*
X-21983Y-103287D02*
X-21983Y-103287D01*
X-24787Y-100483D01*
X-24787Y-96517D01*
X-21983Y-93713D01*
X-18017Y-93713D01*
X-15883Y-95847D01*
X-15784Y-95924D01*
X-15688Y-96006D01*
X-15659Y-96021D01*
X-15634Y-96040D01*
X-15518Y-96090D01*
X-15405Y-96146D01*
X-15374Y-96152D01*
X-15344Y-96165D01*
X-15219Y-96184D01*
X-15096Y-96209D01*
X-15064Y-96208D01*
X-15032Y-96213D01*
X-14907Y-96200D01*
X-14781Y-96194D01*
X-14750Y-96184D01*
X-14718Y-96181D01*
X-14600Y-96137D01*
X-14480Y-96100D01*
X-14459Y-96085D01*
X-14422Y-96071D01*
X-14163Y-95891D01*
X-14138Y-95862D01*
X-14117Y-95847D01*
X-11983Y-93713D01*
X-8017Y-93713D01*
X-5883Y-95847D01*
X-5784Y-95924D01*
X-5688Y-96006D01*
X-5659Y-96021D01*
X-5634Y-96040D01*
X-5518Y-96090D01*
X-5405Y-96146D01*
X-5374Y-96152D01*
X-5344Y-96165D01*
X-5219Y-96184D01*
X-5096Y-96209D01*
X-5064Y-96208D01*
X-5032Y-96213D01*
X-4907Y-96200D01*
X-4781Y-96194D01*
X-4750Y-96184D01*
X-4718Y-96181D01*
X-4600Y-96137D01*
X-4480Y-96100D01*
X-4459Y-96085D01*
X-4422Y-96071D01*
X-4163Y-95891D01*
X-4138Y-95862D01*
X-4117Y-95847D01*
X-1983Y-93713D01*
X1983Y-93713D01*
X4117Y-95847D01*
X4216Y-95924D01*
X4312Y-96006D01*
X4341Y-96021D01*
X4366Y-96040D01*
X4482Y-96090D01*
X4595Y-96146D01*
X4626Y-96152D01*
X4656Y-96165D01*
X4781Y-96184D01*
X4904Y-96209D01*
X4936Y-96208D01*
X4968Y-96213D01*
X5093Y-96200D01*
X5219Y-96194D01*
X5250Y-96184D01*
X5282Y-96181D01*
X5400Y-96137D01*
X5520Y-96100D01*
X5541Y-96085D01*
X5578Y-96071D01*
X5837Y-95891D01*
X5862Y-95862D01*
X5883Y-95847D01*
X8017Y-93713D01*
X11983Y-93713D01*
X14117Y-95847D01*
X14216Y-95924D01*
X14312Y-96006D01*
X14341Y-96021D01*
X14366Y-96040D01*
X14482Y-96090D01*
X14595Y-96146D01*
X14626Y-96152D01*
X14656Y-96165D01*
X14781Y-96184D01*
X14904Y-96209D01*
X14936Y-96208D01*
X14968Y-96213D01*
X15093Y-96200D01*
X15219Y-96194D01*
X15250Y-96184D01*
X15282Y-96181D01*
X15400Y-96137D01*
X15520Y-96100D01*
X15541Y-96085D01*
X15578Y-96071D01*
X15837Y-95891D01*
X15862Y-95862D01*
X15883Y-95847D01*
X18017Y-93713D01*
X21983Y-93713D01*
X24787Y-96517D01*
X24787Y-100483D01*
X21983Y-103287D01*
X18017Y-103287D01*
X15883Y-101153D01*
X15784Y-101076D01*
X15688Y-100994D01*
X15659Y-100979D01*
X15634Y-100960D01*
X15518Y-100910D01*
X15405Y-100854D01*
X15374Y-100848D01*
X15344Y-100835D01*
X15219Y-100816D01*
X15096Y-100791D01*
X15064Y-100792D01*
X15032Y-100787D01*
X14907Y-100800D01*
X14781Y-100806D01*
X14750Y-100816D01*
X14718Y-100819D01*
X14600Y-100863D01*
X14480Y-100900D01*
X14459Y-100915D01*
X14422Y-100929D01*
X14163Y-101109D01*
X14138Y-101138D01*
X14117Y-101153D01*
X11983Y-103287D01*
X8017Y-103287D01*
X5883Y-101153D01*
X5784Y-101076D01*
X5688Y-100994D01*
X5659Y-100979D01*
X5634Y-100960D01*
X5518Y-100910D01*
X5405Y-100854D01*
X5374Y-100848D01*
X5344Y-100835D01*
X5219Y-100816D01*
X5096Y-100791D01*
X5064Y-100792D01*
X5032Y-100787D01*
X4907Y-100800D01*
X4781Y-100806D01*
X4750Y-100816D01*
X4718Y-100819D01*
X4600Y-100863D01*
X4480Y-100900D01*
X4459Y-100915D01*
X4422Y-100929D01*
X4163Y-101109D01*
X4138Y-101138D01*
X4117Y-101153D01*
X1983Y-103287D01*
X-1983Y-103287D01*
X-4117Y-101153D01*
X-4216Y-101076D01*
X-4312Y-100994D01*
X-4341Y-100979D01*
X-4366Y-100960D01*
X-4482Y-100910D01*
X-4595Y-100854D01*
X-4626Y-100848D01*
X-4656Y-100835D01*
X-4781Y-100816D01*
X-4904Y-100791D01*
X-4936Y-100792D01*
X-4968Y-100787D01*
X-5093Y-100800D01*
X-5219Y-100806D01*
X-5250Y-100816D01*
X-5282Y-100819D01*
X-5400Y-100863D01*
X-5520Y-100900D01*
X-5541Y-100915D01*
X-5578Y-100929D01*
X-5837Y-101109D01*
X-5862Y-101138D01*
X-5883Y-101153D01*
X-8017Y-103287D01*
X-11983Y-103287D01*
X-14117Y-101153D01*
X-14216Y-101076D01*
X-14312Y-100994D01*
X-14341Y-100979D01*
X-14366Y-100960D01*
X-14482Y-100910D01*
X-14595Y-100854D01*
X-14626Y-100848D01*
X-14656Y-100835D01*
X-14781Y-100816D01*
X-14904Y-100791D01*
X-14936Y-100792D01*
X-14968Y-100787D01*
X-15093Y-100800D01*
X-15219Y-100806D01*
X-15250Y-100816D01*
X-15282Y-100819D01*
X-15400Y-100863D01*
X-15520Y-100900D01*
X-15541Y-100915D01*
X-15578Y-100929D01*
X-15837Y-101109D01*
X-15862Y-101138D01*
X-15883Y-101153D01*
X-18017Y-103287D01*
X-21983Y-103287D01*
G37*
%LPD*%
%LPC*%
G36*
X96517Y-24787D02*
X96517Y-24787D01*
X93713Y-21983D01*
X93713Y-18017D01*
X95847Y-15883D01*
X95924Y-15784D01*
X96006Y-15688D01*
X96021Y-15659D01*
X96040Y-15634D01*
X96090Y-15518D01*
X96146Y-15405D01*
X96152Y-15374D01*
X96165Y-15344D01*
X96184Y-15219D01*
X96209Y-15096D01*
X96208Y-15064D01*
X96213Y-15032D01*
X96200Y-14907D01*
X96194Y-14781D01*
X96184Y-14750D01*
X96181Y-14718D01*
X96137Y-14600D01*
X96100Y-14480D01*
X96085Y-14459D01*
X96071Y-14422D01*
X95891Y-14163D01*
X95862Y-14138D01*
X95847Y-14117D01*
X93713Y-11983D01*
X93713Y-8017D01*
X95847Y-5883D01*
X95924Y-5784D01*
X96006Y-5688D01*
X96021Y-5659D01*
X96040Y-5634D01*
X96090Y-5519D01*
X96146Y-5405D01*
X96152Y-5374D01*
X96165Y-5344D01*
X96184Y-5219D01*
X96209Y-5096D01*
X96208Y-5064D01*
X96213Y-5032D01*
X96200Y-4907D01*
X96194Y-4781D01*
X96184Y-4750D01*
X96181Y-4718D01*
X96137Y-4600D01*
X96100Y-4480D01*
X96085Y-4459D01*
X96071Y-4422D01*
X95891Y-4163D01*
X95862Y-4138D01*
X95847Y-4117D01*
X93713Y-1983D01*
X93713Y1983D01*
X95847Y4117D01*
X95924Y4216D01*
X96006Y4312D01*
X96021Y4341D01*
X96040Y4366D01*
X96090Y4482D01*
X96146Y4595D01*
X96152Y4626D01*
X96165Y4656D01*
X96184Y4781D01*
X96209Y4904D01*
X96208Y4936D01*
X96213Y4968D01*
X96200Y5093D01*
X96194Y5219D01*
X96184Y5250D01*
X96181Y5282D01*
X96137Y5400D01*
X96100Y5520D01*
X96085Y5541D01*
X96071Y5578D01*
X95891Y5837D01*
X95862Y5862D01*
X95847Y5883D01*
X93713Y8017D01*
X93713Y11983D01*
X95847Y14117D01*
X95924Y14216D01*
X96006Y14312D01*
X96021Y14341D01*
X96040Y14366D01*
X96090Y14482D01*
X96146Y14595D01*
X96152Y14626D01*
X96165Y14656D01*
X96184Y14781D01*
X96209Y14904D01*
X96208Y14936D01*
X96213Y14968D01*
X96200Y15093D01*
X96194Y15219D01*
X96184Y15250D01*
X96181Y15282D01*
X96137Y15400D01*
X96100Y15520D01*
X96085Y15541D01*
X96071Y15578D01*
X95891Y15837D01*
X95862Y15862D01*
X95847Y15883D01*
X93713Y18017D01*
X93713Y21983D01*
X96517Y24787D01*
X100483Y24787D01*
X103287Y21983D01*
X103287Y18017D01*
X101153Y15883D01*
X101076Y15784D01*
X100994Y15688D01*
X100979Y15659D01*
X100960Y15634D01*
X100910Y15518D01*
X100854Y15405D01*
X100848Y15374D01*
X100835Y15344D01*
X100816Y15219D01*
X100791Y15096D01*
X100792Y15064D01*
X100787Y15032D01*
X100800Y14907D01*
X100806Y14781D01*
X100816Y14750D01*
X100819Y14718D01*
X100863Y14600D01*
X100900Y14480D01*
X100915Y14459D01*
X100929Y14422D01*
X101109Y14163D01*
X101138Y14138D01*
X101153Y14117D01*
X103287Y11983D01*
X103287Y8017D01*
X101153Y5883D01*
X101076Y5784D01*
X100994Y5688D01*
X100979Y5659D01*
X100960Y5634D01*
X100910Y5518D01*
X100854Y5405D01*
X100848Y5374D01*
X100835Y5344D01*
X100816Y5219D01*
X100791Y5096D01*
X100792Y5064D01*
X100787Y5032D01*
X100800Y4907D01*
X100806Y4781D01*
X100816Y4750D01*
X100819Y4718D01*
X100863Y4600D01*
X100900Y4480D01*
X100915Y4459D01*
X100929Y4422D01*
X101109Y4163D01*
X101138Y4138D01*
X101153Y4117D01*
X103287Y1983D01*
X103287Y-1983D01*
X101153Y-4117D01*
X101076Y-4216D01*
X100994Y-4312D01*
X100979Y-4341D01*
X100960Y-4366D01*
X100910Y-4482D01*
X100854Y-4595D01*
X100848Y-4626D01*
X100835Y-4656D01*
X100816Y-4781D01*
X100791Y-4904D01*
X100792Y-4936D01*
X100787Y-4968D01*
X100800Y-5093D01*
X100806Y-5219D01*
X100816Y-5250D01*
X100819Y-5282D01*
X100863Y-5400D01*
X100900Y-5520D01*
X100915Y-5541D01*
X100929Y-5578D01*
X101109Y-5837D01*
X101138Y-5862D01*
X101153Y-5883D01*
X103287Y-8017D01*
X103287Y-11983D01*
X101153Y-14117D01*
X101076Y-14216D01*
X100994Y-14312D01*
X100979Y-14341D01*
X100960Y-14366D01*
X100910Y-14482D01*
X100854Y-14595D01*
X100848Y-14626D01*
X100835Y-14656D01*
X100816Y-14781D01*
X100791Y-14904D01*
X100792Y-14936D01*
X100787Y-14968D01*
X100800Y-15093D01*
X100806Y-15219D01*
X100816Y-15250D01*
X100819Y-15282D01*
X100863Y-15400D01*
X100900Y-15520D01*
X100915Y-15541D01*
X100929Y-15578D01*
X101109Y-15837D01*
X101138Y-15862D01*
X101153Y-15883D01*
X103287Y-18017D01*
X103287Y-21983D01*
X100483Y-24787D01*
X96517Y-24787D01*
G37*
%LPD*%
%LPC*%
G36*
X66606Y-41241D02*
X66606Y-41241D01*
X64409Y-39044D01*
X64409Y-35936D01*
X65187Y-35158D01*
X65264Y-35059D01*
X65346Y-34963D01*
X65361Y-34934D01*
X65380Y-34909D01*
X65430Y-34793D01*
X65486Y-34680D01*
X65492Y-34649D01*
X65505Y-34619D01*
X65524Y-34494D01*
X65549Y-34371D01*
X65548Y-34339D01*
X65553Y-34307D01*
X65540Y-34182D01*
X65534Y-34056D01*
X65524Y-34025D01*
X65521Y-33993D01*
X65477Y-33875D01*
X65440Y-33755D01*
X65425Y-33734D01*
X65412Y-33697D01*
X65232Y-33438D01*
X65202Y-33413D01*
X65187Y-33392D01*
X64249Y-32454D01*
X64249Y-29346D01*
X66446Y-27149D01*
X69554Y-27149D01*
X71751Y-29346D01*
X71751Y-32454D01*
X70973Y-33232D01*
X70896Y-33331D01*
X70814Y-33427D01*
X70799Y-33456D01*
X70780Y-33481D01*
X70730Y-33597D01*
X70674Y-33710D01*
X70668Y-33741D01*
X70655Y-33771D01*
X70636Y-33896D01*
X70611Y-34019D01*
X70612Y-34051D01*
X70607Y-34083D01*
X70620Y-34208D01*
X70626Y-34334D01*
X70636Y-34365D01*
X70639Y-34397D01*
X70683Y-34515D01*
X70720Y-34635D01*
X70735Y-34656D01*
X70748Y-34693D01*
X70928Y-34952D01*
X70958Y-34977D01*
X70973Y-34998D01*
X71911Y-35936D01*
X71911Y-39044D01*
X69714Y-41241D01*
X66606Y-41241D01*
G37*
%LPD*%
G36*
X-24028Y-9816D02*
X-24028Y-9816D01*
X-23892Y-9807D01*
X-23872Y-9800D01*
X-23850Y-9798D01*
X-23722Y-9751D01*
X-23593Y-9708D01*
X-23575Y-9696D01*
X-23554Y-9689D01*
X-23442Y-9611D01*
X-23328Y-9537D01*
X-23313Y-9521D01*
X-23295Y-9509D01*
X-23206Y-9405D01*
X-23114Y-9305D01*
X-23106Y-9289D01*
X-23090Y-9269D01*
X-22950Y-8986D01*
X-22940Y-8935D01*
X-22925Y-8904D01*
X-22914Y-8860D01*
X-22672Y-8441D01*
X-21484Y-7253D01*
X-19522Y-9215D01*
X-19422Y-9292D01*
X-19327Y-9374D01*
X-19298Y-9388D01*
X-19273Y-9408D01*
X-19157Y-9458D01*
X-19044Y-9513D01*
X-19012Y-9520D01*
X-18983Y-9533D01*
X-18858Y-9552D01*
X-18735Y-9577D01*
X-18703Y-9576D01*
X-18671Y-9580D01*
X-18545Y-9568D01*
X-18420Y-9562D01*
X-18389Y-9552D01*
X-18357Y-9549D01*
X-18239Y-9505D01*
X-18119Y-9467D01*
X-18097Y-9453D01*
X-18061Y-9439D01*
X-17802Y-9259D01*
X-17776Y-9230D01*
X-17755Y-9215D01*
X-17678Y-9115D01*
X-17596Y-9020D01*
X-17582Y-8991D01*
X-17562Y-8965D01*
X-17512Y-8849D01*
X-17457Y-8737D01*
X-17450Y-8705D01*
X-17437Y-8675D01*
X-17418Y-8551D01*
X-17393Y-8428D01*
X-17394Y-8395D01*
X-17390Y-8363D01*
X-17402Y-8238D01*
X-17408Y-8113D01*
X-17418Y-8082D01*
X-17421Y-8050D01*
X-17465Y-7931D01*
X-17503Y-7811D01*
X-17517Y-7790D01*
X-17531Y-7754D01*
X-17711Y-7495D01*
X-17740Y-7469D01*
X-17755Y-7448D01*
X-19717Y-5486D01*
X-18511Y-4280D01*
X-18449Y-4233D01*
X-18341Y-4158D01*
X-18323Y-4137D01*
X-18302Y-4121D01*
X-18221Y-4018D01*
X-18135Y-3919D01*
X-18123Y-3895D01*
X-18107Y-3873D01*
X-18054Y-3753D01*
X-17996Y-3635D01*
X-17990Y-3609D01*
X-17980Y-3585D01*
X-17959Y-3455D01*
X-17932Y-3327D01*
X-17933Y-3300D01*
X-17929Y-3273D01*
X-17941Y-3143D01*
X-17948Y-3011D01*
X-17956Y-2986D01*
X-17958Y-2959D01*
X-18003Y-2835D01*
X-18042Y-2710D01*
X-18054Y-2692D01*
X-18065Y-2662D01*
X-18243Y-2402D01*
X-18277Y-2371D01*
X-18294Y-2347D01*
X-19505Y-1136D01*
X-19706Y-788D01*
X-19809Y-401D01*
X-19809Y1D01*
X-19703Y397D01*
X-19652Y520D01*
X-19591Y661D01*
X-19591Y666D01*
X-19588Y671D01*
X-19567Y822D01*
X-19543Y973D01*
X-19544Y978D01*
X-19543Y983D01*
X-19560Y1134D01*
X-19575Y1287D01*
X-19577Y1292D01*
X-19578Y1297D01*
X-19631Y1439D01*
X-19685Y1582D01*
X-19688Y1587D01*
X-19689Y1592D01*
X-19777Y1716D01*
X-19865Y1842D01*
X-19869Y1845D01*
X-19872Y1849D01*
X-19988Y1947D01*
X-20104Y2047D01*
X-20109Y2050D01*
X-20113Y2053D01*
X-20249Y2119D01*
X-20387Y2186D01*
X-20392Y2188D01*
X-20397Y2190D01*
X-20545Y2219D01*
X-20696Y2250D01*
X-20701Y2250D01*
X-20706Y2251D01*
X-20858Y2242D01*
X-21011Y2235D01*
X-21016Y2233D01*
X-21021Y2233D01*
X-21168Y2186D01*
X-21312Y2141D01*
X-21316Y2138D01*
X-21322Y2136D01*
X-21588Y1968D01*
X-21627Y1922D01*
X-21676Y1888D01*
X-28653Y-5090D01*
X-28740Y-5202D01*
X-28830Y-5312D01*
X-28837Y-5326D01*
X-28847Y-5339D01*
X-28903Y-5469D01*
X-28962Y-5598D01*
X-28965Y-5614D01*
X-28971Y-5629D01*
X-28993Y-5770D01*
X-29018Y-5909D01*
X-29016Y-5925D01*
X-29019Y-5941D01*
X-29005Y-6082D01*
X-28994Y-6223D01*
X-28989Y-6239D01*
X-28987Y-6255D01*
X-28938Y-6388D01*
X-28892Y-6522D01*
X-28883Y-6536D01*
X-28878Y-6551D01*
X-28797Y-6667D01*
X-28719Y-6786D01*
X-28707Y-6796D01*
X-28698Y-6810D01*
X-28591Y-6902D01*
X-28485Y-6997D01*
X-28471Y-7005D01*
X-28458Y-7015D01*
X-28331Y-7078D01*
X-28206Y-7144D01*
X-28193Y-7146D01*
X-28175Y-7155D01*
X-27866Y-7218D01*
X-27807Y-7216D01*
X-27770Y-7222D01*
X-27688Y-7222D01*
X-27301Y-7326D01*
X-26953Y-7527D01*
X-25015Y-9464D01*
X-24908Y-9548D01*
X-24803Y-9635D01*
X-24783Y-9644D01*
X-24766Y-9657D01*
X-24640Y-9711D01*
X-24517Y-9769D01*
X-24496Y-9773D01*
X-24476Y-9782D01*
X-24341Y-9803D01*
X-24207Y-9828D01*
X-24186Y-9826D01*
X-24164Y-9830D01*
X-24028Y-9816D01*
G37*
%LPC*%
G36*
X-67775Y57499D02*
X-67775Y57499D01*
X-67775Y67901D01*
X-67671Y68288D01*
X-67470Y68636D01*
X-67186Y68920D01*
X-66838Y69121D01*
X-66451Y69225D01*
X-62399Y69225D01*
X-62399Y57499D01*
X-67775Y57499D01*
G37*
%LPD*%
%LPC*%
G36*
X-66838Y-74321D02*
X-66838Y-74321D01*
X-67186Y-74120D01*
X-67470Y-73836D01*
X-67671Y-73488D01*
X-67775Y-73101D01*
X-67775Y-62699D01*
X-62399Y-62699D01*
X-62399Y-74425D01*
X-66451Y-74425D01*
X-66838Y-74321D01*
G37*
%LPD*%
%LPC*%
G36*
X-66451Y40775D02*
X-66451Y40775D01*
X-66838Y40879D01*
X-67186Y41080D01*
X-67470Y41364D01*
X-67671Y41712D01*
X-67775Y42099D01*
X-67775Y52501D01*
X-62399Y52501D01*
X-62399Y40775D01*
X-66451Y40775D01*
G37*
%LPD*%
%LPC*%
G36*
X-57401Y40775D02*
X-57401Y40775D01*
X-57401Y52501D01*
X-52025Y52501D01*
X-52025Y42099D01*
X-52129Y41712D01*
X-52330Y41364D01*
X-52614Y41080D01*
X-52962Y40879D01*
X-53349Y40775D01*
X-57401Y40775D01*
G37*
%LPD*%
%LPC*%
G36*
X-57401Y-57701D02*
X-57401Y-57701D01*
X-57401Y-45975D01*
X-53349Y-45975D01*
X-52962Y-46079D01*
X-52614Y-46280D01*
X-52330Y-46564D01*
X-52129Y-46912D01*
X-52025Y-47299D01*
X-52025Y-57701D01*
X-57401Y-57701D01*
G37*
%LPD*%
G36*
X15534Y-20295D02*
X15534Y-20295D01*
X15675Y-20285D01*
X15691Y-20279D01*
X15707Y-20278D01*
X15840Y-20229D01*
X15974Y-20183D01*
X15988Y-20174D01*
X16003Y-20168D01*
X16119Y-20088D01*
X16238Y-20010D01*
X16249Y-19998D01*
X16262Y-19988D01*
X16354Y-19881D01*
X16449Y-19776D01*
X16457Y-19761D01*
X16467Y-19749D01*
X16530Y-19622D01*
X16596Y-19496D01*
X16598Y-19483D01*
X16607Y-19466D01*
X16671Y-19157D01*
X16668Y-19098D01*
X16674Y-19061D01*
X16674Y-19060D01*
X16660Y-18951D01*
X16655Y-18842D01*
X16641Y-18795D01*
X16634Y-18747D01*
X16594Y-18645D01*
X16561Y-18540D01*
X16540Y-18510D01*
X16517Y-18454D01*
X16378Y-18264D01*
X16354Y-18228D01*
X16346Y-18220D01*
X16331Y-18200D01*
X16316Y-18188D01*
X16308Y-18177D01*
X12651Y-14520D01*
X12551Y-14442D01*
X12456Y-14360D01*
X12427Y-14346D01*
X12401Y-14326D01*
X12286Y-14277D01*
X12173Y-14221D01*
X12141Y-14215D01*
X12112Y-14202D01*
X11987Y-14183D01*
X11864Y-14157D01*
X11832Y-14159D01*
X11800Y-14154D01*
X11674Y-14167D01*
X11549Y-14173D01*
X11518Y-14183D01*
X11486Y-14186D01*
X11368Y-14230D01*
X11248Y-14267D01*
X11226Y-14282D01*
X11190Y-14295D01*
X10931Y-14475D01*
X10931Y-14476D01*
X10905Y-14505D01*
X10884Y-14520D01*
X10807Y-14619D01*
X10725Y-14715D01*
X10711Y-14744D01*
X10691Y-14769D01*
X10641Y-14885D01*
X10586Y-14998D01*
X10579Y-15029D01*
X10566Y-15059D01*
X10547Y-15184D01*
X10522Y-15307D01*
X10523Y-15339D01*
X10519Y-15371D01*
X10531Y-15496D01*
X10537Y-15622D01*
X10547Y-15653D01*
X10550Y-15685D01*
X10594Y-15803D01*
X10631Y-15923D01*
X10646Y-15944D01*
X10660Y-15981D01*
X10840Y-16240D01*
X10869Y-16265D01*
X10884Y-16286D01*
X14542Y-19944D01*
X14643Y-20023D01*
X14690Y-20065D01*
X14706Y-20073D01*
X14764Y-20121D01*
X14778Y-20127D01*
X14791Y-20137D01*
X14922Y-20193D01*
X15050Y-20252D01*
X15066Y-20255D01*
X15081Y-20262D01*
X15222Y-20283D01*
X15361Y-20308D01*
X15377Y-20307D01*
X15393Y-20310D01*
X15534Y-20295D01*
G37*
%LPC*%
G36*
X-29504Y-21585D02*
X-29504Y-21585D01*
X-29892Y-21481D01*
X-30239Y-21281D01*
X-31619Y-19901D01*
X-28596Y-16878D01*
X-26280Y-19194D01*
X-28367Y-21281D01*
X-28715Y-21481D01*
X-29103Y-21585D01*
X-29504Y-21585D01*
G37*
%LPD*%
%LPC*%
G36*
X-59901Y54999D02*
X-59901Y54999D01*
X-59901Y55001D01*
X-59899Y55001D01*
X-59899Y54999D01*
X-59901Y54999D01*
G37*
%LPD*%
%LPC*%
G36*
X-59901Y-60201D02*
X-59901Y-60201D01*
X-59901Y-60199D01*
X-59899Y-60199D01*
X-59899Y-60201D01*
X-59901Y-60201D01*
G37*
%LPD*%
D10*
X6995Y-16375D02*
X10795Y-20175D01*
X9469Y-21501D01*
X5669Y-17701D01*
X6995Y-16375D01*
X8845Y-20877D02*
X10093Y-20877D01*
X10717Y-20253D02*
X8221Y-20253D01*
X7597Y-19629D02*
X10249Y-19629D01*
X9625Y-19005D02*
X6973Y-19005D01*
X6349Y-18381D02*
X9001Y-18381D01*
X8377Y-17757D02*
X5725Y-17757D01*
X6237Y-17133D02*
X7753Y-17133D01*
X7129Y-16509D02*
X6861Y-16509D01*
X10530Y-12840D02*
X14330Y-16640D01*
X13004Y-17966D01*
X9204Y-14166D01*
X10530Y-12840D01*
X12380Y-17342D02*
X13628Y-17342D01*
X14252Y-16718D02*
X11756Y-16718D01*
X11132Y-16094D02*
X13784Y-16094D01*
X13160Y-15470D02*
X10508Y-15470D01*
X9884Y-14846D02*
X12536Y-14846D01*
X11912Y-14222D02*
X9260Y-14222D01*
X9772Y-13598D02*
X11288Y-13598D01*
X10664Y-12974D02*
X10396Y-12974D01*
X14066Y-9304D02*
X17866Y-13104D01*
X16540Y-14430D01*
X12740Y-10630D01*
X14066Y-9304D01*
X15916Y-13806D02*
X17164Y-13806D01*
X17788Y-13182D02*
X15292Y-13182D01*
X14668Y-12558D02*
X17320Y-12558D01*
X16696Y-11934D02*
X14044Y-11934D01*
X13420Y-11310D02*
X16072Y-11310D01*
X15448Y-10686D02*
X12796Y-10686D01*
X13308Y-10062D02*
X14824Y-10062D01*
X14200Y-9438D02*
X13932Y-9438D01*
X17601Y-5769D02*
X21401Y-9569D01*
X20075Y-10895D01*
X16275Y-7095D01*
X17601Y-5769D01*
X19451Y-10271D02*
X20699Y-10271D01*
X21323Y-9647D02*
X18827Y-9647D01*
X18203Y-9023D02*
X20855Y-9023D01*
X20231Y-8399D02*
X17579Y-8399D01*
X16955Y-7775D02*
X19607Y-7775D01*
X18983Y-7151D02*
X16331Y-7151D01*
X16843Y-6527D02*
X18359Y-6527D01*
X17735Y-5903D02*
X17467Y-5903D01*
X-16075Y6695D02*
X-19875Y10495D01*
X-16075Y6695D02*
X-17401Y5369D01*
X-21201Y9169D01*
X-19875Y10495D01*
X-18025Y5993D02*
X-16777Y5993D01*
X-16153Y6617D02*
X-18649Y6617D01*
X-19273Y7241D02*
X-16621Y7241D01*
X-17245Y7865D02*
X-19897Y7865D01*
X-20521Y8489D02*
X-17869Y8489D01*
X-18493Y9113D02*
X-21145Y9113D01*
X-20633Y9737D02*
X-19117Y9737D01*
X-19741Y10361D02*
X-20009Y10361D01*
X-16340Y14030D02*
X-12540Y10230D01*
X-13866Y8904D01*
X-17666Y12704D01*
X-16340Y14030D01*
X-14490Y9528D02*
X-13242Y9528D01*
X-12618Y10152D02*
X-15114Y10152D01*
X-15738Y10776D02*
X-13086Y10776D01*
X-13710Y11400D02*
X-16362Y11400D01*
X-16986Y12024D02*
X-14334Y12024D01*
X-14958Y12648D02*
X-17610Y12648D01*
X-17098Y13272D02*
X-15582Y13272D01*
X-16206Y13896D02*
X-16474Y13896D01*
X-12804Y17566D02*
X-9004Y13766D01*
X-10330Y12440D01*
X-14130Y16240D01*
X-12804Y17566D01*
X-10954Y13064D02*
X-9706Y13064D01*
X-9082Y13688D02*
X-11578Y13688D01*
X-12202Y14312D02*
X-9550Y14312D01*
X-10174Y14936D02*
X-12826Y14936D01*
X-13450Y15560D02*
X-10798Y15560D01*
X-11422Y16184D02*
X-14074Y16184D01*
X-13562Y16808D02*
X-12046Y16808D01*
X-12670Y17432D02*
X-12938Y17432D01*
X-9269Y21101D02*
X-5469Y17301D01*
X-6795Y15975D01*
X-10595Y19775D01*
X-9269Y21101D01*
X-7419Y16599D02*
X-6171Y16599D01*
X-5547Y17223D02*
X-8043Y17223D01*
X-8667Y17847D02*
X-6015Y17847D01*
X-6639Y18471D02*
X-9291Y18471D01*
X-9915Y19095D02*
X-7263Y19095D01*
X-7887Y19719D02*
X-10539Y19719D01*
X-10027Y20343D02*
X-8511Y20343D01*
X-9135Y20967D02*
X-9403Y20967D01*
X6995Y15975D02*
X10795Y19775D01*
X6995Y15975D02*
X5669Y17301D01*
X9469Y21101D01*
X10795Y19775D01*
X7619Y16599D02*
X6371Y16599D01*
X5747Y17223D02*
X8243Y17223D01*
X8867Y17847D02*
X6215Y17847D01*
X6839Y18471D02*
X9491Y18471D01*
X10115Y19095D02*
X7463Y19095D01*
X8087Y19719D02*
X10739Y19719D01*
X10227Y20343D02*
X8711Y20343D01*
X9335Y20967D02*
X9603Y20967D01*
X14330Y16240D02*
X10530Y12440D01*
X9204Y13766D01*
X13004Y17566D01*
X14330Y16240D01*
X11154Y13064D02*
X9906Y13064D01*
X9282Y13688D02*
X11778Y13688D01*
X12402Y14312D02*
X9750Y14312D01*
X10374Y14936D02*
X13026Y14936D01*
X13650Y15560D02*
X10998Y15560D01*
X11622Y16184D02*
X14274Y16184D01*
X13762Y16808D02*
X12246Y16808D01*
X12870Y17432D02*
X13138Y17432D01*
X17866Y12704D02*
X14066Y8904D01*
X12740Y10230D01*
X16540Y14030D01*
X17866Y12704D01*
X14690Y9528D02*
X13442Y9528D01*
X12818Y10152D02*
X15314Y10152D01*
X15938Y10776D02*
X13286Y10776D01*
X13910Y11400D02*
X16562Y11400D01*
X17186Y12024D02*
X14534Y12024D01*
X15158Y12648D02*
X17810Y12648D01*
X17298Y13272D02*
X15782Y13272D01*
X16406Y13896D02*
X16674Y13896D01*
X20075Y10495D02*
X16275Y6695D01*
X20075Y10495D02*
X21401Y9169D01*
X17601Y5369D01*
X16275Y6695D01*
X16977Y5993D02*
X18225Y5993D01*
X18849Y6617D02*
X16353Y6617D01*
X16821Y7241D02*
X19473Y7241D01*
X20097Y7865D02*
X17445Y7865D01*
X18069Y8489D02*
X20721Y8489D01*
X21345Y9113D02*
X18693Y9113D01*
X19317Y9737D02*
X20833Y9737D01*
X20209Y10361D02*
X19941Y10361D01*
X-16075Y-7095D02*
X-19875Y-10895D01*
X-21201Y-9569D01*
X-17401Y-5769D01*
X-16075Y-7095D01*
X-19251Y-10271D02*
X-20499Y-10271D01*
X-21123Y-9647D02*
X-18627Y-9647D01*
X-18003Y-9023D02*
X-20655Y-9023D01*
X-20031Y-8399D02*
X-17379Y-8399D01*
X-16755Y-7775D02*
X-19407Y-7775D01*
X-18783Y-7151D02*
X-16131Y-7151D01*
X-16643Y-6527D02*
X-18159Y-6527D01*
X-17535Y-5903D02*
X-17267Y-5903D01*
X-12540Y-10630D02*
X-16340Y-14430D01*
X-17666Y-13104D01*
X-13866Y-9304D01*
X-12540Y-10630D01*
X-15716Y-13806D02*
X-16964Y-13806D01*
X-17588Y-13182D02*
X-15092Y-13182D01*
X-14468Y-12558D02*
X-17120Y-12558D01*
X-16496Y-11934D02*
X-13844Y-11934D01*
X-13220Y-11310D02*
X-15872Y-11310D01*
X-15248Y-10686D02*
X-12596Y-10686D01*
X-13108Y-10062D02*
X-14624Y-10062D01*
X-14000Y-9438D02*
X-13732Y-9438D01*
X-9004Y-14166D02*
X-12804Y-17966D01*
X-14130Y-16640D01*
X-10330Y-12840D01*
X-9004Y-14166D01*
X-12180Y-17342D02*
X-13428Y-17342D01*
X-14052Y-16718D02*
X-11556Y-16718D01*
X-10932Y-16094D02*
X-13584Y-16094D01*
X-12960Y-15470D02*
X-10308Y-15470D01*
X-9684Y-14846D02*
X-12336Y-14846D01*
X-11712Y-14222D02*
X-9060Y-14222D01*
X-9572Y-13598D02*
X-11088Y-13598D01*
X-10464Y-12974D02*
X-10196Y-12974D01*
X-6795Y-16375D02*
X-10595Y-20175D01*
X-6795Y-16375D02*
X-5469Y-17701D01*
X-9269Y-21501D01*
X-10595Y-20175D01*
X-9893Y-20877D02*
X-8645Y-20877D01*
X-8021Y-20253D02*
X-10517Y-20253D01*
X-10049Y-19629D02*
X-7397Y-19629D01*
X-6773Y-19005D02*
X-9425Y-19005D01*
X-8801Y-18381D02*
X-6149Y-18381D01*
X-5525Y-17757D02*
X-8177Y-17757D01*
X-7553Y-17133D02*
X-6037Y-17133D01*
X-6661Y-16509D02*
X-6929Y-16509D01*
D11*
G36*
X100Y18184D02*
X18484Y-200D01*
X100Y-18584D01*
X-18284Y-200D01*
X100Y18184D01*
G37*
D12*
X40300Y-29900D03*
X53300Y-29900D03*
X40400Y-40900D03*
X53400Y-40900D03*
G36*
X-18697Y-17940D02*
X-13748Y-22889D01*
X-20111Y-29252D01*
X-25060Y-24303D01*
X-18697Y-17940D01*
G37*
G36*
X-27889Y-8748D02*
X-22940Y-13697D01*
X-29303Y-20060D01*
X-34252Y-15111D01*
X-27889Y-8748D01*
G37*
D13*
X-28950Y33400D03*
X-67060Y22790D03*
X-32290Y28020D03*
X-67800Y31300D03*
X-28950Y-30400D03*
X-67160Y-41010D03*
X-32090Y-35880D03*
X-67500Y-32400D03*
X29250Y29700D03*
X67260Y40210D03*
X32490Y35080D03*
X67500Y31700D03*
X29150Y-34400D03*
X68160Y-37490D03*
X31590Y-28520D03*
X68000Y-30900D03*
D14*
X-34700Y-60200D03*
X-59900Y-60200D03*
X-9500Y-60200D03*
X15700Y-60200D03*
X40900Y-60200D03*
X-34700Y55000D03*
X-59900Y55000D03*
X15700Y55000D03*
X40900Y55000D03*
D15*
G36*
X3693Y-33567D02*
X5673Y-31587D01*
X8713Y-34627D01*
X6733Y-36607D01*
X3693Y-33567D01*
G37*
G36*
X87Y-37173D02*
X2067Y-35193D01*
X5107Y-38233D01*
X3127Y-40213D01*
X87Y-37173D01*
G37*
G36*
X10993Y-26067D02*
X12973Y-24087D01*
X16013Y-27127D01*
X14033Y-29107D01*
X10993Y-26067D01*
G37*
G36*
X7387Y-29673D02*
X9367Y-27693D01*
X12407Y-30733D01*
X10427Y-32713D01*
X7387Y-29673D01*
G37*
D16*
X9897Y-30403D02*
X6203Y-34097D01*
X9897Y-30403D02*
X9897Y-30203D01*
X8232Y-28738D02*
X8232Y-18938D01*
X8232Y-28738D02*
X9897Y-30403D01*
D17*
X-34700Y-50000D02*
X-34700Y-60200D01*
X-34700Y-50000D02*
X-20600Y-35900D01*
X-34700Y55000D02*
X-34700Y64157D01*
D18*
X-48400Y-73700D03*
D17*
X-20600Y-35900D02*
X-20600Y-24792D01*
X-19404Y-23596D01*
X-19404Y-16168D01*
X-34700Y51473D02*
X-34700Y55000D01*
D18*
X-50000Y66500D03*
D17*
X-37400Y57700D02*
X-34700Y55000D01*
D18*
X900Y-66902D03*
X66300Y-69700D03*
D16*
X2597Y-64130D02*
X2597Y-37703D01*
X2597Y-64130D02*
X1125Y-65602D01*
X1125Y-66677D02*
X900Y-66902D01*
X1125Y-66677D02*
X1125Y-65602D01*
D18*
X-23975Y-67207D03*
D16*
X-33150Y-61750D02*
X-34700Y-60200D01*
X-33150Y-61750D02*
X-28493Y-66407D01*
D17*
X-19404Y-16168D02*
X-15103Y-11867D01*
X-15103Y-11867D01*
D16*
X-19404Y-23596D02*
X-19404Y-23596D01*
D17*
X-34700Y64157D02*
X-36443Y65900D01*
X-35700Y-67900D02*
X-40700Y-72900D01*
X-35700Y-67900D02*
X-35700Y-64300D01*
X-33150Y-61750D01*
X-47600Y-72900D02*
X-48400Y-73700D01*
X-47600Y-72900D02*
X-40700Y-72900D01*
D16*
X53400Y-56800D02*
X66300Y-69700D01*
X-23975Y-67207D02*
X-24775Y-66407D01*
X-28493Y-66407D01*
D17*
X-34700Y55000D02*
X-38500Y55000D01*
X-50000Y66500D01*
D16*
X53300Y-29900D02*
X53300Y-40800D01*
X53400Y-40900D01*
X53400Y-56800D01*
D17*
X100Y-3736D02*
X100Y-200D01*
X100Y-6800D02*
X100Y-16110D01*
X100Y-6800D02*
X100Y-200D01*
X-10507Y-200D01*
X100Y-3736D02*
X11767Y-15403D01*
X100Y-3736D02*
X100Y-200D01*
X-59900Y-52614D02*
X-59900Y-60200D01*
D16*
X-59900Y-64100D01*
D17*
X-22400Y38210D02*
X-22200Y38410D01*
D18*
X-23000Y67800D03*
X-49800Y75500D03*
D17*
X-60000Y-60100D02*
X-59900Y-60200D01*
D18*
X-73800Y73400D03*
X-74100Y-71000D03*
D16*
X11767Y-15403D02*
X13503Y-17139D01*
D17*
X-34602Y-14404D02*
X-56600Y-36402D01*
X-34602Y-14404D02*
X-24710Y-14404D01*
D18*
X-29600Y73800D03*
X30700Y72800D03*
D17*
X-2964Y-6800D02*
X-11567Y-15403D01*
X-2964Y-6800D02*
X100Y-6800D01*
X-24710Y-14404D02*
X-28596Y-14404D01*
X-24710Y-14404D02*
X-18638Y-8332D01*
X-18638Y-8332D01*
X-10507Y-200D01*
X-56600Y-56900D02*
X-59900Y-60200D01*
X-56600Y-56900D02*
X-56600Y-36402D01*
D18*
X-45700Y71300D03*
D17*
X-45800Y71200D01*
X-45700Y71300D02*
X-56200Y71300D01*
X-59900Y67600D01*
X-59900Y55000D01*
X-22400Y67200D02*
X-22400Y38210D01*
X-22400Y67200D02*
X-23000Y67800D01*
D18*
X67400Y53500D03*
X66800Y-49300D03*
X-67000Y6000D03*
D17*
X100Y-200D02*
X100Y15710D01*
X-8354Y24164D02*
X-22400Y38210D01*
X-8354Y24164D02*
X-8001Y24164D01*
X-2406Y18569D01*
X-2406Y18216D01*
X100Y15710D01*
D16*
X11767Y-15403D02*
X11767Y-15403D01*
X13503Y-17139D02*
X13503Y-26597D01*
X-16500Y-34400D02*
X-16500Y-37998D01*
X-16500Y-34400D02*
X-8032Y-25932D01*
X-9500Y-44998D02*
X-9500Y-60200D01*
X-9500Y-44998D02*
X-16500Y-37998D01*
X-8032Y-25932D02*
X-8032Y-18938D01*
X-17513Y28020D02*
X-32290Y28020D01*
X-17513Y28020D02*
X-8032Y18538D01*
X-18638Y7932D02*
X-49485Y-22915D01*
X-58015Y-22915D02*
X-67500Y-32400D01*
X-58015Y-22915D02*
X-49485Y-22915D01*
X-15103Y11467D02*
X-19700Y16064D01*
X-19700Y16100D01*
D18*
X-70300Y-56200D03*
X-47300Y-67100D03*
D16*
X-72600Y-53900D02*
X-72600Y-18400D01*
X-38136Y16064D02*
X-19700Y16064D01*
X-38136Y16064D02*
X-72600Y-18400D01*
X-41585Y-45375D02*
X-32090Y-35880D01*
X-41585Y-45375D02*
X-41930Y-45375D01*
X-47300Y-50745D02*
X-47300Y-67100D01*
X-47300Y-50745D02*
X-41930Y-45375D01*
X-70300Y-56200D02*
X-72600Y-53900D01*
X8232Y18538D02*
X8232Y18538D01*
X24773Y35080D01*
X32490Y35080D01*
X45199Y18301D02*
X51424Y24527D01*
X66627Y24527D01*
X66627Y30827D01*
X67500Y31700D01*
X15066Y18301D02*
X11767Y15003D01*
X15066Y18301D02*
X45199Y18301D01*
D18*
X67235Y-13138D03*
D16*
X18136Y14300D02*
X15303Y11467D01*
X15303Y11467D01*
X51174Y-13138D02*
X67235Y-13138D01*
X23736Y14300D02*
X18136Y14300D01*
X23736Y14300D02*
X51174Y-13138D01*
X31590Y-4820D02*
X18838Y7932D01*
X31590Y-4820D02*
X31590Y-28520D01*
X-11567Y15003D02*
X-17964Y21400D01*
X-53400Y21400D01*
X-63300Y31300D02*
X-67800Y31300D01*
X-63300Y31300D02*
X-53400Y21400D01*
X18838Y-8332D02*
X18838Y-9138D01*
X40900Y55000D02*
X42000Y55000D01*
X18838Y-8332D02*
X18838Y-9138D01*
X18838Y-9138D01*
X47887Y-21413D02*
X47900Y-21413D01*
X57787Y-21413D01*
X62687Y-16513D01*
X46025Y-35520D02*
X46025Y-46280D01*
X46025Y-35520D02*
X44780Y-34275D01*
X40900Y-51405D02*
X40900Y-60200D01*
X44675Y-34275D02*
X44780Y-34275D01*
X46025Y-46280D02*
X40900Y-51405D01*
X44675Y-34275D02*
X40300Y-29900D01*
X40300Y-29013D01*
X47900Y-21413D01*
X31425Y-38775D02*
X27338Y-38775D01*
X24601Y-36038D01*
X31425Y-38775D02*
X40300Y-29900D01*
X24601Y-36038D02*
X24601Y-14094D01*
X18838Y-8332D01*
X71360Y-11429D02*
X71360Y-14847D01*
X68943Y-17263D01*
X65526Y-17263D01*
X64776Y-16513D01*
X62687Y-16513D01*
X51215Y44685D02*
X40900Y55000D01*
X68972Y44685D02*
X71875Y41782D01*
X68972Y44685D02*
X51215Y44685D01*
X71875Y-10914D02*
X71360Y-11429D01*
X71875Y-10914D02*
X71875Y41782D01*
D18*
X28087Y-67087D03*
D16*
X15700Y55000D02*
X22600Y61900D01*
D18*
X29200Y66700D03*
D16*
X15303Y-11867D02*
X18800Y-15364D01*
X22587Y-67087D02*
X28087Y-67087D01*
X15700Y55000D02*
X26800Y66100D01*
X15700Y-51500D02*
X15700Y-60200D01*
X22587Y-67087D01*
X19800Y-60200D02*
X15700Y-60200D01*
X40175Y-41125D02*
X40400Y-40900D01*
X15700Y-51624D02*
X15700Y-60200D01*
X33189Y-40900D02*
X40400Y-40900D01*
X33189Y-40900D02*
X32564Y-41525D01*
X26199Y-41525D02*
X18800Y-34126D01*
X18800Y-15364D01*
X15700Y-52024D02*
X15700Y-60200D01*
X15700Y-52024D02*
X26199Y-41525D01*
X32564Y-41525D01*
X28600Y66100D02*
X26800Y66100D01*
X28600Y66100D02*
X29200Y66700D01*
M02*
