G04 EAGLE Gerber X2 export*
%TF.Part,Single*%
%TF.FileFunction,Copper,L3,Inr,Mixed*%
%TF.FilePolarity,Positive*%
%TF.GenerationSoftware,Autodesk,EAGLE,9.0.1*%
%TF.CreationDate,2018-12-20T16:05:16Z*%
G75*
%MOMM*%
%FSLAX34Y34*%
%LPD*%
%AMOC8*
5,1,8,0,0,1.08239X$1,22.5*%
G01*
%ADD10C,0.125000*%
%ADD11C,0.450000*%
%ADD12C,0.300000*%


D10*
X-23765Y39695D02*
X-37515Y39695D01*
X-23765Y39695D02*
X-23765Y23445D01*
X-40015Y23445D01*
X-40015Y42195D01*
X-21265Y42195D01*
X-21265Y20945D02*
X-42515Y20945D01*
X-42515Y44695D02*
X-18765Y44695D01*
X-18765Y18445D01*
X-45015Y18445D01*
X-45015Y47195D02*
X-16265Y47195D01*
X-16265Y15945D01*
X-47515Y15945D01*
X-47515Y49695D01*
X-13765Y49695D01*
X-13765Y13445D02*
X-50015Y13445D01*
X-50015Y52195D01*
X-11265Y52195D01*
X-11265Y10945D01*
X-52515Y10945D01*
X-52515Y54695D02*
X-8765Y54695D01*
X-8765Y8445D01*
X-55015Y8445D01*
X-55015Y57195D01*
X-6265Y57195D01*
X-6265Y5945D01*
X-57515Y5945D01*
X-57515Y59695D01*
X-3765Y59695D01*
X-3765Y3445D02*
X-60015Y3445D01*
X-60015Y62195D02*
X-1265Y62195D01*
X-1265Y945D01*
X-62515Y945D01*
X-21265Y20945D02*
X-21265Y42195D01*
X-42515Y44695D02*
X-42515Y20945D01*
X-45015Y18445D02*
X-45015Y47195D01*
X-13765Y49695D02*
X-13765Y13445D01*
X-52515Y10945D02*
X-52515Y54695D01*
X-3765Y59695D02*
X-3765Y3445D01*
X-60015Y3445D02*
X-60015Y62195D01*
X-62515Y31570D02*
X-62515Y945D01*
D11*
X-28950Y33400D03*
X-67060Y22790D03*
X-32290Y28020D03*
X-67800Y31300D03*
D10*
X-37515Y-24105D02*
X-23765Y-24105D01*
X-23765Y-40355D01*
X-40015Y-40355D01*
X-40015Y-21605D01*
X-21265Y-21605D01*
X-21265Y-42855D02*
X-42515Y-42855D01*
X-42515Y-19105D02*
X-18765Y-19105D01*
X-18765Y-45355D01*
X-45015Y-45355D01*
X-45015Y-16605D02*
X-16265Y-16605D01*
X-16265Y-47855D01*
X-47515Y-47855D01*
X-47515Y-14105D01*
X-13765Y-14105D01*
X-13765Y-50355D02*
X-50015Y-50355D01*
X-50015Y-11605D01*
X-11265Y-11605D01*
X-11265Y-52855D01*
X-52515Y-52855D01*
X-52515Y-9105D02*
X-8765Y-9105D01*
X-8765Y-55355D01*
X-55015Y-55355D01*
X-55015Y-6605D01*
X-6265Y-6605D01*
X-6265Y-57855D01*
X-57515Y-57855D01*
X-57515Y-4105D01*
X-3765Y-4105D01*
X-3765Y-60355D02*
X-60015Y-60355D01*
X-60015Y-1605D02*
X-1265Y-1605D01*
X-1265Y-62855D01*
X-62515Y-62855D01*
X-21265Y-42855D02*
X-21265Y-21605D01*
X-42515Y-19105D02*
X-42515Y-42855D01*
X-45015Y-45355D02*
X-45015Y-16605D01*
X-13765Y-14105D02*
X-13765Y-50355D01*
X-52515Y-52855D02*
X-52515Y-9105D01*
X-3765Y-4105D02*
X-3765Y-60355D01*
X-60015Y-60355D02*
X-60015Y-1605D01*
X-62515Y-32230D02*
X-62515Y-62855D01*
D11*
X-28950Y-30400D03*
X-67160Y-41010D03*
X-32090Y-35880D03*
X-67500Y-32400D03*
D10*
X24065Y23405D02*
X37815Y23405D01*
X24065Y23405D02*
X24065Y39655D01*
X40315Y39655D01*
X40315Y20905D01*
X21565Y20905D01*
X21565Y42155D02*
X42815Y42155D01*
X42815Y18405D02*
X19065Y18405D01*
X19065Y44655D01*
X45315Y44655D01*
X45315Y15905D02*
X16565Y15905D01*
X16565Y47155D01*
X47815Y47155D01*
X47815Y13405D01*
X14065Y13405D01*
X14065Y49655D02*
X50315Y49655D01*
X50315Y10905D01*
X11565Y10905D01*
X11565Y52155D01*
X52815Y52155D01*
X52815Y8405D02*
X9065Y8405D01*
X9065Y54655D01*
X55315Y54655D01*
X55315Y5905D01*
X6565Y5905D01*
X6565Y57155D01*
X57815Y57155D01*
X57815Y3405D01*
X4065Y3405D01*
X4065Y59655D02*
X60315Y59655D01*
X60315Y905D02*
X1565Y905D01*
X1565Y62155D01*
X62815Y62155D01*
X21565Y42155D02*
X21565Y20905D01*
X42815Y18405D02*
X42815Y42155D01*
X45315Y44655D02*
X45315Y15905D01*
X14065Y13405D02*
X14065Y49655D01*
X52815Y52155D02*
X52815Y8405D01*
X4065Y3405D02*
X4065Y59655D01*
X60315Y59655D02*
X60315Y905D01*
X62815Y31530D02*
X62815Y62155D01*
D11*
X29250Y29700D03*
X67260Y40210D03*
X32490Y35080D03*
X67500Y31700D03*
D10*
X37715Y-40295D02*
X23965Y-40295D01*
X23965Y-24045D01*
X40215Y-24045D01*
X40215Y-42795D01*
X21465Y-42795D01*
X21465Y-21545D02*
X42715Y-21545D01*
X42715Y-45295D02*
X18965Y-45295D01*
X18965Y-19045D01*
X45215Y-19045D01*
X45215Y-47795D02*
X16465Y-47795D01*
X16465Y-16545D01*
X47715Y-16545D01*
X47715Y-50295D01*
X13965Y-50295D01*
X13965Y-14045D02*
X50215Y-14045D01*
X50215Y-52795D01*
X11465Y-52795D01*
X11465Y-11545D01*
X52715Y-11545D01*
X52715Y-55295D02*
X8965Y-55295D01*
X8965Y-9045D01*
X55215Y-9045D01*
X55215Y-57795D01*
X6465Y-57795D01*
X6465Y-6545D01*
X57715Y-6545D01*
X57715Y-60295D01*
X3965Y-60295D01*
X3965Y-4045D02*
X60215Y-4045D01*
X60215Y-62795D02*
X1465Y-62795D01*
X1465Y-1545D01*
X62715Y-1545D01*
X21465Y-21545D02*
X21465Y-42795D01*
X42715Y-45295D02*
X42715Y-21545D01*
X45215Y-19045D02*
X45215Y-47795D01*
X13965Y-50295D02*
X13965Y-14045D01*
X52715Y-11545D02*
X52715Y-55295D01*
X3965Y-60295D02*
X3965Y-4045D01*
X60215Y-4045D02*
X60215Y-62795D01*
X62715Y-32170D02*
X62715Y-1545D01*
D11*
X29150Y-34400D03*
X68160Y-37490D03*
X31590Y-28520D03*
X68000Y-30900D03*
D10*
X-32300Y28000D02*
X-37500Y33200D01*
X-37500Y39600D01*
X32500Y35000D02*
X37800Y29700D01*
X37800Y23500D01*
X31500Y-28400D02*
X37700Y-34600D01*
X37700Y-40300D01*
X-32100Y-35900D02*
X-37500Y-30500D01*
X-37600Y-30500D02*
X-37600Y-24100D01*
X-62500Y-45100D02*
X-62500Y-46000D01*
X-67400Y-41100D01*
X-62500Y-46000D02*
X-62500Y-47100D01*
X-62500Y18300D02*
X-67100Y22900D01*
X-62500Y18300D02*
X-62500Y16400D01*
X62800Y44700D02*
X67300Y40200D01*
X62800Y44700D02*
X62800Y48300D01*
X62700Y-32100D02*
X68200Y-37600D01*
D12*
X-48400Y-73700D03*
X-50000Y66500D03*
X900Y-66902D03*
X66300Y-69700D03*
X-23975Y-67207D03*
X-23000Y67800D03*
X-49800Y75500D03*
X-73800Y73400D03*
X-74100Y-71000D03*
X-29600Y73800D03*
X30700Y72800D03*
X-45700Y71300D03*
X67400Y53500D03*
X66800Y-49300D03*
X-67000Y6000D03*
X-70300Y-56200D03*
X-47300Y-67100D03*
X67235Y-13138D03*
X28087Y-67087D03*
X29200Y66700D03*
M02*
