M48
;GenerationSoftware,Autodesk,EAGLE,9.0.1*%
;CreationDate,2018-12-20T16:05:16Z*%
FMAT,2
ICI,OFF
METRIC,TZ,000.000
T3C0.200
T2C0.500
T1C3.000
%
G90
M71
T1
X-12500Y-12500
X12500Y-12500
X-12500Y12500
X12500Y12500
T2
X-2000Y7850
X-1000Y7850
X0Y7850
X1000Y7850
X2000Y7850
X-2000Y9850
X-9860Y-990
X-1000Y9850
X0Y9850
X1000Y9850
X2000Y9850
X-7860Y-1990
X-7860Y-990
X-7860Y10
X-7860Y1010
X-7860Y2010
X-9860Y-1990
X-9860Y10
X-9860Y1010
X-9860Y2010
X9850Y-2000
X9850Y-1000
X9850Y0
X9850Y1000
X9850Y2000
X7850Y-2000
X7850Y-1000
X7850Y0
X7850Y1000
X7850Y2000
X-2000Y-9850
X-1000Y-9850
X0Y-9850
X1000Y-9850
X2000Y-9850
X-2000Y-7850
X-1000Y-7850
X0Y-7850
X1000Y-7850
X2000Y-7850
T3
X-2398Y-6721
X-2300Y6780
X-4980Y7550
X-7380Y7340
X-7410Y-7100
X-2960Y7380
X-4570Y7130
X6740Y5350
X6680Y-4930
X-6700Y600
X-7030Y-5620
X-4730Y-6710
X6723Y-1314
X2809Y-6709
X2920Y6670
X3070Y7280
X-4840Y-7370
X-5000Y6650
X90Y-6690
X6630Y-6970
X-2895Y3340
X-6706Y2279
X-3229Y2802
X-6780Y3130
X-2895Y-3040
X-6716Y-4101
X-3209Y-3588
X-6750Y-3240
X2925Y2970
X6726Y4021
X3249Y3508
X6750Y3170
X2915Y-3440
X6816Y-3749
X3159Y-2852
X6800Y-3090
M30