G04 EAGLE Gerber X2 export*
%TF.Part,Single*%
%TF.FileFunction,Legend,Bot,1*%
%TF.FilePolarity,Positive*%
%TF.GenerationSoftware,Autodesk,EAGLE,9.0.1*%
%TF.CreationDate,2018-12-20T16:05:16Z*%
G75*
%MOMM*%
%FSLAX34Y34*%
%LPD*%
%AMOC8*
5,1,8,0,0,1.08239X$1,22.5*%
G01*
%ADD10C,0.200000*%
%ADD11C,0.100000*%
%ADD12C,0.101600*%
%ADD13R,0.300000X0.300000*%


D10*
X22727Y-200D03*
D11*
X27677Y-6564D02*
X100Y-34141D01*
X-33841Y-200D01*
X100Y33741D01*
X27677Y6164D01*
X27677Y-6564D01*
D12*
X19657Y21720D02*
X25624Y27687D01*
X19657Y21720D02*
X19576Y21641D01*
X19492Y21565D01*
X19405Y21492D01*
X19315Y21423D01*
X19224Y21356D01*
X19130Y21293D01*
X19034Y21233D01*
X18936Y21176D01*
X18836Y21123D01*
X18734Y21073D01*
X18630Y21027D01*
X18525Y20985D01*
X18419Y20946D01*
X18311Y20911D01*
X18202Y20880D01*
X18092Y20852D01*
X17981Y20829D01*
X17870Y20809D01*
X17758Y20793D01*
X17645Y20781D01*
X17532Y20773D01*
X17419Y20769D01*
X17305Y20769D01*
X17192Y20773D01*
X17079Y20781D01*
X16966Y20793D01*
X16854Y20809D01*
X16743Y20829D01*
X16632Y20852D01*
X16522Y20880D01*
X16413Y20911D01*
X16305Y20946D01*
X16199Y20985D01*
X16094Y21027D01*
X15990Y21073D01*
X15888Y21123D01*
X15788Y21176D01*
X15690Y21233D01*
X15594Y21293D01*
X15500Y21356D01*
X15409Y21423D01*
X15319Y21492D01*
X15232Y21565D01*
X15148Y21641D01*
X15067Y21720D01*
X14988Y21801D01*
X14912Y21885D01*
X14839Y21972D01*
X14770Y22062D01*
X14703Y22153D01*
X14640Y22247D01*
X14580Y22343D01*
X14523Y22441D01*
X14470Y22541D01*
X14420Y22643D01*
X14374Y22747D01*
X14332Y22852D01*
X14293Y22958D01*
X14258Y23066D01*
X14227Y23175D01*
X14199Y23285D01*
X14176Y23396D01*
X14156Y23507D01*
X14140Y23619D01*
X14128Y23732D01*
X14120Y23845D01*
X14116Y23958D01*
X14116Y24072D01*
X14120Y24185D01*
X14128Y24298D01*
X14140Y24411D01*
X14156Y24523D01*
X14176Y24634D01*
X14199Y24745D01*
X14227Y24855D01*
X14258Y24964D01*
X14293Y25072D01*
X14332Y25178D01*
X14374Y25283D01*
X14420Y25387D01*
X14470Y25489D01*
X14523Y25589D01*
X14580Y25687D01*
X14640Y25783D01*
X14703Y25877D01*
X14770Y25969D01*
X14839Y26058D01*
X14912Y26145D01*
X14988Y26229D01*
X15067Y26310D01*
X15068Y26310D02*
X21034Y32277D01*
X15437Y34203D02*
X14978Y38334D01*
X6716Y30072D01*
X9011Y27777D02*
X4421Y32367D01*
X58042Y-10758D02*
X58042Y-22442D01*
X58042Y-10758D02*
X54796Y-10758D01*
X54683Y-10760D01*
X54570Y-10766D01*
X54457Y-10776D01*
X54344Y-10790D01*
X54232Y-10807D01*
X54121Y-10829D01*
X54011Y-10854D01*
X53901Y-10884D01*
X53793Y-10917D01*
X53686Y-10954D01*
X53580Y-10994D01*
X53476Y-11039D01*
X53373Y-11087D01*
X53272Y-11138D01*
X53173Y-11193D01*
X53076Y-11251D01*
X52981Y-11313D01*
X52888Y-11378D01*
X52798Y-11446D01*
X52710Y-11517D01*
X52624Y-11592D01*
X52541Y-11669D01*
X52461Y-11749D01*
X52384Y-11832D01*
X52309Y-11918D01*
X52238Y-12006D01*
X52170Y-12096D01*
X52105Y-12189D01*
X52043Y-12284D01*
X51985Y-12381D01*
X51930Y-12480D01*
X51879Y-12581D01*
X51831Y-12684D01*
X51786Y-12788D01*
X51746Y-12894D01*
X51709Y-13001D01*
X51676Y-13109D01*
X51646Y-13219D01*
X51621Y-13329D01*
X51599Y-13440D01*
X51582Y-13552D01*
X51568Y-13665D01*
X51558Y-13778D01*
X51552Y-13891D01*
X51550Y-14004D01*
X51552Y-14117D01*
X51558Y-14230D01*
X51568Y-14343D01*
X51582Y-14456D01*
X51599Y-14568D01*
X51621Y-14679D01*
X51646Y-14789D01*
X51676Y-14899D01*
X51709Y-15007D01*
X51746Y-15114D01*
X51786Y-15220D01*
X51831Y-15324D01*
X51879Y-15427D01*
X51930Y-15528D01*
X51985Y-15627D01*
X52043Y-15724D01*
X52105Y-15819D01*
X52170Y-15912D01*
X52238Y-16002D01*
X52309Y-16090D01*
X52384Y-16176D01*
X52461Y-16259D01*
X52541Y-16339D01*
X52624Y-16416D01*
X52710Y-16491D01*
X52798Y-16562D01*
X52888Y-16630D01*
X52981Y-16695D01*
X53076Y-16757D01*
X53173Y-16815D01*
X53272Y-16870D01*
X53373Y-16921D01*
X53476Y-16969D01*
X53580Y-17014D01*
X53686Y-17054D01*
X53793Y-17091D01*
X53901Y-17124D01*
X54011Y-17154D01*
X54121Y-17179D01*
X54232Y-17201D01*
X54344Y-17218D01*
X54457Y-17232D01*
X54570Y-17242D01*
X54683Y-17248D01*
X54796Y-17250D01*
X54796Y-17249D02*
X58042Y-17249D01*
X54147Y-17249D02*
X51551Y-22442D01*
X46686Y-13355D02*
X43440Y-10758D01*
X43440Y-22442D01*
X40195Y-22442D02*
X46686Y-22442D01*
X64958Y-55005D02*
X76642Y-55005D01*
X76642Y-51760D01*
X76640Y-51647D01*
X76634Y-51534D01*
X76624Y-51421D01*
X76610Y-51308D01*
X76593Y-51196D01*
X76571Y-51085D01*
X76546Y-50975D01*
X76516Y-50865D01*
X76483Y-50757D01*
X76446Y-50650D01*
X76406Y-50544D01*
X76361Y-50440D01*
X76313Y-50337D01*
X76262Y-50236D01*
X76207Y-50137D01*
X76149Y-50040D01*
X76087Y-49945D01*
X76022Y-49852D01*
X75954Y-49762D01*
X75883Y-49674D01*
X75808Y-49588D01*
X75731Y-49505D01*
X75651Y-49425D01*
X75568Y-49348D01*
X75482Y-49273D01*
X75394Y-49202D01*
X75304Y-49134D01*
X75211Y-49069D01*
X75116Y-49007D01*
X75019Y-48949D01*
X74920Y-48894D01*
X74819Y-48843D01*
X74716Y-48795D01*
X74612Y-48750D01*
X74506Y-48710D01*
X74399Y-48673D01*
X74291Y-48640D01*
X74181Y-48610D01*
X74071Y-48585D01*
X73960Y-48563D01*
X73848Y-48546D01*
X73735Y-48532D01*
X73622Y-48522D01*
X73509Y-48516D01*
X73396Y-48514D01*
X73283Y-48516D01*
X73170Y-48522D01*
X73057Y-48532D01*
X72944Y-48546D01*
X72832Y-48563D01*
X72721Y-48585D01*
X72611Y-48610D01*
X72501Y-48640D01*
X72393Y-48673D01*
X72286Y-48710D01*
X72180Y-48750D01*
X72076Y-48795D01*
X71973Y-48843D01*
X71872Y-48894D01*
X71773Y-48949D01*
X71676Y-49007D01*
X71581Y-49069D01*
X71488Y-49134D01*
X71398Y-49202D01*
X71310Y-49273D01*
X71224Y-49348D01*
X71141Y-49425D01*
X71061Y-49505D01*
X70984Y-49588D01*
X70909Y-49674D01*
X70838Y-49762D01*
X70770Y-49852D01*
X70705Y-49945D01*
X70643Y-50040D01*
X70585Y-50137D01*
X70530Y-50236D01*
X70479Y-50337D01*
X70431Y-50440D01*
X70386Y-50544D01*
X70346Y-50650D01*
X70309Y-50757D01*
X70276Y-50865D01*
X70246Y-50975D01*
X70221Y-51085D01*
X70199Y-51196D01*
X70182Y-51308D01*
X70168Y-51421D01*
X70158Y-51534D01*
X70152Y-51647D01*
X70150Y-51760D01*
X70151Y-51760D02*
X70151Y-55005D01*
X70151Y-51111D02*
X64958Y-48514D01*
X73721Y-37158D02*
X73828Y-37160D01*
X73934Y-37166D01*
X74040Y-37176D01*
X74146Y-37189D01*
X74252Y-37207D01*
X74356Y-37228D01*
X74460Y-37253D01*
X74563Y-37282D01*
X74664Y-37314D01*
X74764Y-37351D01*
X74863Y-37391D01*
X74961Y-37434D01*
X75057Y-37481D01*
X75151Y-37532D01*
X75243Y-37586D01*
X75333Y-37643D01*
X75421Y-37703D01*
X75506Y-37767D01*
X75589Y-37834D01*
X75670Y-37904D01*
X75748Y-37976D01*
X75824Y-38052D01*
X75896Y-38130D01*
X75966Y-38211D01*
X76033Y-38294D01*
X76097Y-38379D01*
X76157Y-38467D01*
X76214Y-38557D01*
X76268Y-38649D01*
X76319Y-38743D01*
X76366Y-38839D01*
X76409Y-38937D01*
X76449Y-39036D01*
X76486Y-39136D01*
X76518Y-39237D01*
X76547Y-39340D01*
X76572Y-39444D01*
X76593Y-39548D01*
X76611Y-39654D01*
X76624Y-39760D01*
X76634Y-39866D01*
X76640Y-39972D01*
X76642Y-40079D01*
X76640Y-40200D01*
X76634Y-40321D01*
X76624Y-40441D01*
X76611Y-40562D01*
X76593Y-40681D01*
X76572Y-40801D01*
X76547Y-40919D01*
X76518Y-41036D01*
X76485Y-41153D01*
X76449Y-41268D01*
X76408Y-41382D01*
X76365Y-41495D01*
X76317Y-41607D01*
X76266Y-41716D01*
X76211Y-41824D01*
X76153Y-41931D01*
X76092Y-42035D01*
X76027Y-42137D01*
X75959Y-42237D01*
X75888Y-42335D01*
X75814Y-42431D01*
X75737Y-42524D01*
X75656Y-42614D01*
X75573Y-42702D01*
X75487Y-42787D01*
X75398Y-42870D01*
X75307Y-42949D01*
X75213Y-43026D01*
X75117Y-43099D01*
X75019Y-43169D01*
X74918Y-43236D01*
X74815Y-43300D01*
X74710Y-43361D01*
X74603Y-43418D01*
X74495Y-43471D01*
X74385Y-43521D01*
X74273Y-43567D01*
X74160Y-43610D01*
X74045Y-43649D01*
X71449Y-38132D02*
X71527Y-38053D01*
X71607Y-37977D01*
X71690Y-37904D01*
X71776Y-37834D01*
X71863Y-37767D01*
X71954Y-37703D01*
X72046Y-37643D01*
X72140Y-37585D01*
X72237Y-37531D01*
X72335Y-37481D01*
X72435Y-37434D01*
X72536Y-37390D01*
X72639Y-37350D01*
X72744Y-37314D01*
X72849Y-37282D01*
X72956Y-37253D01*
X73063Y-37228D01*
X73172Y-37206D01*
X73281Y-37189D01*
X73390Y-37175D01*
X73500Y-37166D01*
X73611Y-37160D01*
X73721Y-37158D01*
X71449Y-38132D02*
X64958Y-43649D01*
X64958Y-37158D01*
X-46347Y-21596D02*
X-48183Y-19760D01*
X-46347Y-21596D02*
X-46275Y-21665D01*
X-46201Y-21731D01*
X-46124Y-21794D01*
X-46045Y-21854D01*
X-45964Y-21912D01*
X-45880Y-21966D01*
X-45795Y-22016D01*
X-45707Y-22064D01*
X-45618Y-22108D01*
X-45527Y-22149D01*
X-45435Y-22186D01*
X-45342Y-22220D01*
X-45247Y-22250D01*
X-45151Y-22276D01*
X-45054Y-22299D01*
X-44956Y-22318D01*
X-44858Y-22333D01*
X-44759Y-22344D01*
X-44660Y-22352D01*
X-44561Y-22356D01*
X-44461Y-22356D01*
X-44362Y-22352D01*
X-44263Y-22344D01*
X-44164Y-22333D01*
X-44066Y-22318D01*
X-43968Y-22299D01*
X-43871Y-22276D01*
X-43775Y-22250D01*
X-43680Y-22220D01*
X-43587Y-22186D01*
X-43495Y-22149D01*
X-43404Y-22108D01*
X-43315Y-22064D01*
X-43227Y-22016D01*
X-43142Y-21966D01*
X-43058Y-21912D01*
X-42977Y-21854D01*
X-42898Y-21794D01*
X-42821Y-21731D01*
X-42747Y-21665D01*
X-42675Y-21596D01*
X-38085Y-17006D01*
X-38016Y-16935D01*
X-37949Y-16860D01*
X-37886Y-16784D01*
X-37826Y-16705D01*
X-37769Y-16623D01*
X-37715Y-16540D01*
X-37664Y-16454D01*
X-37616Y-16367D01*
X-37572Y-16278D01*
X-37531Y-16187D01*
X-37494Y-16095D01*
X-37460Y-16001D01*
X-37430Y-15906D01*
X-37404Y-15810D01*
X-37381Y-15713D01*
X-37363Y-15616D01*
X-37347Y-15517D01*
X-37336Y-15418D01*
X-37328Y-15319D01*
X-37324Y-15220D01*
X-37324Y-15120D01*
X-37328Y-15021D01*
X-37336Y-14922D01*
X-37347Y-14823D01*
X-37362Y-14725D01*
X-37381Y-14627D01*
X-37404Y-14530D01*
X-37430Y-14434D01*
X-37460Y-14339D01*
X-37494Y-14246D01*
X-37531Y-14153D01*
X-37572Y-14062D01*
X-37616Y-13973D01*
X-37664Y-13886D01*
X-37714Y-13800D01*
X-37769Y-13717D01*
X-37826Y-13636D01*
X-37886Y-13556D01*
X-37949Y-13480D01*
X-38016Y-13405D01*
X-38085Y-13334D01*
X-39921Y-11498D01*
X-44844Y-10247D02*
X-45303Y-6116D01*
X-53565Y-14378D01*
X-51270Y-16673D02*
X-55860Y-12083D01*
D13*
G36*
X2279Y-35900D02*
X4400Y-33779D01*
X6521Y-35900D01*
X4400Y-38021D01*
X2279Y-35900D01*
G37*
G36*
X9579Y-28400D02*
X11700Y-26279D01*
X13821Y-28400D01*
X11700Y-30521D01*
X9579Y-28400D01*
G37*
M02*
