G04 EAGLE Gerber X2 export*
%TF.Part,Single*%
%TF.FileFunction,Soldermask,Bot,1*%
%TF.FilePolarity,Negative*%
%TF.GenerationSoftware,Autodesk,EAGLE,9.0.1*%
%TF.CreationDate,2018-12-20T16:05:16Z*%
G75*
%MOMM*%
%FSLAX34Y34*%
%LPD*%
%AMOC8*
5,1,8,0,0,1.08239X$1,22.5*%
G01*
%ADD10C,3.250000*%
%ADD11C,0.750000*%
%ADD12C,0.125000*%
%ADD13R,2.850000X2.850000*%
%ADD14R,0.950000X1.150000*%
%ADD15C,0.700000*%
%ADD16R,1.520000X2.790000*%
%ADD17R,0.530000X0.680000*%


D10*
X-125000Y-125000D03*
X125000Y-125000D03*
X-125000Y125000D03*
X125000Y125000D03*
D11*
X-20000Y78500D03*
X-10000Y78500D03*
X0Y78500D03*
X10000Y78500D03*
X20000Y78500D03*
X-20000Y98500D03*
X-10000Y98500D03*
X0Y98500D03*
X10000Y98500D03*
X20000Y98500D03*
X-78600Y-19900D03*
X-78600Y-9900D03*
X-78600Y100D03*
X-78600Y10100D03*
X-78600Y20100D03*
X-98600Y-19900D03*
X-98600Y-9900D03*
X-98600Y100D03*
X-98600Y10100D03*
X-98600Y20100D03*
X98500Y-20000D03*
X98500Y-10000D03*
X98500Y0D03*
X98500Y10000D03*
X98500Y20000D03*
X78500Y-20000D03*
X78500Y-10000D03*
X78500Y0D03*
X78500Y10000D03*
X78500Y20000D03*
X-20000Y-98500D03*
X-10000Y-98500D03*
X0Y-98500D03*
X10000Y-98500D03*
X20000Y-98500D03*
X-20000Y-78500D03*
X-10000Y-78500D03*
X0Y-78500D03*
X10000Y-78500D03*
X20000Y-78500D03*
D12*
X12121Y-20175D02*
X6995Y-15049D01*
X12121Y-20175D02*
X9469Y-22827D01*
X4343Y-17701D01*
X6995Y-15049D01*
X8220Y-21578D02*
X10718Y-21578D01*
X11967Y-20329D02*
X6971Y-20329D01*
X5722Y-19080D02*
X11026Y-19080D01*
X9777Y-17831D02*
X4473Y-17831D01*
X5462Y-16582D02*
X8528Y-16582D01*
X7279Y-15333D02*
X6711Y-15333D01*
X10530Y-11514D02*
X15656Y-16640D01*
X13004Y-19292D01*
X7878Y-14166D01*
X10530Y-11514D01*
X11755Y-18043D02*
X14253Y-18043D01*
X15502Y-16794D02*
X10506Y-16794D01*
X9257Y-15545D02*
X14561Y-15545D01*
X13312Y-14296D02*
X8008Y-14296D01*
X8997Y-13047D02*
X12063Y-13047D01*
X10814Y-11798D02*
X10246Y-11798D01*
X14066Y-7978D02*
X19192Y-13104D01*
X16540Y-15756D01*
X11414Y-10630D01*
X14066Y-7978D01*
X15291Y-14507D02*
X17789Y-14507D01*
X19038Y-13258D02*
X14042Y-13258D01*
X12793Y-12009D02*
X18097Y-12009D01*
X16848Y-10760D02*
X11544Y-10760D01*
X12533Y-9511D02*
X15599Y-9511D01*
X14350Y-8262D02*
X13782Y-8262D01*
X17601Y-4443D02*
X22727Y-9569D01*
X20075Y-12221D01*
X14949Y-7095D01*
X17601Y-4443D01*
X18826Y-10972D02*
X21324Y-10972D01*
X22573Y-9723D02*
X17577Y-9723D01*
X16328Y-8474D02*
X21632Y-8474D01*
X20383Y-7225D02*
X15079Y-7225D01*
X16068Y-5976D02*
X19134Y-5976D01*
X17885Y-4727D02*
X17317Y-4727D01*
X-14749Y6695D02*
X-19875Y11821D01*
X-14749Y6695D02*
X-17401Y4043D01*
X-22527Y9169D01*
X-19875Y11821D01*
X-18650Y5292D02*
X-16152Y5292D01*
X-14903Y6541D02*
X-19899Y6541D01*
X-21148Y7790D02*
X-15844Y7790D01*
X-17093Y9039D02*
X-22397Y9039D01*
X-21408Y10288D02*
X-18342Y10288D01*
X-19591Y11537D02*
X-20159Y11537D01*
X-16340Y15356D02*
X-11214Y10230D01*
X-13866Y7578D01*
X-18992Y12704D01*
X-16340Y15356D01*
X-15115Y8827D02*
X-12617Y8827D01*
X-11368Y10076D02*
X-16364Y10076D01*
X-17613Y11325D02*
X-12309Y11325D01*
X-13558Y12574D02*
X-18862Y12574D01*
X-17873Y13823D02*
X-14807Y13823D01*
X-16056Y15072D02*
X-16624Y15072D01*
X-12804Y18892D02*
X-7678Y13766D01*
X-10330Y11114D01*
X-15456Y16240D01*
X-12804Y18892D01*
X-11579Y12363D02*
X-9081Y12363D01*
X-7832Y13612D02*
X-12828Y13612D01*
X-14077Y14861D02*
X-8773Y14861D01*
X-10022Y16110D02*
X-15326Y16110D01*
X-14337Y17359D02*
X-11271Y17359D01*
X-12520Y18608D02*
X-13088Y18608D01*
X-9269Y22427D02*
X-4143Y17301D01*
X-6795Y14649D01*
X-11921Y19775D01*
X-9269Y22427D01*
X-8044Y15898D02*
X-5546Y15898D01*
X-4297Y17147D02*
X-9293Y17147D01*
X-10542Y18396D02*
X-5238Y18396D01*
X-6487Y19645D02*
X-11791Y19645D01*
X-10802Y20894D02*
X-7736Y20894D01*
X-8985Y22143D02*
X-9553Y22143D01*
X6995Y14649D02*
X12121Y19775D01*
X6995Y14649D02*
X4343Y17301D01*
X9469Y22427D01*
X12121Y19775D01*
X8244Y15898D02*
X5746Y15898D01*
X4497Y17147D02*
X9493Y17147D01*
X10742Y18396D02*
X5438Y18396D01*
X6687Y19645D02*
X11991Y19645D01*
X11002Y20894D02*
X7936Y20894D01*
X9185Y22143D02*
X9753Y22143D01*
X15656Y16240D02*
X10530Y11114D01*
X7878Y13766D01*
X13004Y18892D01*
X15656Y16240D01*
X11779Y12363D02*
X9281Y12363D01*
X8032Y13612D02*
X13028Y13612D01*
X14277Y14861D02*
X8973Y14861D01*
X10222Y16110D02*
X15526Y16110D01*
X14537Y17359D02*
X11471Y17359D01*
X12720Y18608D02*
X13288Y18608D01*
X19192Y12704D02*
X14066Y7578D01*
X11414Y10230D01*
X16540Y15356D01*
X19192Y12704D01*
X15315Y8827D02*
X12817Y8827D01*
X11568Y10076D02*
X16564Y10076D01*
X17813Y11325D02*
X12509Y11325D01*
X13758Y12574D02*
X19062Y12574D01*
X18073Y13823D02*
X15007Y13823D01*
X16256Y15072D02*
X16824Y15072D01*
X20075Y11821D02*
X14949Y6695D01*
X20075Y11821D02*
X22727Y9169D01*
X17601Y4043D01*
X14949Y6695D01*
X16352Y5292D02*
X18850Y5292D01*
X20099Y6541D02*
X15103Y6541D01*
X16044Y7790D02*
X21348Y7790D01*
X22597Y9039D02*
X17293Y9039D01*
X18542Y10288D02*
X21608Y10288D01*
X20359Y11537D02*
X19791Y11537D01*
X-14749Y-7095D02*
X-19875Y-12221D01*
X-22527Y-9569D01*
X-17401Y-4443D01*
X-14749Y-7095D01*
X-18626Y-10972D02*
X-21124Y-10972D01*
X-22373Y-9723D02*
X-17377Y-9723D01*
X-16128Y-8474D02*
X-21432Y-8474D01*
X-20183Y-7225D02*
X-14879Y-7225D01*
X-15868Y-5976D02*
X-18934Y-5976D01*
X-17685Y-4727D02*
X-17117Y-4727D01*
X-11214Y-10630D02*
X-16340Y-15756D01*
X-18992Y-13104D01*
X-13866Y-7978D01*
X-11214Y-10630D01*
X-15091Y-14507D02*
X-17589Y-14507D01*
X-18838Y-13258D02*
X-13842Y-13258D01*
X-12593Y-12009D02*
X-17897Y-12009D01*
X-16648Y-10760D02*
X-11344Y-10760D01*
X-12333Y-9511D02*
X-15399Y-9511D01*
X-14150Y-8262D02*
X-13582Y-8262D01*
X-7678Y-14166D02*
X-12804Y-19292D01*
X-15456Y-16640D01*
X-10330Y-11514D01*
X-7678Y-14166D01*
X-11555Y-18043D02*
X-14053Y-18043D01*
X-15302Y-16794D02*
X-10306Y-16794D01*
X-9057Y-15545D02*
X-14361Y-15545D01*
X-13112Y-14296D02*
X-7808Y-14296D01*
X-8797Y-13047D02*
X-11863Y-13047D01*
X-10614Y-11798D02*
X-10046Y-11798D01*
X-6795Y-15049D02*
X-11921Y-20175D01*
X-6795Y-15049D02*
X-4143Y-17701D01*
X-9269Y-22827D01*
X-11921Y-20175D01*
X-10518Y-21578D02*
X-8020Y-21578D01*
X-6771Y-20329D02*
X-11767Y-20329D01*
X-10826Y-19080D02*
X-5522Y-19080D01*
X-4273Y-17831D02*
X-9577Y-17831D01*
X-8328Y-16582D02*
X-5262Y-16582D01*
X-6511Y-15333D02*
X-7079Y-15333D01*
D13*
G36*
X100Y19952D02*
X20252Y-200D01*
X100Y-20352D01*
X-20052Y-200D01*
X100Y19952D01*
G37*
D14*
X40300Y-29900D03*
X53300Y-29900D03*
X40400Y-40900D03*
X53400Y-40900D03*
G36*
X-18697Y-16172D02*
X-11980Y-22889D01*
X-20111Y-31020D01*
X-26828Y-24303D01*
X-18697Y-16172D01*
G37*
G36*
X-27889Y-6980D02*
X-21172Y-13697D01*
X-29303Y-21828D01*
X-36020Y-15111D01*
X-27889Y-6980D01*
G37*
D15*
X-28950Y33400D03*
X-67060Y22790D03*
X-32290Y28020D03*
X-67800Y31300D03*
X-28950Y-30400D03*
X-67160Y-41010D03*
X-32090Y-35880D03*
X-67500Y-32400D03*
X29250Y29700D03*
X67260Y40210D03*
X32490Y35080D03*
X67500Y31700D03*
X29150Y-34400D03*
X68160Y-37490D03*
X31590Y-28520D03*
X68000Y-30900D03*
D16*
X-34700Y-60200D03*
X-59900Y-60200D03*
X-9500Y-60200D03*
X15700Y-60200D03*
X40900Y-60200D03*
X-34700Y55000D03*
X-59900Y55000D03*
X15700Y55000D03*
X40900Y55000D03*
D17*
G36*
X1926Y-33567D02*
X5673Y-29820D01*
X10480Y-34627D01*
X6733Y-38374D01*
X1926Y-33567D01*
G37*
G36*
X-1680Y-37173D02*
X2067Y-33426D01*
X6874Y-38233D01*
X3127Y-41980D01*
X-1680Y-37173D01*
G37*
G36*
X9226Y-26067D02*
X12973Y-22320D01*
X17780Y-27127D01*
X14033Y-30874D01*
X9226Y-26067D01*
G37*
G36*
X5620Y-29673D02*
X9367Y-25926D01*
X14174Y-30733D01*
X10427Y-34480D01*
X5620Y-29673D01*
G37*
M02*
