G04 EAGLE Gerber X2 export*
%TF.Part,Single*%
%TF.FileFunction,Soldermask,Top,1*%
%TF.FilePolarity,Negative*%
%TF.GenerationSoftware,Autodesk,EAGLE,9.0.1*%
%TF.CreationDate,2018-12-20T19:56:33Z*%
G75*
%MOMM*%
%FSLAX34Y34*%
%LPD*%
%AMOC8*
5,1,8,0,0,1.08239X$1,22.5*%
G01*
%ADD10C,3.250000*%
%ADD11C,0.750000*%
%ADD12C,0.700000*%


D10*
X-125000Y-125000D03*
X125000Y-125000D03*
X-125000Y125000D03*
X125000Y125000D03*
D11*
X-20000Y78500D03*
X-10000Y78500D03*
X0Y78500D03*
X10000Y78500D03*
X20000Y78500D03*
X-20000Y98500D03*
X-10000Y98500D03*
X0Y98500D03*
X10000Y98500D03*
X20000Y98500D03*
X-78600Y-19900D03*
X-78600Y-9900D03*
X-78600Y100D03*
X-78600Y10100D03*
X-78600Y20100D03*
X-98600Y-19900D03*
X-98600Y-9900D03*
X-98600Y100D03*
X-98600Y10100D03*
X-98600Y20100D03*
X98500Y-20000D03*
X98500Y-10000D03*
X98500Y0D03*
X98500Y10000D03*
X98500Y20000D03*
X78500Y-20000D03*
X78500Y-10000D03*
X78500Y0D03*
X78500Y10000D03*
X78500Y20000D03*
X-20000Y-98500D03*
X-10000Y-98500D03*
X0Y-98500D03*
X10000Y-98500D03*
X20000Y-98500D03*
X-20000Y-78500D03*
X-10000Y-78500D03*
X0Y-78500D03*
X10000Y-78500D03*
X20000Y-78500D03*
D12*
X-23200Y29600D03*
X-49600Y44800D03*
X-28500Y24000D03*
X30100Y23900D03*
X58400Y38900D03*
X25600Y28700D03*
X23900Y-30300D03*
X30100Y-62200D03*
X30400Y-23700D03*
X-26500Y-25200D03*
X-53900Y-39800D03*
X-23000Y-33300D03*
X-45000Y50400D03*
X51100Y44900D03*
X52800Y-52400D03*
X-48500Y-46500D03*
M02*
