G04 EAGLE Gerber X2 export*
%TF.Part,Single*%
%TF.FileFunction,Copper,L2,Inr,Mixed*%
%TF.FilePolarity,Positive*%
%TF.GenerationSoftware,Autodesk,EAGLE,9.0.1*%
%TF.CreationDate,2018-12-20T19:56:33Z*%
G75*
%MOMM*%
%FSLAX34Y34*%
%LPD*%
%AMOC8*
5,1,8,0,0,1.08239X$1,22.5*%
G01*
%ADD10C,0.125000*%
%ADD11C,0.450000*%
%ADD12C,0.127000*%
%ADD13C,0.300000*%


D10*
X-55066Y6575D02*
X-6015Y6575D01*
X-9341Y54799D02*
X-8515Y54968D01*
X-54962Y7212D02*
X-55066Y6575D01*
X-57902Y4075D02*
X-3515Y4075D01*
X-6811Y57793D02*
X-6015Y57915D01*
X-57833Y4681D02*
X-57902Y4075D01*
X-1757Y63366D02*
X-1015Y63412D01*
X-1015Y1575D01*
X-4283Y60643D02*
X-3515Y60723D01*
X-60571Y2153D02*
X-60611Y1575D01*
X-3515Y4075D02*
X-3515Y60723D01*
X-6015Y57915D02*
X-6015Y6575D01*
X-8515Y9075D02*
X-8515Y54968D01*
X-11015Y51861D02*
X-11015Y11575D01*
X-11874Y51634D02*
X-11015Y51861D01*
X-51935Y9745D02*
X-52083Y9075D01*
X-14410Y48267D02*
X-13515Y48564D01*
X-48726Y12282D02*
X-48926Y11575D01*
X-13515Y14075D02*
X-13515Y48564D01*
X-16015Y45037D02*
X-16948Y44653D01*
X-45296Y14823D02*
X-45563Y14075D01*
X-16015Y16575D02*
X-16015Y45037D01*
X-18515Y41225D02*
X-19490Y40729D01*
X-41592Y17369D02*
X-41945Y16575D01*
X-52083Y9075D02*
X-8515Y9075D01*
X-11015Y11575D02*
X-48926Y11575D01*
X-45563Y14075D02*
X-13515Y14075D01*
X-16015Y16575D02*
X-41945Y16575D01*
X-60611Y1575D02*
X-1015Y1575D01*
X-9341Y54798D02*
X-10711Y54498D01*
X-12073Y54165D01*
X-13426Y53800D01*
X-14770Y53402D01*
X-16104Y52972D01*
X-17428Y52509D01*
X-18739Y52015D01*
X-20039Y51489D01*
X-21325Y50932D01*
X-22598Y50345D01*
X-23856Y49727D01*
X-25099Y49078D01*
X-26326Y48400D01*
X-27536Y47692D01*
X-28729Y46956D01*
X-29903Y46191D01*
X-31059Y45397D01*
X-32196Y44577D01*
X-33312Y43728D01*
X-34407Y42854D01*
X-35481Y41953D01*
X-36533Y41026D01*
X-37563Y40075D01*
X-38569Y39099D01*
X-39551Y38098D01*
X-40509Y37075D01*
X-41442Y36028D01*
X-42349Y34960D01*
X-43230Y33870D01*
X-44085Y32759D01*
X-44913Y31627D01*
X-45713Y30476D01*
X-46485Y29306D01*
X-47229Y28118D01*
X-47944Y26912D01*
X-48630Y25690D01*
X-49286Y24451D01*
X-49911Y23196D01*
X-50507Y21927D01*
X-51072Y20644D01*
X-51605Y19348D01*
X-52107Y18039D01*
X-52578Y16718D01*
X-53016Y15387D01*
X-53422Y14045D01*
X-53796Y12694D01*
X-54137Y11334D01*
X-54445Y9967D01*
X-54720Y8592D01*
X-54962Y7211D01*
X-57833Y4681D02*
X-57651Y6135D01*
X-57434Y7585D01*
X-57182Y9029D01*
X-56895Y10466D01*
X-56573Y11896D01*
X-56217Y13318D01*
X-55826Y14731D01*
X-55402Y16134D01*
X-54944Y17526D01*
X-54452Y18907D01*
X-53927Y20275D01*
X-53369Y21631D01*
X-52778Y22972D01*
X-52155Y24299D01*
X-51500Y25610D01*
X-50814Y26906D01*
X-50097Y28184D01*
X-49349Y29444D01*
X-48570Y30686D01*
X-47762Y31909D01*
X-46925Y33112D01*
X-46058Y34294D01*
X-45164Y35455D01*
X-44241Y36595D01*
X-43292Y37711D01*
X-42315Y38804D01*
X-41313Y39873D01*
X-40284Y40918D01*
X-39231Y41938D01*
X-38154Y42931D01*
X-37053Y43899D01*
X-35929Y44839D01*
X-34782Y45752D01*
X-33614Y46637D01*
X-32424Y47494D01*
X-31214Y48321D01*
X-29985Y49120D01*
X-28736Y49888D01*
X-27470Y50625D01*
X-26186Y51332D01*
X-24885Y52008D01*
X-23568Y52652D01*
X-22236Y53264D01*
X-20890Y53843D01*
X-19530Y54390D01*
X-18157Y54904D01*
X-16773Y55384D01*
X-15377Y55831D01*
X-13970Y56244D01*
X-12554Y56623D01*
X-11130Y56967D01*
X-9697Y57277D01*
X-8257Y57552D01*
X-6811Y57793D01*
X-1757Y63365D02*
X-3343Y63245D01*
X-4926Y63086D01*
X-6505Y62890D01*
X-8078Y62655D01*
X-9645Y62381D01*
X-11205Y62070D01*
X-12757Y61722D01*
X-14300Y61336D01*
X-15833Y60912D01*
X-17356Y60451D01*
X-18867Y59954D01*
X-20365Y59420D01*
X-21851Y58850D01*
X-23321Y58244D01*
X-24777Y57603D01*
X-26217Y56927D01*
X-27640Y56216D01*
X-29045Y55470D01*
X-30432Y54691D01*
X-31799Y53879D01*
X-33147Y53033D01*
X-34473Y52155D01*
X-35778Y51245D01*
X-37060Y50304D01*
X-38320Y49332D01*
X-4283Y60642D02*
X-5819Y60459D01*
X-7350Y60239D01*
X-8876Y59981D01*
X-10394Y59686D01*
X-11905Y59354D01*
X-13407Y58985D01*
X-14899Y58579D01*
X-16382Y58137D01*
X-17853Y57659D01*
X-19311Y57144D01*
X-20757Y56594D01*
X-22189Y56009D01*
X-23606Y55389D01*
X-25008Y54735D01*
X-26393Y54046D01*
X-27760Y53323D01*
X-29110Y52568D01*
X-30441Y51779D01*
X-31751Y50958D01*
X-33042Y50105D01*
X-34311Y49221D01*
X-35558Y48306D01*
X-36782Y47360D01*
X-37983Y46385D01*
X-39160Y45381D01*
X-40311Y44348D01*
X-41437Y43288D01*
X-42537Y42200D01*
X-43609Y41085D01*
X-44654Y39945D01*
X-45671Y38779D01*
X-46659Y37589D01*
X-47617Y36375D01*
X-48545Y35137D01*
X-49443Y33878D01*
X-50310Y32596D01*
X-51145Y31294D01*
X-51947Y29972D01*
X-52718Y28631D01*
X-53455Y27271D01*
X-54158Y25893D01*
X-54828Y24499D01*
X-55463Y23088D01*
X-56063Y21663D01*
X-56628Y20223D01*
X-57158Y18770D01*
X-57652Y17304D01*
X-58110Y15827D01*
X-58532Y14338D01*
X-58917Y12840D01*
X-59265Y11333D01*
X-59576Y9818D01*
X-59850Y8296D01*
X-60087Y6767D01*
X-60286Y5233D01*
X-60447Y3695D01*
X-60571Y2153D01*
X-51935Y9745D02*
X-51630Y11065D01*
X-51293Y12377D01*
X-50924Y13681D01*
X-50523Y14975D01*
X-50091Y16259D01*
X-49628Y17532D01*
X-49134Y18794D01*
X-48609Y20043D01*
X-48054Y21279D01*
X-47469Y22501D01*
X-46854Y23708D01*
X-46211Y24900D01*
X-45538Y26076D01*
X-44837Y27236D01*
X-44108Y28378D01*
X-43351Y29501D01*
X-42567Y30606D01*
X-41757Y31692D01*
X-40920Y32758D01*
X-40058Y33802D01*
X-39170Y34826D01*
X-38258Y35828D01*
X-37321Y36807D01*
X-36361Y37763D01*
X-35378Y38695D01*
X-34373Y39603D01*
X-33346Y40487D01*
X-32297Y41345D01*
X-31228Y42177D01*
X-30139Y42983D01*
X-29031Y43762D01*
X-27904Y44514D01*
X-26759Y45239D01*
X-25597Y45935D01*
X-24418Y46603D01*
X-23223Y47242D01*
X-22013Y47851D01*
X-20789Y48431D01*
X-19551Y48981D01*
X-18299Y49500D01*
X-17036Y49989D01*
X-15761Y50447D01*
X-14475Y50874D01*
X-13179Y51270D01*
X-11874Y51633D01*
X-14410Y48266D02*
X-15632Y47842D01*
X-16843Y47388D01*
X-18043Y46904D01*
X-19231Y46392D01*
X-20406Y45851D01*
X-21567Y45281D01*
X-22714Y44683D01*
X-23847Y44058D01*
X-24963Y43405D01*
X-26064Y42725D01*
X-27148Y42019D01*
X-28214Y41286D01*
X-29262Y40527D01*
X-30291Y39744D01*
X-31301Y38935D01*
X-32290Y38102D01*
X-33260Y37246D01*
X-34208Y36365D01*
X-35134Y35462D01*
X-36038Y34537D01*
X-36920Y33590D01*
X-37777Y32622D01*
X-38612Y31633D01*
X-39421Y30625D01*
X-40206Y29596D01*
X-40966Y28549D01*
X-41700Y27484D01*
X-42408Y26402D01*
X-43089Y25302D01*
X-43744Y24186D01*
X-44371Y23054D01*
X-44970Y21908D01*
X-45541Y20747D01*
X-46084Y19573D01*
X-46598Y18386D01*
X-47082Y17186D01*
X-47538Y15976D01*
X-47964Y14754D01*
X-48360Y13523D01*
X-48726Y12282D01*
X-45296Y14823D02*
X-44877Y15959D01*
X-44431Y17085D01*
X-43958Y18199D01*
X-43459Y19302D01*
X-42933Y20393D01*
X-42382Y21471D01*
X-41805Y22535D01*
X-41202Y23585D01*
X-40575Y24621D01*
X-39923Y25641D01*
X-39247Y26646D01*
X-38547Y27633D01*
X-37824Y28604D01*
X-37077Y29558D01*
X-36308Y30493D01*
X-35517Y31409D01*
X-34704Y32307D01*
X-33870Y33184D01*
X-33015Y34042D01*
X-32140Y34879D01*
X-31246Y35694D01*
X-30331Y36488D01*
X-29399Y37260D01*
X-28448Y38009D01*
X-27479Y38736D01*
X-26493Y39439D01*
X-25491Y40118D01*
X-24473Y40773D01*
X-23439Y41403D01*
X-22391Y42009D01*
X-21328Y42589D01*
X-20252Y43144D01*
X-19163Y43673D01*
X-18061Y44176D01*
X-16948Y44652D01*
X-19490Y40728D02*
X-20527Y40182D01*
X-21549Y39612D01*
X-22558Y39017D01*
X-23551Y38397D01*
X-24530Y37754D01*
X-25492Y37087D01*
X-26438Y36396D01*
X-27367Y35683D01*
X-28278Y34947D01*
X-29171Y34190D01*
X-30045Y33411D01*
X-30900Y32611D01*
X-31735Y31790D01*
X-32550Y30949D01*
X-33345Y30089D01*
X-34118Y29210D01*
X-34869Y28312D01*
X-35599Y27396D01*
X-36306Y26462D01*
X-36990Y25512D01*
X-37651Y24545D01*
X-38288Y23563D01*
X-38901Y22565D01*
X-39489Y21553D01*
X-40053Y20526D01*
X-40591Y19486D01*
X-41104Y18434D01*
X-41592Y17369D01*
D11*
X-23200Y29600D03*
X-49600Y44800D03*
X-28500Y24000D03*
D10*
X6975Y6515D02*
X6975Y55566D01*
X55199Y9841D02*
X55368Y9015D01*
X7612Y55462D02*
X6975Y55566D01*
X4475Y58402D02*
X4475Y4015D01*
X58193Y7311D02*
X58315Y6515D01*
X5081Y58333D02*
X4475Y58402D01*
X63766Y2257D02*
X63812Y1515D01*
X1975Y1515D01*
X61043Y4783D02*
X61123Y4015D01*
X2553Y61071D02*
X1975Y61111D01*
X4475Y4015D02*
X61123Y4015D01*
X58315Y6515D02*
X6975Y6515D01*
X9475Y9015D02*
X55368Y9015D01*
X52261Y11515D02*
X11975Y11515D01*
X52034Y12374D02*
X52261Y11515D01*
X10145Y52435D02*
X9475Y52583D01*
X48667Y14910D02*
X48964Y14015D01*
X12682Y49226D02*
X11975Y49426D01*
X14475Y14015D02*
X48964Y14015D01*
X45437Y16515D02*
X45053Y17448D01*
X15223Y45796D02*
X14475Y46063D01*
X16975Y16515D02*
X45437Y16515D01*
X41625Y19015D02*
X41129Y19990D01*
X17769Y42092D02*
X16975Y42445D01*
X9475Y52583D02*
X9475Y9015D01*
X11975Y11515D02*
X11975Y49426D01*
X14475Y46063D02*
X14475Y14015D01*
X16975Y16515D02*
X16975Y42445D01*
X1975Y61111D02*
X1975Y1515D01*
X55198Y9841D02*
X54898Y11211D01*
X54565Y12573D01*
X54200Y13926D01*
X53802Y15270D01*
X53372Y16604D01*
X52909Y17928D01*
X52415Y19239D01*
X51889Y20539D01*
X51332Y21825D01*
X50745Y23098D01*
X50127Y24356D01*
X49478Y25599D01*
X48800Y26826D01*
X48092Y28036D01*
X47356Y29229D01*
X46591Y30403D01*
X45797Y31559D01*
X44977Y32696D01*
X44128Y33812D01*
X43254Y34907D01*
X42353Y35981D01*
X41426Y37033D01*
X40475Y38063D01*
X39499Y39069D01*
X38498Y40051D01*
X37475Y41009D01*
X36428Y41942D01*
X35360Y42849D01*
X34270Y43730D01*
X33159Y44585D01*
X32027Y45413D01*
X30876Y46213D01*
X29706Y46985D01*
X28518Y47729D01*
X27312Y48444D01*
X26090Y49130D01*
X24851Y49786D01*
X23596Y50411D01*
X22327Y51007D01*
X21044Y51572D01*
X19748Y52105D01*
X18439Y52607D01*
X17118Y53078D01*
X15787Y53516D01*
X14445Y53922D01*
X13094Y54296D01*
X11734Y54637D01*
X10367Y54945D01*
X8992Y55220D01*
X7611Y55462D01*
X5081Y58333D02*
X6535Y58151D01*
X7985Y57934D01*
X9429Y57682D01*
X10866Y57395D01*
X12296Y57073D01*
X13718Y56717D01*
X15131Y56326D01*
X16534Y55902D01*
X17926Y55444D01*
X19307Y54952D01*
X20675Y54427D01*
X22031Y53869D01*
X23372Y53278D01*
X24699Y52655D01*
X26010Y52000D01*
X27306Y51314D01*
X28584Y50597D01*
X29844Y49849D01*
X31086Y49070D01*
X32309Y48262D01*
X33512Y47425D01*
X34694Y46558D01*
X35855Y45664D01*
X36995Y44741D01*
X38111Y43792D01*
X39204Y42815D01*
X40273Y41813D01*
X41318Y40784D01*
X42338Y39731D01*
X43331Y38654D01*
X44299Y37553D01*
X45239Y36429D01*
X46152Y35282D01*
X47037Y34114D01*
X47894Y32924D01*
X48721Y31714D01*
X49520Y30485D01*
X50288Y29236D01*
X51025Y27970D01*
X51732Y26686D01*
X52408Y25385D01*
X53052Y24068D01*
X53664Y22736D01*
X54243Y21390D01*
X54790Y20030D01*
X55304Y18657D01*
X55784Y17273D01*
X56231Y15877D01*
X56644Y14470D01*
X57023Y13054D01*
X57367Y11630D01*
X57677Y10197D01*
X57952Y8757D01*
X58193Y7311D01*
X63765Y2257D02*
X63645Y3843D01*
X63486Y5426D01*
X63290Y7005D01*
X63055Y8578D01*
X62781Y10145D01*
X62470Y11705D01*
X62122Y13257D01*
X61736Y14800D01*
X61312Y16333D01*
X60851Y17856D01*
X60354Y19367D01*
X59820Y20865D01*
X59250Y22351D01*
X58644Y23821D01*
X58003Y25277D01*
X57327Y26717D01*
X56616Y28140D01*
X55870Y29545D01*
X55091Y30932D01*
X54279Y32299D01*
X53433Y33647D01*
X52555Y34973D01*
X51645Y36278D01*
X50704Y37560D01*
X49732Y38820D01*
X61042Y4783D02*
X60859Y6319D01*
X60639Y7850D01*
X60381Y9376D01*
X60086Y10894D01*
X59754Y12405D01*
X59385Y13907D01*
X58979Y15399D01*
X58537Y16882D01*
X58059Y18353D01*
X57544Y19811D01*
X56994Y21257D01*
X56409Y22689D01*
X55789Y24106D01*
X55135Y25508D01*
X54446Y26893D01*
X53723Y28260D01*
X52968Y29610D01*
X52179Y30941D01*
X51358Y32251D01*
X50505Y33542D01*
X49621Y34811D01*
X48706Y36058D01*
X47760Y37282D01*
X46785Y38483D01*
X45781Y39660D01*
X44748Y40811D01*
X43688Y41937D01*
X42600Y43037D01*
X41485Y44109D01*
X40345Y45154D01*
X39179Y46171D01*
X37989Y47159D01*
X36775Y48117D01*
X35537Y49045D01*
X34278Y49943D01*
X32996Y50810D01*
X31694Y51645D01*
X30372Y52447D01*
X29031Y53218D01*
X27671Y53955D01*
X26293Y54658D01*
X24899Y55328D01*
X23488Y55963D01*
X22063Y56563D01*
X20623Y57128D01*
X19170Y57658D01*
X17704Y58152D01*
X16227Y58610D01*
X14738Y59032D01*
X13240Y59417D01*
X11733Y59765D01*
X10218Y60076D01*
X8696Y60350D01*
X7167Y60587D01*
X5633Y60786D01*
X4095Y60947D01*
X2553Y61071D01*
X10145Y52435D02*
X11465Y52130D01*
X12777Y51793D01*
X14081Y51424D01*
X15375Y51023D01*
X16659Y50591D01*
X17932Y50128D01*
X19194Y49634D01*
X20443Y49109D01*
X21679Y48554D01*
X22901Y47969D01*
X24108Y47354D01*
X25300Y46711D01*
X26476Y46038D01*
X27636Y45337D01*
X28778Y44608D01*
X29901Y43851D01*
X31006Y43067D01*
X32092Y42257D01*
X33158Y41420D01*
X34202Y40558D01*
X35226Y39670D01*
X36228Y38758D01*
X37207Y37821D01*
X38163Y36861D01*
X39095Y35878D01*
X40003Y34873D01*
X40887Y33846D01*
X41745Y32797D01*
X42577Y31728D01*
X43383Y30639D01*
X44162Y29531D01*
X44914Y28404D01*
X45639Y27259D01*
X46335Y26097D01*
X47003Y24918D01*
X47642Y23723D01*
X48251Y22513D01*
X48831Y21289D01*
X49381Y20051D01*
X49900Y18799D01*
X50389Y17536D01*
X50847Y16261D01*
X51274Y14975D01*
X51670Y13679D01*
X52033Y12374D01*
X48666Y14910D02*
X48242Y16132D01*
X47788Y17343D01*
X47304Y18543D01*
X46792Y19731D01*
X46251Y20906D01*
X45681Y22067D01*
X45083Y23214D01*
X44458Y24347D01*
X43805Y25463D01*
X43125Y26564D01*
X42419Y27648D01*
X41686Y28714D01*
X40927Y29762D01*
X40144Y30791D01*
X39335Y31801D01*
X38502Y32790D01*
X37646Y33760D01*
X36765Y34708D01*
X35862Y35634D01*
X34937Y36538D01*
X33990Y37420D01*
X33022Y38277D01*
X32033Y39112D01*
X31025Y39921D01*
X29996Y40706D01*
X28949Y41466D01*
X27884Y42200D01*
X26802Y42908D01*
X25702Y43589D01*
X24586Y44244D01*
X23454Y44871D01*
X22308Y45470D01*
X21147Y46041D01*
X19973Y46584D01*
X18786Y47098D01*
X17586Y47582D01*
X16376Y48038D01*
X15154Y48464D01*
X13923Y48860D01*
X12682Y49226D01*
X15223Y45796D02*
X16359Y45377D01*
X17485Y44931D01*
X18599Y44458D01*
X19702Y43959D01*
X20793Y43433D01*
X21871Y42882D01*
X22935Y42305D01*
X23985Y41702D01*
X25021Y41075D01*
X26041Y40423D01*
X27046Y39747D01*
X28033Y39047D01*
X29004Y38324D01*
X29958Y37577D01*
X30893Y36808D01*
X31809Y36017D01*
X32707Y35204D01*
X33584Y34370D01*
X34442Y33515D01*
X35279Y32640D01*
X36094Y31746D01*
X36888Y30831D01*
X37660Y29899D01*
X38409Y28948D01*
X39136Y27979D01*
X39839Y26993D01*
X40518Y25991D01*
X41173Y24973D01*
X41803Y23939D01*
X42409Y22891D01*
X42989Y21828D01*
X43544Y20752D01*
X44073Y19663D01*
X44576Y18561D01*
X45052Y17448D01*
X41128Y19990D02*
X40582Y21027D01*
X40012Y22049D01*
X39417Y23058D01*
X38797Y24051D01*
X38154Y25030D01*
X37487Y25992D01*
X36796Y26938D01*
X36083Y27867D01*
X35347Y28778D01*
X34590Y29671D01*
X33811Y30545D01*
X33011Y31400D01*
X32190Y32235D01*
X31349Y33050D01*
X30489Y33845D01*
X29610Y34618D01*
X28712Y35369D01*
X27796Y36099D01*
X26862Y36806D01*
X25912Y37490D01*
X24945Y38151D01*
X23963Y38788D01*
X22965Y39401D01*
X21953Y39989D01*
X20926Y40553D01*
X19886Y41091D01*
X18834Y41604D01*
X17769Y42092D01*
D11*
X30100Y23900D03*
X58400Y38900D03*
X25600Y28700D03*
D10*
X6815Y-6775D02*
X55866Y-6775D01*
X10141Y-54999D02*
X9315Y-55168D01*
X55762Y-7412D02*
X55866Y-6775D01*
X58702Y-4275D02*
X4315Y-4275D01*
X7611Y-57993D02*
X6815Y-58115D01*
X58633Y-4881D02*
X58702Y-4275D01*
X2557Y-63566D02*
X1815Y-63612D01*
X1815Y-1775D01*
X5083Y-60843D02*
X4315Y-60923D01*
X61371Y-2353D02*
X61411Y-1775D01*
X4315Y-4275D02*
X4315Y-60923D01*
X6815Y-58115D02*
X6815Y-6775D01*
X9315Y-9275D02*
X9315Y-55168D01*
X11815Y-52061D02*
X11815Y-11775D01*
X12674Y-51834D02*
X11815Y-52061D01*
X52735Y-9945D02*
X52883Y-9275D01*
X15210Y-48467D02*
X14315Y-48764D01*
X49526Y-12482D02*
X49726Y-11775D01*
X14315Y-14275D02*
X14315Y-48764D01*
X16815Y-45237D02*
X17748Y-44853D01*
X46096Y-15023D02*
X46363Y-14275D01*
X16815Y-16775D02*
X16815Y-45237D01*
X42392Y-17569D02*
X42745Y-16775D01*
X52883Y-9275D02*
X9315Y-9275D01*
X11815Y-11775D02*
X49726Y-11775D01*
X46363Y-14275D02*
X14315Y-14275D01*
X16815Y-16775D02*
X42745Y-16775D01*
X61411Y-1775D02*
X1815Y-1775D01*
X10141Y-54998D02*
X11511Y-54698D01*
X12873Y-54365D01*
X14226Y-54000D01*
X15570Y-53602D01*
X16904Y-53172D01*
X18228Y-52709D01*
X19539Y-52215D01*
X20839Y-51689D01*
X22125Y-51132D01*
X23398Y-50545D01*
X24656Y-49927D01*
X25899Y-49278D01*
X27126Y-48600D01*
X28336Y-47892D01*
X29529Y-47156D01*
X30703Y-46391D01*
X31859Y-45597D01*
X32996Y-44777D01*
X34112Y-43928D01*
X35207Y-43054D01*
X36281Y-42153D01*
X37333Y-41226D01*
X38363Y-40275D01*
X39369Y-39299D01*
X40351Y-38298D01*
X41309Y-37275D01*
X42242Y-36228D01*
X43149Y-35160D01*
X44030Y-34070D01*
X44885Y-32959D01*
X45713Y-31827D01*
X46513Y-30676D01*
X47285Y-29506D01*
X48029Y-28318D01*
X48744Y-27112D01*
X49430Y-25890D01*
X50086Y-24651D01*
X50711Y-23396D01*
X51307Y-22127D01*
X51872Y-20844D01*
X52405Y-19548D01*
X52907Y-18239D01*
X53378Y-16918D01*
X53816Y-15587D01*
X54222Y-14245D01*
X54596Y-12894D01*
X54937Y-11534D01*
X55245Y-10167D01*
X55520Y-8792D01*
X55762Y-7411D01*
X58633Y-4881D02*
X58451Y-6335D01*
X58234Y-7785D01*
X57982Y-9229D01*
X57695Y-10666D01*
X57373Y-12096D01*
X57017Y-13518D01*
X56626Y-14931D01*
X56202Y-16334D01*
X55744Y-17726D01*
X55252Y-19107D01*
X54727Y-20475D01*
X54169Y-21831D01*
X53578Y-23172D01*
X52955Y-24499D01*
X52300Y-25810D01*
X51614Y-27106D01*
X50897Y-28384D01*
X50149Y-29644D01*
X49370Y-30886D01*
X48562Y-32109D01*
X47725Y-33312D01*
X46858Y-34494D01*
X45964Y-35655D01*
X45041Y-36795D01*
X44092Y-37911D01*
X43115Y-39004D01*
X42113Y-40073D01*
X41084Y-41118D01*
X40031Y-42138D01*
X38954Y-43131D01*
X37853Y-44099D01*
X36729Y-45039D01*
X35582Y-45952D01*
X34414Y-46837D01*
X33224Y-47694D01*
X32014Y-48521D01*
X30785Y-49320D01*
X29536Y-50088D01*
X28270Y-50825D01*
X26986Y-51532D01*
X25685Y-52208D01*
X24368Y-52852D01*
X23036Y-53464D01*
X21690Y-54043D01*
X20330Y-54590D01*
X18957Y-55104D01*
X17573Y-55584D01*
X16177Y-56031D01*
X14770Y-56444D01*
X13354Y-56823D01*
X11930Y-57167D01*
X10497Y-57477D01*
X9057Y-57752D01*
X7611Y-57993D01*
X2557Y-63565D02*
X4143Y-63445D01*
X5726Y-63286D01*
X7305Y-63090D01*
X8878Y-62855D01*
X10445Y-62581D01*
X12005Y-62270D01*
X13557Y-61922D01*
X15100Y-61536D01*
X16633Y-61112D01*
X18156Y-60651D01*
X19667Y-60154D01*
X21165Y-59620D01*
X22651Y-59050D01*
X24121Y-58444D01*
X25577Y-57803D01*
X27017Y-57127D01*
X28440Y-56416D01*
X29845Y-55670D01*
X31232Y-54891D01*
X32599Y-54079D01*
X33947Y-53233D01*
X35273Y-52355D01*
X36578Y-51445D01*
X37860Y-50504D01*
X39120Y-49532D01*
X5083Y-60842D02*
X6619Y-60659D01*
X8150Y-60439D01*
X9676Y-60181D01*
X11194Y-59886D01*
X12705Y-59554D01*
X14207Y-59185D01*
X15699Y-58779D01*
X17182Y-58337D01*
X18653Y-57859D01*
X20111Y-57344D01*
X21557Y-56794D01*
X22989Y-56209D01*
X24406Y-55589D01*
X25808Y-54935D01*
X27193Y-54246D01*
X28560Y-53523D01*
X29910Y-52768D01*
X31241Y-51979D01*
X32551Y-51158D01*
X33842Y-50305D01*
X35111Y-49421D01*
X36358Y-48506D01*
X37582Y-47560D01*
X38783Y-46585D01*
X39960Y-45581D01*
X41111Y-44548D01*
X42237Y-43488D01*
X43337Y-42400D01*
X44409Y-41285D01*
X45454Y-40145D01*
X46471Y-38979D01*
X47459Y-37789D01*
X48417Y-36575D01*
X49345Y-35337D01*
X50243Y-34078D01*
X51110Y-32796D01*
X51945Y-31494D01*
X52747Y-30172D01*
X53518Y-28831D01*
X54255Y-27471D01*
X54958Y-26093D01*
X55628Y-24699D01*
X56263Y-23288D01*
X56863Y-21863D01*
X57428Y-20423D01*
X57958Y-18970D01*
X58452Y-17504D01*
X58910Y-16027D01*
X59332Y-14538D01*
X59717Y-13040D01*
X60065Y-11533D01*
X60376Y-10018D01*
X60650Y-8496D01*
X60887Y-6967D01*
X61086Y-5433D01*
X61247Y-3895D01*
X61371Y-2353D01*
X52735Y-9945D02*
X52430Y-11265D01*
X52093Y-12577D01*
X51724Y-13881D01*
X51323Y-15175D01*
X50891Y-16459D01*
X50428Y-17732D01*
X49934Y-18994D01*
X49409Y-20243D01*
X48854Y-21479D01*
X48269Y-22701D01*
X47654Y-23908D01*
X47011Y-25100D01*
X46338Y-26276D01*
X45637Y-27436D01*
X44908Y-28578D01*
X44151Y-29701D01*
X43367Y-30806D01*
X42557Y-31892D01*
X41720Y-32958D01*
X40858Y-34002D01*
X39970Y-35026D01*
X39058Y-36028D01*
X38121Y-37007D01*
X37161Y-37963D01*
X36178Y-38895D01*
X35173Y-39803D01*
X34146Y-40687D01*
X33097Y-41545D01*
X32028Y-42377D01*
X30939Y-43183D01*
X29831Y-43962D01*
X28704Y-44714D01*
X27559Y-45439D01*
X26397Y-46135D01*
X25218Y-46803D01*
X24023Y-47442D01*
X22813Y-48051D01*
X21589Y-48631D01*
X20351Y-49181D01*
X19099Y-49700D01*
X17836Y-50189D01*
X16561Y-50647D01*
X15275Y-51074D01*
X13979Y-51470D01*
X12674Y-51833D01*
X15210Y-48466D02*
X16432Y-48042D01*
X17643Y-47588D01*
X18843Y-47104D01*
X20031Y-46592D01*
X21206Y-46051D01*
X22367Y-45481D01*
X23514Y-44883D01*
X24647Y-44258D01*
X25763Y-43605D01*
X26864Y-42925D01*
X27948Y-42219D01*
X29014Y-41486D01*
X30062Y-40727D01*
X31091Y-39944D01*
X32101Y-39135D01*
X33090Y-38302D01*
X34060Y-37446D01*
X35008Y-36565D01*
X35934Y-35662D01*
X36838Y-34737D01*
X37720Y-33790D01*
X38577Y-32822D01*
X39412Y-31833D01*
X40221Y-30825D01*
X41006Y-29796D01*
X41766Y-28749D01*
X42500Y-27684D01*
X43208Y-26602D01*
X43889Y-25502D01*
X44544Y-24386D01*
X45171Y-23254D01*
X45770Y-22108D01*
X46341Y-20947D01*
X46884Y-19773D01*
X47398Y-18586D01*
X47882Y-17386D01*
X48338Y-16176D01*
X48764Y-14954D01*
X49160Y-13723D01*
X49526Y-12482D01*
X46096Y-15023D02*
X45677Y-16159D01*
X45231Y-17285D01*
X44758Y-18399D01*
X44259Y-19502D01*
X43733Y-20593D01*
X43182Y-21671D01*
X42605Y-22735D01*
X42002Y-23785D01*
X41375Y-24821D01*
X40723Y-25841D01*
X40047Y-26846D01*
X39347Y-27833D01*
X38624Y-28804D01*
X37877Y-29758D01*
X37108Y-30693D01*
X36317Y-31609D01*
X35504Y-32507D01*
X34670Y-33384D01*
X33815Y-34242D01*
X32940Y-35079D01*
X32046Y-35894D01*
X31131Y-36688D01*
X30199Y-37460D01*
X29248Y-38209D01*
X28279Y-38936D01*
X27293Y-39639D01*
X26291Y-40318D01*
X25273Y-40973D01*
X24239Y-41603D01*
X23191Y-42209D01*
X22128Y-42789D01*
X21052Y-43344D01*
X19963Y-43873D01*
X18861Y-44376D01*
X17748Y-44852D01*
X20290Y-40928D02*
X21327Y-40382D01*
X22349Y-39812D01*
X23358Y-39217D01*
X24351Y-38597D01*
X25330Y-37954D01*
X26292Y-37287D01*
X27238Y-36596D01*
X28167Y-35883D01*
X29078Y-35147D01*
X29971Y-34390D01*
X30845Y-33611D01*
X31700Y-32811D01*
X32535Y-31990D01*
X33350Y-31149D01*
X34145Y-30289D01*
X34918Y-29410D01*
X35669Y-28512D01*
X36399Y-27596D01*
X37106Y-26662D01*
X37790Y-25712D01*
X38451Y-24745D01*
X39088Y-23763D01*
X39701Y-22765D01*
X40289Y-21753D01*
X40853Y-20726D01*
X41391Y-19686D01*
X41904Y-18634D01*
X42392Y-17569D01*
D11*
X23900Y-30300D03*
X30100Y-62200D03*
X30400Y-23700D03*
D10*
X-6075Y-6615D02*
X-6075Y-55666D01*
X-54299Y-9941D02*
X-54468Y-9115D01*
X-6712Y-55562D02*
X-6075Y-55666D01*
X-3575Y-58502D02*
X-3575Y-4115D01*
X-57293Y-7411D02*
X-57415Y-6615D01*
X-4181Y-58433D02*
X-3575Y-58502D01*
X-62866Y-2357D02*
X-62912Y-1615D01*
X-1075Y-1615D01*
X-60143Y-4883D02*
X-60223Y-4115D01*
X-1653Y-61171D02*
X-1075Y-61211D01*
X-3575Y-4115D02*
X-60223Y-4115D01*
X-57415Y-6615D02*
X-6075Y-6615D01*
X-8575Y-9115D02*
X-54468Y-9115D01*
X-51361Y-11615D02*
X-11075Y-11615D01*
X-51134Y-12474D02*
X-51361Y-11615D01*
X-9245Y-52535D02*
X-8575Y-52683D01*
X-47767Y-15010D02*
X-48064Y-14115D01*
X-11782Y-49326D02*
X-11075Y-49526D01*
X-13575Y-14115D02*
X-48064Y-14115D01*
X-44537Y-16615D02*
X-44153Y-17548D01*
X-14323Y-45896D02*
X-13575Y-46163D01*
X-16075Y-16615D02*
X-44537Y-16615D01*
X-40725Y-19115D02*
X-40229Y-20090D01*
X-16869Y-42192D02*
X-16075Y-42545D01*
X-8575Y-52683D02*
X-8575Y-9115D01*
X-11075Y-11615D02*
X-11075Y-49526D01*
X-13575Y-46163D02*
X-13575Y-14115D01*
X-16075Y-16615D02*
X-16075Y-42545D01*
X-1075Y-61211D02*
X-1075Y-1615D01*
X-54298Y-9941D02*
X-53998Y-11311D01*
X-53665Y-12673D01*
X-53300Y-14026D01*
X-52902Y-15370D01*
X-52472Y-16704D01*
X-52009Y-18028D01*
X-51515Y-19339D01*
X-50989Y-20639D01*
X-50432Y-21925D01*
X-49845Y-23198D01*
X-49227Y-24456D01*
X-48578Y-25699D01*
X-47900Y-26926D01*
X-47192Y-28136D01*
X-46456Y-29329D01*
X-45691Y-30503D01*
X-44897Y-31659D01*
X-44077Y-32796D01*
X-43228Y-33912D01*
X-42354Y-35007D01*
X-41453Y-36081D01*
X-40526Y-37133D01*
X-39575Y-38163D01*
X-38599Y-39169D01*
X-37598Y-40151D01*
X-36575Y-41109D01*
X-35528Y-42042D01*
X-34460Y-42949D01*
X-33370Y-43830D01*
X-32259Y-44685D01*
X-31127Y-45513D01*
X-29976Y-46313D01*
X-28806Y-47085D01*
X-27618Y-47829D01*
X-26412Y-48544D01*
X-25190Y-49230D01*
X-23951Y-49886D01*
X-22696Y-50511D01*
X-21427Y-51107D01*
X-20144Y-51672D01*
X-18848Y-52205D01*
X-17539Y-52707D01*
X-16218Y-53178D01*
X-14887Y-53616D01*
X-13545Y-54022D01*
X-12194Y-54396D01*
X-10834Y-54737D01*
X-9467Y-55045D01*
X-8092Y-55320D01*
X-6711Y-55562D01*
X-4181Y-58433D02*
X-5635Y-58251D01*
X-7085Y-58034D01*
X-8529Y-57782D01*
X-9966Y-57495D01*
X-11396Y-57173D01*
X-12818Y-56817D01*
X-14231Y-56426D01*
X-15634Y-56002D01*
X-17026Y-55544D01*
X-18407Y-55052D01*
X-19775Y-54527D01*
X-21131Y-53969D01*
X-22472Y-53378D01*
X-23799Y-52755D01*
X-25110Y-52100D01*
X-26406Y-51414D01*
X-27684Y-50697D01*
X-28944Y-49949D01*
X-30186Y-49170D01*
X-31409Y-48362D01*
X-32612Y-47525D01*
X-33794Y-46658D01*
X-34955Y-45764D01*
X-36095Y-44841D01*
X-37211Y-43892D01*
X-38304Y-42915D01*
X-39373Y-41913D01*
X-40418Y-40884D01*
X-41438Y-39831D01*
X-42431Y-38754D01*
X-43399Y-37653D01*
X-44339Y-36529D01*
X-45252Y-35382D01*
X-46137Y-34214D01*
X-46994Y-33024D01*
X-47821Y-31814D01*
X-48620Y-30585D01*
X-49388Y-29336D01*
X-50125Y-28070D01*
X-50832Y-26786D01*
X-51508Y-25485D01*
X-52152Y-24168D01*
X-52764Y-22836D01*
X-53343Y-21490D01*
X-53890Y-20130D01*
X-54404Y-18757D01*
X-54884Y-17373D01*
X-55331Y-15977D01*
X-55744Y-14570D01*
X-56123Y-13154D01*
X-56467Y-11730D01*
X-56777Y-10297D01*
X-57052Y-8857D01*
X-57293Y-7411D01*
X-62865Y-2357D02*
X-62745Y-3943D01*
X-62586Y-5526D01*
X-62390Y-7105D01*
X-62155Y-8678D01*
X-61881Y-10245D01*
X-61570Y-11805D01*
X-61222Y-13357D01*
X-60836Y-14900D01*
X-60412Y-16433D01*
X-59951Y-17956D01*
X-59454Y-19467D01*
X-58920Y-20965D01*
X-58350Y-22451D01*
X-57744Y-23921D01*
X-57103Y-25377D01*
X-56427Y-26817D01*
X-55716Y-28240D01*
X-54970Y-29645D01*
X-54191Y-31032D01*
X-53379Y-32399D01*
X-52533Y-33747D01*
X-51655Y-35073D01*
X-50745Y-36378D01*
X-49804Y-37660D01*
X-48832Y-38920D01*
X-60142Y-4883D02*
X-59959Y-6419D01*
X-59739Y-7950D01*
X-59481Y-9476D01*
X-59186Y-10994D01*
X-58854Y-12505D01*
X-58485Y-14007D01*
X-58079Y-15499D01*
X-57637Y-16982D01*
X-57159Y-18453D01*
X-56644Y-19911D01*
X-56094Y-21357D01*
X-55509Y-22789D01*
X-54889Y-24206D01*
X-54235Y-25608D01*
X-53546Y-26993D01*
X-52823Y-28360D01*
X-52068Y-29710D01*
X-51279Y-31041D01*
X-50458Y-32351D01*
X-49605Y-33642D01*
X-48721Y-34911D01*
X-47806Y-36158D01*
X-46860Y-37382D01*
X-45885Y-38583D01*
X-44881Y-39760D01*
X-43848Y-40911D01*
X-42788Y-42037D01*
X-41700Y-43137D01*
X-40585Y-44209D01*
X-39445Y-45254D01*
X-38279Y-46271D01*
X-37089Y-47259D01*
X-35875Y-48217D01*
X-34637Y-49145D01*
X-33378Y-50043D01*
X-32096Y-50910D01*
X-30794Y-51745D01*
X-29472Y-52547D01*
X-28131Y-53318D01*
X-26771Y-54055D01*
X-25393Y-54758D01*
X-23999Y-55428D01*
X-22588Y-56063D01*
X-21163Y-56663D01*
X-19723Y-57228D01*
X-18270Y-57758D01*
X-16804Y-58252D01*
X-15327Y-58710D01*
X-13838Y-59132D01*
X-12340Y-59517D01*
X-10833Y-59865D01*
X-9318Y-60176D01*
X-7796Y-60450D01*
X-6267Y-60687D01*
X-4733Y-60886D01*
X-3195Y-61047D01*
X-1653Y-61171D01*
X-9245Y-52535D02*
X-10565Y-52230D01*
X-11877Y-51893D01*
X-13181Y-51524D01*
X-14475Y-51123D01*
X-15759Y-50691D01*
X-17032Y-50228D01*
X-18294Y-49734D01*
X-19543Y-49209D01*
X-20779Y-48654D01*
X-22001Y-48069D01*
X-23208Y-47454D01*
X-24400Y-46811D01*
X-25576Y-46138D01*
X-26736Y-45437D01*
X-27878Y-44708D01*
X-29001Y-43951D01*
X-30106Y-43167D01*
X-31192Y-42357D01*
X-32258Y-41520D01*
X-33302Y-40658D01*
X-34326Y-39770D01*
X-35328Y-38858D01*
X-36307Y-37921D01*
X-37263Y-36961D01*
X-38195Y-35978D01*
X-39103Y-34973D01*
X-39987Y-33946D01*
X-40845Y-32897D01*
X-41677Y-31828D01*
X-42483Y-30739D01*
X-43262Y-29631D01*
X-44014Y-28504D01*
X-44739Y-27359D01*
X-45435Y-26197D01*
X-46103Y-25018D01*
X-46742Y-23823D01*
X-47351Y-22613D01*
X-47931Y-21389D01*
X-48481Y-20151D01*
X-49000Y-18899D01*
X-49489Y-17636D01*
X-49947Y-16361D01*
X-50374Y-15075D01*
X-50770Y-13779D01*
X-51133Y-12474D01*
X-47766Y-15010D02*
X-47342Y-16232D01*
X-46888Y-17443D01*
X-46404Y-18643D01*
X-45892Y-19831D01*
X-45351Y-21006D01*
X-44781Y-22167D01*
X-44183Y-23314D01*
X-43558Y-24447D01*
X-42905Y-25563D01*
X-42225Y-26664D01*
X-41519Y-27748D01*
X-40786Y-28814D01*
X-40027Y-29862D01*
X-39244Y-30891D01*
X-38435Y-31901D01*
X-37602Y-32890D01*
X-36746Y-33860D01*
X-35865Y-34808D01*
X-34962Y-35734D01*
X-34037Y-36638D01*
X-33090Y-37520D01*
X-32122Y-38377D01*
X-31133Y-39212D01*
X-30125Y-40021D01*
X-29096Y-40806D01*
X-28049Y-41566D01*
X-26984Y-42300D01*
X-25902Y-43008D01*
X-24802Y-43689D01*
X-23686Y-44344D01*
X-22554Y-44971D01*
X-21408Y-45570D01*
X-20247Y-46141D01*
X-19073Y-46684D01*
X-17886Y-47198D01*
X-16686Y-47682D01*
X-15476Y-48138D01*
X-14254Y-48564D01*
X-13023Y-48960D01*
X-11782Y-49326D01*
X-14323Y-45896D02*
X-15459Y-45477D01*
X-16585Y-45031D01*
X-17699Y-44558D01*
X-18802Y-44059D01*
X-19893Y-43533D01*
X-20971Y-42982D01*
X-22035Y-42405D01*
X-23085Y-41802D01*
X-24121Y-41175D01*
X-25141Y-40523D01*
X-26146Y-39847D01*
X-27133Y-39147D01*
X-28104Y-38424D01*
X-29058Y-37677D01*
X-29993Y-36908D01*
X-30909Y-36117D01*
X-31807Y-35304D01*
X-32684Y-34470D01*
X-33542Y-33615D01*
X-34379Y-32740D01*
X-35194Y-31846D01*
X-35988Y-30931D01*
X-36760Y-29999D01*
X-37509Y-29048D01*
X-38236Y-28079D01*
X-38939Y-27093D01*
X-39618Y-26091D01*
X-40273Y-25073D01*
X-40903Y-24039D01*
X-41509Y-22991D01*
X-42089Y-21928D01*
X-42644Y-20852D01*
X-43173Y-19763D01*
X-43676Y-18661D01*
X-44152Y-17548D01*
X-40228Y-20090D02*
X-39682Y-21127D01*
X-39112Y-22149D01*
X-38517Y-23158D01*
X-37897Y-24151D01*
X-37254Y-25130D01*
X-36587Y-26092D01*
X-35896Y-27038D01*
X-35183Y-27967D01*
X-34447Y-28878D01*
X-33690Y-29771D01*
X-32911Y-30645D01*
X-32111Y-31500D01*
X-31290Y-32335D01*
X-30449Y-33150D01*
X-29589Y-33945D01*
X-28710Y-34718D01*
X-27812Y-35469D01*
X-26896Y-36199D01*
X-25962Y-36906D01*
X-25012Y-37590D01*
X-24045Y-38251D01*
X-23063Y-38888D01*
X-22065Y-39501D01*
X-21053Y-40089D01*
X-20026Y-40653D01*
X-18986Y-41191D01*
X-17934Y-41704D01*
X-16869Y-42192D01*
D11*
X-26500Y-25200D03*
X-53900Y-39800D03*
X-23000Y-33300D03*
X-45000Y50400D03*
X51100Y44900D03*
X52800Y-52400D03*
X-48500Y-46500D03*
D12*
X-53800Y-39900D02*
X-53800Y-31800D01*
X55700Y36400D02*
X58300Y39000D01*
X55700Y36400D02*
X55700Y29800D01*
X-33500Y-19000D02*
X-40700Y-19000D01*
X-29500Y-22200D02*
X-26500Y-25200D01*
X-29400Y-22200D02*
X-32500Y-19100D01*
X-35600Y-19100D01*
X30000Y23900D02*
X34900Y19000D01*
X41500Y19000D01*
X-18600Y33900D02*
X-22900Y29600D01*
X-18600Y33900D02*
X-18600Y41100D01*
X-38500Y49300D02*
X-43000Y44800D01*
X-43200Y44900D02*
X-49600Y44900D01*
X-43200Y44900D02*
X-41200Y46900D01*
X27100Y-59200D02*
X30100Y-62200D01*
X27100Y-59200D02*
X23100Y-59200D01*
X20300Y-33900D02*
X23900Y-30300D01*
X20300Y-33900D02*
X20300Y-40700D01*
D13*
X-65800Y-11300D03*
X-48200Y-61100D03*
X-59400Y34300D03*
X-48100Y57700D03*
X1200Y-67402D03*
X55500Y-62200D03*
X-25375Y-65407D03*
X-69600Y-53600D03*
X74900Y-46700D03*
X72700Y-51500D03*
X66500Y-55500D03*
X63100Y-67200D03*
X56800Y56500D03*
X53600Y64300D03*
X64100Y52100D03*
X74200Y45700D03*
X-70400Y48700D03*
X-48600Y66800D03*
X-73800Y73400D03*
X72900Y73900D03*
X72900Y60800D03*
X72400Y51300D03*
X74200Y31500D03*
X73600Y-59700D03*
X72100Y-67400D03*
X60000Y-72500D03*
X64400Y-60900D03*
X-74100Y-71000D03*
X73800Y-37900D03*
X-29600Y73800D03*
X30700Y72800D03*
X-24850Y66328D03*
X-65900Y35600D03*
X-58400Y-32600D03*
X-18900Y-65932D03*
X-19400Y64000D03*
X-74125Y-46325D03*
X-70967Y25567D03*
X-62579Y-22960D03*
X-45700Y-53900D03*
X-65200Y-17400D03*
X60127Y32327D03*
X65435Y-17838D03*
X26187Y-67487D03*
X27800Y61800D03*
M02*
