G04 EAGLE Gerber X2 export*
%TF.Part,Single*%
%TF.FileFunction,Copper,L4,Bot,Mixed*%
%TF.FilePolarity,Positive*%
%TF.GenerationSoftware,Autodesk,EAGLE,9.0.1*%
%TF.CreationDate,2018-12-20T19:56:33Z*%
G75*
%MOMM*%
%FSLAX34Y34*%
%LPD*%
%AMOC8*
5,1,8,0,0,1.08239X$1,22.5*%
G01*
%ADD10C,0.062500*%
%ADD11R,2.600000X2.600000*%
%ADD12R,0.700000X0.900000*%
%ADD13C,0.450000*%
%ADD14R,1.270000X2.540000*%
%ADD15R,0.280000X0.430000*%
%ADD16C,0.125000*%
%ADD17C,0.250000*%
%ADD18C,0.400000*%
%ADD19C,0.152400*%

G36*
X146589Y-147697D02*
X146589Y-147697D01*
X146714Y-147688D01*
X146745Y-147677D01*
X146777Y-147673D01*
X146894Y-147627D01*
X147013Y-147586D01*
X147040Y-147568D01*
X147070Y-147556D01*
X147171Y-147482D01*
X147277Y-147413D01*
X147298Y-147389D01*
X147324Y-147370D01*
X147404Y-147272D01*
X147488Y-147179D01*
X147503Y-147150D01*
X147524Y-147125D01*
X147577Y-147011D01*
X147635Y-146900D01*
X147639Y-146874D01*
X147656Y-146839D01*
X147712Y-146528D01*
X147709Y-146489D01*
X147713Y-146464D01*
X147713Y146464D01*
X147697Y146589D01*
X147688Y146714D01*
X147677Y146745D01*
X147673Y146777D01*
X147627Y146894D01*
X147586Y147013D01*
X147568Y147040D01*
X147556Y147070D01*
X147482Y147171D01*
X147413Y147277D01*
X147389Y147298D01*
X147370Y147324D01*
X147272Y147404D01*
X147179Y147488D01*
X147150Y147503D01*
X147125Y147524D01*
X147011Y147577D01*
X146900Y147635D01*
X146874Y147639D01*
X146839Y147656D01*
X146528Y147712D01*
X146489Y147709D01*
X146464Y147713D01*
X-146464Y147713D01*
X-146589Y147697D01*
X-146714Y147688D01*
X-146745Y147677D01*
X-146777Y147673D01*
X-146894Y147627D01*
X-147013Y147586D01*
X-147040Y147568D01*
X-147070Y147556D01*
X-147171Y147482D01*
X-147277Y147413D01*
X-147298Y147389D01*
X-147324Y147370D01*
X-147404Y147272D01*
X-147488Y147179D01*
X-147503Y147150D01*
X-147524Y147125D01*
X-147577Y147011D01*
X-147635Y146900D01*
X-147639Y146874D01*
X-147656Y146839D01*
X-147712Y146528D01*
X-147709Y146489D01*
X-147713Y146464D01*
X-147713Y-146464D01*
X-147697Y-146589D01*
X-147688Y-146714D01*
X-147677Y-146745D01*
X-147673Y-146777D01*
X-147627Y-146894D01*
X-147586Y-147013D01*
X-147568Y-147040D01*
X-147556Y-147070D01*
X-147482Y-147171D01*
X-147413Y-147277D01*
X-147389Y-147298D01*
X-147370Y-147324D01*
X-147272Y-147404D01*
X-147179Y-147488D01*
X-147150Y-147503D01*
X-147125Y-147524D01*
X-147011Y-147577D01*
X-146900Y-147635D01*
X-146874Y-147639D01*
X-146839Y-147656D01*
X-146528Y-147712D01*
X-146489Y-147709D01*
X-146464Y-147713D01*
X146464Y-147713D01*
X146589Y-147697D01*
G37*
%LPC*%
G36*
X-21983Y-83287D02*
X-21983Y-83287D01*
X-24787Y-80483D01*
X-24787Y-76517D01*
X-21983Y-73713D01*
X-18600Y-73713D01*
X-18475Y-73697D01*
X-18350Y-73688D01*
X-18319Y-73677D01*
X-18287Y-73673D01*
X-18170Y-73627D01*
X-18051Y-73586D01*
X-18024Y-73568D01*
X-17994Y-73556D01*
X-17893Y-73482D01*
X-17787Y-73413D01*
X-17766Y-73389D01*
X-17740Y-73370D01*
X-17660Y-73272D01*
X-17576Y-73179D01*
X-17561Y-73150D01*
X-17540Y-73125D01*
X-17487Y-73011D01*
X-17429Y-72900D01*
X-17425Y-72874D01*
X-17408Y-72839D01*
X-17352Y-72528D01*
X-17355Y-72489D01*
X-17351Y-72464D01*
X-17351Y-70682D01*
X-17367Y-70557D01*
X-17376Y-70432D01*
X-17387Y-70401D01*
X-17391Y-70369D01*
X-17437Y-70253D01*
X-17478Y-70133D01*
X-17496Y-70106D01*
X-17508Y-70076D01*
X-17582Y-69975D01*
X-17651Y-69870D01*
X-17675Y-69848D01*
X-17694Y-69822D01*
X-17792Y-69742D01*
X-17885Y-69658D01*
X-17914Y-69643D01*
X-17939Y-69622D01*
X-18053Y-69570D01*
X-18164Y-69511D01*
X-18190Y-69507D01*
X-18225Y-69491D01*
X-18536Y-69435D01*
X-18575Y-69438D01*
X-18600Y-69433D01*
X-20350Y-69433D01*
X-21517Y-68266D01*
X-21616Y-68190D01*
X-21712Y-68107D01*
X-21741Y-68093D01*
X-21766Y-68073D01*
X-21882Y-68024D01*
X-21995Y-67968D01*
X-22026Y-67962D01*
X-22056Y-67949D01*
X-22181Y-67930D01*
X-22304Y-67904D01*
X-22336Y-67906D01*
X-22368Y-67901D01*
X-22493Y-67914D01*
X-22619Y-67920D01*
X-22650Y-67929D01*
X-22682Y-67933D01*
X-22800Y-67976D01*
X-22920Y-68014D01*
X-22941Y-68029D01*
X-22978Y-68042D01*
X-23237Y-68222D01*
X-23262Y-68252D01*
X-23283Y-68266D01*
X-23925Y-68908D01*
X-25600Y-68908D01*
X-25725Y-68924D01*
X-25850Y-68933D01*
X-25881Y-68944D01*
X-25913Y-68948D01*
X-26030Y-68994D01*
X-26149Y-69035D01*
X-26176Y-69053D01*
X-26206Y-69065D01*
X-26307Y-69139D01*
X-26413Y-69208D01*
X-26434Y-69232D01*
X-26460Y-69251D01*
X-26540Y-69349D01*
X-26624Y-69442D01*
X-26639Y-69471D01*
X-26660Y-69496D01*
X-26713Y-69610D01*
X-26771Y-69722D01*
X-26775Y-69747D01*
X-26792Y-69782D01*
X-26848Y-70093D01*
X-26845Y-70132D01*
X-26849Y-70157D01*
X-26849Y-73522D01*
X-27728Y-74401D01*
X-41672Y-74401D01*
X-42551Y-73522D01*
X-42551Y-65100D01*
X-42567Y-64975D01*
X-42576Y-64850D01*
X-42587Y-64819D01*
X-42591Y-64787D01*
X-42637Y-64670D01*
X-42678Y-64551D01*
X-42696Y-64524D01*
X-42708Y-64494D01*
X-42782Y-64393D01*
X-42851Y-64287D01*
X-42875Y-64266D01*
X-42894Y-64240D01*
X-42992Y-64160D01*
X-43085Y-64076D01*
X-43114Y-64061D01*
X-43139Y-64040D01*
X-43253Y-63987D01*
X-43364Y-63929D01*
X-43390Y-63925D01*
X-43425Y-63908D01*
X-43736Y-63852D01*
X-43775Y-63855D01*
X-43800Y-63851D01*
X-45482Y-63851D01*
X-45591Y-63865D01*
X-45701Y-63870D01*
X-45748Y-63884D01*
X-45795Y-63891D01*
X-45898Y-63931D01*
X-46002Y-63964D01*
X-46033Y-63986D01*
X-46088Y-64008D01*
X-46343Y-64194D01*
X-46355Y-64209D01*
X-46366Y-64217D01*
X-46750Y-64601D01*
X-49650Y-64601D01*
X-49893Y-64358D01*
X-49995Y-64279D01*
X-50040Y-64238D01*
X-50055Y-64230D01*
X-50115Y-64182D01*
X-50129Y-64175D01*
X-50142Y-64165D01*
X-50272Y-64109D01*
X-50401Y-64050D01*
X-50417Y-64047D01*
X-50432Y-64040D01*
X-50573Y-64019D01*
X-50712Y-63994D01*
X-50728Y-63995D01*
X-50744Y-63993D01*
X-50885Y-64007D01*
X-51026Y-64018D01*
X-51042Y-64023D01*
X-51058Y-64024D01*
X-51190Y-64073D01*
X-51325Y-64119D01*
X-51339Y-64128D01*
X-51354Y-64134D01*
X-51470Y-64214D01*
X-51589Y-64293D01*
X-51600Y-64305D01*
X-51613Y-64314D01*
X-51705Y-64421D01*
X-51800Y-64526D01*
X-51808Y-64541D01*
X-51818Y-64553D01*
X-51881Y-64681D01*
X-51947Y-64806D01*
X-51949Y-64819D01*
X-51958Y-64836D01*
X-52022Y-65145D01*
X-52020Y-65178D01*
X-52024Y-65199D01*
X-52022Y-65222D01*
X-52025Y-65241D01*
X-52025Y-73101D01*
X-52129Y-73488D01*
X-52330Y-73836D01*
X-52614Y-74120D01*
X-52962Y-74321D01*
X-53349Y-74425D01*
X-57401Y-74425D01*
X-57401Y-61450D01*
X-57417Y-61325D01*
X-57426Y-61200D01*
X-57437Y-61169D01*
X-57441Y-61137D01*
X-57487Y-61020D01*
X-57528Y-60901D01*
X-57546Y-60874D01*
X-57558Y-60844D01*
X-57632Y-60743D01*
X-57701Y-60637D01*
X-57725Y-60616D01*
X-57744Y-60590D01*
X-57842Y-60510D01*
X-57935Y-60426D01*
X-57964Y-60411D01*
X-57989Y-60390D01*
X-58103Y-60338D01*
X-58215Y-60279D01*
X-58240Y-60275D01*
X-58275Y-60258D01*
X-58586Y-60203D01*
X-58625Y-60205D01*
X-58650Y-60201D01*
X-59901Y-60201D01*
X-59901Y-60199D01*
X-58650Y-60199D01*
X-58525Y-60183D01*
X-58400Y-60174D01*
X-58369Y-60163D01*
X-58337Y-60159D01*
X-58220Y-60113D01*
X-58101Y-60072D01*
X-58074Y-60054D01*
X-58044Y-60042D01*
X-57943Y-59968D01*
X-57837Y-59899D01*
X-57816Y-59875D01*
X-57790Y-59856D01*
X-57710Y-59758D01*
X-57626Y-59665D01*
X-57611Y-59636D01*
X-57590Y-59611D01*
X-57538Y-59497D01*
X-57479Y-59385D01*
X-57475Y-59360D01*
X-57458Y-59325D01*
X-57402Y-59014D01*
X-57405Y-58975D01*
X-57401Y-58950D01*
X-57401Y-45975D01*
X-56045Y-45975D01*
X-55905Y-45957D01*
X-55763Y-45943D01*
X-55748Y-45937D01*
X-55732Y-45935D01*
X-55600Y-45883D01*
X-55467Y-45834D01*
X-55454Y-45824D01*
X-55439Y-45818D01*
X-55324Y-45734D01*
X-55208Y-45654D01*
X-55198Y-45641D01*
X-55185Y-45632D01*
X-55095Y-45522D01*
X-55003Y-45414D01*
X-54995Y-45400D01*
X-54985Y-45387D01*
X-54926Y-45258D01*
X-54863Y-45131D01*
X-54860Y-45115D01*
X-54853Y-45101D01*
X-54828Y-44961D01*
X-54799Y-44822D01*
X-54800Y-44806D01*
X-54797Y-44790D01*
X-54808Y-44649D01*
X-54815Y-44507D01*
X-54820Y-44492D01*
X-54821Y-44476D01*
X-54867Y-44341D01*
X-54909Y-44206D01*
X-54917Y-44195D01*
X-54923Y-44177D01*
X-55096Y-43913D01*
X-55140Y-43873D01*
X-55162Y-43843D01*
X-57651Y-41354D01*
X-57651Y-38246D01*
X-55454Y-36049D01*
X-52346Y-36049D01*
X-50149Y-38246D01*
X-50149Y-41500D01*
X-50133Y-41625D01*
X-50124Y-41750D01*
X-50113Y-41781D01*
X-50109Y-41813D01*
X-50063Y-41930D01*
X-50022Y-42049D01*
X-50004Y-42076D01*
X-49992Y-42106D01*
X-49918Y-42207D01*
X-49849Y-42313D01*
X-49825Y-42334D01*
X-49806Y-42360D01*
X-49708Y-42440D01*
X-49615Y-42524D01*
X-49586Y-42539D01*
X-49561Y-42560D01*
X-49447Y-42613D01*
X-49336Y-42671D01*
X-49310Y-42675D01*
X-49275Y-42692D01*
X-48964Y-42748D01*
X-48925Y-42745D01*
X-48900Y-42749D01*
X-46946Y-42749D01*
X-45512Y-44184D01*
X-45413Y-44261D01*
X-45317Y-44343D01*
X-45288Y-44357D01*
X-45262Y-44377D01*
X-45147Y-44426D01*
X-45034Y-44482D01*
X-45002Y-44489D01*
X-44973Y-44501D01*
X-44848Y-44521D01*
X-44725Y-44546D01*
X-44693Y-44544D01*
X-44661Y-44549D01*
X-44535Y-44537D01*
X-44410Y-44530D01*
X-44379Y-44521D01*
X-44347Y-44517D01*
X-44229Y-44474D01*
X-44109Y-44436D01*
X-44087Y-44422D01*
X-44051Y-44408D01*
X-43792Y-44228D01*
X-43766Y-44199D01*
X-43745Y-44184D01*
X-42811Y-43249D01*
X-38573Y-43249D01*
X-38464Y-43235D01*
X-38354Y-43230D01*
X-38308Y-43216D01*
X-38260Y-43209D01*
X-38158Y-43169D01*
X-38053Y-43136D01*
X-38022Y-43114D01*
X-37967Y-43092D01*
X-37713Y-42906D01*
X-37700Y-42891D01*
X-37690Y-42883D01*
X-28392Y-33585D01*
X-27117Y-32310D01*
X-27049Y-32224D01*
X-26976Y-32142D01*
X-26953Y-32099D01*
X-26924Y-32061D01*
X-26880Y-31960D01*
X-26829Y-31863D01*
X-26822Y-31826D01*
X-26817Y-31812D01*
X-26088Y-31083D01*
X-26001Y-30971D01*
X-25911Y-30861D01*
X-25904Y-30847D01*
X-25895Y-30834D01*
X-25839Y-30704D01*
X-25779Y-30575D01*
X-25776Y-30559D01*
X-25770Y-30544D01*
X-25748Y-30403D01*
X-25723Y-30264D01*
X-25725Y-30248D01*
X-25722Y-30232D01*
X-25736Y-30091D01*
X-25747Y-29950D01*
X-25752Y-29934D01*
X-25754Y-29918D01*
X-25803Y-29786D01*
X-25849Y-29651D01*
X-25858Y-29637D01*
X-25863Y-29622D01*
X-25944Y-29506D01*
X-26022Y-29387D01*
X-26034Y-29376D01*
X-26043Y-29363D01*
X-26151Y-29271D01*
X-26256Y-29176D01*
X-26270Y-29168D01*
X-26283Y-29158D01*
X-26410Y-29095D01*
X-26536Y-29029D01*
X-26548Y-29027D01*
X-26566Y-29018D01*
X-26875Y-28954D01*
X-26934Y-28957D01*
X-26971Y-28951D01*
X-28054Y-28951D01*
X-30251Y-26754D01*
X-30251Y-23646D01*
X-28491Y-21886D01*
X-28404Y-21774D01*
X-28314Y-21664D01*
X-28307Y-21650D01*
X-28298Y-21637D01*
X-28242Y-21507D01*
X-28182Y-21378D01*
X-28179Y-21362D01*
X-28173Y-21347D01*
X-28152Y-21206D01*
X-28126Y-21067D01*
X-28128Y-21051D01*
X-28125Y-21035D01*
X-28140Y-20894D01*
X-28150Y-20753D01*
X-28155Y-20737D01*
X-28157Y-20721D01*
X-28206Y-20589D01*
X-28252Y-20454D01*
X-28261Y-20440D01*
X-28266Y-20425D01*
X-28347Y-20310D01*
X-28425Y-20190D01*
X-28437Y-20179D01*
X-28446Y-20166D01*
X-28553Y-20074D01*
X-28659Y-19979D01*
X-28673Y-19971D01*
X-28686Y-19961D01*
X-28813Y-19898D01*
X-28939Y-19832D01*
X-28952Y-19830D01*
X-28969Y-19821D01*
X-29278Y-19757D01*
X-29337Y-19760D01*
X-29374Y-19754D01*
X-30133Y-19754D01*
X-35961Y-13925D01*
X-35961Y-12682D01*
X-28718Y-5439D01*
X-27475Y-5439D01*
X-24456Y-8458D01*
X-24356Y-8535D01*
X-24261Y-8617D01*
X-24232Y-8632D01*
X-24206Y-8651D01*
X-24090Y-8701D01*
X-23977Y-8757D01*
X-23946Y-8763D01*
X-23916Y-8776D01*
X-23792Y-8795D01*
X-23668Y-8820D01*
X-23636Y-8819D01*
X-23604Y-8824D01*
X-23479Y-8811D01*
X-23353Y-8805D01*
X-23323Y-8795D01*
X-23290Y-8792D01*
X-23172Y-8748D01*
X-23052Y-8711D01*
X-23031Y-8696D01*
X-22995Y-8682D01*
X-22735Y-8502D01*
X-22710Y-8473D01*
X-22689Y-8458D01*
X-21484Y-7253D01*
X-19522Y-9215D01*
X-19422Y-9292D01*
X-19327Y-9374D01*
X-19298Y-9388D01*
X-19273Y-9408D01*
X-19157Y-9458D01*
X-19044Y-9513D01*
X-19012Y-9520D01*
X-18983Y-9533D01*
X-18858Y-9552D01*
X-18735Y-9577D01*
X-18703Y-9576D01*
X-18671Y-9580D01*
X-18545Y-9568D01*
X-18420Y-9562D01*
X-18389Y-9552D01*
X-18357Y-9549D01*
X-18239Y-9505D01*
X-18119Y-9467D01*
X-18097Y-9453D01*
X-18061Y-9439D01*
X-17802Y-9259D01*
X-17776Y-9230D01*
X-17755Y-9215D01*
X-17678Y-9115D01*
X-17596Y-9020D01*
X-17582Y-8991D01*
X-17562Y-8965D01*
X-17512Y-8849D01*
X-17457Y-8737D01*
X-17450Y-8705D01*
X-17437Y-8675D01*
X-17418Y-8551D01*
X-17393Y-8428D01*
X-17394Y-8395D01*
X-17390Y-8363D01*
X-17402Y-8238D01*
X-17408Y-8113D01*
X-17418Y-8082D01*
X-17421Y-8050D01*
X-17465Y-7931D01*
X-17503Y-7811D01*
X-17517Y-7790D01*
X-17531Y-7754D01*
X-17711Y-7495D01*
X-17740Y-7469D01*
X-17755Y-7448D01*
X-19717Y-5486D01*
X-18511Y-4280D01*
X-18449Y-4233D01*
X-18341Y-4158D01*
X-18323Y-4137D01*
X-18302Y-4121D01*
X-18221Y-4018D01*
X-18135Y-3919D01*
X-18123Y-3895D01*
X-18107Y-3873D01*
X-18054Y-3753D01*
X-17996Y-3635D01*
X-17990Y-3609D01*
X-17980Y-3585D01*
X-17959Y-3455D01*
X-17932Y-3327D01*
X-17933Y-3300D01*
X-17929Y-3273D01*
X-17941Y-3143D01*
X-17948Y-3011D01*
X-17956Y-2986D01*
X-17958Y-2959D01*
X-18003Y-2835D01*
X-18042Y-2710D01*
X-18054Y-2692D01*
X-18065Y-2662D01*
X-18243Y-2402D01*
X-18277Y-2371D01*
X-18294Y-2347D01*
X-19505Y-1136D01*
X-19706Y-788D01*
X-19809Y-401D01*
X-19809Y1D01*
X-19706Y388D01*
X-19505Y736D01*
X-18302Y1939D01*
X-18225Y2038D01*
X-18143Y2134D01*
X-18129Y2163D01*
X-18109Y2188D01*
X-18059Y2304D01*
X-18004Y2417D01*
X-17997Y2448D01*
X-17985Y2478D01*
X-17965Y2603D01*
X-17940Y2726D01*
X-17942Y2758D01*
X-17937Y2790D01*
X-17949Y2915D01*
X-17956Y3041D01*
X-17965Y3072D01*
X-17969Y3104D01*
X-18012Y3222D01*
X-18050Y3342D01*
X-18064Y3363D01*
X-18078Y3400D01*
X-18258Y3659D01*
X-18287Y3684D01*
X-18302Y3706D01*
X-20037Y5440D01*
X-20124Y5507D01*
X-20205Y5581D01*
X-20248Y5604D01*
X-20286Y5633D01*
X-20387Y5677D01*
X-20485Y5728D01*
X-20522Y5734D01*
X-20576Y5758D01*
X-20888Y5806D01*
X-20907Y5804D01*
X-20920Y5806D01*
X-33218Y5806D01*
X-33327Y5792D01*
X-33436Y5787D01*
X-33483Y5772D01*
X-33531Y5766D01*
X-33633Y5725D01*
X-33738Y5693D01*
X-33768Y5671D01*
X-33824Y5649D01*
X-34078Y5463D01*
X-34090Y5448D01*
X-34101Y5440D01*
X-35327Y4214D01*
X-35404Y4114D01*
X-35486Y4019D01*
X-35500Y3990D01*
X-35520Y3965D01*
X-35570Y3849D01*
X-35625Y3736D01*
X-35632Y3704D01*
X-35645Y3675D01*
X-35664Y3550D01*
X-35689Y3427D01*
X-35688Y3395D01*
X-35693Y3363D01*
X-35680Y3237D01*
X-35674Y3112D01*
X-35664Y3081D01*
X-35661Y3049D01*
X-35617Y2931D01*
X-35580Y2811D01*
X-35565Y2789D01*
X-35551Y2753D01*
X-35371Y2494D01*
X-35342Y2469D01*
X-35327Y2447D01*
X-34973Y2093D01*
X-38879Y-1813D01*
X-38957Y-1913D01*
X-39039Y-2008D01*
X-39053Y-2037D01*
X-39073Y-2063D01*
X-39122Y-2179D01*
X-39156Y-2247D01*
X-39223Y-2268D01*
X-39245Y-2283D01*
X-39281Y-2296D01*
X-39540Y-2476D01*
X-39566Y-2506D01*
X-39587Y-2521D01*
X-43493Y-6427D01*
X-43847Y-6073D01*
X-43947Y-5996D01*
X-44042Y-5914D01*
X-44071Y-5900D01*
X-44097Y-5880D01*
X-44213Y-5830D01*
X-44325Y-5775D01*
X-44357Y-5768D01*
X-44387Y-5755D01*
X-44511Y-5736D01*
X-44634Y-5711D01*
X-44667Y-5712D01*
X-44699Y-5707D01*
X-44824Y-5720D01*
X-44949Y-5726D01*
X-44980Y-5736D01*
X-45012Y-5739D01*
X-45131Y-5783D01*
X-45251Y-5820D01*
X-45272Y-5835D01*
X-45308Y-5849D01*
X-45567Y-6029D01*
X-45593Y-6058D01*
X-45614Y-6073D01*
X-51835Y-12294D01*
X-51902Y-12380D01*
X-51976Y-12462D01*
X-51998Y-12505D01*
X-52028Y-12543D01*
X-52071Y-12644D01*
X-52122Y-12741D01*
X-52129Y-12778D01*
X-52152Y-12833D01*
X-52200Y-13145D01*
X-52198Y-13164D01*
X-52201Y-13177D01*
X-52201Y-16007D01*
X-58712Y-22518D01*
X-58779Y-22605D01*
X-58853Y-22687D01*
X-58876Y-22729D01*
X-58905Y-22768D01*
X-58949Y-22869D01*
X-58999Y-22966D01*
X-59006Y-23003D01*
X-59030Y-23058D01*
X-59077Y-23369D01*
X-59076Y-23389D01*
X-59078Y-23402D01*
X-59078Y-24411D01*
X-61129Y-26461D01*
X-64029Y-26461D01*
X-66079Y-24411D01*
X-66079Y-21989D01*
X-66093Y-21880D01*
X-66099Y-21770D01*
X-66113Y-21724D01*
X-66119Y-21676D01*
X-66160Y-21574D01*
X-66193Y-21469D01*
X-66214Y-21438D01*
X-66236Y-21383D01*
X-66423Y-21129D01*
X-66438Y-21116D01*
X-66445Y-21106D01*
X-66708Y-20842D01*
X-66820Y-20756D01*
X-66930Y-20666D01*
X-66945Y-20659D01*
X-66958Y-20649D01*
X-67088Y-20593D01*
X-67217Y-20534D01*
X-67233Y-20531D01*
X-67248Y-20525D01*
X-67388Y-20503D01*
X-67528Y-20478D01*
X-67544Y-20479D01*
X-67560Y-20477D01*
X-67701Y-20491D01*
X-67842Y-20502D01*
X-67858Y-20507D01*
X-67874Y-20509D01*
X-68006Y-20557D01*
X-68141Y-20603D01*
X-68154Y-20612D01*
X-68169Y-20618D01*
X-68286Y-20699D01*
X-68404Y-20777D01*
X-68415Y-20789D01*
X-68429Y-20798D01*
X-68521Y-20905D01*
X-68616Y-21011D01*
X-68624Y-21025D01*
X-68634Y-21037D01*
X-68697Y-21164D01*
X-68763Y-21290D01*
X-68765Y-21303D01*
X-68773Y-21320D01*
X-68837Y-21629D01*
X-68834Y-21689D01*
X-68841Y-21726D01*
X-68841Y-44047D01*
X-70258Y-45465D01*
X-70326Y-45551D01*
X-70399Y-45633D01*
X-70422Y-45676D01*
X-70452Y-45714D01*
X-70495Y-45815D01*
X-70546Y-45912D01*
X-70553Y-45949D01*
X-70576Y-46004D01*
X-70624Y-46316D01*
X-70622Y-46335D01*
X-70624Y-46348D01*
X-70624Y-47775D01*
X-72675Y-49826D01*
X-75575Y-49826D01*
X-77626Y-47775D01*
X-77626Y-44875D01*
X-75575Y-42824D01*
X-74342Y-42824D01*
X-74217Y-42808D01*
X-74091Y-42799D01*
X-74061Y-42788D01*
X-74029Y-42784D01*
X-73912Y-42738D01*
X-73793Y-42697D01*
X-73766Y-42679D01*
X-73736Y-42667D01*
X-73634Y-42593D01*
X-73529Y-42524D01*
X-73507Y-42500D01*
X-73481Y-42481D01*
X-73402Y-42383D01*
X-73317Y-42290D01*
X-73302Y-42261D01*
X-73282Y-42236D01*
X-73229Y-42122D01*
X-73171Y-42011D01*
X-73166Y-41985D01*
X-73150Y-41950D01*
X-73094Y-41639D01*
X-73097Y-41605D01*
X-73094Y-41591D01*
X-73095Y-41586D01*
X-73093Y-41575D01*
X-73093Y-24178D01*
X-73110Y-24038D01*
X-73125Y-23896D01*
X-73130Y-23881D01*
X-73132Y-23865D01*
X-73185Y-23734D01*
X-73234Y-23600D01*
X-73243Y-23587D01*
X-73249Y-23572D01*
X-73333Y-23458D01*
X-73414Y-23341D01*
X-73426Y-23331D01*
X-73436Y-23318D01*
X-73546Y-23228D01*
X-73653Y-23135D01*
X-73668Y-23128D01*
X-73680Y-23118D01*
X-73810Y-23059D01*
X-73937Y-22996D01*
X-73952Y-22993D01*
X-73967Y-22986D01*
X-74107Y-22961D01*
X-74246Y-22932D01*
X-74262Y-22933D01*
X-74278Y-22930D01*
X-74419Y-22941D01*
X-74561Y-22948D01*
X-74576Y-22953D01*
X-74592Y-22954D01*
X-74727Y-23000D01*
X-74862Y-23042D01*
X-74873Y-23050D01*
X-74891Y-23056D01*
X-75154Y-23229D01*
X-75194Y-23273D01*
X-75225Y-23295D01*
X-76617Y-24687D01*
X-80583Y-24687D01*
X-83387Y-21883D01*
X-83387Y-17917D01*
X-81253Y-15783D01*
X-81176Y-15684D01*
X-81094Y-15588D01*
X-81079Y-15559D01*
X-81060Y-15534D01*
X-81010Y-15418D01*
X-80954Y-15305D01*
X-80948Y-15274D01*
X-80935Y-15244D01*
X-80916Y-15119D01*
X-80891Y-14996D01*
X-80892Y-14964D01*
X-80887Y-14932D01*
X-80900Y-14807D01*
X-80906Y-14681D01*
X-80916Y-14650D01*
X-80919Y-14618D01*
X-80963Y-14500D01*
X-81000Y-14380D01*
X-81015Y-14359D01*
X-81029Y-14322D01*
X-81209Y-14063D01*
X-81238Y-14038D01*
X-81253Y-14017D01*
X-83387Y-11883D01*
X-83387Y-7917D01*
X-81253Y-5783D01*
X-81176Y-5684D01*
X-81094Y-5588D01*
X-81079Y-5559D01*
X-81060Y-5534D01*
X-81010Y-5418D01*
X-80954Y-5305D01*
X-80948Y-5274D01*
X-80935Y-5244D01*
X-80916Y-5119D01*
X-80891Y-4996D01*
X-80892Y-4964D01*
X-80887Y-4932D01*
X-80900Y-4807D01*
X-80906Y-4681D01*
X-80916Y-4650D01*
X-80919Y-4618D01*
X-80963Y-4500D01*
X-81000Y-4380D01*
X-81015Y-4359D01*
X-81029Y-4322D01*
X-81209Y-4063D01*
X-81238Y-4038D01*
X-81253Y-4017D01*
X-83387Y-1883D01*
X-83387Y2083D01*
X-81253Y4217D01*
X-81176Y4316D01*
X-81094Y4412D01*
X-81079Y4441D01*
X-81060Y4466D01*
X-81010Y4582D01*
X-80954Y4695D01*
X-80948Y4726D01*
X-80935Y4756D01*
X-80916Y4881D01*
X-80891Y5004D01*
X-80892Y5036D01*
X-80887Y5068D01*
X-80900Y5193D01*
X-80906Y5319D01*
X-80916Y5350D01*
X-80919Y5382D01*
X-80963Y5500D01*
X-81000Y5620D01*
X-81015Y5641D01*
X-81029Y5678D01*
X-81209Y5937D01*
X-81238Y5962D01*
X-81253Y5983D01*
X-83387Y8117D01*
X-83387Y12083D01*
X-81253Y14217D01*
X-81176Y14316D01*
X-81094Y14412D01*
X-81079Y14441D01*
X-81060Y14466D01*
X-81010Y14582D01*
X-80954Y14695D01*
X-80948Y14726D01*
X-80935Y14756D01*
X-80916Y14881D01*
X-80891Y15004D01*
X-80892Y15036D01*
X-80887Y15068D01*
X-80900Y15193D01*
X-80906Y15319D01*
X-80916Y15350D01*
X-80919Y15382D01*
X-80963Y15500D01*
X-81000Y15620D01*
X-81015Y15641D01*
X-81029Y15678D01*
X-81209Y15937D01*
X-81238Y15962D01*
X-81253Y15983D01*
X-83387Y18117D01*
X-83387Y22083D01*
X-80583Y24887D01*
X-76617Y24887D01*
X-76600Y24870D01*
X-76488Y24783D01*
X-76378Y24693D01*
X-76363Y24686D01*
X-76351Y24676D01*
X-76221Y24621D01*
X-76092Y24561D01*
X-76076Y24558D01*
X-76061Y24552D01*
X-75921Y24530D01*
X-75781Y24505D01*
X-75765Y24507D01*
X-75749Y24504D01*
X-75608Y24518D01*
X-75466Y24529D01*
X-75451Y24534D01*
X-75435Y24536D01*
X-75302Y24585D01*
X-75168Y24631D01*
X-75154Y24640D01*
X-75139Y24645D01*
X-75023Y24726D01*
X-74904Y24804D01*
X-74893Y24816D01*
X-74880Y24825D01*
X-74788Y24932D01*
X-74692Y25038D01*
X-74685Y25052D01*
X-74674Y25065D01*
X-74612Y25192D01*
X-74546Y25317D01*
X-74544Y25330D01*
X-74535Y25348D01*
X-74471Y25657D01*
X-74474Y25716D01*
X-74468Y25753D01*
X-74468Y27017D01*
X-72417Y29068D01*
X-69517Y29068D01*
X-69353Y28904D01*
X-69254Y28827D01*
X-69158Y28745D01*
X-69129Y28730D01*
X-69104Y28711D01*
X-68988Y28661D01*
X-68875Y28605D01*
X-68843Y28599D01*
X-68814Y28586D01*
X-68689Y28567D01*
X-68566Y28542D01*
X-68534Y28543D01*
X-68502Y28538D01*
X-68377Y28551D01*
X-68251Y28557D01*
X-68220Y28567D01*
X-68188Y28570D01*
X-68070Y28614D01*
X-67950Y28651D01*
X-67928Y28666D01*
X-67892Y28679D01*
X-67633Y28860D01*
X-67607Y28889D01*
X-67586Y28904D01*
X-63267Y33223D01*
X-63199Y33310D01*
X-63126Y33392D01*
X-63103Y33435D01*
X-63073Y33473D01*
X-63030Y33574D01*
X-62979Y33671D01*
X-62972Y33708D01*
X-62949Y33763D01*
X-62901Y34075D01*
X-62903Y34094D01*
X-62901Y34107D01*
X-62901Y35750D01*
X-60850Y37801D01*
X-57950Y37801D01*
X-55899Y35750D01*
X-55899Y32850D01*
X-56483Y32266D01*
X-56551Y32179D01*
X-56624Y32097D01*
X-56638Y32072D01*
X-62683Y26026D01*
X-62751Y25940D01*
X-62824Y25858D01*
X-62847Y25815D01*
X-62877Y25777D01*
X-62920Y25676D01*
X-62971Y25579D01*
X-62978Y25542D01*
X-63001Y25487D01*
X-63049Y25175D01*
X-63047Y25156D01*
X-63049Y25143D01*
X-63049Y-8582D01*
X-63035Y-8692D01*
X-63030Y-8801D01*
X-63016Y-8847D01*
X-63009Y-8895D01*
X-62969Y-8998D01*
X-62936Y-9102D01*
X-62915Y-9133D01*
X-62892Y-9188D01*
X-62706Y-9443D01*
X-62691Y-9455D01*
X-62683Y-9466D01*
X-62361Y-9788D01*
X-62261Y-9865D01*
X-62166Y-9947D01*
X-62137Y-9961D01*
X-62112Y-9981D01*
X-61996Y-10031D01*
X-61883Y-10086D01*
X-61851Y-10093D01*
X-61822Y-10106D01*
X-61697Y-10125D01*
X-61574Y-10150D01*
X-61542Y-10149D01*
X-61510Y-10154D01*
X-61385Y-10141D01*
X-61259Y-10135D01*
X-61228Y-10125D01*
X-61196Y-10122D01*
X-61078Y-10078D01*
X-60958Y-10041D01*
X-60937Y-10026D01*
X-60900Y-10012D01*
X-60641Y-9832D01*
X-60616Y-9803D01*
X-60594Y-9788D01*
X-33746Y17061D01*
X-33627Y17076D01*
X-33486Y17090D01*
X-33470Y17096D01*
X-33454Y17098D01*
X-33323Y17150D01*
X-33190Y17200D01*
X-33176Y17209D01*
X-33161Y17215D01*
X-33047Y17299D01*
X-32931Y17380D01*
X-32920Y17392D01*
X-32907Y17401D01*
X-32817Y17512D01*
X-32725Y17619D01*
X-32718Y17633D01*
X-32708Y17646D01*
X-32648Y17775D01*
X-32586Y17902D01*
X-32582Y17918D01*
X-32576Y17932D01*
X-32551Y18072D01*
X-32522Y18211D01*
X-32523Y18227D01*
X-32520Y18243D01*
X-32530Y18384D01*
X-32537Y18526D01*
X-32542Y18542D01*
X-32543Y18558D01*
X-32589Y18692D01*
X-32631Y18827D01*
X-32639Y18838D01*
X-32645Y18856D01*
X-32819Y19120D01*
X-32863Y19160D01*
X-32884Y19191D01*
X-43690Y29996D01*
X-45301Y31607D01*
X-45301Y40779D01*
X-45319Y40919D01*
X-45333Y41061D01*
X-45339Y41076D01*
X-45341Y41092D01*
X-45393Y41223D01*
X-45442Y41357D01*
X-45452Y41370D01*
X-45458Y41385D01*
X-45541Y41499D01*
X-45622Y41616D01*
X-45635Y41626D01*
X-45644Y41639D01*
X-45754Y41729D01*
X-45862Y41821D01*
X-45876Y41829D01*
X-45889Y41839D01*
X-46018Y41898D01*
X-46145Y41961D01*
X-46161Y41964D01*
X-46175Y41971D01*
X-46315Y41996D01*
X-46454Y42025D01*
X-46470Y42024D01*
X-46486Y42027D01*
X-46627Y42016D01*
X-46769Y42009D01*
X-46784Y42004D01*
X-46800Y42003D01*
X-46935Y41957D01*
X-47070Y41915D01*
X-47081Y41907D01*
X-47099Y41901D01*
X-47363Y41728D01*
X-47403Y41684D01*
X-47433Y41662D01*
X-48046Y41049D01*
X-51182Y41049D01*
X-51216Y41079D01*
X-51249Y41096D01*
X-51279Y41118D01*
X-51390Y41166D01*
X-51498Y41220D01*
X-51535Y41228D01*
X-51569Y41243D01*
X-51688Y41261D01*
X-51806Y41287D01*
X-51844Y41285D01*
X-51881Y41291D01*
X-52001Y41279D01*
X-52121Y41274D01*
X-52149Y41264D01*
X-52195Y41259D01*
X-52491Y41150D01*
X-52517Y41131D01*
X-52538Y41124D01*
X-52962Y40879D01*
X-53349Y40775D01*
X-57401Y40775D01*
X-57401Y53750D01*
X-57417Y53875D01*
X-57426Y54000D01*
X-57437Y54031D01*
X-57441Y54063D01*
X-57487Y54180D01*
X-57528Y54299D01*
X-57546Y54326D01*
X-57558Y54356D01*
X-57632Y54457D01*
X-57701Y54563D01*
X-57725Y54584D01*
X-57744Y54610D01*
X-57842Y54690D01*
X-57935Y54774D01*
X-57964Y54789D01*
X-57989Y54810D01*
X-58103Y54862D01*
X-58215Y54921D01*
X-58240Y54925D01*
X-58275Y54942D01*
X-58586Y54997D01*
X-58625Y54995D01*
X-58650Y54999D01*
X-59901Y54999D01*
X-59901Y55001D01*
X-58650Y55001D01*
X-58525Y55017D01*
X-58400Y55026D01*
X-58369Y55037D01*
X-58337Y55041D01*
X-58220Y55087D01*
X-58101Y55128D01*
X-58074Y55146D01*
X-58044Y55158D01*
X-57943Y55232D01*
X-57837Y55301D01*
X-57816Y55325D01*
X-57790Y55344D01*
X-57710Y55442D01*
X-57626Y55535D01*
X-57611Y55564D01*
X-57590Y55589D01*
X-57538Y55703D01*
X-57479Y55815D01*
X-57475Y55840D01*
X-57458Y55875D01*
X-57402Y56186D01*
X-57405Y56225D01*
X-57401Y56250D01*
X-57401Y69225D01*
X-53349Y69225D01*
X-52962Y69121D01*
X-52614Y68920D01*
X-52330Y68636D01*
X-52129Y68288D01*
X-52025Y67901D01*
X-52025Y61741D01*
X-52007Y61601D01*
X-51993Y61460D01*
X-51987Y61444D01*
X-51985Y61428D01*
X-51933Y61297D01*
X-51884Y61164D01*
X-51874Y61151D01*
X-51868Y61135D01*
X-51784Y61021D01*
X-51704Y60905D01*
X-51691Y60894D01*
X-51682Y60881D01*
X-51572Y60791D01*
X-51464Y60699D01*
X-51450Y60692D01*
X-51437Y60682D01*
X-51308Y60622D01*
X-51181Y60560D01*
X-51166Y60557D01*
X-51151Y60550D01*
X-51011Y60525D01*
X-50872Y60496D01*
X-50856Y60497D01*
X-50840Y60494D01*
X-50699Y60505D01*
X-50557Y60512D01*
X-50542Y60516D01*
X-50526Y60518D01*
X-50391Y60563D01*
X-50256Y60606D01*
X-50245Y60613D01*
X-50227Y60619D01*
X-49963Y60793D01*
X-49923Y60837D01*
X-49893Y60858D01*
X-49550Y61201D01*
X-46650Y61201D01*
X-46266Y60817D01*
X-46179Y60749D01*
X-46097Y60676D01*
X-46055Y60653D01*
X-46016Y60623D01*
X-45915Y60580D01*
X-45818Y60529D01*
X-45781Y60522D01*
X-45726Y60499D01*
X-45415Y60451D01*
X-45395Y60453D01*
X-45382Y60451D01*
X-43800Y60451D01*
X-43675Y60467D01*
X-43550Y60476D01*
X-43519Y60487D01*
X-43487Y60491D01*
X-43370Y60537D01*
X-43251Y60578D01*
X-43224Y60596D01*
X-43194Y60608D01*
X-43093Y60682D01*
X-42987Y60751D01*
X-42966Y60775D01*
X-42940Y60794D01*
X-42860Y60892D01*
X-42776Y60985D01*
X-42761Y61014D01*
X-42740Y61039D01*
X-42687Y61153D01*
X-42629Y61264D01*
X-42625Y61290D01*
X-42608Y61325D01*
X-42552Y61636D01*
X-42555Y61675D01*
X-42551Y61700D01*
X-42551Y68322D01*
X-41672Y69201D01*
X-27728Y69201D01*
X-26849Y68322D01*
X-26849Y41678D01*
X-27728Y40799D01*
X-39800Y40799D01*
X-39925Y40783D01*
X-40050Y40774D01*
X-40081Y40763D01*
X-40113Y40759D01*
X-40230Y40713D01*
X-40349Y40672D01*
X-40376Y40654D01*
X-40406Y40642D01*
X-40507Y40568D01*
X-40613Y40499D01*
X-40634Y40475D01*
X-40660Y40456D01*
X-40740Y40358D01*
X-40824Y40265D01*
X-40839Y40236D01*
X-40860Y40211D01*
X-40913Y40097D01*
X-40971Y39986D01*
X-40975Y39960D01*
X-40992Y39925D01*
X-41048Y39614D01*
X-41045Y39575D01*
X-41049Y39550D01*
X-41049Y33886D01*
X-41035Y33777D01*
X-41030Y33667D01*
X-41016Y33621D01*
X-41009Y33573D01*
X-40969Y33471D01*
X-40936Y33366D01*
X-40915Y33335D01*
X-40892Y33280D01*
X-40706Y33025D01*
X-40691Y33013D01*
X-40683Y33002D01*
X-33626Y25945D01*
X-33526Y25868D01*
X-33431Y25786D01*
X-33402Y25772D01*
X-33377Y25752D01*
X-33261Y25702D01*
X-33148Y25647D01*
X-33116Y25640D01*
X-33087Y25627D01*
X-32962Y25608D01*
X-32839Y25583D01*
X-32807Y25584D01*
X-32775Y25580D01*
X-32649Y25592D01*
X-32524Y25598D01*
X-32493Y25608D01*
X-32461Y25611D01*
X-32343Y25655D01*
X-32223Y25693D01*
X-32201Y25707D01*
X-32165Y25721D01*
X-31906Y25901D01*
X-31881Y25930D01*
X-31859Y25945D01*
X-30054Y27751D01*
X-28200Y27751D01*
X-28075Y27767D01*
X-27950Y27776D01*
X-27919Y27787D01*
X-27887Y27791D01*
X-27770Y27837D01*
X-27651Y27878D01*
X-27624Y27896D01*
X-27594Y27908D01*
X-27493Y27982D01*
X-27387Y28051D01*
X-27366Y28075D01*
X-27340Y28094D01*
X-27260Y28192D01*
X-27176Y28285D01*
X-27161Y28314D01*
X-27140Y28339D01*
X-27087Y28453D01*
X-27029Y28564D01*
X-27025Y28590D01*
X-27008Y28625D01*
X-26952Y28936D01*
X-26955Y28975D01*
X-26951Y29000D01*
X-26951Y31154D01*
X-24754Y33351D01*
X-21646Y33351D01*
X-19449Y31154D01*
X-19449Y27965D01*
X-19487Y27878D01*
X-19546Y27750D01*
X-19549Y27734D01*
X-19555Y27719D01*
X-19577Y27578D01*
X-19602Y27439D01*
X-19600Y27423D01*
X-19603Y27407D01*
X-19589Y27266D01*
X-19578Y27125D01*
X-19573Y27109D01*
X-19571Y27093D01*
X-19522Y26960D01*
X-19476Y26826D01*
X-19467Y26812D01*
X-19462Y26797D01*
X-19381Y26681D01*
X-19303Y26562D01*
X-19291Y26552D01*
X-19282Y26538D01*
X-19174Y26446D01*
X-19069Y26351D01*
X-19055Y26343D01*
X-19042Y26333D01*
X-18915Y26270D01*
X-18789Y26204D01*
X-18777Y26202D01*
X-18759Y26193D01*
X-18450Y26129D01*
X-18391Y26132D01*
X-18354Y26126D01*
X-12613Y26126D01*
X-9768Y23281D01*
X-9681Y23214D01*
X-9599Y23140D01*
X-9557Y23117D01*
X-9518Y23088D01*
X-9417Y23044D01*
X-9320Y22993D01*
X-9283Y22987D01*
X-9228Y22963D01*
X-8917Y22915D01*
X-8898Y22917D01*
X-8885Y22915D01*
X-8518Y22915D01*
X-3805Y18202D01*
X-3706Y18125D01*
X-3611Y18043D01*
X-3582Y18029D01*
X-3556Y18009D01*
X-3440Y17959D01*
X-3327Y17904D01*
X-3296Y17897D01*
X-3266Y17885D01*
X-3141Y17865D01*
X-3018Y17840D01*
X-2986Y17842D01*
X-2954Y17837D01*
X-2829Y17849D01*
X-2703Y17856D01*
X-2672Y17865D01*
X-2640Y17869D01*
X-2522Y17912D01*
X-2402Y17950D01*
X-2381Y17964D01*
X-2344Y17978D01*
X-2085Y18158D01*
X-2060Y18187D01*
X-2039Y18202D01*
X-836Y19405D01*
X-488Y19606D01*
X-101Y19709D01*
X301Y19709D01*
X688Y19606D01*
X1036Y19405D01*
X2239Y18202D01*
X2338Y18125D01*
X2434Y18043D01*
X2463Y18029D01*
X2488Y18009D01*
X2604Y17959D01*
X2717Y17904D01*
X2748Y17897D01*
X2778Y17885D01*
X2903Y17865D01*
X3026Y17840D01*
X3058Y17842D01*
X3090Y17837D01*
X3215Y17849D01*
X3341Y17856D01*
X3372Y17865D01*
X3404Y17869D01*
X3522Y17912D01*
X3642Y17950D01*
X3663Y17964D01*
X3700Y17978D01*
X3959Y18158D01*
X3984Y18187D01*
X4005Y18202D01*
X8718Y22915D01*
X9085Y22915D01*
X9194Y22929D01*
X9303Y22934D01*
X9350Y22949D01*
X9397Y22955D01*
X9500Y22995D01*
X9605Y23028D01*
X9635Y23050D01*
X9691Y23072D01*
X9945Y23258D01*
X9957Y23273D01*
X9968Y23281D01*
X17513Y30826D01*
X21904Y30826D01*
X22013Y30840D01*
X22123Y30845D01*
X22169Y30859D01*
X22217Y30866D01*
X22319Y30906D01*
X22424Y30939D01*
X22455Y30961D01*
X22510Y30983D01*
X22764Y31169D01*
X22776Y31184D01*
X22787Y31192D01*
X24046Y32451D01*
X27154Y32451D01*
X29351Y30254D01*
X29351Y28900D01*
X29367Y28775D01*
X29376Y28650D01*
X29387Y28619D01*
X29391Y28587D01*
X29437Y28470D01*
X29478Y28351D01*
X29496Y28324D01*
X29508Y28294D01*
X29582Y28193D01*
X29651Y28087D01*
X29675Y28066D01*
X29694Y28040D01*
X29792Y27960D01*
X29885Y27876D01*
X29914Y27861D01*
X29939Y27840D01*
X30053Y27787D01*
X30164Y27729D01*
X30190Y27725D01*
X30225Y27708D01*
X30536Y27652D01*
X30575Y27655D01*
X30600Y27651D01*
X31654Y27651D01*
X33851Y25454D01*
X33851Y22346D01*
X31654Y20149D01*
X28546Y20149D01*
X26349Y22346D01*
X26349Y23700D01*
X26333Y23825D01*
X26324Y23950D01*
X26313Y23981D01*
X26309Y24013D01*
X26263Y24130D01*
X26222Y24249D01*
X26204Y24276D01*
X26192Y24306D01*
X26118Y24407D01*
X26049Y24513D01*
X26025Y24534D01*
X26006Y24560D01*
X25908Y24640D01*
X25815Y24724D01*
X25786Y24739D01*
X25761Y24760D01*
X25647Y24813D01*
X25536Y24871D01*
X25510Y24875D01*
X25475Y24892D01*
X25164Y24948D01*
X25125Y24945D01*
X25100Y24949D01*
X24046Y24949D01*
X22787Y26208D01*
X22701Y26276D01*
X22619Y26349D01*
X22576Y26372D01*
X22538Y26402D01*
X22437Y26445D01*
X22339Y26496D01*
X22303Y26503D01*
X22248Y26526D01*
X21936Y26574D01*
X21917Y26572D01*
X21904Y26574D01*
X19791Y26574D01*
X19682Y26560D01*
X19573Y26555D01*
X19526Y26541D01*
X19478Y26534D01*
X19376Y26494D01*
X19271Y26461D01*
X19241Y26439D01*
X19185Y26417D01*
X18931Y26231D01*
X18919Y26216D01*
X18908Y26208D01*
X13801Y21101D01*
X13724Y21001D01*
X13641Y20906D01*
X13627Y20877D01*
X13608Y20852D01*
X13558Y20735D01*
X13502Y20622D01*
X13496Y20591D01*
X13483Y20562D01*
X13464Y20437D01*
X13438Y20313D01*
X13440Y20282D01*
X13435Y20250D01*
X13448Y20124D01*
X13454Y19998D01*
X13464Y19968D01*
X13467Y19936D01*
X13511Y19817D01*
X13548Y19697D01*
X13563Y19676D01*
X13576Y19640D01*
X13756Y19381D01*
X13778Y19362D01*
X13787Y19354D01*
X13801Y19334D01*
X13844Y19291D01*
X13930Y19224D01*
X14012Y19151D01*
X14055Y19128D01*
X14093Y19098D01*
X14194Y19055D01*
X14291Y19004D01*
X14328Y18997D01*
X14383Y18974D01*
X14695Y18926D01*
X14714Y18928D01*
X14727Y18926D01*
X25652Y18926D01*
X27083Y17494D01*
X27170Y17427D01*
X27251Y17353D01*
X27294Y17331D01*
X27332Y17301D01*
X27434Y17258D01*
X27531Y17207D01*
X27568Y17200D01*
X27622Y17177D01*
X27934Y17129D01*
X27953Y17131D01*
X27966Y17129D01*
X41505Y17129D01*
X41614Y17142D01*
X41724Y17148D01*
X41770Y17162D01*
X41818Y17168D01*
X41920Y17209D01*
X42025Y17242D01*
X42056Y17263D01*
X42111Y17285D01*
X42365Y17472D01*
X42377Y17487D01*
X42388Y17494D01*
X54135Y29242D01*
X54222Y29354D01*
X54312Y29464D01*
X54319Y29478D01*
X54329Y29491D01*
X54385Y29622D01*
X54444Y29750D01*
X54447Y29766D01*
X54453Y29781D01*
X54475Y29922D01*
X54500Y30061D01*
X54498Y30077D01*
X54501Y30093D01*
X54487Y30234D01*
X54476Y30375D01*
X54471Y30391D01*
X54469Y30407D01*
X54420Y30540D01*
X54374Y30674D01*
X54365Y30688D01*
X54360Y30703D01*
X54279Y30819D01*
X54201Y30938D01*
X54189Y30949D01*
X54180Y30962D01*
X54073Y31054D01*
X53967Y31149D01*
X53953Y31157D01*
X53940Y31167D01*
X53813Y31230D01*
X53688Y31296D01*
X53675Y31298D01*
X53657Y31307D01*
X53348Y31371D01*
X53289Y31368D01*
X53252Y31374D01*
X52419Y31374D01*
X48974Y34819D01*
X48974Y39550D01*
X48958Y39675D01*
X48949Y39800D01*
X48938Y39831D01*
X48934Y39863D01*
X48888Y39980D01*
X48847Y40099D01*
X48829Y40126D01*
X48817Y40156D01*
X48743Y40257D01*
X48674Y40363D01*
X48650Y40384D01*
X48631Y40410D01*
X48533Y40490D01*
X48440Y40574D01*
X48411Y40589D01*
X48386Y40610D01*
X48272Y40663D01*
X48161Y40721D01*
X48135Y40725D01*
X48100Y40742D01*
X47789Y40798D01*
X47750Y40795D01*
X47725Y40799D01*
X33928Y40799D01*
X33049Y41678D01*
X33049Y59083D01*
X33031Y59223D01*
X33017Y59364D01*
X33011Y59380D01*
X33009Y59396D01*
X32957Y59527D01*
X32908Y59660D01*
X32898Y59674D01*
X32892Y59689D01*
X32809Y59803D01*
X32728Y59919D01*
X32715Y59930D01*
X32706Y59943D01*
X32596Y60033D01*
X32488Y60125D01*
X32474Y60132D01*
X32461Y60142D01*
X32332Y60202D01*
X32205Y60264D01*
X32189Y60267D01*
X32175Y60274D01*
X32035Y60299D01*
X31896Y60328D01*
X31880Y60327D01*
X31864Y60330D01*
X31723Y60319D01*
X31581Y60312D01*
X31566Y60308D01*
X31550Y60306D01*
X31415Y60261D01*
X31280Y60218D01*
X31269Y60211D01*
X31251Y60205D01*
X30987Y60031D01*
X30947Y59987D01*
X30917Y59966D01*
X29250Y58299D01*
X26350Y58299D01*
X25683Y58966D01*
X25571Y59053D01*
X25461Y59142D01*
X25447Y59149D01*
X25434Y59159D01*
X25304Y59215D01*
X25175Y59274D01*
X25159Y59277D01*
X25144Y59284D01*
X25003Y59305D01*
X24864Y59330D01*
X24848Y59329D01*
X24832Y59331D01*
X24691Y59317D01*
X24550Y59306D01*
X24534Y59301D01*
X24518Y59300D01*
X24386Y59251D01*
X24251Y59205D01*
X24237Y59196D01*
X24222Y59190D01*
X24106Y59110D01*
X23987Y59031D01*
X23976Y59019D01*
X23963Y59010D01*
X23871Y58903D01*
X23776Y58798D01*
X23768Y58783D01*
X23758Y58771D01*
X23695Y58643D01*
X23629Y58518D01*
X23627Y58505D01*
X23618Y58488D01*
X23554Y58179D01*
X23557Y58120D01*
X23551Y58083D01*
X23551Y41678D01*
X22672Y40799D01*
X8728Y40799D01*
X7849Y41678D01*
X7849Y68322D01*
X8728Y69201D01*
X22672Y69201D01*
X23551Y68322D01*
X23551Y65517D01*
X23569Y65377D01*
X23583Y65236D01*
X23589Y65220D01*
X23591Y65204D01*
X23643Y65073D01*
X23692Y64940D01*
X23702Y64926D01*
X23708Y64911D01*
X23791Y64797D01*
X23872Y64681D01*
X23885Y64670D01*
X23894Y64657D01*
X24004Y64568D01*
X24112Y64475D01*
X24126Y64468D01*
X24139Y64458D01*
X24268Y64398D01*
X24395Y64336D01*
X24411Y64333D01*
X24425Y64326D01*
X24565Y64301D01*
X24704Y64272D01*
X24720Y64273D01*
X24736Y64270D01*
X24877Y64281D01*
X25019Y64288D01*
X25034Y64292D01*
X25050Y64294D01*
X25185Y64339D01*
X25320Y64382D01*
X25331Y64389D01*
X25349Y64395D01*
X25613Y64569D01*
X25653Y64613D01*
X25683Y64634D01*
X26350Y65301D01*
X29250Y65301D01*
X30917Y63634D01*
X31029Y63547D01*
X31139Y63458D01*
X31153Y63451D01*
X31166Y63441D01*
X31296Y63385D01*
X31425Y63326D01*
X31441Y63323D01*
X31456Y63316D01*
X31597Y63295D01*
X31736Y63270D01*
X31752Y63271D01*
X31768Y63269D01*
X31909Y63283D01*
X32050Y63294D01*
X32066Y63299D01*
X32082Y63300D01*
X32214Y63349D01*
X32349Y63395D01*
X32363Y63404D01*
X32378Y63410D01*
X32493Y63490D01*
X32613Y63569D01*
X32624Y63581D01*
X32637Y63590D01*
X32729Y63697D01*
X32824Y63802D01*
X32832Y63817D01*
X32842Y63829D01*
X32905Y63956D01*
X32971Y64082D01*
X32973Y64095D01*
X32982Y64112D01*
X33046Y64421D01*
X33043Y64480D01*
X33049Y64517D01*
X33049Y68322D01*
X33928Y69201D01*
X47872Y69201D01*
X48751Y68322D01*
X48751Y52650D01*
X48767Y52525D01*
X48776Y52400D01*
X48787Y52369D01*
X48791Y52337D01*
X48837Y52220D01*
X48878Y52101D01*
X48896Y52074D01*
X48908Y52044D01*
X48982Y51943D01*
X49051Y51837D01*
X49075Y51816D01*
X49094Y51790D01*
X49192Y51710D01*
X49285Y51626D01*
X49314Y51611D01*
X49339Y51590D01*
X49453Y51537D01*
X49564Y51479D01*
X49590Y51475D01*
X49625Y51458D01*
X49936Y51402D01*
X49975Y51405D01*
X50000Y51401D01*
X55093Y51401D01*
X66526Y39968D01*
X66526Y-10338D01*
X66542Y-10463D01*
X66551Y-10588D01*
X66562Y-10619D01*
X66566Y-10651D01*
X66612Y-10768D01*
X66653Y-10887D01*
X66671Y-10914D01*
X66683Y-10944D01*
X66757Y-11045D01*
X66826Y-11151D01*
X66850Y-11172D01*
X66869Y-11198D01*
X66967Y-11278D01*
X67060Y-11362D01*
X67089Y-11377D01*
X67114Y-11398D01*
X67228Y-11450D01*
X67339Y-11509D01*
X67365Y-11513D01*
X67400Y-11530D01*
X67711Y-11586D01*
X67750Y-11583D01*
X67775Y-11587D01*
X68024Y-11587D01*
X71685Y-15249D01*
X71685Y-17029D01*
X71703Y-17169D01*
X71718Y-17311D01*
X71723Y-17326D01*
X71725Y-17342D01*
X71778Y-17474D01*
X71827Y-17607D01*
X71836Y-17620D01*
X71842Y-17635D01*
X71926Y-17750D01*
X72007Y-17866D01*
X72019Y-17876D01*
X72029Y-17889D01*
X72139Y-17979D01*
X72246Y-18072D01*
X72261Y-18079D01*
X72273Y-18089D01*
X72403Y-18148D01*
X72529Y-18211D01*
X72545Y-18214D01*
X72560Y-18221D01*
X72700Y-18246D01*
X72838Y-18275D01*
X72855Y-18274D01*
X72871Y-18277D01*
X73012Y-18266D01*
X73154Y-18259D01*
X73169Y-18254D01*
X73185Y-18253D01*
X73320Y-18207D01*
X73455Y-18165D01*
X73466Y-18157D01*
X73484Y-18151D01*
X73747Y-17978D01*
X73787Y-17934D01*
X73818Y-17912D01*
X75847Y-15883D01*
X75924Y-15784D01*
X76006Y-15688D01*
X76021Y-15659D01*
X76040Y-15634D01*
X76090Y-15518D01*
X76146Y-15405D01*
X76152Y-15374D01*
X76165Y-15344D01*
X76184Y-15219D01*
X76209Y-15096D01*
X76208Y-15064D01*
X76213Y-15032D01*
X76200Y-14907D01*
X76194Y-14781D01*
X76184Y-14750D01*
X76181Y-14718D01*
X76137Y-14600D01*
X76100Y-14480D01*
X76085Y-14459D01*
X76071Y-14422D01*
X75891Y-14163D01*
X75862Y-14138D01*
X75847Y-14117D01*
X73713Y-11983D01*
X73713Y-8017D01*
X75847Y-5883D01*
X75924Y-5784D01*
X76006Y-5688D01*
X76021Y-5659D01*
X76040Y-5634D01*
X76090Y-5519D01*
X76146Y-5405D01*
X76152Y-5374D01*
X76165Y-5344D01*
X76184Y-5219D01*
X76209Y-5096D01*
X76208Y-5064D01*
X76213Y-5032D01*
X76200Y-4907D01*
X76194Y-4781D01*
X76184Y-4750D01*
X76181Y-4718D01*
X76137Y-4600D01*
X76100Y-4480D01*
X76085Y-4459D01*
X76071Y-4422D01*
X75891Y-4163D01*
X75862Y-4138D01*
X75847Y-4117D01*
X73713Y-1983D01*
X73713Y1983D01*
X75847Y4117D01*
X75924Y4216D01*
X76006Y4312D01*
X76021Y4341D01*
X76040Y4366D01*
X76090Y4482D01*
X76146Y4595D01*
X76152Y4626D01*
X76165Y4656D01*
X76184Y4781D01*
X76209Y4904D01*
X76208Y4936D01*
X76213Y4968D01*
X76200Y5093D01*
X76194Y5219D01*
X76184Y5250D01*
X76181Y5282D01*
X76137Y5400D01*
X76100Y5520D01*
X76085Y5541D01*
X76071Y5578D01*
X75891Y5837D01*
X75862Y5862D01*
X75847Y5883D01*
X73713Y8017D01*
X73713Y11983D01*
X75847Y14117D01*
X75924Y14216D01*
X76006Y14312D01*
X76021Y14341D01*
X76040Y14366D01*
X76090Y14482D01*
X76146Y14595D01*
X76152Y14626D01*
X76165Y14656D01*
X76184Y14781D01*
X76209Y14904D01*
X76208Y14936D01*
X76213Y14968D01*
X76200Y15093D01*
X76194Y15219D01*
X76184Y15250D01*
X76181Y15282D01*
X76137Y15400D01*
X76100Y15520D01*
X76085Y15541D01*
X76071Y15578D01*
X75891Y15837D01*
X75862Y15862D01*
X75847Y15883D01*
X73713Y18017D01*
X73713Y21983D01*
X76517Y24787D01*
X80483Y24787D01*
X83287Y21983D01*
X83287Y18017D01*
X81153Y15883D01*
X81076Y15784D01*
X80994Y15688D01*
X80979Y15659D01*
X80960Y15634D01*
X80910Y15518D01*
X80854Y15405D01*
X80848Y15374D01*
X80835Y15344D01*
X80816Y15219D01*
X80791Y15096D01*
X80792Y15064D01*
X80787Y15032D01*
X80800Y14907D01*
X80806Y14781D01*
X80816Y14750D01*
X80819Y14718D01*
X80863Y14600D01*
X80900Y14480D01*
X80915Y14459D01*
X80929Y14422D01*
X81109Y14163D01*
X81138Y14138D01*
X81153Y14117D01*
X83287Y11983D01*
X83287Y8017D01*
X81153Y5883D01*
X81076Y5784D01*
X80994Y5688D01*
X80979Y5659D01*
X80960Y5634D01*
X80910Y5518D01*
X80854Y5405D01*
X80848Y5374D01*
X80835Y5344D01*
X80816Y5219D01*
X80791Y5096D01*
X80792Y5064D01*
X80787Y5032D01*
X80800Y4907D01*
X80806Y4781D01*
X80816Y4750D01*
X80819Y4718D01*
X80863Y4600D01*
X80900Y4480D01*
X80915Y4459D01*
X80929Y4422D01*
X81109Y4163D01*
X81138Y4138D01*
X81153Y4117D01*
X83287Y1983D01*
X83287Y-1983D01*
X81153Y-4117D01*
X81076Y-4216D01*
X80994Y-4312D01*
X80979Y-4341D01*
X80960Y-4366D01*
X80910Y-4482D01*
X80854Y-4595D01*
X80848Y-4626D01*
X80835Y-4656D01*
X80816Y-4781D01*
X80791Y-4904D01*
X80792Y-4936D01*
X80787Y-4968D01*
X80800Y-5093D01*
X80806Y-5219D01*
X80816Y-5250D01*
X80819Y-5282D01*
X80863Y-5400D01*
X80900Y-5520D01*
X80915Y-5541D01*
X80929Y-5578D01*
X81109Y-5837D01*
X81138Y-5862D01*
X81153Y-5883D01*
X83287Y-8017D01*
X83287Y-11983D01*
X81153Y-14117D01*
X81076Y-14216D01*
X80994Y-14312D01*
X80979Y-14341D01*
X80960Y-14366D01*
X80910Y-14482D01*
X80854Y-14595D01*
X80848Y-14626D01*
X80835Y-14656D01*
X80816Y-14781D01*
X80791Y-14904D01*
X80792Y-14936D01*
X80787Y-14968D01*
X80800Y-15093D01*
X80806Y-15219D01*
X80816Y-15250D01*
X80819Y-15282D01*
X80863Y-15400D01*
X80900Y-15520D01*
X80915Y-15541D01*
X80929Y-15578D01*
X81109Y-15837D01*
X81138Y-15862D01*
X81153Y-15883D01*
X83287Y-18017D01*
X83287Y-21983D01*
X80483Y-24787D01*
X76517Y-24787D01*
X73713Y-21983D01*
X73713Y-21415D01*
X73695Y-21275D01*
X73681Y-21134D01*
X73675Y-21118D01*
X73673Y-21102D01*
X73621Y-20971D01*
X73572Y-20838D01*
X73562Y-20824D01*
X73556Y-20809D01*
X73473Y-20695D01*
X73392Y-20579D01*
X73379Y-20568D01*
X73370Y-20555D01*
X73260Y-20465D01*
X73152Y-20373D01*
X73138Y-20366D01*
X73125Y-20356D01*
X72996Y-20296D01*
X72869Y-20234D01*
X72853Y-20230D01*
X72839Y-20224D01*
X72699Y-20199D01*
X72560Y-20170D01*
X72544Y-20171D01*
X72528Y-20168D01*
X72387Y-20178D01*
X72245Y-20185D01*
X72230Y-20190D01*
X72214Y-20191D01*
X72079Y-20237D01*
X71944Y-20279D01*
X71933Y-20287D01*
X71915Y-20293D01*
X71651Y-20467D01*
X71611Y-20511D01*
X71581Y-20532D01*
X69435Y-22678D01*
X67824Y-24289D01*
X66350Y-24289D01*
X66225Y-24305D01*
X66100Y-24314D01*
X66069Y-24325D01*
X66037Y-24329D01*
X65920Y-24375D01*
X65801Y-24416D01*
X65774Y-24434D01*
X65744Y-24446D01*
X65643Y-24520D01*
X65537Y-24589D01*
X65516Y-24613D01*
X65490Y-24632D01*
X65410Y-24730D01*
X65326Y-24823D01*
X65311Y-24852D01*
X65290Y-24877D01*
X65237Y-24991D01*
X65179Y-25103D01*
X65175Y-25128D01*
X65158Y-25163D01*
X65102Y-25474D01*
X65105Y-25513D01*
X65101Y-25538D01*
X65101Y-45322D01*
X64222Y-46201D01*
X63475Y-46201D01*
X63350Y-46217D01*
X63225Y-46226D01*
X63194Y-46237D01*
X63162Y-46241D01*
X63045Y-46287D01*
X62926Y-46328D01*
X62899Y-46346D01*
X62869Y-46358D01*
X62768Y-46432D01*
X62662Y-46501D01*
X62641Y-46525D01*
X62615Y-46544D01*
X62535Y-46642D01*
X62451Y-46735D01*
X62436Y-46764D01*
X62415Y-46789D01*
X62362Y-46903D01*
X62304Y-47014D01*
X62300Y-47040D01*
X62283Y-47075D01*
X62227Y-47386D01*
X62230Y-47425D01*
X62226Y-47450D01*
X62226Y-58481D01*
X59367Y-61340D01*
X59299Y-61426D01*
X59226Y-61508D01*
X59203Y-61551D01*
X59173Y-61589D01*
X59130Y-61690D01*
X59079Y-61787D01*
X59072Y-61824D01*
X59049Y-61879D01*
X59001Y-62191D01*
X59003Y-62210D01*
X59001Y-62223D01*
X59001Y-63650D01*
X56950Y-65701D01*
X54050Y-65701D01*
X51999Y-63650D01*
X51999Y-60750D01*
X54050Y-58699D01*
X55477Y-58699D01*
X55586Y-58685D01*
X55696Y-58680D01*
X55742Y-58666D01*
X55790Y-58659D01*
X55892Y-58619D01*
X55997Y-58586D01*
X56028Y-58564D01*
X56083Y-58542D01*
X56337Y-58356D01*
X56350Y-58341D01*
X56360Y-58333D01*
X57608Y-57085D01*
X57676Y-56999D01*
X57749Y-56917D01*
X57772Y-56874D01*
X57802Y-56836D01*
X57845Y-56735D01*
X57896Y-56638D01*
X57903Y-56601D01*
X57926Y-56546D01*
X57974Y-56234D01*
X57972Y-56215D01*
X57974Y-56202D01*
X57974Y-55546D01*
X57956Y-55406D01*
X57942Y-55264D01*
X57936Y-55249D01*
X57934Y-55233D01*
X57882Y-55102D01*
X57833Y-54968D01*
X57823Y-54955D01*
X57817Y-54940D01*
X57734Y-54826D01*
X57653Y-54709D01*
X57640Y-54699D01*
X57631Y-54686D01*
X57521Y-54596D01*
X57413Y-54504D01*
X57399Y-54496D01*
X57386Y-54486D01*
X57257Y-54427D01*
X57130Y-54364D01*
X57114Y-54361D01*
X57100Y-54354D01*
X56960Y-54329D01*
X56821Y-54300D01*
X56805Y-54301D01*
X56789Y-54298D01*
X56648Y-54309D01*
X56506Y-54316D01*
X56491Y-54321D01*
X56475Y-54322D01*
X56340Y-54368D01*
X56205Y-54410D01*
X56194Y-54418D01*
X56176Y-54424D01*
X55912Y-54597D01*
X55872Y-54641D01*
X55842Y-54663D01*
X54354Y-56151D01*
X51246Y-56151D01*
X50883Y-55788D01*
X50771Y-55701D01*
X50661Y-55611D01*
X50647Y-55604D01*
X50634Y-55595D01*
X50504Y-55539D01*
X50375Y-55479D01*
X50359Y-55476D01*
X50344Y-55470D01*
X50203Y-55448D01*
X50064Y-55423D01*
X50048Y-55425D01*
X50032Y-55422D01*
X49891Y-55436D01*
X49750Y-55447D01*
X49734Y-55452D01*
X49718Y-55454D01*
X49586Y-55503D01*
X49451Y-55549D01*
X49437Y-55558D01*
X49422Y-55563D01*
X49306Y-55644D01*
X49187Y-55722D01*
X49176Y-55734D01*
X49163Y-55743D01*
X49071Y-55851D01*
X48976Y-55956D01*
X48968Y-55970D01*
X48958Y-55983D01*
X48895Y-56110D01*
X48829Y-56236D01*
X48827Y-56248D01*
X48818Y-56266D01*
X48754Y-56575D01*
X48757Y-56634D01*
X48751Y-56671D01*
X48751Y-73522D01*
X47872Y-74401D01*
X33928Y-74401D01*
X33049Y-73522D01*
X33049Y-67200D01*
X33033Y-67075D01*
X33024Y-66950D01*
X33013Y-66919D01*
X33009Y-66887D01*
X32963Y-66770D01*
X32922Y-66651D01*
X32904Y-66624D01*
X32892Y-66594D01*
X32818Y-66493D01*
X32749Y-66387D01*
X32725Y-66366D01*
X32706Y-66340D01*
X32608Y-66260D01*
X32515Y-66176D01*
X32486Y-66161D01*
X32461Y-66140D01*
X32347Y-66087D01*
X32236Y-66029D01*
X32210Y-66025D01*
X32175Y-66008D01*
X31864Y-65952D01*
X31825Y-65955D01*
X31800Y-65951D01*
X30936Y-65951D01*
X30812Y-65967D01*
X30686Y-65976D01*
X30656Y-65987D01*
X30624Y-65991D01*
X30507Y-66037D01*
X30387Y-66078D01*
X30360Y-66096D01*
X30330Y-66108D01*
X30229Y-66182D01*
X30124Y-66251D01*
X30102Y-66275D01*
X30076Y-66294D01*
X29997Y-66392D01*
X29912Y-66485D01*
X29897Y-66514D01*
X29877Y-66539D01*
X29824Y-66653D01*
X29766Y-66764D01*
X29761Y-66790D01*
X29745Y-66825D01*
X29689Y-67136D01*
X29692Y-67175D01*
X29687Y-67200D01*
X29687Y-68937D01*
X27637Y-70987D01*
X24800Y-70987D01*
X24675Y-71003D01*
X24550Y-71013D01*
X24519Y-71023D01*
X24487Y-71027D01*
X24370Y-71074D01*
X24251Y-71114D01*
X24224Y-71132D01*
X24194Y-71144D01*
X24093Y-71218D01*
X23987Y-71288D01*
X23966Y-71312D01*
X23940Y-71331D01*
X23860Y-71428D01*
X23776Y-71522D01*
X23761Y-71550D01*
X23740Y-71575D01*
X23687Y-71690D01*
X23629Y-71801D01*
X23625Y-71826D01*
X23608Y-71862D01*
X23552Y-72172D01*
X23555Y-72211D01*
X23551Y-72236D01*
X23551Y-73523D01*
X23477Y-73618D01*
X23395Y-73713D01*
X23381Y-73742D01*
X23361Y-73767D01*
X23311Y-73883D01*
X23256Y-73996D01*
X23249Y-74028D01*
X23237Y-74057D01*
X23218Y-74182D01*
X23192Y-74305D01*
X23194Y-74337D01*
X23189Y-74369D01*
X23201Y-74495D01*
X23208Y-74620D01*
X23217Y-74651D01*
X23221Y-74683D01*
X23264Y-74801D01*
X23302Y-74921D01*
X23316Y-74943D01*
X23330Y-74979D01*
X23510Y-75238D01*
X23540Y-75264D01*
X23554Y-75285D01*
X24787Y-76517D01*
X24787Y-80483D01*
X21983Y-83287D01*
X18017Y-83287D01*
X15883Y-81153D01*
X15784Y-81076D01*
X15688Y-80994D01*
X15659Y-80979D01*
X15634Y-80960D01*
X15518Y-80910D01*
X15405Y-80854D01*
X15374Y-80848D01*
X15344Y-80835D01*
X15219Y-80816D01*
X15096Y-80791D01*
X15064Y-80792D01*
X15032Y-80787D01*
X14907Y-80800D01*
X14781Y-80806D01*
X14750Y-80816D01*
X14718Y-80819D01*
X14600Y-80863D01*
X14480Y-80900D01*
X14459Y-80915D01*
X14422Y-80929D01*
X14163Y-81109D01*
X14138Y-81138D01*
X14117Y-81153D01*
X11983Y-83287D01*
X8017Y-83287D01*
X5883Y-81153D01*
X5784Y-81076D01*
X5688Y-80994D01*
X5659Y-80979D01*
X5634Y-80960D01*
X5518Y-80910D01*
X5405Y-80854D01*
X5374Y-80848D01*
X5344Y-80835D01*
X5219Y-80816D01*
X5096Y-80791D01*
X5064Y-80792D01*
X5032Y-80787D01*
X4907Y-80800D01*
X4781Y-80806D01*
X4750Y-80816D01*
X4718Y-80819D01*
X4600Y-80863D01*
X4480Y-80900D01*
X4459Y-80915D01*
X4422Y-80929D01*
X4163Y-81109D01*
X4138Y-81138D01*
X4117Y-81153D01*
X1983Y-83287D01*
X-1983Y-83287D01*
X-4117Y-81153D01*
X-4216Y-81076D01*
X-4312Y-80994D01*
X-4341Y-80979D01*
X-4366Y-80960D01*
X-4482Y-80910D01*
X-4595Y-80854D01*
X-4626Y-80848D01*
X-4656Y-80835D01*
X-4781Y-80816D01*
X-4904Y-80791D01*
X-4936Y-80792D01*
X-4968Y-80787D01*
X-5093Y-80800D01*
X-5219Y-80806D01*
X-5250Y-80816D01*
X-5282Y-80819D01*
X-5400Y-80863D01*
X-5520Y-80900D01*
X-5541Y-80915D01*
X-5578Y-80929D01*
X-5837Y-81109D01*
X-5862Y-81138D01*
X-5883Y-81153D01*
X-8017Y-83287D01*
X-11983Y-83287D01*
X-14117Y-81153D01*
X-14216Y-81076D01*
X-14312Y-80994D01*
X-14341Y-80979D01*
X-14366Y-80960D01*
X-14482Y-80910D01*
X-14595Y-80854D01*
X-14626Y-80848D01*
X-14656Y-80835D01*
X-14781Y-80816D01*
X-14904Y-80791D01*
X-14936Y-80792D01*
X-14968Y-80787D01*
X-15093Y-80800D01*
X-15219Y-80806D01*
X-15250Y-80816D01*
X-15282Y-80819D01*
X-15400Y-80863D01*
X-15520Y-80900D01*
X-15541Y-80915D01*
X-15578Y-80929D01*
X-15837Y-81109D01*
X-15862Y-81138D01*
X-15883Y-81153D01*
X-18017Y-83287D01*
X-21983Y-83287D01*
G37*
%LPD*%
%LPC*%
G36*
X121561Y107713D02*
X121561Y107713D01*
X115208Y110345D01*
X110345Y115208D01*
X107713Y121561D01*
X107713Y128439D01*
X110345Y134792D01*
X115208Y139655D01*
X121561Y142287D01*
X128439Y142287D01*
X134792Y139655D01*
X139655Y134792D01*
X142287Y128439D01*
X142287Y121561D01*
X139655Y115208D01*
X134792Y110345D01*
X128439Y107713D01*
X121561Y107713D01*
G37*
%LPD*%
%LPC*%
G36*
X-128439Y107713D02*
X-128439Y107713D01*
X-134792Y110345D01*
X-139655Y115208D01*
X-142287Y121561D01*
X-142287Y128439D01*
X-139655Y134792D01*
X-134792Y139655D01*
X-128439Y142287D01*
X-121561Y142287D01*
X-115208Y139655D01*
X-110345Y134792D01*
X-107713Y128439D01*
X-107713Y121561D01*
X-110345Y115208D01*
X-115208Y110345D01*
X-121561Y107713D01*
X-128439Y107713D01*
G37*
%LPD*%
%LPC*%
G36*
X121561Y-142287D02*
X121561Y-142287D01*
X115208Y-139655D01*
X110345Y-134792D01*
X107713Y-128439D01*
X107713Y-121561D01*
X110345Y-115208D01*
X115208Y-110345D01*
X121561Y-107713D01*
X128439Y-107713D01*
X134792Y-110345D01*
X139655Y-115208D01*
X142287Y-121561D01*
X142287Y-128439D01*
X139655Y-134792D01*
X134792Y-139655D01*
X128439Y-142287D01*
X121561Y-142287D01*
G37*
%LPD*%
%LPC*%
G36*
X-128439Y-142287D02*
X-128439Y-142287D01*
X-134792Y-139655D01*
X-139655Y-134792D01*
X-142287Y-128439D01*
X-142287Y-121561D01*
X-139655Y-115208D01*
X-134792Y-110345D01*
X-128439Y-107713D01*
X-121561Y-107713D01*
X-115208Y-110345D01*
X-110345Y-115208D01*
X-107713Y-121561D01*
X-107713Y-128439D01*
X-110345Y-134792D01*
X-115208Y-139655D01*
X-121561Y-142287D01*
X-128439Y-142287D01*
G37*
%LPD*%
%LPC*%
G36*
X-16472Y40799D02*
X-16472Y40799D01*
X-17351Y41678D01*
X-17351Y58427D01*
X-17365Y58536D01*
X-17370Y58646D01*
X-17384Y58692D01*
X-17391Y58740D01*
X-17431Y58842D01*
X-17464Y58947D01*
X-17486Y58978D01*
X-17508Y59033D01*
X-17694Y59287D01*
X-17709Y59300D01*
X-17717Y59310D01*
X-18540Y60133D01*
X-18626Y60201D01*
X-18708Y60274D01*
X-18751Y60297D01*
X-18789Y60327D01*
X-18890Y60370D01*
X-18987Y60421D01*
X-19024Y60428D01*
X-19079Y60451D01*
X-19391Y60499D01*
X-19410Y60497D01*
X-19423Y60499D01*
X-20850Y60499D01*
X-22901Y62550D01*
X-22901Y65450D01*
X-20850Y67501D01*
X-18600Y67501D01*
X-18475Y67517D01*
X-18350Y67526D01*
X-18319Y67537D01*
X-18287Y67541D01*
X-18170Y67587D01*
X-18051Y67628D01*
X-18024Y67646D01*
X-17994Y67658D01*
X-17893Y67732D01*
X-17787Y67801D01*
X-17766Y67825D01*
X-17740Y67844D01*
X-17660Y67942D01*
X-17576Y68035D01*
X-17561Y68064D01*
X-17540Y68089D01*
X-17503Y68169D01*
X-16472Y69201D01*
X-2528Y69201D01*
X-1649Y68322D01*
X-1649Y41678D01*
X-2528Y40799D01*
X-16472Y40799D01*
G37*
%LPD*%
%LPC*%
G36*
X-21983Y93713D02*
X-21983Y93713D01*
X-24787Y96517D01*
X-24787Y100483D01*
X-21983Y103287D01*
X-18017Y103287D01*
X-15883Y101153D01*
X-15784Y101076D01*
X-15688Y100994D01*
X-15659Y100979D01*
X-15634Y100960D01*
X-15518Y100910D01*
X-15405Y100854D01*
X-15374Y100848D01*
X-15344Y100835D01*
X-15219Y100816D01*
X-15096Y100791D01*
X-15064Y100792D01*
X-15032Y100787D01*
X-14907Y100800D01*
X-14781Y100806D01*
X-14750Y100816D01*
X-14718Y100819D01*
X-14600Y100863D01*
X-14480Y100900D01*
X-14459Y100915D01*
X-14422Y100929D01*
X-14163Y101109D01*
X-14138Y101138D01*
X-14117Y101153D01*
X-11983Y103287D01*
X-8017Y103287D01*
X-5883Y101153D01*
X-5784Y101076D01*
X-5688Y100994D01*
X-5659Y100979D01*
X-5634Y100960D01*
X-5518Y100910D01*
X-5405Y100854D01*
X-5374Y100848D01*
X-5344Y100835D01*
X-5219Y100816D01*
X-5096Y100791D01*
X-5064Y100792D01*
X-5032Y100787D01*
X-4907Y100800D01*
X-4781Y100806D01*
X-4750Y100816D01*
X-4718Y100819D01*
X-4600Y100863D01*
X-4480Y100900D01*
X-4459Y100915D01*
X-4422Y100929D01*
X-4163Y101109D01*
X-4138Y101138D01*
X-4117Y101153D01*
X-1983Y103287D01*
X1983Y103287D01*
X4117Y101153D01*
X4216Y101076D01*
X4312Y100994D01*
X4341Y100979D01*
X4366Y100960D01*
X4482Y100910D01*
X4595Y100854D01*
X4626Y100848D01*
X4656Y100835D01*
X4781Y100816D01*
X4904Y100791D01*
X4936Y100792D01*
X4968Y100787D01*
X5093Y100800D01*
X5219Y100806D01*
X5250Y100816D01*
X5282Y100819D01*
X5400Y100863D01*
X5520Y100900D01*
X5541Y100915D01*
X5578Y100929D01*
X5837Y101109D01*
X5862Y101138D01*
X5883Y101153D01*
X8017Y103287D01*
X11983Y103287D01*
X14117Y101153D01*
X14216Y101076D01*
X14312Y100994D01*
X14341Y100979D01*
X14366Y100960D01*
X14482Y100910D01*
X14595Y100854D01*
X14626Y100848D01*
X14656Y100835D01*
X14781Y100816D01*
X14904Y100791D01*
X14936Y100792D01*
X14968Y100787D01*
X15093Y100800D01*
X15219Y100806D01*
X15250Y100816D01*
X15282Y100819D01*
X15400Y100863D01*
X15520Y100900D01*
X15541Y100915D01*
X15578Y100929D01*
X15837Y101109D01*
X15862Y101138D01*
X15883Y101153D01*
X18017Y103287D01*
X21983Y103287D01*
X24787Y100483D01*
X24787Y96517D01*
X21983Y93713D01*
X18017Y93713D01*
X15883Y95847D01*
X15784Y95924D01*
X15688Y96006D01*
X15659Y96021D01*
X15634Y96040D01*
X15518Y96090D01*
X15405Y96146D01*
X15374Y96152D01*
X15344Y96165D01*
X15219Y96184D01*
X15096Y96209D01*
X15064Y96208D01*
X15032Y96213D01*
X14907Y96200D01*
X14781Y96194D01*
X14750Y96184D01*
X14718Y96181D01*
X14600Y96137D01*
X14480Y96100D01*
X14459Y96085D01*
X14422Y96071D01*
X14163Y95891D01*
X14138Y95862D01*
X14117Y95847D01*
X11983Y93713D01*
X8017Y93713D01*
X5883Y95847D01*
X5784Y95924D01*
X5688Y96006D01*
X5659Y96021D01*
X5634Y96040D01*
X5518Y96090D01*
X5405Y96146D01*
X5374Y96152D01*
X5344Y96165D01*
X5219Y96184D01*
X5096Y96209D01*
X5064Y96208D01*
X5032Y96213D01*
X4907Y96200D01*
X4781Y96194D01*
X4750Y96184D01*
X4718Y96181D01*
X4600Y96137D01*
X4480Y96100D01*
X4459Y96085D01*
X4422Y96071D01*
X4163Y95891D01*
X4138Y95862D01*
X4117Y95847D01*
X1983Y93713D01*
X-1983Y93713D01*
X-4117Y95847D01*
X-4216Y95924D01*
X-4312Y96006D01*
X-4341Y96021D01*
X-4366Y96040D01*
X-4482Y96090D01*
X-4595Y96146D01*
X-4626Y96152D01*
X-4656Y96165D01*
X-4781Y96184D01*
X-4904Y96209D01*
X-4936Y96208D01*
X-4968Y96213D01*
X-5093Y96200D01*
X-5219Y96194D01*
X-5250Y96184D01*
X-5282Y96181D01*
X-5400Y96137D01*
X-5520Y96100D01*
X-5541Y96085D01*
X-5578Y96071D01*
X-5837Y95891D01*
X-5862Y95862D01*
X-5883Y95847D01*
X-8017Y93713D01*
X-11983Y93713D01*
X-14117Y95847D01*
X-14216Y95924D01*
X-14312Y96006D01*
X-14341Y96021D01*
X-14366Y96040D01*
X-14482Y96090D01*
X-14595Y96146D01*
X-14626Y96152D01*
X-14656Y96165D01*
X-14781Y96184D01*
X-14904Y96209D01*
X-14936Y96208D01*
X-14968Y96213D01*
X-15093Y96200D01*
X-15219Y96194D01*
X-15250Y96184D01*
X-15282Y96181D01*
X-15400Y96137D01*
X-15520Y96100D01*
X-15541Y96085D01*
X-15578Y96071D01*
X-15837Y95891D01*
X-15862Y95862D01*
X-15883Y95847D01*
X-18017Y93713D01*
X-21983Y93713D01*
G37*
%LPD*%
%LPC*%
G36*
X-21983Y73713D02*
X-21983Y73713D01*
X-24787Y76517D01*
X-24787Y80483D01*
X-21983Y83287D01*
X-18017Y83287D01*
X-15883Y81153D01*
X-15784Y81076D01*
X-15688Y80994D01*
X-15659Y80979D01*
X-15634Y80960D01*
X-15518Y80910D01*
X-15405Y80854D01*
X-15374Y80848D01*
X-15344Y80835D01*
X-15219Y80816D01*
X-15096Y80791D01*
X-15064Y80792D01*
X-15032Y80787D01*
X-14907Y80800D01*
X-14781Y80806D01*
X-14750Y80816D01*
X-14718Y80819D01*
X-14600Y80863D01*
X-14480Y80900D01*
X-14459Y80915D01*
X-14422Y80929D01*
X-14163Y81109D01*
X-14138Y81138D01*
X-14117Y81153D01*
X-11983Y83287D01*
X-8017Y83287D01*
X-5883Y81153D01*
X-5784Y81076D01*
X-5688Y80994D01*
X-5659Y80979D01*
X-5634Y80960D01*
X-5518Y80910D01*
X-5405Y80854D01*
X-5374Y80848D01*
X-5344Y80835D01*
X-5219Y80816D01*
X-5096Y80791D01*
X-5064Y80792D01*
X-5032Y80787D01*
X-4907Y80800D01*
X-4781Y80806D01*
X-4750Y80816D01*
X-4718Y80819D01*
X-4600Y80863D01*
X-4480Y80900D01*
X-4459Y80915D01*
X-4422Y80929D01*
X-4163Y81109D01*
X-4138Y81138D01*
X-4117Y81153D01*
X-1983Y83287D01*
X1983Y83287D01*
X4117Y81153D01*
X4216Y81076D01*
X4312Y80994D01*
X4341Y80979D01*
X4366Y80960D01*
X4482Y80910D01*
X4595Y80854D01*
X4626Y80848D01*
X4656Y80835D01*
X4781Y80816D01*
X4904Y80791D01*
X4936Y80792D01*
X4968Y80787D01*
X5093Y80800D01*
X5219Y80806D01*
X5250Y80816D01*
X5282Y80819D01*
X5400Y80863D01*
X5520Y80900D01*
X5541Y80915D01*
X5578Y80929D01*
X5837Y81109D01*
X5862Y81138D01*
X5883Y81153D01*
X8017Y83287D01*
X11983Y83287D01*
X14117Y81153D01*
X14216Y81076D01*
X14312Y80994D01*
X14341Y80979D01*
X14366Y80960D01*
X14482Y80910D01*
X14595Y80854D01*
X14626Y80848D01*
X14656Y80835D01*
X14781Y80816D01*
X14904Y80791D01*
X14936Y80792D01*
X14968Y80787D01*
X15093Y80800D01*
X15219Y80806D01*
X15250Y80816D01*
X15282Y80819D01*
X15400Y80863D01*
X15520Y80900D01*
X15541Y80915D01*
X15578Y80929D01*
X15837Y81109D01*
X15862Y81138D01*
X15883Y81153D01*
X18017Y83287D01*
X21983Y83287D01*
X24787Y80483D01*
X24787Y76517D01*
X21983Y73713D01*
X18017Y73713D01*
X15883Y75847D01*
X15784Y75924D01*
X15688Y76006D01*
X15659Y76021D01*
X15634Y76040D01*
X15518Y76090D01*
X15405Y76146D01*
X15374Y76152D01*
X15344Y76165D01*
X15219Y76184D01*
X15096Y76209D01*
X15064Y76208D01*
X15032Y76213D01*
X14907Y76200D01*
X14781Y76194D01*
X14750Y76184D01*
X14718Y76181D01*
X14600Y76137D01*
X14480Y76100D01*
X14459Y76085D01*
X14422Y76071D01*
X14163Y75891D01*
X14138Y75862D01*
X14117Y75847D01*
X11983Y73713D01*
X8017Y73713D01*
X5883Y75847D01*
X5784Y75924D01*
X5688Y76006D01*
X5659Y76021D01*
X5634Y76040D01*
X5518Y76090D01*
X5405Y76146D01*
X5374Y76152D01*
X5344Y76165D01*
X5219Y76184D01*
X5096Y76209D01*
X5064Y76208D01*
X5032Y76213D01*
X4907Y76200D01*
X4781Y76194D01*
X4750Y76184D01*
X4718Y76181D01*
X4600Y76137D01*
X4480Y76100D01*
X4459Y76085D01*
X4422Y76071D01*
X4163Y75891D01*
X4138Y75862D01*
X4117Y75847D01*
X1983Y73713D01*
X-1983Y73713D01*
X-4117Y75847D01*
X-4216Y75924D01*
X-4312Y76006D01*
X-4341Y76021D01*
X-4366Y76040D01*
X-4482Y76090D01*
X-4595Y76146D01*
X-4626Y76152D01*
X-4656Y76165D01*
X-4781Y76184D01*
X-4904Y76209D01*
X-4936Y76208D01*
X-4968Y76213D01*
X-5093Y76200D01*
X-5219Y76194D01*
X-5250Y76184D01*
X-5282Y76181D01*
X-5400Y76137D01*
X-5520Y76100D01*
X-5541Y76085D01*
X-5578Y76071D01*
X-5837Y75891D01*
X-5862Y75862D01*
X-5883Y75847D01*
X-8017Y73713D01*
X-11983Y73713D01*
X-14117Y75847D01*
X-14216Y75924D01*
X-14312Y76006D01*
X-14341Y76021D01*
X-14366Y76040D01*
X-14482Y76090D01*
X-14595Y76146D01*
X-14626Y76152D01*
X-14656Y76165D01*
X-14781Y76184D01*
X-14904Y76209D01*
X-14936Y76208D01*
X-14968Y76213D01*
X-15093Y76200D01*
X-15219Y76194D01*
X-15250Y76184D01*
X-15282Y76181D01*
X-15400Y76137D01*
X-15520Y76100D01*
X-15541Y76085D01*
X-15578Y76071D01*
X-15837Y75891D01*
X-15862Y75862D01*
X-15883Y75847D01*
X-18017Y73713D01*
X-21983Y73713D01*
G37*
%LPD*%
%LPC*%
G36*
X-100583Y-24687D02*
X-100583Y-24687D01*
X-103387Y-21883D01*
X-103387Y-17917D01*
X-101253Y-15783D01*
X-101176Y-15684D01*
X-101094Y-15588D01*
X-101079Y-15559D01*
X-101060Y-15534D01*
X-101010Y-15418D01*
X-100954Y-15305D01*
X-100948Y-15274D01*
X-100935Y-15244D01*
X-100916Y-15119D01*
X-100891Y-14996D01*
X-100892Y-14964D01*
X-100887Y-14932D01*
X-100900Y-14807D01*
X-100906Y-14681D01*
X-100916Y-14650D01*
X-100919Y-14618D01*
X-100963Y-14500D01*
X-101000Y-14380D01*
X-101015Y-14359D01*
X-101029Y-14322D01*
X-101209Y-14063D01*
X-101238Y-14038D01*
X-101253Y-14017D01*
X-103387Y-11883D01*
X-103387Y-7917D01*
X-101253Y-5783D01*
X-101176Y-5684D01*
X-101094Y-5588D01*
X-101079Y-5559D01*
X-101060Y-5534D01*
X-101010Y-5418D01*
X-100954Y-5305D01*
X-100948Y-5274D01*
X-100935Y-5244D01*
X-100916Y-5119D01*
X-100891Y-4996D01*
X-100892Y-4964D01*
X-100887Y-4932D01*
X-100900Y-4807D01*
X-100906Y-4681D01*
X-100916Y-4650D01*
X-100919Y-4618D01*
X-100963Y-4500D01*
X-101000Y-4380D01*
X-101015Y-4359D01*
X-101029Y-4322D01*
X-101209Y-4063D01*
X-101238Y-4038D01*
X-101253Y-4017D01*
X-103387Y-1883D01*
X-103387Y2083D01*
X-101253Y4217D01*
X-101176Y4316D01*
X-101094Y4412D01*
X-101079Y4441D01*
X-101060Y4466D01*
X-101010Y4582D01*
X-100954Y4695D01*
X-100948Y4726D01*
X-100935Y4756D01*
X-100916Y4881D01*
X-100891Y5004D01*
X-100892Y5036D01*
X-100887Y5068D01*
X-100900Y5193D01*
X-100906Y5319D01*
X-100916Y5350D01*
X-100919Y5382D01*
X-100963Y5500D01*
X-101000Y5620D01*
X-101015Y5641D01*
X-101029Y5678D01*
X-101209Y5937D01*
X-101238Y5962D01*
X-101253Y5983D01*
X-103387Y8117D01*
X-103387Y12083D01*
X-101253Y14217D01*
X-101176Y14316D01*
X-101094Y14412D01*
X-101079Y14441D01*
X-101060Y14466D01*
X-101010Y14582D01*
X-100954Y14695D01*
X-100948Y14726D01*
X-100935Y14756D01*
X-100916Y14881D01*
X-100891Y15004D01*
X-100892Y15036D01*
X-100887Y15068D01*
X-100900Y15193D01*
X-100906Y15319D01*
X-100916Y15350D01*
X-100919Y15382D01*
X-100963Y15500D01*
X-101000Y15620D01*
X-101015Y15641D01*
X-101029Y15678D01*
X-101209Y15937D01*
X-101238Y15962D01*
X-101253Y15983D01*
X-103387Y18117D01*
X-103387Y22083D01*
X-100583Y24887D01*
X-96617Y24887D01*
X-93813Y22083D01*
X-93813Y18117D01*
X-95947Y15983D01*
X-96024Y15884D01*
X-96106Y15788D01*
X-96121Y15759D01*
X-96140Y15734D01*
X-96190Y15618D01*
X-96246Y15505D01*
X-96252Y15474D01*
X-96265Y15444D01*
X-96284Y15319D01*
X-96309Y15196D01*
X-96308Y15164D01*
X-96313Y15132D01*
X-96300Y15007D01*
X-96294Y14881D01*
X-96284Y14850D01*
X-96281Y14818D01*
X-96237Y14700D01*
X-96200Y14580D01*
X-96185Y14559D01*
X-96171Y14522D01*
X-95991Y14263D01*
X-95962Y14238D01*
X-95947Y14217D01*
X-93813Y12083D01*
X-93813Y8117D01*
X-95947Y5983D01*
X-96024Y5884D01*
X-96106Y5788D01*
X-96121Y5759D01*
X-96140Y5734D01*
X-96190Y5618D01*
X-96246Y5505D01*
X-96252Y5474D01*
X-96265Y5444D01*
X-96284Y5319D01*
X-96309Y5196D01*
X-96308Y5164D01*
X-96313Y5132D01*
X-96300Y5007D01*
X-96294Y4881D01*
X-96284Y4850D01*
X-96281Y4818D01*
X-96237Y4700D01*
X-96200Y4580D01*
X-96185Y4559D01*
X-96171Y4522D01*
X-95991Y4263D01*
X-95962Y4238D01*
X-95947Y4217D01*
X-93813Y2083D01*
X-93813Y-1883D01*
X-95947Y-4017D01*
X-96024Y-4116D01*
X-96106Y-4212D01*
X-96121Y-4241D01*
X-96140Y-4266D01*
X-96190Y-4382D01*
X-96246Y-4495D01*
X-96252Y-4526D01*
X-96265Y-4556D01*
X-96284Y-4681D01*
X-96309Y-4804D01*
X-96308Y-4836D01*
X-96313Y-4868D01*
X-96300Y-4993D01*
X-96294Y-5119D01*
X-96284Y-5150D01*
X-96281Y-5182D01*
X-96237Y-5300D01*
X-96200Y-5420D01*
X-96185Y-5441D01*
X-96171Y-5478D01*
X-95991Y-5737D01*
X-95962Y-5762D01*
X-95947Y-5783D01*
X-93813Y-7917D01*
X-93813Y-11883D01*
X-95947Y-14017D01*
X-96024Y-14116D01*
X-96106Y-14212D01*
X-96121Y-14241D01*
X-96140Y-14266D01*
X-96190Y-14382D01*
X-96246Y-14495D01*
X-96252Y-14526D01*
X-96265Y-14556D01*
X-96284Y-14681D01*
X-96309Y-14804D01*
X-96308Y-14836D01*
X-96313Y-14868D01*
X-96300Y-14993D01*
X-96294Y-15119D01*
X-96284Y-15150D01*
X-96281Y-15182D01*
X-96237Y-15300D01*
X-96200Y-15420D01*
X-96185Y-15441D01*
X-96171Y-15478D01*
X-95991Y-15737D01*
X-95962Y-15762D01*
X-95947Y-15783D01*
X-93813Y-17917D01*
X-93813Y-21883D01*
X-96617Y-24687D01*
X-100583Y-24687D01*
G37*
%LPD*%
%LPC*%
G36*
X-21983Y-103287D02*
X-21983Y-103287D01*
X-24787Y-100483D01*
X-24787Y-96517D01*
X-21983Y-93713D01*
X-18017Y-93713D01*
X-15883Y-95847D01*
X-15784Y-95924D01*
X-15688Y-96006D01*
X-15659Y-96021D01*
X-15634Y-96040D01*
X-15518Y-96090D01*
X-15405Y-96146D01*
X-15374Y-96152D01*
X-15344Y-96165D01*
X-15219Y-96184D01*
X-15096Y-96209D01*
X-15064Y-96208D01*
X-15032Y-96213D01*
X-14907Y-96200D01*
X-14781Y-96194D01*
X-14750Y-96184D01*
X-14718Y-96181D01*
X-14600Y-96137D01*
X-14480Y-96100D01*
X-14459Y-96085D01*
X-14422Y-96071D01*
X-14163Y-95891D01*
X-14138Y-95862D01*
X-14117Y-95847D01*
X-11983Y-93713D01*
X-8017Y-93713D01*
X-5883Y-95847D01*
X-5784Y-95924D01*
X-5688Y-96006D01*
X-5659Y-96021D01*
X-5634Y-96040D01*
X-5518Y-96090D01*
X-5405Y-96146D01*
X-5374Y-96152D01*
X-5344Y-96165D01*
X-5219Y-96184D01*
X-5096Y-96209D01*
X-5064Y-96208D01*
X-5032Y-96213D01*
X-4907Y-96200D01*
X-4781Y-96194D01*
X-4750Y-96184D01*
X-4718Y-96181D01*
X-4600Y-96137D01*
X-4480Y-96100D01*
X-4459Y-96085D01*
X-4422Y-96071D01*
X-4163Y-95891D01*
X-4138Y-95862D01*
X-4117Y-95847D01*
X-1983Y-93713D01*
X1983Y-93713D01*
X4117Y-95847D01*
X4216Y-95924D01*
X4312Y-96006D01*
X4341Y-96021D01*
X4366Y-96040D01*
X4482Y-96090D01*
X4595Y-96146D01*
X4626Y-96152D01*
X4656Y-96165D01*
X4781Y-96184D01*
X4904Y-96209D01*
X4936Y-96208D01*
X4968Y-96213D01*
X5093Y-96200D01*
X5219Y-96194D01*
X5250Y-96184D01*
X5282Y-96181D01*
X5400Y-96137D01*
X5520Y-96100D01*
X5541Y-96085D01*
X5578Y-96071D01*
X5837Y-95891D01*
X5862Y-95862D01*
X5883Y-95847D01*
X8017Y-93713D01*
X11983Y-93713D01*
X14117Y-95847D01*
X14216Y-95924D01*
X14312Y-96006D01*
X14341Y-96021D01*
X14366Y-96040D01*
X14482Y-96090D01*
X14595Y-96146D01*
X14626Y-96152D01*
X14656Y-96165D01*
X14781Y-96184D01*
X14904Y-96209D01*
X14936Y-96208D01*
X14968Y-96213D01*
X15093Y-96200D01*
X15219Y-96194D01*
X15250Y-96184D01*
X15282Y-96181D01*
X15400Y-96137D01*
X15520Y-96100D01*
X15541Y-96085D01*
X15578Y-96071D01*
X15837Y-95891D01*
X15862Y-95862D01*
X15883Y-95847D01*
X18017Y-93713D01*
X21983Y-93713D01*
X24787Y-96517D01*
X24787Y-100483D01*
X21983Y-103287D01*
X18017Y-103287D01*
X15883Y-101153D01*
X15784Y-101076D01*
X15688Y-100994D01*
X15659Y-100979D01*
X15634Y-100960D01*
X15518Y-100910D01*
X15405Y-100854D01*
X15374Y-100848D01*
X15344Y-100835D01*
X15219Y-100816D01*
X15096Y-100791D01*
X15064Y-100792D01*
X15032Y-100787D01*
X14907Y-100800D01*
X14781Y-100806D01*
X14750Y-100816D01*
X14718Y-100819D01*
X14600Y-100863D01*
X14480Y-100900D01*
X14459Y-100915D01*
X14422Y-100929D01*
X14163Y-101109D01*
X14138Y-101138D01*
X14117Y-101153D01*
X11983Y-103287D01*
X8017Y-103287D01*
X5883Y-101153D01*
X5784Y-101076D01*
X5688Y-100994D01*
X5659Y-100979D01*
X5634Y-100960D01*
X5518Y-100910D01*
X5405Y-100854D01*
X5374Y-100848D01*
X5344Y-100835D01*
X5219Y-100816D01*
X5096Y-100791D01*
X5064Y-100792D01*
X5032Y-100787D01*
X4907Y-100800D01*
X4781Y-100806D01*
X4750Y-100816D01*
X4718Y-100819D01*
X4600Y-100863D01*
X4480Y-100900D01*
X4459Y-100915D01*
X4422Y-100929D01*
X4163Y-101109D01*
X4138Y-101138D01*
X4117Y-101153D01*
X1983Y-103287D01*
X-1983Y-103287D01*
X-4117Y-101153D01*
X-4216Y-101076D01*
X-4312Y-100994D01*
X-4341Y-100979D01*
X-4366Y-100960D01*
X-4482Y-100910D01*
X-4595Y-100854D01*
X-4626Y-100848D01*
X-4656Y-100835D01*
X-4781Y-100816D01*
X-4904Y-100791D01*
X-4936Y-100792D01*
X-4968Y-100787D01*
X-5093Y-100800D01*
X-5219Y-100806D01*
X-5250Y-100816D01*
X-5282Y-100819D01*
X-5400Y-100863D01*
X-5520Y-100900D01*
X-5541Y-100915D01*
X-5578Y-100929D01*
X-5837Y-101109D01*
X-5862Y-101138D01*
X-5883Y-101153D01*
X-8017Y-103287D01*
X-11983Y-103287D01*
X-14117Y-101153D01*
X-14216Y-101076D01*
X-14312Y-100994D01*
X-14341Y-100979D01*
X-14366Y-100960D01*
X-14482Y-100910D01*
X-14595Y-100854D01*
X-14626Y-100848D01*
X-14656Y-100835D01*
X-14781Y-100816D01*
X-14904Y-100791D01*
X-14936Y-100792D01*
X-14968Y-100787D01*
X-15093Y-100800D01*
X-15219Y-100806D01*
X-15250Y-100816D01*
X-15282Y-100819D01*
X-15400Y-100863D01*
X-15520Y-100900D01*
X-15541Y-100915D01*
X-15578Y-100929D01*
X-15837Y-101109D01*
X-15862Y-101138D01*
X-15883Y-101153D01*
X-18017Y-103287D01*
X-21983Y-103287D01*
G37*
%LPD*%
%LPC*%
G36*
X96517Y-24787D02*
X96517Y-24787D01*
X93713Y-21983D01*
X93713Y-18017D01*
X95847Y-15883D01*
X95924Y-15784D01*
X96006Y-15688D01*
X96021Y-15659D01*
X96040Y-15634D01*
X96090Y-15518D01*
X96146Y-15405D01*
X96152Y-15374D01*
X96165Y-15344D01*
X96184Y-15219D01*
X96209Y-15096D01*
X96208Y-15064D01*
X96213Y-15032D01*
X96200Y-14907D01*
X96194Y-14781D01*
X96184Y-14750D01*
X96181Y-14718D01*
X96137Y-14600D01*
X96100Y-14480D01*
X96085Y-14459D01*
X96071Y-14422D01*
X95891Y-14163D01*
X95862Y-14138D01*
X95847Y-14117D01*
X93713Y-11983D01*
X93713Y-8017D01*
X95847Y-5883D01*
X95924Y-5784D01*
X96006Y-5688D01*
X96021Y-5659D01*
X96040Y-5634D01*
X96090Y-5519D01*
X96146Y-5405D01*
X96152Y-5374D01*
X96165Y-5344D01*
X96184Y-5219D01*
X96209Y-5096D01*
X96208Y-5064D01*
X96213Y-5032D01*
X96200Y-4907D01*
X96194Y-4781D01*
X96184Y-4750D01*
X96181Y-4718D01*
X96137Y-4600D01*
X96100Y-4480D01*
X96085Y-4459D01*
X96071Y-4422D01*
X95891Y-4163D01*
X95862Y-4138D01*
X95847Y-4117D01*
X93713Y-1983D01*
X93713Y1983D01*
X95847Y4117D01*
X95924Y4216D01*
X96006Y4312D01*
X96021Y4341D01*
X96040Y4366D01*
X96090Y4482D01*
X96146Y4595D01*
X96152Y4626D01*
X96165Y4656D01*
X96184Y4781D01*
X96209Y4904D01*
X96208Y4936D01*
X96213Y4968D01*
X96200Y5093D01*
X96194Y5219D01*
X96184Y5250D01*
X96181Y5282D01*
X96137Y5400D01*
X96100Y5520D01*
X96085Y5541D01*
X96071Y5578D01*
X95891Y5837D01*
X95862Y5862D01*
X95847Y5883D01*
X93713Y8017D01*
X93713Y11983D01*
X95847Y14117D01*
X95924Y14216D01*
X96006Y14312D01*
X96021Y14341D01*
X96040Y14366D01*
X96090Y14482D01*
X96146Y14595D01*
X96152Y14626D01*
X96165Y14656D01*
X96184Y14781D01*
X96209Y14904D01*
X96208Y14936D01*
X96213Y14968D01*
X96200Y15093D01*
X96194Y15219D01*
X96184Y15250D01*
X96181Y15282D01*
X96137Y15400D01*
X96100Y15520D01*
X96085Y15541D01*
X96071Y15578D01*
X95891Y15837D01*
X95862Y15862D01*
X95847Y15883D01*
X93713Y18017D01*
X93713Y21983D01*
X96517Y24787D01*
X100483Y24787D01*
X103287Y21983D01*
X103287Y18017D01*
X101153Y15883D01*
X101076Y15784D01*
X100994Y15688D01*
X100979Y15659D01*
X100960Y15634D01*
X100910Y15518D01*
X100854Y15405D01*
X100848Y15374D01*
X100835Y15344D01*
X100816Y15219D01*
X100791Y15096D01*
X100792Y15064D01*
X100787Y15032D01*
X100800Y14907D01*
X100806Y14781D01*
X100816Y14750D01*
X100819Y14718D01*
X100863Y14600D01*
X100900Y14480D01*
X100915Y14459D01*
X100929Y14422D01*
X101109Y14163D01*
X101138Y14138D01*
X101153Y14117D01*
X103287Y11983D01*
X103287Y8017D01*
X101153Y5883D01*
X101076Y5784D01*
X100994Y5688D01*
X100979Y5659D01*
X100960Y5634D01*
X100910Y5518D01*
X100854Y5405D01*
X100848Y5374D01*
X100835Y5344D01*
X100816Y5219D01*
X100791Y5096D01*
X100792Y5064D01*
X100787Y5032D01*
X100800Y4907D01*
X100806Y4781D01*
X100816Y4750D01*
X100819Y4718D01*
X100863Y4600D01*
X100900Y4480D01*
X100915Y4459D01*
X100929Y4422D01*
X101109Y4163D01*
X101138Y4138D01*
X101153Y4117D01*
X103287Y1983D01*
X103287Y-1983D01*
X101153Y-4117D01*
X101076Y-4216D01*
X100994Y-4312D01*
X100979Y-4341D01*
X100960Y-4366D01*
X100910Y-4482D01*
X100854Y-4595D01*
X100848Y-4626D01*
X100835Y-4656D01*
X100816Y-4781D01*
X100791Y-4904D01*
X100792Y-4936D01*
X100787Y-4968D01*
X100800Y-5093D01*
X100806Y-5219D01*
X100816Y-5250D01*
X100819Y-5282D01*
X100863Y-5400D01*
X100900Y-5520D01*
X100915Y-5541D01*
X100929Y-5578D01*
X101109Y-5837D01*
X101138Y-5862D01*
X101153Y-5883D01*
X103287Y-8017D01*
X103287Y-11983D01*
X101153Y-14117D01*
X101076Y-14216D01*
X100994Y-14312D01*
X100979Y-14341D01*
X100960Y-14366D01*
X100910Y-14482D01*
X100854Y-14595D01*
X100848Y-14626D01*
X100835Y-14656D01*
X100816Y-14781D01*
X100791Y-14904D01*
X100792Y-14936D01*
X100787Y-14968D01*
X100800Y-15093D01*
X100806Y-15219D01*
X100816Y-15250D01*
X100819Y-15282D01*
X100863Y-15400D01*
X100900Y-15520D01*
X100915Y-15541D01*
X100929Y-15578D01*
X101109Y-15837D01*
X101138Y-15862D01*
X101153Y-15883D01*
X103287Y-18017D01*
X103287Y-21983D01*
X100483Y-24787D01*
X96517Y-24787D01*
G37*
%LPD*%
G36*
X-11282Y-45983D02*
X-11282Y-45983D01*
X-11156Y-45974D01*
X-11126Y-45963D01*
X-11094Y-45959D01*
X-10977Y-45913D01*
X-10858Y-45872D01*
X-10831Y-45854D01*
X-10801Y-45842D01*
X-10699Y-45768D01*
X-10594Y-45699D01*
X-10572Y-45675D01*
X-10546Y-45656D01*
X-10467Y-45558D01*
X-10382Y-45465D01*
X-10367Y-45436D01*
X-10347Y-45411D01*
X-10294Y-45297D01*
X-10236Y-45186D01*
X-10231Y-45160D01*
X-10215Y-45125D01*
X-10159Y-44814D01*
X-10162Y-44775D01*
X-10157Y-44750D01*
X-10157Y-23695D01*
X-10171Y-23586D01*
X-10177Y-23476D01*
X-10191Y-23430D01*
X-10197Y-23382D01*
X-10238Y-23280D01*
X-10271Y-23175D01*
X-10292Y-23144D01*
X-10314Y-23089D01*
X-10501Y-22835D01*
X-10516Y-22823D01*
X-10523Y-22812D01*
X-12409Y-20926D01*
X-12423Y-20813D01*
X-12431Y-20693D01*
X-12443Y-20657D01*
X-12448Y-20620D01*
X-12493Y-20508D01*
X-12531Y-20394D01*
X-12551Y-20362D01*
X-12565Y-20327D01*
X-12636Y-20230D01*
X-12702Y-20128D01*
X-12729Y-20103D01*
X-12752Y-20073D01*
X-12845Y-19996D01*
X-12934Y-19915D01*
X-12961Y-19902D01*
X-12996Y-19873D01*
X-13283Y-19741D01*
X-13314Y-19735D01*
X-13334Y-19726D01*
X-13514Y-19678D01*
X-13870Y-19472D01*
X-10684Y-16286D01*
X-10607Y-16187D01*
X-10525Y-16091D01*
X-10511Y-16063D01*
X-10491Y-16037D01*
X-10441Y-15921D01*
X-10386Y-15808D01*
X-10379Y-15777D01*
X-10366Y-15747D01*
X-10347Y-15622D01*
X-10322Y-15499D01*
X-10323Y-15467D01*
X-10319Y-15435D01*
X-10331Y-15310D01*
X-10337Y-15184D01*
X-10347Y-15153D01*
X-10350Y-15121D01*
X-10394Y-15003D01*
X-10431Y-14883D01*
X-10446Y-14862D01*
X-10460Y-14825D01*
X-10640Y-14566D01*
X-10669Y-14541D01*
X-10684Y-14520D01*
X-10784Y-14442D01*
X-10879Y-14360D01*
X-10908Y-14346D01*
X-10934Y-14326D01*
X-11050Y-14277D01*
X-11162Y-14221D01*
X-11194Y-14215D01*
X-11224Y-14202D01*
X-11348Y-14183D01*
X-11471Y-14157D01*
X-11503Y-14159D01*
X-11535Y-14154D01*
X-11661Y-14167D01*
X-11786Y-14173D01*
X-11817Y-14183D01*
X-11849Y-14186D01*
X-11968Y-14230D01*
X-12088Y-14267D01*
X-12109Y-14282D01*
X-12145Y-14295D01*
X-12404Y-14475D01*
X-12430Y-14505D01*
X-12451Y-14520D01*
X-15668Y-17737D01*
X-15669Y-17736D01*
X-15698Y-17722D01*
X-15723Y-17702D01*
X-15839Y-17652D01*
X-15952Y-17597D01*
X-15984Y-17590D01*
X-16013Y-17577D01*
X-16138Y-17558D01*
X-16261Y-17533D01*
X-16293Y-17535D01*
X-16325Y-17530D01*
X-16450Y-17542D01*
X-16576Y-17549D01*
X-16607Y-17558D01*
X-16639Y-17561D01*
X-16757Y-17605D01*
X-16877Y-17643D01*
X-16898Y-17657D01*
X-16935Y-17671D01*
X-17194Y-17851D01*
X-17219Y-17880D01*
X-17241Y-17895D01*
X-17892Y-18547D01*
X-19176Y-18547D01*
X-19316Y-18565D01*
X-19458Y-18579D01*
X-19473Y-18585D01*
X-19489Y-18587D01*
X-19620Y-18639D01*
X-19754Y-18689D01*
X-19767Y-18698D01*
X-19782Y-18704D01*
X-19896Y-18788D01*
X-20013Y-18869D01*
X-20023Y-18881D01*
X-20036Y-18890D01*
X-20126Y-19000D01*
X-20218Y-19108D01*
X-20225Y-19122D01*
X-20236Y-19135D01*
X-20295Y-19264D01*
X-20358Y-19391D01*
X-20361Y-19407D01*
X-20368Y-19421D01*
X-20393Y-19561D01*
X-20421Y-19700D01*
X-20421Y-19716D01*
X-20423Y-19732D01*
X-20413Y-19873D01*
X-20406Y-20015D01*
X-20401Y-20030D01*
X-20400Y-20047D01*
X-20354Y-20181D01*
X-20312Y-20316D01*
X-20304Y-20327D01*
X-20298Y-20345D01*
X-20125Y-20609D01*
X-20081Y-20649D01*
X-20059Y-20680D01*
X-17226Y-23512D01*
X-15249Y-25489D01*
X-15249Y-44750D01*
X-15233Y-44875D01*
X-15224Y-45000D01*
X-15213Y-45031D01*
X-15209Y-45063D01*
X-15163Y-45180D01*
X-15122Y-45299D01*
X-15104Y-45326D01*
X-15092Y-45356D01*
X-15018Y-45457D01*
X-14949Y-45563D01*
X-14925Y-45584D01*
X-14906Y-45610D01*
X-14808Y-45690D01*
X-14715Y-45774D01*
X-14686Y-45789D01*
X-14661Y-45810D01*
X-14547Y-45863D01*
X-14436Y-45921D01*
X-14410Y-45925D01*
X-14375Y-45942D01*
X-14064Y-45998D01*
X-14025Y-45995D01*
X-14000Y-45999D01*
X-11407Y-45999D01*
X-11282Y-45983D01*
G37*
%LPC*%
G36*
X-67775Y57499D02*
X-67775Y57499D01*
X-67775Y67901D01*
X-67671Y68288D01*
X-67470Y68636D01*
X-67186Y68920D01*
X-66838Y69121D01*
X-66451Y69225D01*
X-62399Y69225D01*
X-62399Y57499D01*
X-67775Y57499D01*
G37*
%LPD*%
%LPC*%
G36*
X-66838Y-74321D02*
X-66838Y-74321D01*
X-67186Y-74120D01*
X-67470Y-73836D01*
X-67671Y-73488D01*
X-67775Y-73101D01*
X-67775Y-62699D01*
X-62399Y-62699D01*
X-62399Y-74425D01*
X-66451Y-74425D01*
X-66838Y-74321D01*
G37*
%LPD*%
%LPC*%
G36*
X-66451Y40775D02*
X-66451Y40775D01*
X-66838Y40879D01*
X-67186Y41080D01*
X-67470Y41364D01*
X-67671Y41712D01*
X-67775Y42099D01*
X-67775Y52501D01*
X-62399Y52501D01*
X-62399Y40775D01*
X-66451Y40775D01*
G37*
%LPD*%
%LPC*%
G36*
X-67775Y-57701D02*
X-67775Y-57701D01*
X-67775Y-47299D01*
X-67671Y-46912D01*
X-67470Y-46564D01*
X-67186Y-46280D01*
X-66838Y-46079D01*
X-66451Y-45975D01*
X-62399Y-45975D01*
X-62399Y-57701D01*
X-67775Y-57701D01*
G37*
%LPD*%
G36*
X15534Y-20295D02*
X15534Y-20295D01*
X15675Y-20285D01*
X15691Y-20279D01*
X15707Y-20278D01*
X15840Y-20229D01*
X15974Y-20183D01*
X15988Y-20174D01*
X16003Y-20168D01*
X16119Y-20088D01*
X16238Y-20010D01*
X16249Y-19998D01*
X16262Y-19988D01*
X16354Y-19881D01*
X16449Y-19776D01*
X16457Y-19761D01*
X16467Y-19749D01*
X16530Y-19622D01*
X16596Y-19496D01*
X16598Y-19483D01*
X16607Y-19466D01*
X16671Y-19157D01*
X16668Y-19098D01*
X16674Y-19061D01*
X16674Y-19060D01*
X16660Y-18951D01*
X16655Y-18842D01*
X16641Y-18795D01*
X16634Y-18747D01*
X16594Y-18645D01*
X16561Y-18540D01*
X16540Y-18510D01*
X16517Y-18454D01*
X16378Y-18264D01*
X16354Y-18228D01*
X16346Y-18220D01*
X16331Y-18200D01*
X16316Y-18188D01*
X16308Y-18177D01*
X12651Y-14520D01*
X12551Y-14442D01*
X12456Y-14360D01*
X12427Y-14346D01*
X12401Y-14326D01*
X12286Y-14277D01*
X12173Y-14221D01*
X12141Y-14215D01*
X12112Y-14202D01*
X11987Y-14183D01*
X11864Y-14157D01*
X11832Y-14159D01*
X11800Y-14154D01*
X11674Y-14167D01*
X11549Y-14173D01*
X11518Y-14183D01*
X11486Y-14186D01*
X11368Y-14230D01*
X11248Y-14267D01*
X11226Y-14282D01*
X11190Y-14295D01*
X10931Y-14475D01*
X10931Y-14476D01*
X10905Y-14505D01*
X10884Y-14520D01*
X10807Y-14619D01*
X10725Y-14715D01*
X10711Y-14744D01*
X10691Y-14769D01*
X10641Y-14885D01*
X10586Y-14998D01*
X10579Y-15029D01*
X10566Y-15059D01*
X10547Y-15184D01*
X10522Y-15307D01*
X10523Y-15339D01*
X10519Y-15371D01*
X10531Y-15496D01*
X10537Y-15622D01*
X10547Y-15653D01*
X10550Y-15685D01*
X10594Y-15803D01*
X10631Y-15923D01*
X10646Y-15944D01*
X10660Y-15981D01*
X10840Y-16240D01*
X10869Y-16265D01*
X10884Y-16286D01*
X14542Y-19944D01*
X14643Y-20023D01*
X14690Y-20065D01*
X14706Y-20073D01*
X14764Y-20121D01*
X14778Y-20127D01*
X14791Y-20137D01*
X14922Y-20193D01*
X15050Y-20252D01*
X15066Y-20255D01*
X15081Y-20262D01*
X15222Y-20283D01*
X15361Y-20308D01*
X15377Y-20307D01*
X15393Y-20310D01*
X15534Y-20295D01*
G37*
%LPC*%
G36*
X-38904Y-10585D02*
X-38904Y-10585D01*
X-39292Y-10481D01*
X-39639Y-10281D01*
X-41019Y-8901D01*
X-37996Y-5878D01*
X-35680Y-8194D01*
X-37767Y-10281D01*
X-38115Y-10481D01*
X-38503Y-10585D01*
X-38904Y-10585D01*
G37*
%LPD*%
%LPC*%
G36*
X-35522Y-3404D02*
X-35522Y-3404D01*
X-32499Y-381D01*
X-31119Y-1760D01*
X-30919Y-2108D01*
X-30815Y-2496D01*
X-30815Y-2897D01*
X-30919Y-3285D01*
X-31119Y-3633D01*
X-33206Y-5720D01*
X-35522Y-3404D01*
G37*
%LPD*%
D10*
X6995Y-16375D02*
X10795Y-20175D01*
X9469Y-21501D01*
X5669Y-17701D01*
X6995Y-16375D01*
X8845Y-20877D02*
X10093Y-20877D01*
X10717Y-20253D02*
X8221Y-20253D01*
X7597Y-19629D02*
X10249Y-19629D01*
X9625Y-19005D02*
X6973Y-19005D01*
X6349Y-18381D02*
X9001Y-18381D01*
X8377Y-17757D02*
X5725Y-17757D01*
X6237Y-17133D02*
X7753Y-17133D01*
X7129Y-16509D02*
X6861Y-16509D01*
X10530Y-12840D02*
X14330Y-16640D01*
X13004Y-17966D01*
X9204Y-14166D01*
X10530Y-12840D01*
X12380Y-17342D02*
X13628Y-17342D01*
X14252Y-16718D02*
X11756Y-16718D01*
X11132Y-16094D02*
X13784Y-16094D01*
X13160Y-15470D02*
X10508Y-15470D01*
X9884Y-14846D02*
X12536Y-14846D01*
X11912Y-14222D02*
X9260Y-14222D01*
X9772Y-13598D02*
X11288Y-13598D01*
X10664Y-12974D02*
X10396Y-12974D01*
X14066Y-9304D02*
X17866Y-13104D01*
X16540Y-14430D01*
X12740Y-10630D01*
X14066Y-9304D01*
X15916Y-13806D02*
X17164Y-13806D01*
X17788Y-13182D02*
X15292Y-13182D01*
X14668Y-12558D02*
X17320Y-12558D01*
X16696Y-11934D02*
X14044Y-11934D01*
X13420Y-11310D02*
X16072Y-11310D01*
X15448Y-10686D02*
X12796Y-10686D01*
X13308Y-10062D02*
X14824Y-10062D01*
X14200Y-9438D02*
X13932Y-9438D01*
X17601Y-5769D02*
X21401Y-9569D01*
X20075Y-10895D01*
X16275Y-7095D01*
X17601Y-5769D01*
X19451Y-10271D02*
X20699Y-10271D01*
X21323Y-9647D02*
X18827Y-9647D01*
X18203Y-9023D02*
X20855Y-9023D01*
X20231Y-8399D02*
X17579Y-8399D01*
X16955Y-7775D02*
X19607Y-7775D01*
X18983Y-7151D02*
X16331Y-7151D01*
X16843Y-6527D02*
X18359Y-6527D01*
X17735Y-5903D02*
X17467Y-5903D01*
X-16075Y6695D02*
X-19875Y10495D01*
X-16075Y6695D02*
X-17401Y5369D01*
X-21201Y9169D01*
X-19875Y10495D01*
X-18025Y5993D02*
X-16777Y5993D01*
X-16153Y6617D02*
X-18649Y6617D01*
X-19273Y7241D02*
X-16621Y7241D01*
X-17245Y7865D02*
X-19897Y7865D01*
X-20521Y8489D02*
X-17869Y8489D01*
X-18493Y9113D02*
X-21145Y9113D01*
X-20633Y9737D02*
X-19117Y9737D01*
X-19741Y10361D02*
X-20009Y10361D01*
X-16340Y14030D02*
X-12540Y10230D01*
X-13866Y8904D01*
X-17666Y12704D01*
X-16340Y14030D01*
X-14490Y9528D02*
X-13242Y9528D01*
X-12618Y10152D02*
X-15114Y10152D01*
X-15738Y10776D02*
X-13086Y10776D01*
X-13710Y11400D02*
X-16362Y11400D01*
X-16986Y12024D02*
X-14334Y12024D01*
X-14958Y12648D02*
X-17610Y12648D01*
X-17098Y13272D02*
X-15582Y13272D01*
X-16206Y13896D02*
X-16474Y13896D01*
X-12804Y17566D02*
X-9004Y13766D01*
X-10330Y12440D01*
X-14130Y16240D01*
X-12804Y17566D01*
X-10954Y13064D02*
X-9706Y13064D01*
X-9082Y13688D02*
X-11578Y13688D01*
X-12202Y14312D02*
X-9550Y14312D01*
X-10174Y14936D02*
X-12826Y14936D01*
X-13450Y15560D02*
X-10798Y15560D01*
X-11422Y16184D02*
X-14074Y16184D01*
X-13562Y16808D02*
X-12046Y16808D01*
X-12670Y17432D02*
X-12938Y17432D01*
X-9269Y21101D02*
X-5469Y17301D01*
X-6795Y15975D01*
X-10595Y19775D01*
X-9269Y21101D01*
X-7419Y16599D02*
X-6171Y16599D01*
X-5547Y17223D02*
X-8043Y17223D01*
X-8667Y17847D02*
X-6015Y17847D01*
X-6639Y18471D02*
X-9291Y18471D01*
X-9915Y19095D02*
X-7263Y19095D01*
X-7887Y19719D02*
X-10539Y19719D01*
X-10027Y20343D02*
X-8511Y20343D01*
X-9135Y20967D02*
X-9403Y20967D01*
X6995Y15975D02*
X10795Y19775D01*
X6995Y15975D02*
X5669Y17301D01*
X9469Y21101D01*
X10795Y19775D01*
X7619Y16599D02*
X6371Y16599D01*
X5747Y17223D02*
X8243Y17223D01*
X8867Y17847D02*
X6215Y17847D01*
X6839Y18471D02*
X9491Y18471D01*
X10115Y19095D02*
X7463Y19095D01*
X8087Y19719D02*
X10739Y19719D01*
X10227Y20343D02*
X8711Y20343D01*
X9335Y20967D02*
X9603Y20967D01*
X14330Y16240D02*
X10530Y12440D01*
X9204Y13766D01*
X13004Y17566D01*
X14330Y16240D01*
X11154Y13064D02*
X9906Y13064D01*
X9282Y13688D02*
X11778Y13688D01*
X12402Y14312D02*
X9750Y14312D01*
X10374Y14936D02*
X13026Y14936D01*
X13650Y15560D02*
X10998Y15560D01*
X11622Y16184D02*
X14274Y16184D01*
X13762Y16808D02*
X12246Y16808D01*
X12870Y17432D02*
X13138Y17432D01*
X17866Y12704D02*
X14066Y8904D01*
X12740Y10230D01*
X16540Y14030D01*
X17866Y12704D01*
X14690Y9528D02*
X13442Y9528D01*
X12818Y10152D02*
X15314Y10152D01*
X15938Y10776D02*
X13286Y10776D01*
X13910Y11400D02*
X16562Y11400D01*
X17186Y12024D02*
X14534Y12024D01*
X15158Y12648D02*
X17810Y12648D01*
X17298Y13272D02*
X15782Y13272D01*
X16406Y13896D02*
X16674Y13896D01*
X20075Y10495D02*
X16275Y6695D01*
X20075Y10495D02*
X21401Y9169D01*
X17601Y5369D01*
X16275Y6695D01*
X16977Y5993D02*
X18225Y5993D01*
X18849Y6617D02*
X16353Y6617D01*
X16821Y7241D02*
X19473Y7241D01*
X20097Y7865D02*
X17445Y7865D01*
X18069Y8489D02*
X20721Y8489D01*
X21345Y9113D02*
X18693Y9113D01*
X19317Y9737D02*
X20833Y9737D01*
X20209Y10361D02*
X19941Y10361D01*
X-16075Y-7095D02*
X-19875Y-10895D01*
X-21201Y-9569D01*
X-17401Y-5769D01*
X-16075Y-7095D01*
X-19251Y-10271D02*
X-20499Y-10271D01*
X-21123Y-9647D02*
X-18627Y-9647D01*
X-18003Y-9023D02*
X-20655Y-9023D01*
X-20031Y-8399D02*
X-17379Y-8399D01*
X-16755Y-7775D02*
X-19407Y-7775D01*
X-18783Y-7151D02*
X-16131Y-7151D01*
X-16643Y-6527D02*
X-18159Y-6527D01*
X-17535Y-5903D02*
X-17267Y-5903D01*
X-12540Y-10630D02*
X-16340Y-14430D01*
X-17666Y-13104D01*
X-13866Y-9304D01*
X-12540Y-10630D01*
X-15716Y-13806D02*
X-16964Y-13806D01*
X-17588Y-13182D02*
X-15092Y-13182D01*
X-14468Y-12558D02*
X-17120Y-12558D01*
X-16496Y-11934D02*
X-13844Y-11934D01*
X-13220Y-11310D02*
X-15872Y-11310D01*
X-15248Y-10686D02*
X-12596Y-10686D01*
X-13108Y-10062D02*
X-14624Y-10062D01*
X-14000Y-9438D02*
X-13732Y-9438D01*
X-9004Y-14166D02*
X-12804Y-17966D01*
X-14130Y-16640D01*
X-10330Y-12840D01*
X-9004Y-14166D01*
X-12180Y-17342D02*
X-13428Y-17342D01*
X-14052Y-16718D02*
X-11556Y-16718D01*
X-10932Y-16094D02*
X-13584Y-16094D01*
X-12960Y-15470D02*
X-10308Y-15470D01*
X-9684Y-14846D02*
X-12336Y-14846D01*
X-11712Y-14222D02*
X-9060Y-14222D01*
X-9572Y-13598D02*
X-11088Y-13598D01*
X-10464Y-12974D02*
X-10196Y-12974D01*
X-6795Y-16375D02*
X-10595Y-20175D01*
X-6795Y-16375D02*
X-5469Y-17701D01*
X-9269Y-21501D01*
X-10595Y-20175D01*
X-9893Y-20877D02*
X-8645Y-20877D01*
X-8021Y-20253D02*
X-10517Y-20253D01*
X-10049Y-19629D02*
X-7397Y-19629D01*
X-6773Y-19005D02*
X-9425Y-19005D01*
X-8801Y-18381D02*
X-6149Y-18381D01*
X-5525Y-17757D02*
X-8177Y-17757D01*
X-7553Y-17133D02*
X-6037Y-17133D01*
X-6661Y-16509D02*
X-6929Y-16509D01*
D11*
G36*
X100Y18184D02*
X18484Y-200D01*
X100Y-18584D01*
X-18284Y-200D01*
X100Y18184D01*
G37*
D12*
X47100Y-29700D03*
X60100Y-29700D03*
X47100Y-40200D03*
X60100Y-40200D03*
G36*
X-28097Y-6940D02*
X-23148Y-11889D01*
X-29511Y-18252D01*
X-34460Y-13303D01*
X-28097Y-6940D01*
G37*
G36*
X-37289Y2252D02*
X-32340Y-2697D01*
X-38703Y-9060D01*
X-43652Y-4111D01*
X-37289Y2252D01*
G37*
D13*
X-23200Y29600D03*
X-49600Y44800D03*
X-28500Y24000D03*
X30100Y23900D03*
X58400Y38900D03*
X25600Y28700D03*
X23900Y-30300D03*
X30100Y-62200D03*
X30400Y-23700D03*
X-26500Y-25200D03*
X-53900Y-39800D03*
X-23000Y-33300D03*
X-45000Y50400D03*
X51100Y44900D03*
X52800Y-52400D03*
X-48500Y-46500D03*
D14*
X-34700Y-60200D03*
X-59900Y-60200D03*
X-9500Y-60200D03*
X15700Y-60200D03*
X40900Y-60200D03*
X-34700Y55000D03*
X-59900Y55000D03*
X-9500Y55000D03*
X15700Y55000D03*
X40900Y55000D03*
D15*
G36*
X3693Y-33567D02*
X5673Y-31587D01*
X8713Y-34627D01*
X6733Y-36607D01*
X3693Y-33567D01*
G37*
G36*
X87Y-37173D02*
X2067Y-35193D01*
X5107Y-38233D01*
X3127Y-40213D01*
X87Y-37173D01*
G37*
G36*
X10993Y-26067D02*
X12973Y-24087D01*
X16013Y-27127D01*
X14033Y-29107D01*
X10993Y-26067D01*
G37*
G36*
X7387Y-29673D02*
X9367Y-27693D01*
X12407Y-30733D01*
X10427Y-32713D01*
X7387Y-29673D01*
G37*
D16*
X9897Y-30403D02*
X6203Y-34097D01*
X9897Y-30403D02*
X9897Y-30203D01*
X8232Y-28738D02*
X8232Y-18938D01*
X8232Y-28738D02*
X9897Y-30403D01*
D17*
X-34700Y-50000D02*
X-34700Y-60200D01*
X-34700Y55000D02*
X-34700Y64157D01*
D18*
X-65800Y-11300D03*
X-48200Y-61100D03*
D17*
X-34700Y51473D02*
X-34700Y55000D01*
X-59400Y34300D02*
X-59600Y34100D01*
D18*
X-59400Y34300D03*
X-48100Y57700D03*
D17*
X-37400Y57700D01*
X-34700Y55000D01*
D18*
X1200Y-67402D03*
X55500Y-62200D03*
X-25375Y-65407D03*
D16*
X-29493Y-65407D02*
X-34700Y-60200D01*
X-29493Y-65407D02*
X-25375Y-65407D01*
D17*
X-15103Y-11867D02*
X-15103Y-11867D01*
X-19032Y-15796D01*
X-25604Y-15796D02*
X-28804Y-12596D01*
X-25604Y-15796D02*
X-19032Y-15796D01*
X-59600Y33000D02*
X-59600Y34100D01*
X-48200Y-61100D02*
X-35600Y-61100D01*
X-34700Y-60200D01*
X-65800Y-11300D02*
X-65800Y26800D01*
X-59600Y33000D01*
D16*
X1200Y-65527D02*
X1200Y-67402D01*
X1200Y-65527D02*
X2597Y-64130D01*
X2597Y-37703D01*
X60100Y-40200D02*
X60100Y-29700D01*
X60100Y-57600D02*
X55500Y-62200D01*
X60100Y-57600D02*
X60100Y-40200D01*
D17*
X-28804Y-15825D02*
X-28804Y-12596D01*
X-28804Y-15825D02*
X-18000Y-26629D01*
X-18000Y-43500D01*
X-34700Y-60200D01*
X100Y-3736D02*
X100Y-200D01*
X100Y-8700D02*
X100Y-16110D01*
X100Y-8700D02*
X100Y-6800D01*
X100Y-200D01*
X-10507Y-200D01*
X100Y-200D02*
X100Y-3736D01*
X-59900Y-52614D02*
X-59900Y-60200D01*
D16*
X-59900Y-64100D01*
D18*
X-69600Y-53600D03*
X74900Y-46700D03*
X72700Y-51500D03*
X66500Y-55500D03*
X63100Y-67200D03*
X56800Y56500D03*
X53600Y64300D03*
X64100Y52100D03*
X74200Y45700D03*
X-70400Y48700D03*
D17*
X100Y16063D02*
X100Y-200D01*
X-22400Y38210D02*
X-22305Y38305D01*
X-22200Y38410D01*
D18*
X-48600Y66800D03*
D17*
X-59900Y55500D01*
X-59900Y55000D01*
X-60000Y-60100D02*
X-59900Y-60200D01*
D18*
X-73800Y73400D03*
X72900Y73900D03*
X72900Y60800D03*
X72400Y51300D03*
X74200Y31500D03*
X73600Y-59700D03*
X72100Y-67400D03*
X60000Y-72500D03*
X64400Y-60900D03*
X-74100Y-71000D03*
D17*
X-22400Y38210D02*
X-25500Y41310D01*
X-60000Y-27289D02*
X-60000Y-60100D01*
D18*
X73800Y-37900D03*
X-29600Y73800D03*
X30700Y72800D03*
D17*
X-2964Y-6800D02*
X-11567Y-15403D01*
X-2964Y-6800D02*
X100Y-6800D01*
X-18638Y-8332D02*
X-18638Y-8332D01*
X-10507Y-200D01*
X-50951Y-18240D02*
X-60000Y-27289D01*
X-50951Y-18240D02*
X-50951Y-16359D01*
X-37996Y-3404D01*
X-23566Y-3404D01*
X-18638Y-8332D01*
X-25500Y65900D02*
X-25600Y66000D01*
X-25272Y66328D01*
X-24850Y66328D01*
D18*
X-24850Y66328D03*
D17*
X-25500Y65900D02*
X-25500Y41310D01*
X-22305Y38305D02*
X-8164Y24164D01*
X-8001Y24164D01*
X100Y16063D01*
D16*
X11767Y-15403D02*
X13503Y-17139D01*
X13503Y-26597D01*
X11767Y-15403D02*
X5064Y-8700D01*
X100Y-8700D01*
D18*
X-65900Y35600D03*
X-58400Y-32600D03*
X-18900Y-65932D03*
X-19400Y64000D03*
D16*
X-10400Y55000D01*
X-9500Y55000D01*
D18*
X-74125Y-46325D03*
X-70967Y25567D03*
D16*
X-70967Y-43167D01*
X-74125Y-46325D01*
X-18900Y-65932D02*
X-13168Y-60200D01*
X-9500Y-60200D01*
X-8032Y-58732D02*
X-8032Y-18938D01*
X-8032Y-58732D02*
X-9500Y-60200D01*
X-13493Y24000D02*
X-28500Y24000D01*
X-13493Y24000D02*
X-8032Y18538D01*
X-34616Y7932D02*
X-54326Y-11779D01*
X-54326Y-15126D01*
X-34616Y7932D02*
X-18638Y7932D01*
X-62160Y-22960D02*
X-62579Y-22960D01*
D18*
X-62579Y-22960D03*
D16*
X-62160Y-22960D02*
X-54326Y-15126D01*
D18*
X-45700Y-53900D03*
D16*
X-37175Y-45375D02*
X-25900Y-34100D01*
X-23800Y-34100D01*
X-23000Y-33300D01*
X-43175Y-51375D02*
X-45700Y-53900D01*
X-43175Y-51375D02*
X-43175Y-46620D01*
X-41930Y-45375D01*
X-37175Y-45375D01*
D18*
X-65200Y-17400D03*
D19*
X-18568Y14932D02*
X-15103Y11467D01*
X-18568Y14932D02*
X-27400Y14932D01*
D16*
X-32868Y14932D02*
X-65200Y-17400D01*
X-32868Y14932D02*
X-27400Y14932D01*
X8232Y18538D02*
X8232Y18538D01*
X18393Y28700D02*
X25600Y28700D01*
X18393Y28700D02*
X8232Y18538D01*
D18*
X60127Y32327D03*
D16*
X42903Y15003D02*
X26568Y15003D01*
X24771Y16800D01*
X42903Y15003D02*
X60127Y32227D01*
X60127Y32327D01*
X58954Y33500D01*
X53300Y33500D01*
X51100Y35700D01*
X51100Y44900D01*
X14065Y15003D02*
X11767Y15003D01*
X14065Y15003D02*
X15863Y16800D01*
X24771Y16800D01*
D18*
X65435Y-17838D03*
D16*
X55874Y-17838D02*
X26568Y11467D01*
X15303Y11467D02*
X15303Y11467D01*
X17601Y11467D01*
X19066Y12932D01*
X21085Y12932D01*
X22551Y11467D01*
X26568Y11467D01*
X55874Y-17838D02*
X65435Y-17838D01*
X30400Y-23700D02*
X30400Y-3630D01*
X18838Y7932D01*
X-45000Y47987D02*
X-45000Y50400D01*
X-45000Y47987D02*
X-44625Y47612D01*
X-45000Y48436D02*
X-45000Y50400D01*
X-45000Y48436D02*
X-43175Y46611D01*
X-16189Y19625D02*
X-11567Y15003D01*
X-16189Y19625D02*
X-30312Y19625D01*
X-43175Y32488D01*
X-43175Y46611D01*
X40900Y-47100D02*
X40900Y-60200D01*
X51480Y-46825D02*
X52725Y-45580D01*
X52725Y-35275D02*
X52800Y-35200D01*
X41175Y-46825D02*
X40900Y-47100D01*
X41175Y-46825D02*
X51480Y-46825D01*
X52800Y-35200D02*
X52725Y-35125D01*
X52725Y-34820D01*
X26025Y-25512D02*
X26025Y-15518D01*
X26025Y-25512D02*
X28956Y-28444D01*
X45844Y-28444D01*
X47100Y-29700D01*
X26025Y-15518D02*
X18838Y-8332D01*
X51480Y-33575D02*
X52725Y-34820D01*
X51480Y-33575D02*
X50975Y-33575D01*
X47100Y-29700D01*
X52725Y-35125D02*
X52725Y-45580D01*
X47100Y-29700D02*
X54637Y-22163D01*
X46625Y49275D02*
X40900Y55000D01*
X46625Y49275D02*
X54212Y49275D01*
X64400Y39087D01*
X64400Y-12400D01*
X65713Y-13713D01*
X67143Y-13713D01*
X69560Y-16129D01*
X69560Y-19547D01*
X66943Y-22163D01*
X54637Y-22163D01*
D18*
X26187Y-67487D03*
D16*
X15700Y55000D02*
X22600Y61900D01*
X27700Y61900D02*
X27800Y61800D01*
D18*
X27800Y61800D03*
D16*
X27700Y61900D02*
X22600Y61900D01*
X18800Y-15364D02*
X18800Y-33400D01*
X15700Y-36500D02*
X15700Y-60200D01*
X15700Y-36500D02*
X18800Y-33400D01*
X18800Y-15364D02*
X15303Y-11867D01*
X47100Y-40200D02*
X43225Y-44075D01*
X25725Y-53320D02*
X25725Y-64012D01*
X25725Y-53320D02*
X34970Y-44075D01*
X43225Y-44075D01*
X25725Y-64012D02*
X26187Y-64474D01*
X26187Y-67487D01*
X22987Y-67487D02*
X15700Y-60200D01*
X22987Y-67487D02*
X26187Y-67487D01*
M02*
