G04 EAGLE Gerber X2 export*
%TF.Part,Single*%
%TF.FileFunction,Legend,Bot,1*%
%TF.FilePolarity,Positive*%
%TF.GenerationSoftware,Autodesk,EAGLE,9.0.1*%
%TF.CreationDate,2018-12-20T19:56:33Z*%
G75*
%MOMM*%
%FSLAX34Y34*%
%LPD*%
%AMOC8*
5,1,8,0,0,1.08239X$1,22.5*%
G01*
%ADD10C,0.200000*%
%ADD11C,0.100000*%
%ADD12C,0.101600*%
%ADD13R,0.300000X0.300000*%


D10*
X22727Y-200D03*
D11*
X27677Y-6564D02*
X100Y-34141D01*
X-33841Y-200D01*
X100Y33741D01*
X27677Y6164D01*
X27677Y-6564D01*
D12*
X19657Y21720D02*
X25624Y27687D01*
X19657Y21720D02*
X19576Y21641D01*
X19492Y21565D01*
X19405Y21492D01*
X19315Y21423D01*
X19224Y21356D01*
X19130Y21293D01*
X19034Y21233D01*
X18936Y21176D01*
X18836Y21123D01*
X18734Y21073D01*
X18630Y21027D01*
X18525Y20985D01*
X18419Y20946D01*
X18311Y20911D01*
X18202Y20880D01*
X18092Y20852D01*
X17981Y20829D01*
X17870Y20809D01*
X17758Y20793D01*
X17645Y20781D01*
X17532Y20773D01*
X17419Y20769D01*
X17305Y20769D01*
X17192Y20773D01*
X17079Y20781D01*
X16966Y20793D01*
X16854Y20809D01*
X16743Y20829D01*
X16632Y20852D01*
X16522Y20880D01*
X16413Y20911D01*
X16305Y20946D01*
X16199Y20985D01*
X16094Y21027D01*
X15990Y21073D01*
X15888Y21123D01*
X15788Y21176D01*
X15690Y21233D01*
X15594Y21293D01*
X15500Y21356D01*
X15409Y21423D01*
X15319Y21492D01*
X15232Y21565D01*
X15148Y21641D01*
X15067Y21720D01*
X14988Y21801D01*
X14912Y21885D01*
X14839Y21972D01*
X14770Y22062D01*
X14703Y22153D01*
X14640Y22247D01*
X14580Y22343D01*
X14523Y22441D01*
X14470Y22541D01*
X14420Y22643D01*
X14374Y22747D01*
X14332Y22852D01*
X14293Y22958D01*
X14258Y23066D01*
X14227Y23175D01*
X14199Y23285D01*
X14176Y23396D01*
X14156Y23507D01*
X14140Y23619D01*
X14128Y23732D01*
X14120Y23845D01*
X14116Y23958D01*
X14116Y24072D01*
X14120Y24185D01*
X14128Y24298D01*
X14140Y24411D01*
X14156Y24523D01*
X14176Y24634D01*
X14199Y24745D01*
X14227Y24855D01*
X14258Y24964D01*
X14293Y25072D01*
X14332Y25178D01*
X14374Y25283D01*
X14420Y25387D01*
X14470Y25489D01*
X14523Y25589D01*
X14580Y25687D01*
X14640Y25783D01*
X14703Y25877D01*
X14770Y25969D01*
X14839Y26058D01*
X14912Y26145D01*
X14988Y26229D01*
X15067Y26310D01*
X15068Y26310D02*
X21034Y32277D01*
X15437Y34203D02*
X14978Y38334D01*
X6716Y30072D01*
X9011Y27777D02*
X4421Y32367D01*
X64842Y-10558D02*
X64842Y-22242D01*
X64842Y-10558D02*
X61596Y-10558D01*
X61483Y-10560D01*
X61370Y-10566D01*
X61257Y-10576D01*
X61144Y-10590D01*
X61032Y-10607D01*
X60921Y-10629D01*
X60811Y-10654D01*
X60701Y-10684D01*
X60593Y-10717D01*
X60486Y-10754D01*
X60380Y-10794D01*
X60276Y-10839D01*
X60173Y-10887D01*
X60072Y-10938D01*
X59973Y-10993D01*
X59876Y-11051D01*
X59781Y-11113D01*
X59688Y-11178D01*
X59598Y-11246D01*
X59510Y-11317D01*
X59424Y-11392D01*
X59341Y-11469D01*
X59261Y-11549D01*
X59184Y-11632D01*
X59109Y-11718D01*
X59038Y-11806D01*
X58970Y-11896D01*
X58905Y-11989D01*
X58843Y-12084D01*
X58785Y-12181D01*
X58730Y-12280D01*
X58679Y-12381D01*
X58631Y-12484D01*
X58586Y-12588D01*
X58546Y-12694D01*
X58509Y-12801D01*
X58476Y-12909D01*
X58446Y-13019D01*
X58421Y-13129D01*
X58399Y-13240D01*
X58382Y-13352D01*
X58368Y-13465D01*
X58358Y-13578D01*
X58352Y-13691D01*
X58350Y-13804D01*
X58352Y-13917D01*
X58358Y-14030D01*
X58368Y-14143D01*
X58382Y-14256D01*
X58399Y-14368D01*
X58421Y-14479D01*
X58446Y-14589D01*
X58476Y-14699D01*
X58509Y-14807D01*
X58546Y-14914D01*
X58586Y-15020D01*
X58631Y-15124D01*
X58679Y-15227D01*
X58730Y-15328D01*
X58785Y-15427D01*
X58843Y-15524D01*
X58905Y-15619D01*
X58970Y-15712D01*
X59038Y-15802D01*
X59109Y-15890D01*
X59184Y-15976D01*
X59261Y-16059D01*
X59341Y-16139D01*
X59424Y-16216D01*
X59510Y-16291D01*
X59598Y-16362D01*
X59688Y-16430D01*
X59781Y-16495D01*
X59876Y-16557D01*
X59973Y-16615D01*
X60072Y-16670D01*
X60173Y-16721D01*
X60276Y-16769D01*
X60380Y-16814D01*
X60486Y-16854D01*
X60593Y-16891D01*
X60701Y-16924D01*
X60811Y-16954D01*
X60921Y-16979D01*
X61032Y-17001D01*
X61144Y-17018D01*
X61257Y-17032D01*
X61370Y-17042D01*
X61483Y-17048D01*
X61596Y-17050D01*
X61596Y-17049D02*
X64842Y-17049D01*
X60947Y-17049D02*
X58351Y-22242D01*
X53486Y-13155D02*
X50240Y-10558D01*
X50240Y-22242D01*
X46995Y-22242D02*
X53486Y-22242D01*
X71658Y-54305D02*
X83342Y-54305D01*
X83342Y-51060D01*
X83340Y-50947D01*
X83334Y-50834D01*
X83324Y-50721D01*
X83310Y-50608D01*
X83293Y-50496D01*
X83271Y-50385D01*
X83246Y-50275D01*
X83216Y-50165D01*
X83183Y-50057D01*
X83146Y-49950D01*
X83106Y-49844D01*
X83061Y-49740D01*
X83013Y-49637D01*
X82962Y-49536D01*
X82907Y-49437D01*
X82849Y-49340D01*
X82787Y-49245D01*
X82722Y-49152D01*
X82654Y-49062D01*
X82583Y-48974D01*
X82508Y-48888D01*
X82431Y-48805D01*
X82351Y-48725D01*
X82268Y-48648D01*
X82182Y-48573D01*
X82094Y-48502D01*
X82004Y-48434D01*
X81911Y-48369D01*
X81816Y-48307D01*
X81719Y-48249D01*
X81620Y-48194D01*
X81519Y-48143D01*
X81416Y-48095D01*
X81312Y-48050D01*
X81206Y-48010D01*
X81099Y-47973D01*
X80991Y-47940D01*
X80881Y-47910D01*
X80771Y-47885D01*
X80660Y-47863D01*
X80548Y-47846D01*
X80435Y-47832D01*
X80322Y-47822D01*
X80209Y-47816D01*
X80096Y-47814D01*
X79983Y-47816D01*
X79870Y-47822D01*
X79757Y-47832D01*
X79644Y-47846D01*
X79532Y-47863D01*
X79421Y-47885D01*
X79311Y-47910D01*
X79201Y-47940D01*
X79093Y-47973D01*
X78986Y-48010D01*
X78880Y-48050D01*
X78776Y-48095D01*
X78673Y-48143D01*
X78572Y-48194D01*
X78473Y-48249D01*
X78376Y-48307D01*
X78281Y-48369D01*
X78188Y-48434D01*
X78098Y-48502D01*
X78010Y-48573D01*
X77924Y-48648D01*
X77841Y-48725D01*
X77761Y-48805D01*
X77684Y-48888D01*
X77609Y-48974D01*
X77538Y-49062D01*
X77470Y-49152D01*
X77405Y-49245D01*
X77343Y-49340D01*
X77285Y-49437D01*
X77230Y-49536D01*
X77179Y-49637D01*
X77131Y-49740D01*
X77086Y-49844D01*
X77046Y-49950D01*
X77009Y-50057D01*
X76976Y-50165D01*
X76946Y-50275D01*
X76921Y-50385D01*
X76899Y-50496D01*
X76882Y-50608D01*
X76868Y-50721D01*
X76858Y-50834D01*
X76852Y-50947D01*
X76850Y-51060D01*
X76851Y-51060D02*
X76851Y-54305D01*
X76851Y-50411D02*
X71658Y-47814D01*
X80421Y-36458D02*
X80528Y-36460D01*
X80634Y-36466D01*
X80740Y-36476D01*
X80846Y-36489D01*
X80952Y-36507D01*
X81056Y-36528D01*
X81160Y-36553D01*
X81263Y-36582D01*
X81364Y-36614D01*
X81464Y-36651D01*
X81563Y-36691D01*
X81661Y-36734D01*
X81757Y-36781D01*
X81851Y-36832D01*
X81943Y-36886D01*
X82033Y-36943D01*
X82121Y-37003D01*
X82206Y-37067D01*
X82289Y-37134D01*
X82370Y-37204D01*
X82448Y-37276D01*
X82524Y-37352D01*
X82596Y-37430D01*
X82666Y-37511D01*
X82733Y-37594D01*
X82797Y-37679D01*
X82857Y-37767D01*
X82914Y-37857D01*
X82968Y-37949D01*
X83019Y-38043D01*
X83066Y-38139D01*
X83109Y-38237D01*
X83149Y-38336D01*
X83186Y-38436D01*
X83218Y-38537D01*
X83247Y-38640D01*
X83272Y-38744D01*
X83293Y-38848D01*
X83311Y-38954D01*
X83324Y-39060D01*
X83334Y-39166D01*
X83340Y-39272D01*
X83342Y-39379D01*
X83340Y-39500D01*
X83334Y-39621D01*
X83324Y-39741D01*
X83311Y-39862D01*
X83293Y-39981D01*
X83272Y-40101D01*
X83247Y-40219D01*
X83218Y-40336D01*
X83185Y-40453D01*
X83149Y-40568D01*
X83108Y-40682D01*
X83065Y-40795D01*
X83017Y-40907D01*
X82966Y-41016D01*
X82911Y-41124D01*
X82853Y-41231D01*
X82792Y-41335D01*
X82727Y-41437D01*
X82659Y-41537D01*
X82588Y-41635D01*
X82514Y-41731D01*
X82437Y-41824D01*
X82356Y-41914D01*
X82273Y-42002D01*
X82187Y-42087D01*
X82098Y-42170D01*
X82007Y-42249D01*
X81913Y-42326D01*
X81817Y-42399D01*
X81719Y-42469D01*
X81618Y-42536D01*
X81515Y-42600D01*
X81410Y-42661D01*
X81303Y-42718D01*
X81195Y-42771D01*
X81085Y-42821D01*
X80973Y-42867D01*
X80860Y-42910D01*
X80745Y-42949D01*
X78149Y-37432D02*
X78227Y-37353D01*
X78307Y-37277D01*
X78390Y-37204D01*
X78476Y-37134D01*
X78563Y-37067D01*
X78654Y-37003D01*
X78746Y-36943D01*
X78840Y-36885D01*
X78937Y-36831D01*
X79035Y-36781D01*
X79135Y-36734D01*
X79236Y-36690D01*
X79339Y-36650D01*
X79444Y-36614D01*
X79549Y-36582D01*
X79656Y-36553D01*
X79763Y-36528D01*
X79872Y-36506D01*
X79981Y-36489D01*
X80090Y-36475D01*
X80200Y-36466D01*
X80311Y-36460D01*
X80421Y-36458D01*
X78149Y-37432D02*
X71658Y-42949D01*
X71658Y-36458D01*
X-55747Y-10596D02*
X-57583Y-8760D01*
X-55747Y-10596D02*
X-55675Y-10665D01*
X-55601Y-10731D01*
X-55524Y-10794D01*
X-55445Y-10854D01*
X-55364Y-10912D01*
X-55280Y-10966D01*
X-55195Y-11016D01*
X-55107Y-11064D01*
X-55018Y-11108D01*
X-54927Y-11149D01*
X-54835Y-11186D01*
X-54742Y-11220D01*
X-54647Y-11250D01*
X-54551Y-11276D01*
X-54454Y-11299D01*
X-54356Y-11318D01*
X-54258Y-11333D01*
X-54159Y-11344D01*
X-54060Y-11352D01*
X-53961Y-11356D01*
X-53861Y-11356D01*
X-53762Y-11352D01*
X-53663Y-11344D01*
X-53564Y-11333D01*
X-53466Y-11318D01*
X-53368Y-11299D01*
X-53271Y-11276D01*
X-53175Y-11250D01*
X-53080Y-11220D01*
X-52987Y-11186D01*
X-52895Y-11149D01*
X-52804Y-11108D01*
X-52715Y-11064D01*
X-52627Y-11016D01*
X-52542Y-10966D01*
X-52458Y-10912D01*
X-52377Y-10854D01*
X-52298Y-10794D01*
X-52221Y-10731D01*
X-52147Y-10665D01*
X-52075Y-10596D01*
X-47485Y-6006D01*
X-47416Y-5935D01*
X-47349Y-5860D01*
X-47286Y-5784D01*
X-47226Y-5705D01*
X-47169Y-5623D01*
X-47115Y-5540D01*
X-47064Y-5454D01*
X-47016Y-5367D01*
X-46972Y-5278D01*
X-46931Y-5187D01*
X-46894Y-5095D01*
X-46860Y-5001D01*
X-46830Y-4906D01*
X-46804Y-4810D01*
X-46781Y-4713D01*
X-46763Y-4616D01*
X-46747Y-4517D01*
X-46736Y-4418D01*
X-46728Y-4319D01*
X-46724Y-4220D01*
X-46724Y-4120D01*
X-46728Y-4021D01*
X-46736Y-3922D01*
X-46747Y-3823D01*
X-46762Y-3725D01*
X-46781Y-3627D01*
X-46804Y-3530D01*
X-46830Y-3434D01*
X-46860Y-3339D01*
X-46894Y-3246D01*
X-46931Y-3153D01*
X-46972Y-3062D01*
X-47016Y-2973D01*
X-47064Y-2886D01*
X-47114Y-2800D01*
X-47169Y-2717D01*
X-47226Y-2636D01*
X-47286Y-2556D01*
X-47349Y-2480D01*
X-47416Y-2405D01*
X-47485Y-2334D01*
X-49321Y-498D01*
X-54244Y753D02*
X-54703Y4884D01*
X-62965Y-3378D01*
X-60670Y-5673D02*
X-65260Y-1083D01*
D13*
G36*
X2279Y-35900D02*
X4400Y-33779D01*
X6521Y-35900D01*
X4400Y-38021D01*
X2279Y-35900D01*
G37*
G36*
X9579Y-28400D02*
X11700Y-26279D01*
X13821Y-28400D01*
X11700Y-30521D01*
X9579Y-28400D01*
G37*
M02*
