G04 EAGLE Gerber X2 export*
%TF.Part,Single*%
%TF.FileFunction,Profile,NP*%
%TF.FilePolarity,Positive*%
%TF.GenerationSoftware,Autodesk,EAGLE,9.0.1*%
%TF.CreationDate,2018-12-20T16:05:16Z*%
G75*
%MOMM*%
%FSLAX34Y34*%
%LPD*%
%AMOC8*
5,1,8,0,0,1.08239X$1,22.5*%
G01*
%ADD10C,0.254000*%


D10*
X-150000Y-150000D02*
X150000Y-150000D01*
X150000Y150000D01*
X-150000Y150000D01*
X-150000Y-150000D01*
X-110000Y-125536D02*
X-110076Y-126604D01*
X-110229Y-127665D01*
X-110457Y-128712D01*
X-110759Y-129740D01*
X-111133Y-130744D01*
X-111578Y-131719D01*
X-112092Y-132659D01*
X-112671Y-133560D01*
X-113313Y-134418D01*
X-114015Y-135228D01*
X-114772Y-135985D01*
X-115582Y-136687D01*
X-116440Y-137329D01*
X-117341Y-137908D01*
X-118281Y-138422D01*
X-119256Y-138867D01*
X-120260Y-139241D01*
X-121288Y-139543D01*
X-122335Y-139771D01*
X-123396Y-139924D01*
X-124464Y-140000D01*
X-125536Y-140000D01*
X-126604Y-139924D01*
X-127665Y-139771D01*
X-128712Y-139543D01*
X-129740Y-139241D01*
X-130744Y-138867D01*
X-131719Y-138422D01*
X-132659Y-137908D01*
X-133560Y-137329D01*
X-134418Y-136687D01*
X-135228Y-135985D01*
X-135985Y-135228D01*
X-136687Y-134418D01*
X-137329Y-133560D01*
X-137908Y-132659D01*
X-138422Y-131719D01*
X-138867Y-130744D01*
X-139241Y-129740D01*
X-139543Y-128712D01*
X-139771Y-127665D01*
X-139924Y-126604D01*
X-140000Y-125536D01*
X-140000Y-124464D01*
X-139924Y-123396D01*
X-139771Y-122335D01*
X-139543Y-121288D01*
X-139241Y-120260D01*
X-138867Y-119256D01*
X-138422Y-118281D01*
X-137908Y-117341D01*
X-137329Y-116440D01*
X-136687Y-115582D01*
X-135985Y-114772D01*
X-135228Y-114015D01*
X-134418Y-113313D01*
X-133560Y-112671D01*
X-132659Y-112092D01*
X-131719Y-111578D01*
X-130744Y-111133D01*
X-129740Y-110759D01*
X-128712Y-110457D01*
X-127665Y-110229D01*
X-126604Y-110076D01*
X-125536Y-110000D01*
X-124464Y-110000D01*
X-123396Y-110076D01*
X-122335Y-110229D01*
X-121288Y-110457D01*
X-120260Y-110759D01*
X-119256Y-111133D01*
X-118281Y-111578D01*
X-117341Y-112092D01*
X-116440Y-112671D01*
X-115582Y-113313D01*
X-114772Y-114015D01*
X-114015Y-114772D01*
X-113313Y-115582D01*
X-112671Y-116440D01*
X-112092Y-117341D01*
X-111578Y-118281D01*
X-111133Y-119256D01*
X-110759Y-120260D01*
X-110457Y-121288D01*
X-110229Y-122335D01*
X-110076Y-123396D01*
X-110000Y-124464D01*
X-110000Y-125536D01*
X140000Y-125536D02*
X139924Y-126604D01*
X139771Y-127665D01*
X139543Y-128712D01*
X139241Y-129740D01*
X138867Y-130744D01*
X138422Y-131719D01*
X137908Y-132659D01*
X137329Y-133560D01*
X136687Y-134418D01*
X135985Y-135228D01*
X135228Y-135985D01*
X134418Y-136687D01*
X133560Y-137329D01*
X132659Y-137908D01*
X131719Y-138422D01*
X130744Y-138867D01*
X129740Y-139241D01*
X128712Y-139543D01*
X127665Y-139771D01*
X126604Y-139924D01*
X125536Y-140000D01*
X124464Y-140000D01*
X123396Y-139924D01*
X122335Y-139771D01*
X121288Y-139543D01*
X120260Y-139241D01*
X119256Y-138867D01*
X118281Y-138422D01*
X117341Y-137908D01*
X116440Y-137329D01*
X115582Y-136687D01*
X114772Y-135985D01*
X114015Y-135228D01*
X113313Y-134418D01*
X112671Y-133560D01*
X112092Y-132659D01*
X111578Y-131719D01*
X111133Y-130744D01*
X110759Y-129740D01*
X110457Y-128712D01*
X110229Y-127665D01*
X110076Y-126604D01*
X110000Y-125536D01*
X110000Y-124464D01*
X110076Y-123396D01*
X110229Y-122335D01*
X110457Y-121288D01*
X110759Y-120260D01*
X111133Y-119256D01*
X111578Y-118281D01*
X112092Y-117341D01*
X112671Y-116440D01*
X113313Y-115582D01*
X114015Y-114772D01*
X114772Y-114015D01*
X115582Y-113313D01*
X116440Y-112671D01*
X117341Y-112092D01*
X118281Y-111578D01*
X119256Y-111133D01*
X120260Y-110759D01*
X121288Y-110457D01*
X122335Y-110229D01*
X123396Y-110076D01*
X124464Y-110000D01*
X125536Y-110000D01*
X126604Y-110076D01*
X127665Y-110229D01*
X128712Y-110457D01*
X129740Y-110759D01*
X130744Y-111133D01*
X131719Y-111578D01*
X132659Y-112092D01*
X133560Y-112671D01*
X134418Y-113313D01*
X135228Y-114015D01*
X135985Y-114772D01*
X136687Y-115582D01*
X137329Y-116440D01*
X137908Y-117341D01*
X138422Y-118281D01*
X138867Y-119256D01*
X139241Y-120260D01*
X139543Y-121288D01*
X139771Y-122335D01*
X139924Y-123396D01*
X140000Y-124464D01*
X140000Y-125536D01*
X-110000Y124464D02*
X-110076Y123396D01*
X-110229Y122335D01*
X-110457Y121288D01*
X-110759Y120260D01*
X-111133Y119256D01*
X-111578Y118281D01*
X-112092Y117341D01*
X-112671Y116440D01*
X-113313Y115582D01*
X-114015Y114772D01*
X-114772Y114015D01*
X-115582Y113313D01*
X-116440Y112671D01*
X-117341Y112092D01*
X-118281Y111578D01*
X-119256Y111133D01*
X-120260Y110759D01*
X-121288Y110457D01*
X-122335Y110229D01*
X-123396Y110076D01*
X-124464Y110000D01*
X-125536Y110000D01*
X-126604Y110076D01*
X-127665Y110229D01*
X-128712Y110457D01*
X-129740Y110759D01*
X-130744Y111133D01*
X-131719Y111578D01*
X-132659Y112092D01*
X-133560Y112671D01*
X-134418Y113313D01*
X-135228Y114015D01*
X-135985Y114772D01*
X-136687Y115582D01*
X-137329Y116440D01*
X-137908Y117341D01*
X-138422Y118281D01*
X-138867Y119256D01*
X-139241Y120260D01*
X-139543Y121288D01*
X-139771Y122335D01*
X-139924Y123396D01*
X-140000Y124464D01*
X-140000Y125536D01*
X-139924Y126604D01*
X-139771Y127665D01*
X-139543Y128712D01*
X-139241Y129740D01*
X-138867Y130744D01*
X-138422Y131719D01*
X-137908Y132659D01*
X-137329Y133560D01*
X-136687Y134418D01*
X-135985Y135228D01*
X-135228Y135985D01*
X-134418Y136687D01*
X-133560Y137329D01*
X-132659Y137908D01*
X-131719Y138422D01*
X-130744Y138867D01*
X-129740Y139241D01*
X-128712Y139543D01*
X-127665Y139771D01*
X-126604Y139924D01*
X-125536Y140000D01*
X-124464Y140000D01*
X-123396Y139924D01*
X-122335Y139771D01*
X-121288Y139543D01*
X-120260Y139241D01*
X-119256Y138867D01*
X-118281Y138422D01*
X-117341Y137908D01*
X-116440Y137329D01*
X-115582Y136687D01*
X-114772Y135985D01*
X-114015Y135228D01*
X-113313Y134418D01*
X-112671Y133560D01*
X-112092Y132659D01*
X-111578Y131719D01*
X-111133Y130744D01*
X-110759Y129740D01*
X-110457Y128712D01*
X-110229Y127665D01*
X-110076Y126604D01*
X-110000Y125536D01*
X-110000Y124464D01*
X140000Y124464D02*
X139924Y123396D01*
X139771Y122335D01*
X139543Y121288D01*
X139241Y120260D01*
X138867Y119256D01*
X138422Y118281D01*
X137908Y117341D01*
X137329Y116440D01*
X136687Y115582D01*
X135985Y114772D01*
X135228Y114015D01*
X134418Y113313D01*
X133560Y112671D01*
X132659Y112092D01*
X131719Y111578D01*
X130744Y111133D01*
X129740Y110759D01*
X128712Y110457D01*
X127665Y110229D01*
X126604Y110076D01*
X125536Y110000D01*
X124464Y110000D01*
X123396Y110076D01*
X122335Y110229D01*
X121288Y110457D01*
X120260Y110759D01*
X119256Y111133D01*
X118281Y111578D01*
X117341Y112092D01*
X116440Y112671D01*
X115582Y113313D01*
X114772Y114015D01*
X114015Y114772D01*
X113313Y115582D01*
X112671Y116440D01*
X112092Y117341D01*
X111578Y118281D01*
X111133Y119256D01*
X110759Y120260D01*
X110457Y121288D01*
X110229Y122335D01*
X110076Y123396D01*
X110000Y124464D01*
X110000Y125536D01*
X110076Y126604D01*
X110229Y127665D01*
X110457Y128712D01*
X110759Y129740D01*
X111133Y130744D01*
X111578Y131719D01*
X112092Y132659D01*
X112671Y133560D01*
X113313Y134418D01*
X114015Y135228D01*
X114772Y135985D01*
X115582Y136687D01*
X116440Y137329D01*
X117341Y137908D01*
X118281Y138422D01*
X119256Y138867D01*
X120260Y139241D01*
X121288Y139543D01*
X122335Y139771D01*
X123396Y139924D01*
X124464Y140000D01*
X125536Y140000D01*
X126604Y139924D01*
X127665Y139771D01*
X128712Y139543D01*
X129740Y139241D01*
X130744Y138867D01*
X131719Y138422D01*
X132659Y137908D01*
X133560Y137329D01*
X134418Y136687D01*
X135228Y135985D01*
X135985Y135228D01*
X136687Y134418D01*
X137329Y133560D01*
X137908Y132659D01*
X138422Y131719D01*
X138867Y130744D01*
X139241Y129740D01*
X139543Y128712D01*
X139771Y127665D01*
X139924Y126604D01*
X140000Y125536D01*
X140000Y124464D01*
X-17500Y78303D02*
X-17562Y77915D01*
X-17683Y77540D01*
X-17862Y77190D01*
X-18093Y76871D01*
X-18371Y76593D01*
X-18690Y76362D01*
X-19040Y76183D01*
X-19415Y76062D01*
X-19803Y76000D01*
X-20197Y76000D01*
X-20585Y76062D01*
X-20960Y76183D01*
X-21310Y76362D01*
X-21629Y76593D01*
X-21907Y76871D01*
X-22138Y77190D01*
X-22317Y77540D01*
X-22438Y77915D01*
X-22500Y78303D01*
X-22500Y78697D01*
X-22438Y79085D01*
X-22317Y79460D01*
X-22138Y79810D01*
X-21907Y80129D01*
X-21629Y80407D01*
X-21310Y80638D01*
X-20960Y80817D01*
X-20585Y80938D01*
X-20197Y81000D01*
X-19803Y81000D01*
X-19415Y80938D01*
X-19040Y80817D01*
X-18690Y80638D01*
X-18371Y80407D01*
X-18093Y80129D01*
X-17862Y79810D01*
X-17683Y79460D01*
X-17562Y79085D01*
X-17500Y78697D01*
X-17500Y78303D01*
X-7500Y78303D02*
X-7562Y77915D01*
X-7683Y77540D01*
X-7862Y77190D01*
X-8093Y76871D01*
X-8371Y76593D01*
X-8690Y76362D01*
X-9040Y76183D01*
X-9415Y76062D01*
X-9803Y76000D01*
X-10197Y76000D01*
X-10585Y76062D01*
X-10960Y76183D01*
X-11310Y76362D01*
X-11629Y76593D01*
X-11907Y76871D01*
X-12138Y77190D01*
X-12317Y77540D01*
X-12438Y77915D01*
X-12500Y78303D01*
X-12500Y78697D01*
X-12438Y79085D01*
X-12317Y79460D01*
X-12138Y79810D01*
X-11907Y80129D01*
X-11629Y80407D01*
X-11310Y80638D01*
X-10960Y80817D01*
X-10585Y80938D01*
X-10197Y81000D01*
X-9803Y81000D01*
X-9415Y80938D01*
X-9040Y80817D01*
X-8690Y80638D01*
X-8371Y80407D01*
X-8093Y80129D01*
X-7862Y79810D01*
X-7683Y79460D01*
X-7562Y79085D01*
X-7500Y78697D01*
X-7500Y78303D01*
X2500Y78303D02*
X2438Y77915D01*
X2317Y77540D01*
X2138Y77190D01*
X1907Y76871D01*
X1629Y76593D01*
X1310Y76362D01*
X960Y76183D01*
X585Y76062D01*
X197Y76000D01*
X-197Y76000D01*
X-585Y76062D01*
X-960Y76183D01*
X-1310Y76362D01*
X-1629Y76593D01*
X-1907Y76871D01*
X-2138Y77190D01*
X-2317Y77540D01*
X-2438Y77915D01*
X-2500Y78303D01*
X-2500Y78697D01*
X-2438Y79085D01*
X-2317Y79460D01*
X-2138Y79810D01*
X-1907Y80129D01*
X-1629Y80407D01*
X-1310Y80638D01*
X-960Y80817D01*
X-585Y80938D01*
X-197Y81000D01*
X197Y81000D01*
X585Y80938D01*
X960Y80817D01*
X1310Y80638D01*
X1629Y80407D01*
X1907Y80129D01*
X2138Y79810D01*
X2317Y79460D01*
X2438Y79085D01*
X2500Y78697D01*
X2500Y78303D01*
X12500Y78303D02*
X12438Y77915D01*
X12317Y77540D01*
X12138Y77190D01*
X11907Y76871D01*
X11629Y76593D01*
X11310Y76362D01*
X10960Y76183D01*
X10585Y76062D01*
X10197Y76000D01*
X9803Y76000D01*
X9415Y76062D01*
X9040Y76183D01*
X8690Y76362D01*
X8371Y76593D01*
X8093Y76871D01*
X7862Y77190D01*
X7683Y77540D01*
X7562Y77915D01*
X7500Y78303D01*
X7500Y78697D01*
X7562Y79085D01*
X7683Y79460D01*
X7862Y79810D01*
X8093Y80129D01*
X8371Y80407D01*
X8690Y80638D01*
X9040Y80817D01*
X9415Y80938D01*
X9803Y81000D01*
X10197Y81000D01*
X10585Y80938D01*
X10960Y80817D01*
X11310Y80638D01*
X11629Y80407D01*
X11907Y80129D01*
X12138Y79810D01*
X12317Y79460D01*
X12438Y79085D01*
X12500Y78697D01*
X12500Y78303D01*
X22500Y78303D02*
X22438Y77915D01*
X22317Y77540D01*
X22138Y77190D01*
X21907Y76871D01*
X21629Y76593D01*
X21310Y76362D01*
X20960Y76183D01*
X20585Y76062D01*
X20197Y76000D01*
X19803Y76000D01*
X19415Y76062D01*
X19040Y76183D01*
X18690Y76362D01*
X18371Y76593D01*
X18093Y76871D01*
X17862Y77190D01*
X17683Y77540D01*
X17562Y77915D01*
X17500Y78303D01*
X17500Y78697D01*
X17562Y79085D01*
X17683Y79460D01*
X17862Y79810D01*
X18093Y80129D01*
X18371Y80407D01*
X18690Y80638D01*
X19040Y80817D01*
X19415Y80938D01*
X19803Y81000D01*
X20197Y81000D01*
X20585Y80938D01*
X20960Y80817D01*
X21310Y80638D01*
X21629Y80407D01*
X21907Y80129D01*
X22138Y79810D01*
X22317Y79460D01*
X22438Y79085D01*
X22500Y78697D01*
X22500Y78303D01*
X-17500Y98303D02*
X-17562Y97915D01*
X-17683Y97540D01*
X-17862Y97190D01*
X-18093Y96871D01*
X-18371Y96593D01*
X-18690Y96362D01*
X-19040Y96183D01*
X-19415Y96062D01*
X-19803Y96000D01*
X-20197Y96000D01*
X-20585Y96062D01*
X-20960Y96183D01*
X-21310Y96362D01*
X-21629Y96593D01*
X-21907Y96871D01*
X-22138Y97190D01*
X-22317Y97540D01*
X-22438Y97915D01*
X-22500Y98303D01*
X-22500Y98697D01*
X-22438Y99085D01*
X-22317Y99460D01*
X-22138Y99810D01*
X-21907Y100129D01*
X-21629Y100407D01*
X-21310Y100638D01*
X-20960Y100817D01*
X-20585Y100938D01*
X-20197Y101000D01*
X-19803Y101000D01*
X-19415Y100938D01*
X-19040Y100817D01*
X-18690Y100638D01*
X-18371Y100407D01*
X-18093Y100129D01*
X-17862Y99810D01*
X-17683Y99460D01*
X-17562Y99085D01*
X-17500Y98697D01*
X-17500Y98303D01*
X-7500Y98303D02*
X-7562Y97915D01*
X-7683Y97540D01*
X-7862Y97190D01*
X-8093Y96871D01*
X-8371Y96593D01*
X-8690Y96362D01*
X-9040Y96183D01*
X-9415Y96062D01*
X-9803Y96000D01*
X-10197Y96000D01*
X-10585Y96062D01*
X-10960Y96183D01*
X-11310Y96362D01*
X-11629Y96593D01*
X-11907Y96871D01*
X-12138Y97190D01*
X-12317Y97540D01*
X-12438Y97915D01*
X-12500Y98303D01*
X-12500Y98697D01*
X-12438Y99085D01*
X-12317Y99460D01*
X-12138Y99810D01*
X-11907Y100129D01*
X-11629Y100407D01*
X-11310Y100638D01*
X-10960Y100817D01*
X-10585Y100938D01*
X-10197Y101000D01*
X-9803Y101000D01*
X-9415Y100938D01*
X-9040Y100817D01*
X-8690Y100638D01*
X-8371Y100407D01*
X-8093Y100129D01*
X-7862Y99810D01*
X-7683Y99460D01*
X-7562Y99085D01*
X-7500Y98697D01*
X-7500Y98303D01*
X2500Y98303D02*
X2438Y97915D01*
X2317Y97540D01*
X2138Y97190D01*
X1907Y96871D01*
X1629Y96593D01*
X1310Y96362D01*
X960Y96183D01*
X585Y96062D01*
X197Y96000D01*
X-197Y96000D01*
X-585Y96062D01*
X-960Y96183D01*
X-1310Y96362D01*
X-1629Y96593D01*
X-1907Y96871D01*
X-2138Y97190D01*
X-2317Y97540D01*
X-2438Y97915D01*
X-2500Y98303D01*
X-2500Y98697D01*
X-2438Y99085D01*
X-2317Y99460D01*
X-2138Y99810D01*
X-1907Y100129D01*
X-1629Y100407D01*
X-1310Y100638D01*
X-960Y100817D01*
X-585Y100938D01*
X-197Y101000D01*
X197Y101000D01*
X585Y100938D01*
X960Y100817D01*
X1310Y100638D01*
X1629Y100407D01*
X1907Y100129D01*
X2138Y99810D01*
X2317Y99460D01*
X2438Y99085D01*
X2500Y98697D01*
X2500Y98303D01*
X12500Y98303D02*
X12438Y97915D01*
X12317Y97540D01*
X12138Y97190D01*
X11907Y96871D01*
X11629Y96593D01*
X11310Y96362D01*
X10960Y96183D01*
X10585Y96062D01*
X10197Y96000D01*
X9803Y96000D01*
X9415Y96062D01*
X9040Y96183D01*
X8690Y96362D01*
X8371Y96593D01*
X8093Y96871D01*
X7862Y97190D01*
X7683Y97540D01*
X7562Y97915D01*
X7500Y98303D01*
X7500Y98697D01*
X7562Y99085D01*
X7683Y99460D01*
X7862Y99810D01*
X8093Y100129D01*
X8371Y100407D01*
X8690Y100638D01*
X9040Y100817D01*
X9415Y100938D01*
X9803Y101000D01*
X10197Y101000D01*
X10585Y100938D01*
X10960Y100817D01*
X11310Y100638D01*
X11629Y100407D01*
X11907Y100129D01*
X12138Y99810D01*
X12317Y99460D01*
X12438Y99085D01*
X12500Y98697D01*
X12500Y98303D01*
X22500Y98303D02*
X22438Y97915D01*
X22317Y97540D01*
X22138Y97190D01*
X21907Y96871D01*
X21629Y96593D01*
X21310Y96362D01*
X20960Y96183D01*
X20585Y96062D01*
X20197Y96000D01*
X19803Y96000D01*
X19415Y96062D01*
X19040Y96183D01*
X18690Y96362D01*
X18371Y96593D01*
X18093Y96871D01*
X17862Y97190D01*
X17683Y97540D01*
X17562Y97915D01*
X17500Y98303D01*
X17500Y98697D01*
X17562Y99085D01*
X17683Y99460D01*
X17862Y99810D01*
X18093Y100129D01*
X18371Y100407D01*
X18690Y100638D01*
X19040Y100817D01*
X19415Y100938D01*
X19803Y101000D01*
X20197Y101000D01*
X20585Y100938D01*
X20960Y100817D01*
X21310Y100638D01*
X21629Y100407D01*
X21907Y100129D01*
X22138Y99810D01*
X22317Y99460D01*
X22438Y99085D01*
X22500Y98697D01*
X22500Y98303D01*
X-76100Y-20097D02*
X-76162Y-20485D01*
X-76283Y-20860D01*
X-76462Y-21210D01*
X-76693Y-21529D01*
X-76971Y-21807D01*
X-77290Y-22038D01*
X-77640Y-22217D01*
X-78015Y-22338D01*
X-78403Y-22400D01*
X-78797Y-22400D01*
X-79185Y-22338D01*
X-79560Y-22217D01*
X-79910Y-22038D01*
X-80229Y-21807D01*
X-80507Y-21529D01*
X-80738Y-21210D01*
X-80917Y-20860D01*
X-81038Y-20485D01*
X-81100Y-20097D01*
X-81100Y-19703D01*
X-81038Y-19315D01*
X-80917Y-18940D01*
X-80738Y-18590D01*
X-80507Y-18271D01*
X-80229Y-17993D01*
X-79910Y-17762D01*
X-79560Y-17583D01*
X-79185Y-17462D01*
X-78797Y-17400D01*
X-78403Y-17400D01*
X-78015Y-17462D01*
X-77640Y-17583D01*
X-77290Y-17762D01*
X-76971Y-17993D01*
X-76693Y-18271D01*
X-76462Y-18590D01*
X-76283Y-18940D01*
X-76162Y-19315D01*
X-76100Y-19703D01*
X-76100Y-20097D01*
X-76100Y-10097D02*
X-76162Y-10485D01*
X-76283Y-10860D01*
X-76462Y-11210D01*
X-76693Y-11529D01*
X-76971Y-11807D01*
X-77290Y-12038D01*
X-77640Y-12217D01*
X-78015Y-12338D01*
X-78403Y-12400D01*
X-78797Y-12400D01*
X-79185Y-12338D01*
X-79560Y-12217D01*
X-79910Y-12038D01*
X-80229Y-11807D01*
X-80507Y-11529D01*
X-80738Y-11210D01*
X-80917Y-10860D01*
X-81038Y-10485D01*
X-81100Y-10097D01*
X-81100Y-9703D01*
X-81038Y-9315D01*
X-80917Y-8940D01*
X-80738Y-8590D01*
X-80507Y-8271D01*
X-80229Y-7993D01*
X-79910Y-7762D01*
X-79560Y-7583D01*
X-79185Y-7462D01*
X-78797Y-7400D01*
X-78403Y-7400D01*
X-78015Y-7462D01*
X-77640Y-7583D01*
X-77290Y-7762D01*
X-76971Y-7993D01*
X-76693Y-8271D01*
X-76462Y-8590D01*
X-76283Y-8940D01*
X-76162Y-9315D01*
X-76100Y-9703D01*
X-76100Y-10097D01*
X-76100Y-97D02*
X-76162Y-485D01*
X-76283Y-860D01*
X-76462Y-1210D01*
X-76693Y-1529D01*
X-76971Y-1807D01*
X-77290Y-2038D01*
X-77640Y-2217D01*
X-78015Y-2338D01*
X-78403Y-2400D01*
X-78797Y-2400D01*
X-79185Y-2338D01*
X-79560Y-2217D01*
X-79910Y-2038D01*
X-80229Y-1807D01*
X-80507Y-1529D01*
X-80738Y-1210D01*
X-80917Y-860D01*
X-81038Y-485D01*
X-81100Y-97D01*
X-81100Y297D01*
X-81038Y685D01*
X-80917Y1060D01*
X-80738Y1410D01*
X-80507Y1729D01*
X-80229Y2007D01*
X-79910Y2238D01*
X-79560Y2417D01*
X-79185Y2538D01*
X-78797Y2600D01*
X-78403Y2600D01*
X-78015Y2538D01*
X-77640Y2417D01*
X-77290Y2238D01*
X-76971Y2007D01*
X-76693Y1729D01*
X-76462Y1410D01*
X-76283Y1060D01*
X-76162Y685D01*
X-76100Y297D01*
X-76100Y-97D01*
X-76100Y9903D02*
X-76162Y9515D01*
X-76283Y9140D01*
X-76462Y8790D01*
X-76693Y8471D01*
X-76971Y8193D01*
X-77290Y7962D01*
X-77640Y7783D01*
X-78015Y7662D01*
X-78403Y7600D01*
X-78797Y7600D01*
X-79185Y7662D01*
X-79560Y7783D01*
X-79910Y7962D01*
X-80229Y8193D01*
X-80507Y8471D01*
X-80738Y8790D01*
X-80917Y9140D01*
X-81038Y9515D01*
X-81100Y9903D01*
X-81100Y10297D01*
X-81038Y10685D01*
X-80917Y11060D01*
X-80738Y11410D01*
X-80507Y11729D01*
X-80229Y12007D01*
X-79910Y12238D01*
X-79560Y12417D01*
X-79185Y12538D01*
X-78797Y12600D01*
X-78403Y12600D01*
X-78015Y12538D01*
X-77640Y12417D01*
X-77290Y12238D01*
X-76971Y12007D01*
X-76693Y11729D01*
X-76462Y11410D01*
X-76283Y11060D01*
X-76162Y10685D01*
X-76100Y10297D01*
X-76100Y9903D01*
X-76100Y19903D02*
X-76162Y19515D01*
X-76283Y19140D01*
X-76462Y18790D01*
X-76693Y18471D01*
X-76971Y18193D01*
X-77290Y17962D01*
X-77640Y17783D01*
X-78015Y17662D01*
X-78403Y17600D01*
X-78797Y17600D01*
X-79185Y17662D01*
X-79560Y17783D01*
X-79910Y17962D01*
X-80229Y18193D01*
X-80507Y18471D01*
X-80738Y18790D01*
X-80917Y19140D01*
X-81038Y19515D01*
X-81100Y19903D01*
X-81100Y20297D01*
X-81038Y20685D01*
X-80917Y21060D01*
X-80738Y21410D01*
X-80507Y21729D01*
X-80229Y22007D01*
X-79910Y22238D01*
X-79560Y22417D01*
X-79185Y22538D01*
X-78797Y22600D01*
X-78403Y22600D01*
X-78015Y22538D01*
X-77640Y22417D01*
X-77290Y22238D01*
X-76971Y22007D01*
X-76693Y21729D01*
X-76462Y21410D01*
X-76283Y21060D01*
X-76162Y20685D01*
X-76100Y20297D01*
X-76100Y19903D01*
X-96100Y-20097D02*
X-96162Y-20485D01*
X-96283Y-20860D01*
X-96462Y-21210D01*
X-96693Y-21529D01*
X-96971Y-21807D01*
X-97290Y-22038D01*
X-97640Y-22217D01*
X-98015Y-22338D01*
X-98403Y-22400D01*
X-98797Y-22400D01*
X-99185Y-22338D01*
X-99560Y-22217D01*
X-99910Y-22038D01*
X-100229Y-21807D01*
X-100507Y-21529D01*
X-100738Y-21210D01*
X-100917Y-20860D01*
X-101038Y-20485D01*
X-101100Y-20097D01*
X-101100Y-19703D01*
X-101038Y-19315D01*
X-100917Y-18940D01*
X-100738Y-18590D01*
X-100507Y-18271D01*
X-100229Y-17993D01*
X-99910Y-17762D01*
X-99560Y-17583D01*
X-99185Y-17462D01*
X-98797Y-17400D01*
X-98403Y-17400D01*
X-98015Y-17462D01*
X-97640Y-17583D01*
X-97290Y-17762D01*
X-96971Y-17993D01*
X-96693Y-18271D01*
X-96462Y-18590D01*
X-96283Y-18940D01*
X-96162Y-19315D01*
X-96100Y-19703D01*
X-96100Y-20097D01*
X-96100Y-10097D02*
X-96162Y-10485D01*
X-96283Y-10860D01*
X-96462Y-11210D01*
X-96693Y-11529D01*
X-96971Y-11807D01*
X-97290Y-12038D01*
X-97640Y-12217D01*
X-98015Y-12338D01*
X-98403Y-12400D01*
X-98797Y-12400D01*
X-99185Y-12338D01*
X-99560Y-12217D01*
X-99910Y-12038D01*
X-100229Y-11807D01*
X-100507Y-11529D01*
X-100738Y-11210D01*
X-100917Y-10860D01*
X-101038Y-10485D01*
X-101100Y-10097D01*
X-101100Y-9703D01*
X-101038Y-9315D01*
X-100917Y-8940D01*
X-100738Y-8590D01*
X-100507Y-8271D01*
X-100229Y-7993D01*
X-99910Y-7762D01*
X-99560Y-7583D01*
X-99185Y-7462D01*
X-98797Y-7400D01*
X-98403Y-7400D01*
X-98015Y-7462D01*
X-97640Y-7583D01*
X-97290Y-7762D01*
X-96971Y-7993D01*
X-96693Y-8271D01*
X-96462Y-8590D01*
X-96283Y-8940D01*
X-96162Y-9315D01*
X-96100Y-9703D01*
X-96100Y-10097D01*
X-96100Y-97D02*
X-96162Y-485D01*
X-96283Y-860D01*
X-96462Y-1210D01*
X-96693Y-1529D01*
X-96971Y-1807D01*
X-97290Y-2038D01*
X-97640Y-2217D01*
X-98015Y-2338D01*
X-98403Y-2400D01*
X-98797Y-2400D01*
X-99185Y-2338D01*
X-99560Y-2217D01*
X-99910Y-2038D01*
X-100229Y-1807D01*
X-100507Y-1529D01*
X-100738Y-1210D01*
X-100917Y-860D01*
X-101038Y-485D01*
X-101100Y-97D01*
X-101100Y297D01*
X-101038Y685D01*
X-100917Y1060D01*
X-100738Y1410D01*
X-100507Y1729D01*
X-100229Y2007D01*
X-99910Y2238D01*
X-99560Y2417D01*
X-99185Y2538D01*
X-98797Y2600D01*
X-98403Y2600D01*
X-98015Y2538D01*
X-97640Y2417D01*
X-97290Y2238D01*
X-96971Y2007D01*
X-96693Y1729D01*
X-96462Y1410D01*
X-96283Y1060D01*
X-96162Y685D01*
X-96100Y297D01*
X-96100Y-97D01*
X-96100Y9903D02*
X-96162Y9515D01*
X-96283Y9140D01*
X-96462Y8790D01*
X-96693Y8471D01*
X-96971Y8193D01*
X-97290Y7962D01*
X-97640Y7783D01*
X-98015Y7662D01*
X-98403Y7600D01*
X-98797Y7600D01*
X-99185Y7662D01*
X-99560Y7783D01*
X-99910Y7962D01*
X-100229Y8193D01*
X-100507Y8471D01*
X-100738Y8790D01*
X-100917Y9140D01*
X-101038Y9515D01*
X-101100Y9903D01*
X-101100Y10297D01*
X-101038Y10685D01*
X-100917Y11060D01*
X-100738Y11410D01*
X-100507Y11729D01*
X-100229Y12007D01*
X-99910Y12238D01*
X-99560Y12417D01*
X-99185Y12538D01*
X-98797Y12600D01*
X-98403Y12600D01*
X-98015Y12538D01*
X-97640Y12417D01*
X-97290Y12238D01*
X-96971Y12007D01*
X-96693Y11729D01*
X-96462Y11410D01*
X-96283Y11060D01*
X-96162Y10685D01*
X-96100Y10297D01*
X-96100Y9903D01*
X-96100Y19903D02*
X-96162Y19515D01*
X-96283Y19140D01*
X-96462Y18790D01*
X-96693Y18471D01*
X-96971Y18193D01*
X-97290Y17962D01*
X-97640Y17783D01*
X-98015Y17662D01*
X-98403Y17600D01*
X-98797Y17600D01*
X-99185Y17662D01*
X-99560Y17783D01*
X-99910Y17962D01*
X-100229Y18193D01*
X-100507Y18471D01*
X-100738Y18790D01*
X-100917Y19140D01*
X-101038Y19515D01*
X-101100Y19903D01*
X-101100Y20297D01*
X-101038Y20685D01*
X-100917Y21060D01*
X-100738Y21410D01*
X-100507Y21729D01*
X-100229Y22007D01*
X-99910Y22238D01*
X-99560Y22417D01*
X-99185Y22538D01*
X-98797Y22600D01*
X-98403Y22600D01*
X-98015Y22538D01*
X-97640Y22417D01*
X-97290Y22238D01*
X-96971Y22007D01*
X-96693Y21729D01*
X-96462Y21410D01*
X-96283Y21060D01*
X-96162Y20685D01*
X-96100Y20297D01*
X-96100Y19903D01*
X101000Y-20197D02*
X100938Y-20585D01*
X100817Y-20960D01*
X100638Y-21310D01*
X100407Y-21629D01*
X100129Y-21907D01*
X99810Y-22138D01*
X99460Y-22317D01*
X99085Y-22438D01*
X98697Y-22500D01*
X98303Y-22500D01*
X97915Y-22438D01*
X97540Y-22317D01*
X97190Y-22138D01*
X96871Y-21907D01*
X96593Y-21629D01*
X96362Y-21310D01*
X96183Y-20960D01*
X96062Y-20585D01*
X96000Y-20197D01*
X96000Y-19803D01*
X96062Y-19415D01*
X96183Y-19040D01*
X96362Y-18690D01*
X96593Y-18371D01*
X96871Y-18093D01*
X97190Y-17862D01*
X97540Y-17683D01*
X97915Y-17562D01*
X98303Y-17500D01*
X98697Y-17500D01*
X99085Y-17562D01*
X99460Y-17683D01*
X99810Y-17862D01*
X100129Y-18093D01*
X100407Y-18371D01*
X100638Y-18690D01*
X100817Y-19040D01*
X100938Y-19415D01*
X101000Y-19803D01*
X101000Y-20197D01*
X101000Y-10197D02*
X100938Y-10585D01*
X100817Y-10960D01*
X100638Y-11310D01*
X100407Y-11629D01*
X100129Y-11907D01*
X99810Y-12138D01*
X99460Y-12317D01*
X99085Y-12438D01*
X98697Y-12500D01*
X98303Y-12500D01*
X97915Y-12438D01*
X97540Y-12317D01*
X97190Y-12138D01*
X96871Y-11907D01*
X96593Y-11629D01*
X96362Y-11310D01*
X96183Y-10960D01*
X96062Y-10585D01*
X96000Y-10197D01*
X96000Y-9803D01*
X96062Y-9415D01*
X96183Y-9040D01*
X96362Y-8690D01*
X96593Y-8371D01*
X96871Y-8093D01*
X97190Y-7862D01*
X97540Y-7683D01*
X97915Y-7562D01*
X98303Y-7500D01*
X98697Y-7500D01*
X99085Y-7562D01*
X99460Y-7683D01*
X99810Y-7862D01*
X100129Y-8093D01*
X100407Y-8371D01*
X100638Y-8690D01*
X100817Y-9040D01*
X100938Y-9415D01*
X101000Y-9803D01*
X101000Y-10197D01*
X101000Y-197D02*
X100938Y-585D01*
X100817Y-960D01*
X100638Y-1310D01*
X100407Y-1629D01*
X100129Y-1907D01*
X99810Y-2138D01*
X99460Y-2317D01*
X99085Y-2438D01*
X98697Y-2500D01*
X98303Y-2500D01*
X97915Y-2438D01*
X97540Y-2317D01*
X97190Y-2138D01*
X96871Y-1907D01*
X96593Y-1629D01*
X96362Y-1310D01*
X96183Y-960D01*
X96062Y-585D01*
X96000Y-197D01*
X96000Y197D01*
X96062Y585D01*
X96183Y960D01*
X96362Y1310D01*
X96593Y1629D01*
X96871Y1907D01*
X97190Y2138D01*
X97540Y2317D01*
X97915Y2438D01*
X98303Y2500D01*
X98697Y2500D01*
X99085Y2438D01*
X99460Y2317D01*
X99810Y2138D01*
X100129Y1907D01*
X100407Y1629D01*
X100638Y1310D01*
X100817Y960D01*
X100938Y585D01*
X101000Y197D01*
X101000Y-197D01*
X101000Y9803D02*
X100938Y9415D01*
X100817Y9040D01*
X100638Y8690D01*
X100407Y8371D01*
X100129Y8093D01*
X99810Y7862D01*
X99460Y7683D01*
X99085Y7562D01*
X98697Y7500D01*
X98303Y7500D01*
X97915Y7562D01*
X97540Y7683D01*
X97190Y7862D01*
X96871Y8093D01*
X96593Y8371D01*
X96362Y8690D01*
X96183Y9040D01*
X96062Y9415D01*
X96000Y9803D01*
X96000Y10197D01*
X96062Y10585D01*
X96183Y10960D01*
X96362Y11310D01*
X96593Y11629D01*
X96871Y11907D01*
X97190Y12138D01*
X97540Y12317D01*
X97915Y12438D01*
X98303Y12500D01*
X98697Y12500D01*
X99085Y12438D01*
X99460Y12317D01*
X99810Y12138D01*
X100129Y11907D01*
X100407Y11629D01*
X100638Y11310D01*
X100817Y10960D01*
X100938Y10585D01*
X101000Y10197D01*
X101000Y9803D01*
X101000Y19803D02*
X100938Y19415D01*
X100817Y19040D01*
X100638Y18690D01*
X100407Y18371D01*
X100129Y18093D01*
X99810Y17862D01*
X99460Y17683D01*
X99085Y17562D01*
X98697Y17500D01*
X98303Y17500D01*
X97915Y17562D01*
X97540Y17683D01*
X97190Y17862D01*
X96871Y18093D01*
X96593Y18371D01*
X96362Y18690D01*
X96183Y19040D01*
X96062Y19415D01*
X96000Y19803D01*
X96000Y20197D01*
X96062Y20585D01*
X96183Y20960D01*
X96362Y21310D01*
X96593Y21629D01*
X96871Y21907D01*
X97190Y22138D01*
X97540Y22317D01*
X97915Y22438D01*
X98303Y22500D01*
X98697Y22500D01*
X99085Y22438D01*
X99460Y22317D01*
X99810Y22138D01*
X100129Y21907D01*
X100407Y21629D01*
X100638Y21310D01*
X100817Y20960D01*
X100938Y20585D01*
X101000Y20197D01*
X101000Y19803D01*
X81000Y-20197D02*
X80938Y-20585D01*
X80817Y-20960D01*
X80638Y-21310D01*
X80407Y-21629D01*
X80129Y-21907D01*
X79810Y-22138D01*
X79460Y-22317D01*
X79085Y-22438D01*
X78697Y-22500D01*
X78303Y-22500D01*
X77915Y-22438D01*
X77540Y-22317D01*
X77190Y-22138D01*
X76871Y-21907D01*
X76593Y-21629D01*
X76362Y-21310D01*
X76183Y-20960D01*
X76062Y-20585D01*
X76000Y-20197D01*
X76000Y-19803D01*
X76062Y-19415D01*
X76183Y-19040D01*
X76362Y-18690D01*
X76593Y-18371D01*
X76871Y-18093D01*
X77190Y-17862D01*
X77540Y-17683D01*
X77915Y-17562D01*
X78303Y-17500D01*
X78697Y-17500D01*
X79085Y-17562D01*
X79460Y-17683D01*
X79810Y-17862D01*
X80129Y-18093D01*
X80407Y-18371D01*
X80638Y-18690D01*
X80817Y-19040D01*
X80938Y-19415D01*
X81000Y-19803D01*
X81000Y-20197D01*
X81000Y-10197D02*
X80938Y-10585D01*
X80817Y-10960D01*
X80638Y-11310D01*
X80407Y-11629D01*
X80129Y-11907D01*
X79810Y-12138D01*
X79460Y-12317D01*
X79085Y-12438D01*
X78697Y-12500D01*
X78303Y-12500D01*
X77915Y-12438D01*
X77540Y-12317D01*
X77190Y-12138D01*
X76871Y-11907D01*
X76593Y-11629D01*
X76362Y-11310D01*
X76183Y-10960D01*
X76062Y-10585D01*
X76000Y-10197D01*
X76000Y-9803D01*
X76062Y-9415D01*
X76183Y-9040D01*
X76362Y-8690D01*
X76593Y-8371D01*
X76871Y-8093D01*
X77190Y-7862D01*
X77540Y-7683D01*
X77915Y-7562D01*
X78303Y-7500D01*
X78697Y-7500D01*
X79085Y-7562D01*
X79460Y-7683D01*
X79810Y-7862D01*
X80129Y-8093D01*
X80407Y-8371D01*
X80638Y-8690D01*
X80817Y-9040D01*
X80938Y-9415D01*
X81000Y-9803D01*
X81000Y-10197D01*
X81000Y-197D02*
X80938Y-585D01*
X80817Y-960D01*
X80638Y-1310D01*
X80407Y-1629D01*
X80129Y-1907D01*
X79810Y-2138D01*
X79460Y-2317D01*
X79085Y-2438D01*
X78697Y-2500D01*
X78303Y-2500D01*
X77915Y-2438D01*
X77540Y-2317D01*
X77190Y-2138D01*
X76871Y-1907D01*
X76593Y-1629D01*
X76362Y-1310D01*
X76183Y-960D01*
X76062Y-585D01*
X76000Y-197D01*
X76000Y197D01*
X76062Y585D01*
X76183Y960D01*
X76362Y1310D01*
X76593Y1629D01*
X76871Y1907D01*
X77190Y2138D01*
X77540Y2317D01*
X77915Y2438D01*
X78303Y2500D01*
X78697Y2500D01*
X79085Y2438D01*
X79460Y2317D01*
X79810Y2138D01*
X80129Y1907D01*
X80407Y1629D01*
X80638Y1310D01*
X80817Y960D01*
X80938Y585D01*
X81000Y197D01*
X81000Y-197D01*
X81000Y9803D02*
X80938Y9415D01*
X80817Y9040D01*
X80638Y8690D01*
X80407Y8371D01*
X80129Y8093D01*
X79810Y7862D01*
X79460Y7683D01*
X79085Y7562D01*
X78697Y7500D01*
X78303Y7500D01*
X77915Y7562D01*
X77540Y7683D01*
X77190Y7862D01*
X76871Y8093D01*
X76593Y8371D01*
X76362Y8690D01*
X76183Y9040D01*
X76062Y9415D01*
X76000Y9803D01*
X76000Y10197D01*
X76062Y10585D01*
X76183Y10960D01*
X76362Y11310D01*
X76593Y11629D01*
X76871Y11907D01*
X77190Y12138D01*
X77540Y12317D01*
X77915Y12438D01*
X78303Y12500D01*
X78697Y12500D01*
X79085Y12438D01*
X79460Y12317D01*
X79810Y12138D01*
X80129Y11907D01*
X80407Y11629D01*
X80638Y11310D01*
X80817Y10960D01*
X80938Y10585D01*
X81000Y10197D01*
X81000Y9803D01*
X81000Y19803D02*
X80938Y19415D01*
X80817Y19040D01*
X80638Y18690D01*
X80407Y18371D01*
X80129Y18093D01*
X79810Y17862D01*
X79460Y17683D01*
X79085Y17562D01*
X78697Y17500D01*
X78303Y17500D01*
X77915Y17562D01*
X77540Y17683D01*
X77190Y17862D01*
X76871Y18093D01*
X76593Y18371D01*
X76362Y18690D01*
X76183Y19040D01*
X76062Y19415D01*
X76000Y19803D01*
X76000Y20197D01*
X76062Y20585D01*
X76183Y20960D01*
X76362Y21310D01*
X76593Y21629D01*
X76871Y21907D01*
X77190Y22138D01*
X77540Y22317D01*
X77915Y22438D01*
X78303Y22500D01*
X78697Y22500D01*
X79085Y22438D01*
X79460Y22317D01*
X79810Y22138D01*
X80129Y21907D01*
X80407Y21629D01*
X80638Y21310D01*
X80817Y20960D01*
X80938Y20585D01*
X81000Y20197D01*
X81000Y19803D01*
X-17500Y-98697D02*
X-17562Y-99085D01*
X-17683Y-99460D01*
X-17862Y-99810D01*
X-18093Y-100129D01*
X-18371Y-100407D01*
X-18690Y-100638D01*
X-19040Y-100817D01*
X-19415Y-100938D01*
X-19803Y-101000D01*
X-20197Y-101000D01*
X-20585Y-100938D01*
X-20960Y-100817D01*
X-21310Y-100638D01*
X-21629Y-100407D01*
X-21907Y-100129D01*
X-22138Y-99810D01*
X-22317Y-99460D01*
X-22438Y-99085D01*
X-22500Y-98697D01*
X-22500Y-98303D01*
X-22438Y-97915D01*
X-22317Y-97540D01*
X-22138Y-97190D01*
X-21907Y-96871D01*
X-21629Y-96593D01*
X-21310Y-96362D01*
X-20960Y-96183D01*
X-20585Y-96062D01*
X-20197Y-96000D01*
X-19803Y-96000D01*
X-19415Y-96062D01*
X-19040Y-96183D01*
X-18690Y-96362D01*
X-18371Y-96593D01*
X-18093Y-96871D01*
X-17862Y-97190D01*
X-17683Y-97540D01*
X-17562Y-97915D01*
X-17500Y-98303D01*
X-17500Y-98697D01*
X-7500Y-98697D02*
X-7562Y-99085D01*
X-7683Y-99460D01*
X-7862Y-99810D01*
X-8093Y-100129D01*
X-8371Y-100407D01*
X-8690Y-100638D01*
X-9040Y-100817D01*
X-9415Y-100938D01*
X-9803Y-101000D01*
X-10197Y-101000D01*
X-10585Y-100938D01*
X-10960Y-100817D01*
X-11310Y-100638D01*
X-11629Y-100407D01*
X-11907Y-100129D01*
X-12138Y-99810D01*
X-12317Y-99460D01*
X-12438Y-99085D01*
X-12500Y-98697D01*
X-12500Y-98303D01*
X-12438Y-97915D01*
X-12317Y-97540D01*
X-12138Y-97190D01*
X-11907Y-96871D01*
X-11629Y-96593D01*
X-11310Y-96362D01*
X-10960Y-96183D01*
X-10585Y-96062D01*
X-10197Y-96000D01*
X-9803Y-96000D01*
X-9415Y-96062D01*
X-9040Y-96183D01*
X-8690Y-96362D01*
X-8371Y-96593D01*
X-8093Y-96871D01*
X-7862Y-97190D01*
X-7683Y-97540D01*
X-7562Y-97915D01*
X-7500Y-98303D01*
X-7500Y-98697D01*
X2500Y-98697D02*
X2438Y-99085D01*
X2317Y-99460D01*
X2138Y-99810D01*
X1907Y-100129D01*
X1629Y-100407D01*
X1310Y-100638D01*
X960Y-100817D01*
X585Y-100938D01*
X197Y-101000D01*
X-197Y-101000D01*
X-585Y-100938D01*
X-960Y-100817D01*
X-1310Y-100638D01*
X-1629Y-100407D01*
X-1907Y-100129D01*
X-2138Y-99810D01*
X-2317Y-99460D01*
X-2438Y-99085D01*
X-2500Y-98697D01*
X-2500Y-98303D01*
X-2438Y-97915D01*
X-2317Y-97540D01*
X-2138Y-97190D01*
X-1907Y-96871D01*
X-1629Y-96593D01*
X-1310Y-96362D01*
X-960Y-96183D01*
X-585Y-96062D01*
X-197Y-96000D01*
X197Y-96000D01*
X585Y-96062D01*
X960Y-96183D01*
X1310Y-96362D01*
X1629Y-96593D01*
X1907Y-96871D01*
X2138Y-97190D01*
X2317Y-97540D01*
X2438Y-97915D01*
X2500Y-98303D01*
X2500Y-98697D01*
X12500Y-98697D02*
X12438Y-99085D01*
X12317Y-99460D01*
X12138Y-99810D01*
X11907Y-100129D01*
X11629Y-100407D01*
X11310Y-100638D01*
X10960Y-100817D01*
X10585Y-100938D01*
X10197Y-101000D01*
X9803Y-101000D01*
X9415Y-100938D01*
X9040Y-100817D01*
X8690Y-100638D01*
X8371Y-100407D01*
X8093Y-100129D01*
X7862Y-99810D01*
X7683Y-99460D01*
X7562Y-99085D01*
X7500Y-98697D01*
X7500Y-98303D01*
X7562Y-97915D01*
X7683Y-97540D01*
X7862Y-97190D01*
X8093Y-96871D01*
X8371Y-96593D01*
X8690Y-96362D01*
X9040Y-96183D01*
X9415Y-96062D01*
X9803Y-96000D01*
X10197Y-96000D01*
X10585Y-96062D01*
X10960Y-96183D01*
X11310Y-96362D01*
X11629Y-96593D01*
X11907Y-96871D01*
X12138Y-97190D01*
X12317Y-97540D01*
X12438Y-97915D01*
X12500Y-98303D01*
X12500Y-98697D01*
X22500Y-98697D02*
X22438Y-99085D01*
X22317Y-99460D01*
X22138Y-99810D01*
X21907Y-100129D01*
X21629Y-100407D01*
X21310Y-100638D01*
X20960Y-100817D01*
X20585Y-100938D01*
X20197Y-101000D01*
X19803Y-101000D01*
X19415Y-100938D01*
X19040Y-100817D01*
X18690Y-100638D01*
X18371Y-100407D01*
X18093Y-100129D01*
X17862Y-99810D01*
X17683Y-99460D01*
X17562Y-99085D01*
X17500Y-98697D01*
X17500Y-98303D01*
X17562Y-97915D01*
X17683Y-97540D01*
X17862Y-97190D01*
X18093Y-96871D01*
X18371Y-96593D01*
X18690Y-96362D01*
X19040Y-96183D01*
X19415Y-96062D01*
X19803Y-96000D01*
X20197Y-96000D01*
X20585Y-96062D01*
X20960Y-96183D01*
X21310Y-96362D01*
X21629Y-96593D01*
X21907Y-96871D01*
X22138Y-97190D01*
X22317Y-97540D01*
X22438Y-97915D01*
X22500Y-98303D01*
X22500Y-98697D01*
X-17500Y-78697D02*
X-17562Y-79085D01*
X-17683Y-79460D01*
X-17862Y-79810D01*
X-18093Y-80129D01*
X-18371Y-80407D01*
X-18690Y-80638D01*
X-19040Y-80817D01*
X-19415Y-80938D01*
X-19803Y-81000D01*
X-20197Y-81000D01*
X-20585Y-80938D01*
X-20960Y-80817D01*
X-21310Y-80638D01*
X-21629Y-80407D01*
X-21907Y-80129D01*
X-22138Y-79810D01*
X-22317Y-79460D01*
X-22438Y-79085D01*
X-22500Y-78697D01*
X-22500Y-78303D01*
X-22438Y-77915D01*
X-22317Y-77540D01*
X-22138Y-77190D01*
X-21907Y-76871D01*
X-21629Y-76593D01*
X-21310Y-76362D01*
X-20960Y-76183D01*
X-20585Y-76062D01*
X-20197Y-76000D01*
X-19803Y-76000D01*
X-19415Y-76062D01*
X-19040Y-76183D01*
X-18690Y-76362D01*
X-18371Y-76593D01*
X-18093Y-76871D01*
X-17862Y-77190D01*
X-17683Y-77540D01*
X-17562Y-77915D01*
X-17500Y-78303D01*
X-17500Y-78697D01*
X-7500Y-78697D02*
X-7562Y-79085D01*
X-7683Y-79460D01*
X-7862Y-79810D01*
X-8093Y-80129D01*
X-8371Y-80407D01*
X-8690Y-80638D01*
X-9040Y-80817D01*
X-9415Y-80938D01*
X-9803Y-81000D01*
X-10197Y-81000D01*
X-10585Y-80938D01*
X-10960Y-80817D01*
X-11310Y-80638D01*
X-11629Y-80407D01*
X-11907Y-80129D01*
X-12138Y-79810D01*
X-12317Y-79460D01*
X-12438Y-79085D01*
X-12500Y-78697D01*
X-12500Y-78303D01*
X-12438Y-77915D01*
X-12317Y-77540D01*
X-12138Y-77190D01*
X-11907Y-76871D01*
X-11629Y-76593D01*
X-11310Y-76362D01*
X-10960Y-76183D01*
X-10585Y-76062D01*
X-10197Y-76000D01*
X-9803Y-76000D01*
X-9415Y-76062D01*
X-9040Y-76183D01*
X-8690Y-76362D01*
X-8371Y-76593D01*
X-8093Y-76871D01*
X-7862Y-77190D01*
X-7683Y-77540D01*
X-7562Y-77915D01*
X-7500Y-78303D01*
X-7500Y-78697D01*
X2500Y-78697D02*
X2438Y-79085D01*
X2317Y-79460D01*
X2138Y-79810D01*
X1907Y-80129D01*
X1629Y-80407D01*
X1310Y-80638D01*
X960Y-80817D01*
X585Y-80938D01*
X197Y-81000D01*
X-197Y-81000D01*
X-585Y-80938D01*
X-960Y-80817D01*
X-1310Y-80638D01*
X-1629Y-80407D01*
X-1907Y-80129D01*
X-2138Y-79810D01*
X-2317Y-79460D01*
X-2438Y-79085D01*
X-2500Y-78697D01*
X-2500Y-78303D01*
X-2438Y-77915D01*
X-2317Y-77540D01*
X-2138Y-77190D01*
X-1907Y-76871D01*
X-1629Y-76593D01*
X-1310Y-76362D01*
X-960Y-76183D01*
X-585Y-76062D01*
X-197Y-76000D01*
X197Y-76000D01*
X585Y-76062D01*
X960Y-76183D01*
X1310Y-76362D01*
X1629Y-76593D01*
X1907Y-76871D01*
X2138Y-77190D01*
X2317Y-77540D01*
X2438Y-77915D01*
X2500Y-78303D01*
X2500Y-78697D01*
X12500Y-78697D02*
X12438Y-79085D01*
X12317Y-79460D01*
X12138Y-79810D01*
X11907Y-80129D01*
X11629Y-80407D01*
X11310Y-80638D01*
X10960Y-80817D01*
X10585Y-80938D01*
X10197Y-81000D01*
X9803Y-81000D01*
X9415Y-80938D01*
X9040Y-80817D01*
X8690Y-80638D01*
X8371Y-80407D01*
X8093Y-80129D01*
X7862Y-79810D01*
X7683Y-79460D01*
X7562Y-79085D01*
X7500Y-78697D01*
X7500Y-78303D01*
X7562Y-77915D01*
X7683Y-77540D01*
X7862Y-77190D01*
X8093Y-76871D01*
X8371Y-76593D01*
X8690Y-76362D01*
X9040Y-76183D01*
X9415Y-76062D01*
X9803Y-76000D01*
X10197Y-76000D01*
X10585Y-76062D01*
X10960Y-76183D01*
X11310Y-76362D01*
X11629Y-76593D01*
X11907Y-76871D01*
X12138Y-77190D01*
X12317Y-77540D01*
X12438Y-77915D01*
X12500Y-78303D01*
X12500Y-78697D01*
X22500Y-78697D02*
X22438Y-79085D01*
X22317Y-79460D01*
X22138Y-79810D01*
X21907Y-80129D01*
X21629Y-80407D01*
X21310Y-80638D01*
X20960Y-80817D01*
X20585Y-80938D01*
X20197Y-81000D01*
X19803Y-81000D01*
X19415Y-80938D01*
X19040Y-80817D01*
X18690Y-80638D01*
X18371Y-80407D01*
X18093Y-80129D01*
X17862Y-79810D01*
X17683Y-79460D01*
X17562Y-79085D01*
X17500Y-78697D01*
X17500Y-78303D01*
X17562Y-77915D01*
X17683Y-77540D01*
X17862Y-77190D01*
X18093Y-76871D01*
X18371Y-76593D01*
X18690Y-76362D01*
X19040Y-76183D01*
X19415Y-76062D01*
X19803Y-76000D01*
X20197Y-76000D01*
X20585Y-76062D01*
X20960Y-76183D01*
X21310Y-76362D01*
X21629Y-76593D01*
X21907Y-76871D01*
X22138Y-77190D01*
X22317Y-77540D01*
X22438Y-77915D01*
X22500Y-78303D01*
X22500Y-78697D01*
X-110000Y-125536D02*
X-110076Y-126604D01*
X-110229Y-127665D01*
X-110457Y-128712D01*
X-110759Y-129740D01*
X-111133Y-130744D01*
X-111578Y-131719D01*
X-112092Y-132659D01*
X-112671Y-133560D01*
X-113313Y-134418D01*
X-114015Y-135228D01*
X-114772Y-135985D01*
X-115582Y-136687D01*
X-116440Y-137329D01*
X-117341Y-137908D01*
X-118281Y-138422D01*
X-119256Y-138867D01*
X-120260Y-139241D01*
X-121288Y-139543D01*
X-122335Y-139771D01*
X-123396Y-139924D01*
X-124464Y-140000D01*
X-125536Y-140000D01*
X-126604Y-139924D01*
X-127665Y-139771D01*
X-128712Y-139543D01*
X-129740Y-139241D01*
X-130744Y-138867D01*
X-131719Y-138422D01*
X-132659Y-137908D01*
X-133560Y-137329D01*
X-134418Y-136687D01*
X-135228Y-135985D01*
X-135985Y-135228D01*
X-136687Y-134418D01*
X-137329Y-133560D01*
X-137908Y-132659D01*
X-138422Y-131719D01*
X-138867Y-130744D01*
X-139241Y-129740D01*
X-139543Y-128712D01*
X-139771Y-127665D01*
X-139924Y-126604D01*
X-140000Y-125536D01*
X-140000Y-124464D01*
X-139924Y-123396D01*
X-139771Y-122335D01*
X-139543Y-121288D01*
X-139241Y-120260D01*
X-138867Y-119256D01*
X-138422Y-118281D01*
X-137908Y-117341D01*
X-137329Y-116440D01*
X-136687Y-115582D01*
X-135985Y-114772D01*
X-135228Y-114015D01*
X-134418Y-113313D01*
X-133560Y-112671D01*
X-132659Y-112092D01*
X-131719Y-111578D01*
X-130744Y-111133D01*
X-129740Y-110759D01*
X-128712Y-110457D01*
X-127665Y-110229D01*
X-126604Y-110076D01*
X-125536Y-110000D01*
X-124464Y-110000D01*
X-123396Y-110076D01*
X-122335Y-110229D01*
X-121288Y-110457D01*
X-120260Y-110759D01*
X-119256Y-111133D01*
X-118281Y-111578D01*
X-117341Y-112092D01*
X-116440Y-112671D01*
X-115582Y-113313D01*
X-114772Y-114015D01*
X-114015Y-114772D01*
X-113313Y-115582D01*
X-112671Y-116440D01*
X-112092Y-117341D01*
X-111578Y-118281D01*
X-111133Y-119256D01*
X-110759Y-120260D01*
X-110457Y-121288D01*
X-110229Y-122335D01*
X-110076Y-123396D01*
X-110000Y-124464D01*
X-110000Y-125536D01*
X140000Y-125536D02*
X139924Y-126604D01*
X139771Y-127665D01*
X139543Y-128712D01*
X139241Y-129740D01*
X138867Y-130744D01*
X138422Y-131719D01*
X137908Y-132659D01*
X137329Y-133560D01*
X136687Y-134418D01*
X135985Y-135228D01*
X135228Y-135985D01*
X134418Y-136687D01*
X133560Y-137329D01*
X132659Y-137908D01*
X131719Y-138422D01*
X130744Y-138867D01*
X129740Y-139241D01*
X128712Y-139543D01*
X127665Y-139771D01*
X126604Y-139924D01*
X125536Y-140000D01*
X124464Y-140000D01*
X123396Y-139924D01*
X122335Y-139771D01*
X121288Y-139543D01*
X120260Y-139241D01*
X119256Y-138867D01*
X118281Y-138422D01*
X117341Y-137908D01*
X116440Y-137329D01*
X115582Y-136687D01*
X114772Y-135985D01*
X114015Y-135228D01*
X113313Y-134418D01*
X112671Y-133560D01*
X112092Y-132659D01*
X111578Y-131719D01*
X111133Y-130744D01*
X110759Y-129740D01*
X110457Y-128712D01*
X110229Y-127665D01*
X110076Y-126604D01*
X110000Y-125536D01*
X110000Y-124464D01*
X110076Y-123396D01*
X110229Y-122335D01*
X110457Y-121288D01*
X110759Y-120260D01*
X111133Y-119256D01*
X111578Y-118281D01*
X112092Y-117341D01*
X112671Y-116440D01*
X113313Y-115582D01*
X114015Y-114772D01*
X114772Y-114015D01*
X115582Y-113313D01*
X116440Y-112671D01*
X117341Y-112092D01*
X118281Y-111578D01*
X119256Y-111133D01*
X120260Y-110759D01*
X121288Y-110457D01*
X122335Y-110229D01*
X123396Y-110076D01*
X124464Y-110000D01*
X125536Y-110000D01*
X126604Y-110076D01*
X127665Y-110229D01*
X128712Y-110457D01*
X129740Y-110759D01*
X130744Y-111133D01*
X131719Y-111578D01*
X132659Y-112092D01*
X133560Y-112671D01*
X134418Y-113313D01*
X135228Y-114015D01*
X135985Y-114772D01*
X136687Y-115582D01*
X137329Y-116440D01*
X137908Y-117341D01*
X138422Y-118281D01*
X138867Y-119256D01*
X139241Y-120260D01*
X139543Y-121288D01*
X139771Y-122335D01*
X139924Y-123396D01*
X140000Y-124464D01*
X140000Y-125536D01*
X-110000Y124464D02*
X-110076Y123396D01*
X-110229Y122335D01*
X-110457Y121288D01*
X-110759Y120260D01*
X-111133Y119256D01*
X-111578Y118281D01*
X-112092Y117341D01*
X-112671Y116440D01*
X-113313Y115582D01*
X-114015Y114772D01*
X-114772Y114015D01*
X-115582Y113313D01*
X-116440Y112671D01*
X-117341Y112092D01*
X-118281Y111578D01*
X-119256Y111133D01*
X-120260Y110759D01*
X-121288Y110457D01*
X-122335Y110229D01*
X-123396Y110076D01*
X-124464Y110000D01*
X-125536Y110000D01*
X-126604Y110076D01*
X-127665Y110229D01*
X-128712Y110457D01*
X-129740Y110759D01*
X-130744Y111133D01*
X-131719Y111578D01*
X-132659Y112092D01*
X-133560Y112671D01*
X-134418Y113313D01*
X-135228Y114015D01*
X-135985Y114772D01*
X-136687Y115582D01*
X-137329Y116440D01*
X-137908Y117341D01*
X-138422Y118281D01*
X-138867Y119256D01*
X-139241Y120260D01*
X-139543Y121288D01*
X-139771Y122335D01*
X-139924Y123396D01*
X-140000Y124464D01*
X-140000Y125536D01*
X-139924Y126604D01*
X-139771Y127665D01*
X-139543Y128712D01*
X-139241Y129740D01*
X-138867Y130744D01*
X-138422Y131719D01*
X-137908Y132659D01*
X-137329Y133560D01*
X-136687Y134418D01*
X-135985Y135228D01*
X-135228Y135985D01*
X-134418Y136687D01*
X-133560Y137329D01*
X-132659Y137908D01*
X-131719Y138422D01*
X-130744Y138867D01*
X-129740Y139241D01*
X-128712Y139543D01*
X-127665Y139771D01*
X-126604Y139924D01*
X-125536Y140000D01*
X-124464Y140000D01*
X-123396Y139924D01*
X-122335Y139771D01*
X-121288Y139543D01*
X-120260Y139241D01*
X-119256Y138867D01*
X-118281Y138422D01*
X-117341Y137908D01*
X-116440Y137329D01*
X-115582Y136687D01*
X-114772Y135985D01*
X-114015Y135228D01*
X-113313Y134418D01*
X-112671Y133560D01*
X-112092Y132659D01*
X-111578Y131719D01*
X-111133Y130744D01*
X-110759Y129740D01*
X-110457Y128712D01*
X-110229Y127665D01*
X-110076Y126604D01*
X-110000Y125536D01*
X-110000Y124464D01*
X140000Y124464D02*
X139924Y123396D01*
X139771Y122335D01*
X139543Y121288D01*
X139241Y120260D01*
X138867Y119256D01*
X138422Y118281D01*
X137908Y117341D01*
X137329Y116440D01*
X136687Y115582D01*
X135985Y114772D01*
X135228Y114015D01*
X134418Y113313D01*
X133560Y112671D01*
X132659Y112092D01*
X131719Y111578D01*
X130744Y111133D01*
X129740Y110759D01*
X128712Y110457D01*
X127665Y110229D01*
X126604Y110076D01*
X125536Y110000D01*
X124464Y110000D01*
X123396Y110076D01*
X122335Y110229D01*
X121288Y110457D01*
X120260Y110759D01*
X119256Y111133D01*
X118281Y111578D01*
X117341Y112092D01*
X116440Y112671D01*
X115582Y113313D01*
X114772Y114015D01*
X114015Y114772D01*
X113313Y115582D01*
X112671Y116440D01*
X112092Y117341D01*
X111578Y118281D01*
X111133Y119256D01*
X110759Y120260D01*
X110457Y121288D01*
X110229Y122335D01*
X110076Y123396D01*
X110000Y124464D01*
X110000Y125536D01*
X110076Y126604D01*
X110229Y127665D01*
X110457Y128712D01*
X110759Y129740D01*
X111133Y130744D01*
X111578Y131719D01*
X112092Y132659D01*
X112671Y133560D01*
X113313Y134418D01*
X114015Y135228D01*
X114772Y135985D01*
X115582Y136687D01*
X116440Y137329D01*
X117341Y137908D01*
X118281Y138422D01*
X119256Y138867D01*
X120260Y139241D01*
X121288Y139543D01*
X122335Y139771D01*
X123396Y139924D01*
X124464Y140000D01*
X125536Y140000D01*
X126604Y139924D01*
X127665Y139771D01*
X128712Y139543D01*
X129740Y139241D01*
X130744Y138867D01*
X131719Y138422D01*
X132659Y137908D01*
X133560Y137329D01*
X134418Y136687D01*
X135228Y135985D01*
X135985Y135228D01*
X136687Y134418D01*
X137329Y133560D01*
X137908Y132659D01*
X138422Y131719D01*
X138867Y130744D01*
X139241Y129740D01*
X139543Y128712D01*
X139771Y127665D01*
X139924Y126604D01*
X140000Y125536D01*
X140000Y124464D01*
X-17500Y78303D02*
X-17562Y77915D01*
X-17683Y77540D01*
X-17862Y77190D01*
X-18093Y76871D01*
X-18371Y76593D01*
X-18690Y76362D01*
X-19040Y76183D01*
X-19415Y76062D01*
X-19803Y76000D01*
X-20197Y76000D01*
X-20585Y76062D01*
X-20960Y76183D01*
X-21310Y76362D01*
X-21629Y76593D01*
X-21907Y76871D01*
X-22138Y77190D01*
X-22317Y77540D01*
X-22438Y77915D01*
X-22500Y78303D01*
X-22500Y78697D01*
X-22438Y79085D01*
X-22317Y79460D01*
X-22138Y79810D01*
X-21907Y80129D01*
X-21629Y80407D01*
X-21310Y80638D01*
X-20960Y80817D01*
X-20585Y80938D01*
X-20197Y81000D01*
X-19803Y81000D01*
X-19415Y80938D01*
X-19040Y80817D01*
X-18690Y80638D01*
X-18371Y80407D01*
X-18093Y80129D01*
X-17862Y79810D01*
X-17683Y79460D01*
X-17562Y79085D01*
X-17500Y78697D01*
X-17500Y78303D01*
X-7500Y78303D02*
X-7562Y77915D01*
X-7683Y77540D01*
X-7862Y77190D01*
X-8093Y76871D01*
X-8371Y76593D01*
X-8690Y76362D01*
X-9040Y76183D01*
X-9415Y76062D01*
X-9803Y76000D01*
X-10197Y76000D01*
X-10585Y76062D01*
X-10960Y76183D01*
X-11310Y76362D01*
X-11629Y76593D01*
X-11907Y76871D01*
X-12138Y77190D01*
X-12317Y77540D01*
X-12438Y77915D01*
X-12500Y78303D01*
X-12500Y78697D01*
X-12438Y79085D01*
X-12317Y79460D01*
X-12138Y79810D01*
X-11907Y80129D01*
X-11629Y80407D01*
X-11310Y80638D01*
X-10960Y80817D01*
X-10585Y80938D01*
X-10197Y81000D01*
X-9803Y81000D01*
X-9415Y80938D01*
X-9040Y80817D01*
X-8690Y80638D01*
X-8371Y80407D01*
X-8093Y80129D01*
X-7862Y79810D01*
X-7683Y79460D01*
X-7562Y79085D01*
X-7500Y78697D01*
X-7500Y78303D01*
X2500Y78303D02*
X2438Y77915D01*
X2317Y77540D01*
X2138Y77190D01*
X1907Y76871D01*
X1629Y76593D01*
X1310Y76362D01*
X960Y76183D01*
X585Y76062D01*
X197Y76000D01*
X-197Y76000D01*
X-585Y76062D01*
X-960Y76183D01*
X-1310Y76362D01*
X-1629Y76593D01*
X-1907Y76871D01*
X-2138Y77190D01*
X-2317Y77540D01*
X-2438Y77915D01*
X-2500Y78303D01*
X-2500Y78697D01*
X-2438Y79085D01*
X-2317Y79460D01*
X-2138Y79810D01*
X-1907Y80129D01*
X-1629Y80407D01*
X-1310Y80638D01*
X-960Y80817D01*
X-585Y80938D01*
X-197Y81000D01*
X197Y81000D01*
X585Y80938D01*
X960Y80817D01*
X1310Y80638D01*
X1629Y80407D01*
X1907Y80129D01*
X2138Y79810D01*
X2317Y79460D01*
X2438Y79085D01*
X2500Y78697D01*
X2500Y78303D01*
X12500Y78303D02*
X12438Y77915D01*
X12317Y77540D01*
X12138Y77190D01*
X11907Y76871D01*
X11629Y76593D01*
X11310Y76362D01*
X10960Y76183D01*
X10585Y76062D01*
X10197Y76000D01*
X9803Y76000D01*
X9415Y76062D01*
X9040Y76183D01*
X8690Y76362D01*
X8371Y76593D01*
X8093Y76871D01*
X7862Y77190D01*
X7683Y77540D01*
X7562Y77915D01*
X7500Y78303D01*
X7500Y78697D01*
X7562Y79085D01*
X7683Y79460D01*
X7862Y79810D01*
X8093Y80129D01*
X8371Y80407D01*
X8690Y80638D01*
X9040Y80817D01*
X9415Y80938D01*
X9803Y81000D01*
X10197Y81000D01*
X10585Y80938D01*
X10960Y80817D01*
X11310Y80638D01*
X11629Y80407D01*
X11907Y80129D01*
X12138Y79810D01*
X12317Y79460D01*
X12438Y79085D01*
X12500Y78697D01*
X12500Y78303D01*
X22500Y78303D02*
X22438Y77915D01*
X22317Y77540D01*
X22138Y77190D01*
X21907Y76871D01*
X21629Y76593D01*
X21310Y76362D01*
X20960Y76183D01*
X20585Y76062D01*
X20197Y76000D01*
X19803Y76000D01*
X19415Y76062D01*
X19040Y76183D01*
X18690Y76362D01*
X18371Y76593D01*
X18093Y76871D01*
X17862Y77190D01*
X17683Y77540D01*
X17562Y77915D01*
X17500Y78303D01*
X17500Y78697D01*
X17562Y79085D01*
X17683Y79460D01*
X17862Y79810D01*
X18093Y80129D01*
X18371Y80407D01*
X18690Y80638D01*
X19040Y80817D01*
X19415Y80938D01*
X19803Y81000D01*
X20197Y81000D01*
X20585Y80938D01*
X20960Y80817D01*
X21310Y80638D01*
X21629Y80407D01*
X21907Y80129D01*
X22138Y79810D01*
X22317Y79460D01*
X22438Y79085D01*
X22500Y78697D01*
X22500Y78303D01*
X-17500Y98303D02*
X-17562Y97915D01*
X-17683Y97540D01*
X-17862Y97190D01*
X-18093Y96871D01*
X-18371Y96593D01*
X-18690Y96362D01*
X-19040Y96183D01*
X-19415Y96062D01*
X-19803Y96000D01*
X-20197Y96000D01*
X-20585Y96062D01*
X-20960Y96183D01*
X-21310Y96362D01*
X-21629Y96593D01*
X-21907Y96871D01*
X-22138Y97190D01*
X-22317Y97540D01*
X-22438Y97915D01*
X-22500Y98303D01*
X-22500Y98697D01*
X-22438Y99085D01*
X-22317Y99460D01*
X-22138Y99810D01*
X-21907Y100129D01*
X-21629Y100407D01*
X-21310Y100638D01*
X-20960Y100817D01*
X-20585Y100938D01*
X-20197Y101000D01*
X-19803Y101000D01*
X-19415Y100938D01*
X-19040Y100817D01*
X-18690Y100638D01*
X-18371Y100407D01*
X-18093Y100129D01*
X-17862Y99810D01*
X-17683Y99460D01*
X-17562Y99085D01*
X-17500Y98697D01*
X-17500Y98303D01*
X-7500Y98303D02*
X-7562Y97915D01*
X-7683Y97540D01*
X-7862Y97190D01*
X-8093Y96871D01*
X-8371Y96593D01*
X-8690Y96362D01*
X-9040Y96183D01*
X-9415Y96062D01*
X-9803Y96000D01*
X-10197Y96000D01*
X-10585Y96062D01*
X-10960Y96183D01*
X-11310Y96362D01*
X-11629Y96593D01*
X-11907Y96871D01*
X-12138Y97190D01*
X-12317Y97540D01*
X-12438Y97915D01*
X-12500Y98303D01*
X-12500Y98697D01*
X-12438Y99085D01*
X-12317Y99460D01*
X-12138Y99810D01*
X-11907Y100129D01*
X-11629Y100407D01*
X-11310Y100638D01*
X-10960Y100817D01*
X-10585Y100938D01*
X-10197Y101000D01*
X-9803Y101000D01*
X-9415Y100938D01*
X-9040Y100817D01*
X-8690Y100638D01*
X-8371Y100407D01*
X-8093Y100129D01*
X-7862Y99810D01*
X-7683Y99460D01*
X-7562Y99085D01*
X-7500Y98697D01*
X-7500Y98303D01*
X2500Y98303D02*
X2438Y97915D01*
X2317Y97540D01*
X2138Y97190D01*
X1907Y96871D01*
X1629Y96593D01*
X1310Y96362D01*
X960Y96183D01*
X585Y96062D01*
X197Y96000D01*
X-197Y96000D01*
X-585Y96062D01*
X-960Y96183D01*
X-1310Y96362D01*
X-1629Y96593D01*
X-1907Y96871D01*
X-2138Y97190D01*
X-2317Y97540D01*
X-2438Y97915D01*
X-2500Y98303D01*
X-2500Y98697D01*
X-2438Y99085D01*
X-2317Y99460D01*
X-2138Y99810D01*
X-1907Y100129D01*
X-1629Y100407D01*
X-1310Y100638D01*
X-960Y100817D01*
X-585Y100938D01*
X-197Y101000D01*
X197Y101000D01*
X585Y100938D01*
X960Y100817D01*
X1310Y100638D01*
X1629Y100407D01*
X1907Y100129D01*
X2138Y99810D01*
X2317Y99460D01*
X2438Y99085D01*
X2500Y98697D01*
X2500Y98303D01*
X12500Y98303D02*
X12438Y97915D01*
X12317Y97540D01*
X12138Y97190D01*
X11907Y96871D01*
X11629Y96593D01*
X11310Y96362D01*
X10960Y96183D01*
X10585Y96062D01*
X10197Y96000D01*
X9803Y96000D01*
X9415Y96062D01*
X9040Y96183D01*
X8690Y96362D01*
X8371Y96593D01*
X8093Y96871D01*
X7862Y97190D01*
X7683Y97540D01*
X7562Y97915D01*
X7500Y98303D01*
X7500Y98697D01*
X7562Y99085D01*
X7683Y99460D01*
X7862Y99810D01*
X8093Y100129D01*
X8371Y100407D01*
X8690Y100638D01*
X9040Y100817D01*
X9415Y100938D01*
X9803Y101000D01*
X10197Y101000D01*
X10585Y100938D01*
X10960Y100817D01*
X11310Y100638D01*
X11629Y100407D01*
X11907Y100129D01*
X12138Y99810D01*
X12317Y99460D01*
X12438Y99085D01*
X12500Y98697D01*
X12500Y98303D01*
X22500Y98303D02*
X22438Y97915D01*
X22317Y97540D01*
X22138Y97190D01*
X21907Y96871D01*
X21629Y96593D01*
X21310Y96362D01*
X20960Y96183D01*
X20585Y96062D01*
X20197Y96000D01*
X19803Y96000D01*
X19415Y96062D01*
X19040Y96183D01*
X18690Y96362D01*
X18371Y96593D01*
X18093Y96871D01*
X17862Y97190D01*
X17683Y97540D01*
X17562Y97915D01*
X17500Y98303D01*
X17500Y98697D01*
X17562Y99085D01*
X17683Y99460D01*
X17862Y99810D01*
X18093Y100129D01*
X18371Y100407D01*
X18690Y100638D01*
X19040Y100817D01*
X19415Y100938D01*
X19803Y101000D01*
X20197Y101000D01*
X20585Y100938D01*
X20960Y100817D01*
X21310Y100638D01*
X21629Y100407D01*
X21907Y100129D01*
X22138Y99810D01*
X22317Y99460D01*
X22438Y99085D01*
X22500Y98697D01*
X22500Y98303D01*
X-76100Y-20097D02*
X-76162Y-20485D01*
X-76283Y-20860D01*
X-76462Y-21210D01*
X-76693Y-21529D01*
X-76971Y-21807D01*
X-77290Y-22038D01*
X-77640Y-22217D01*
X-78015Y-22338D01*
X-78403Y-22400D01*
X-78797Y-22400D01*
X-79185Y-22338D01*
X-79560Y-22217D01*
X-79910Y-22038D01*
X-80229Y-21807D01*
X-80507Y-21529D01*
X-80738Y-21210D01*
X-80917Y-20860D01*
X-81038Y-20485D01*
X-81100Y-20097D01*
X-81100Y-19703D01*
X-81038Y-19315D01*
X-80917Y-18940D01*
X-80738Y-18590D01*
X-80507Y-18271D01*
X-80229Y-17993D01*
X-79910Y-17762D01*
X-79560Y-17583D01*
X-79185Y-17462D01*
X-78797Y-17400D01*
X-78403Y-17400D01*
X-78015Y-17462D01*
X-77640Y-17583D01*
X-77290Y-17762D01*
X-76971Y-17993D01*
X-76693Y-18271D01*
X-76462Y-18590D01*
X-76283Y-18940D01*
X-76162Y-19315D01*
X-76100Y-19703D01*
X-76100Y-20097D01*
X-76100Y-10097D02*
X-76162Y-10485D01*
X-76283Y-10860D01*
X-76462Y-11210D01*
X-76693Y-11529D01*
X-76971Y-11807D01*
X-77290Y-12038D01*
X-77640Y-12217D01*
X-78015Y-12338D01*
X-78403Y-12400D01*
X-78797Y-12400D01*
X-79185Y-12338D01*
X-79560Y-12217D01*
X-79910Y-12038D01*
X-80229Y-11807D01*
X-80507Y-11529D01*
X-80738Y-11210D01*
X-80917Y-10860D01*
X-81038Y-10485D01*
X-81100Y-10097D01*
X-81100Y-9703D01*
X-81038Y-9315D01*
X-80917Y-8940D01*
X-80738Y-8590D01*
X-80507Y-8271D01*
X-80229Y-7993D01*
X-79910Y-7762D01*
X-79560Y-7583D01*
X-79185Y-7462D01*
X-78797Y-7400D01*
X-78403Y-7400D01*
X-78015Y-7462D01*
X-77640Y-7583D01*
X-77290Y-7762D01*
X-76971Y-7993D01*
X-76693Y-8271D01*
X-76462Y-8590D01*
X-76283Y-8940D01*
X-76162Y-9315D01*
X-76100Y-9703D01*
X-76100Y-10097D01*
X-76100Y-97D02*
X-76162Y-485D01*
X-76283Y-860D01*
X-76462Y-1210D01*
X-76693Y-1529D01*
X-76971Y-1807D01*
X-77290Y-2038D01*
X-77640Y-2217D01*
X-78015Y-2338D01*
X-78403Y-2400D01*
X-78797Y-2400D01*
X-79185Y-2338D01*
X-79560Y-2217D01*
X-79910Y-2038D01*
X-80229Y-1807D01*
X-80507Y-1529D01*
X-80738Y-1210D01*
X-80917Y-860D01*
X-81038Y-485D01*
X-81100Y-97D01*
X-81100Y297D01*
X-81038Y685D01*
X-80917Y1060D01*
X-80738Y1410D01*
X-80507Y1729D01*
X-80229Y2007D01*
X-79910Y2238D01*
X-79560Y2417D01*
X-79185Y2538D01*
X-78797Y2600D01*
X-78403Y2600D01*
X-78015Y2538D01*
X-77640Y2417D01*
X-77290Y2238D01*
X-76971Y2007D01*
X-76693Y1729D01*
X-76462Y1410D01*
X-76283Y1060D01*
X-76162Y685D01*
X-76100Y297D01*
X-76100Y-97D01*
X-76100Y9903D02*
X-76162Y9515D01*
X-76283Y9140D01*
X-76462Y8790D01*
X-76693Y8471D01*
X-76971Y8193D01*
X-77290Y7962D01*
X-77640Y7783D01*
X-78015Y7662D01*
X-78403Y7600D01*
X-78797Y7600D01*
X-79185Y7662D01*
X-79560Y7783D01*
X-79910Y7962D01*
X-80229Y8193D01*
X-80507Y8471D01*
X-80738Y8790D01*
X-80917Y9140D01*
X-81038Y9515D01*
X-81100Y9903D01*
X-81100Y10297D01*
X-81038Y10685D01*
X-80917Y11060D01*
X-80738Y11410D01*
X-80507Y11729D01*
X-80229Y12007D01*
X-79910Y12238D01*
X-79560Y12417D01*
X-79185Y12538D01*
X-78797Y12600D01*
X-78403Y12600D01*
X-78015Y12538D01*
X-77640Y12417D01*
X-77290Y12238D01*
X-76971Y12007D01*
X-76693Y11729D01*
X-76462Y11410D01*
X-76283Y11060D01*
X-76162Y10685D01*
X-76100Y10297D01*
X-76100Y9903D01*
X-76100Y19903D02*
X-76162Y19515D01*
X-76283Y19140D01*
X-76462Y18790D01*
X-76693Y18471D01*
X-76971Y18193D01*
X-77290Y17962D01*
X-77640Y17783D01*
X-78015Y17662D01*
X-78403Y17600D01*
X-78797Y17600D01*
X-79185Y17662D01*
X-79560Y17783D01*
X-79910Y17962D01*
X-80229Y18193D01*
X-80507Y18471D01*
X-80738Y18790D01*
X-80917Y19140D01*
X-81038Y19515D01*
X-81100Y19903D01*
X-81100Y20297D01*
X-81038Y20685D01*
X-80917Y21060D01*
X-80738Y21410D01*
X-80507Y21729D01*
X-80229Y22007D01*
X-79910Y22238D01*
X-79560Y22417D01*
X-79185Y22538D01*
X-78797Y22600D01*
X-78403Y22600D01*
X-78015Y22538D01*
X-77640Y22417D01*
X-77290Y22238D01*
X-76971Y22007D01*
X-76693Y21729D01*
X-76462Y21410D01*
X-76283Y21060D01*
X-76162Y20685D01*
X-76100Y20297D01*
X-76100Y19903D01*
X-96100Y-20097D02*
X-96162Y-20485D01*
X-96283Y-20860D01*
X-96462Y-21210D01*
X-96693Y-21529D01*
X-96971Y-21807D01*
X-97290Y-22038D01*
X-97640Y-22217D01*
X-98015Y-22338D01*
X-98403Y-22400D01*
X-98797Y-22400D01*
X-99185Y-22338D01*
X-99560Y-22217D01*
X-99910Y-22038D01*
X-100229Y-21807D01*
X-100507Y-21529D01*
X-100738Y-21210D01*
X-100917Y-20860D01*
X-101038Y-20485D01*
X-101100Y-20097D01*
X-101100Y-19703D01*
X-101038Y-19315D01*
X-100917Y-18940D01*
X-100738Y-18590D01*
X-100507Y-18271D01*
X-100229Y-17993D01*
X-99910Y-17762D01*
X-99560Y-17583D01*
X-99185Y-17462D01*
X-98797Y-17400D01*
X-98403Y-17400D01*
X-98015Y-17462D01*
X-97640Y-17583D01*
X-97290Y-17762D01*
X-96971Y-17993D01*
X-96693Y-18271D01*
X-96462Y-18590D01*
X-96283Y-18940D01*
X-96162Y-19315D01*
X-96100Y-19703D01*
X-96100Y-20097D01*
X-96100Y-10097D02*
X-96162Y-10485D01*
X-96283Y-10860D01*
X-96462Y-11210D01*
X-96693Y-11529D01*
X-96971Y-11807D01*
X-97290Y-12038D01*
X-97640Y-12217D01*
X-98015Y-12338D01*
X-98403Y-12400D01*
X-98797Y-12400D01*
X-99185Y-12338D01*
X-99560Y-12217D01*
X-99910Y-12038D01*
X-100229Y-11807D01*
X-100507Y-11529D01*
X-100738Y-11210D01*
X-100917Y-10860D01*
X-101038Y-10485D01*
X-101100Y-10097D01*
X-101100Y-9703D01*
X-101038Y-9315D01*
X-100917Y-8940D01*
X-100738Y-8590D01*
X-100507Y-8271D01*
X-100229Y-7993D01*
X-99910Y-7762D01*
X-99560Y-7583D01*
X-99185Y-7462D01*
X-98797Y-7400D01*
X-98403Y-7400D01*
X-98015Y-7462D01*
X-97640Y-7583D01*
X-97290Y-7762D01*
X-96971Y-7993D01*
X-96693Y-8271D01*
X-96462Y-8590D01*
X-96283Y-8940D01*
X-96162Y-9315D01*
X-96100Y-9703D01*
X-96100Y-10097D01*
X-96100Y-97D02*
X-96162Y-485D01*
X-96283Y-860D01*
X-96462Y-1210D01*
X-96693Y-1529D01*
X-96971Y-1807D01*
X-97290Y-2038D01*
X-97640Y-2217D01*
X-98015Y-2338D01*
X-98403Y-2400D01*
X-98797Y-2400D01*
X-99185Y-2338D01*
X-99560Y-2217D01*
X-99910Y-2038D01*
X-100229Y-1807D01*
X-100507Y-1529D01*
X-100738Y-1210D01*
X-100917Y-860D01*
X-101038Y-485D01*
X-101100Y-97D01*
X-101100Y297D01*
X-101038Y685D01*
X-100917Y1060D01*
X-100738Y1410D01*
X-100507Y1729D01*
X-100229Y2007D01*
X-99910Y2238D01*
X-99560Y2417D01*
X-99185Y2538D01*
X-98797Y2600D01*
X-98403Y2600D01*
X-98015Y2538D01*
X-97640Y2417D01*
X-97290Y2238D01*
X-96971Y2007D01*
X-96693Y1729D01*
X-96462Y1410D01*
X-96283Y1060D01*
X-96162Y685D01*
X-96100Y297D01*
X-96100Y-97D01*
X-96100Y9903D02*
X-96162Y9515D01*
X-96283Y9140D01*
X-96462Y8790D01*
X-96693Y8471D01*
X-96971Y8193D01*
X-97290Y7962D01*
X-97640Y7783D01*
X-98015Y7662D01*
X-98403Y7600D01*
X-98797Y7600D01*
X-99185Y7662D01*
X-99560Y7783D01*
X-99910Y7962D01*
X-100229Y8193D01*
X-100507Y8471D01*
X-100738Y8790D01*
X-100917Y9140D01*
X-101038Y9515D01*
X-101100Y9903D01*
X-101100Y10297D01*
X-101038Y10685D01*
X-100917Y11060D01*
X-100738Y11410D01*
X-100507Y11729D01*
X-100229Y12007D01*
X-99910Y12238D01*
X-99560Y12417D01*
X-99185Y12538D01*
X-98797Y12600D01*
X-98403Y12600D01*
X-98015Y12538D01*
X-97640Y12417D01*
X-97290Y12238D01*
X-96971Y12007D01*
X-96693Y11729D01*
X-96462Y11410D01*
X-96283Y11060D01*
X-96162Y10685D01*
X-96100Y10297D01*
X-96100Y9903D01*
X-96100Y19903D02*
X-96162Y19515D01*
X-96283Y19140D01*
X-96462Y18790D01*
X-96693Y18471D01*
X-96971Y18193D01*
X-97290Y17962D01*
X-97640Y17783D01*
X-98015Y17662D01*
X-98403Y17600D01*
X-98797Y17600D01*
X-99185Y17662D01*
X-99560Y17783D01*
X-99910Y17962D01*
X-100229Y18193D01*
X-100507Y18471D01*
X-100738Y18790D01*
X-100917Y19140D01*
X-101038Y19515D01*
X-101100Y19903D01*
X-101100Y20297D01*
X-101038Y20685D01*
X-100917Y21060D01*
X-100738Y21410D01*
X-100507Y21729D01*
X-100229Y22007D01*
X-99910Y22238D01*
X-99560Y22417D01*
X-99185Y22538D01*
X-98797Y22600D01*
X-98403Y22600D01*
X-98015Y22538D01*
X-97640Y22417D01*
X-97290Y22238D01*
X-96971Y22007D01*
X-96693Y21729D01*
X-96462Y21410D01*
X-96283Y21060D01*
X-96162Y20685D01*
X-96100Y20297D01*
X-96100Y19903D01*
X101000Y-20197D02*
X100938Y-20585D01*
X100817Y-20960D01*
X100638Y-21310D01*
X100407Y-21629D01*
X100129Y-21907D01*
X99810Y-22138D01*
X99460Y-22317D01*
X99085Y-22438D01*
X98697Y-22500D01*
X98303Y-22500D01*
X97915Y-22438D01*
X97540Y-22317D01*
X97190Y-22138D01*
X96871Y-21907D01*
X96593Y-21629D01*
X96362Y-21310D01*
X96183Y-20960D01*
X96062Y-20585D01*
X96000Y-20197D01*
X96000Y-19803D01*
X96062Y-19415D01*
X96183Y-19040D01*
X96362Y-18690D01*
X96593Y-18371D01*
X96871Y-18093D01*
X97190Y-17862D01*
X97540Y-17683D01*
X97915Y-17562D01*
X98303Y-17500D01*
X98697Y-17500D01*
X99085Y-17562D01*
X99460Y-17683D01*
X99810Y-17862D01*
X100129Y-18093D01*
X100407Y-18371D01*
X100638Y-18690D01*
X100817Y-19040D01*
X100938Y-19415D01*
X101000Y-19803D01*
X101000Y-20197D01*
X101000Y-10197D02*
X100938Y-10585D01*
X100817Y-10960D01*
X100638Y-11310D01*
X100407Y-11629D01*
X100129Y-11907D01*
X99810Y-12138D01*
X99460Y-12317D01*
X99085Y-12438D01*
X98697Y-12500D01*
X98303Y-12500D01*
X97915Y-12438D01*
X97540Y-12317D01*
X97190Y-12138D01*
X96871Y-11907D01*
X96593Y-11629D01*
X96362Y-11310D01*
X96183Y-10960D01*
X96062Y-10585D01*
X96000Y-10197D01*
X96000Y-9803D01*
X96062Y-9415D01*
X96183Y-9040D01*
X96362Y-8690D01*
X96593Y-8371D01*
X96871Y-8093D01*
X97190Y-7862D01*
X97540Y-7683D01*
X97915Y-7562D01*
X98303Y-7500D01*
X98697Y-7500D01*
X99085Y-7562D01*
X99460Y-7683D01*
X99810Y-7862D01*
X100129Y-8093D01*
X100407Y-8371D01*
X100638Y-8690D01*
X100817Y-9040D01*
X100938Y-9415D01*
X101000Y-9803D01*
X101000Y-10197D01*
X101000Y-197D02*
X100938Y-585D01*
X100817Y-960D01*
X100638Y-1310D01*
X100407Y-1629D01*
X100129Y-1907D01*
X99810Y-2138D01*
X99460Y-2317D01*
X99085Y-2438D01*
X98697Y-2500D01*
X98303Y-2500D01*
X97915Y-2438D01*
X97540Y-2317D01*
X97190Y-2138D01*
X96871Y-1907D01*
X96593Y-1629D01*
X96362Y-1310D01*
X96183Y-960D01*
X96062Y-585D01*
X96000Y-197D01*
X96000Y197D01*
X96062Y585D01*
X96183Y960D01*
X96362Y1310D01*
X96593Y1629D01*
X96871Y1907D01*
X97190Y2138D01*
X97540Y2317D01*
X97915Y2438D01*
X98303Y2500D01*
X98697Y2500D01*
X99085Y2438D01*
X99460Y2317D01*
X99810Y2138D01*
X100129Y1907D01*
X100407Y1629D01*
X100638Y1310D01*
X100817Y960D01*
X100938Y585D01*
X101000Y197D01*
X101000Y-197D01*
X101000Y9803D02*
X100938Y9415D01*
X100817Y9040D01*
X100638Y8690D01*
X100407Y8371D01*
X100129Y8093D01*
X99810Y7862D01*
X99460Y7683D01*
X99085Y7562D01*
X98697Y7500D01*
X98303Y7500D01*
X97915Y7562D01*
X97540Y7683D01*
X97190Y7862D01*
X96871Y8093D01*
X96593Y8371D01*
X96362Y8690D01*
X96183Y9040D01*
X96062Y9415D01*
X96000Y9803D01*
X96000Y10197D01*
X96062Y10585D01*
X96183Y10960D01*
X96362Y11310D01*
X96593Y11629D01*
X96871Y11907D01*
X97190Y12138D01*
X97540Y12317D01*
X97915Y12438D01*
X98303Y12500D01*
X98697Y12500D01*
X99085Y12438D01*
X99460Y12317D01*
X99810Y12138D01*
X100129Y11907D01*
X100407Y11629D01*
X100638Y11310D01*
X100817Y10960D01*
X100938Y10585D01*
X101000Y10197D01*
X101000Y9803D01*
X101000Y19803D02*
X100938Y19415D01*
X100817Y19040D01*
X100638Y18690D01*
X100407Y18371D01*
X100129Y18093D01*
X99810Y17862D01*
X99460Y17683D01*
X99085Y17562D01*
X98697Y17500D01*
X98303Y17500D01*
X97915Y17562D01*
X97540Y17683D01*
X97190Y17862D01*
X96871Y18093D01*
X96593Y18371D01*
X96362Y18690D01*
X96183Y19040D01*
X96062Y19415D01*
X96000Y19803D01*
X96000Y20197D01*
X96062Y20585D01*
X96183Y20960D01*
X96362Y21310D01*
X96593Y21629D01*
X96871Y21907D01*
X97190Y22138D01*
X97540Y22317D01*
X97915Y22438D01*
X98303Y22500D01*
X98697Y22500D01*
X99085Y22438D01*
X99460Y22317D01*
X99810Y22138D01*
X100129Y21907D01*
X100407Y21629D01*
X100638Y21310D01*
X100817Y20960D01*
X100938Y20585D01*
X101000Y20197D01*
X101000Y19803D01*
X81000Y-20197D02*
X80938Y-20585D01*
X80817Y-20960D01*
X80638Y-21310D01*
X80407Y-21629D01*
X80129Y-21907D01*
X79810Y-22138D01*
X79460Y-22317D01*
X79085Y-22438D01*
X78697Y-22500D01*
X78303Y-22500D01*
X77915Y-22438D01*
X77540Y-22317D01*
X77190Y-22138D01*
X76871Y-21907D01*
X76593Y-21629D01*
X76362Y-21310D01*
X76183Y-20960D01*
X76062Y-20585D01*
X76000Y-20197D01*
X76000Y-19803D01*
X76062Y-19415D01*
X76183Y-19040D01*
X76362Y-18690D01*
X76593Y-18371D01*
X76871Y-18093D01*
X77190Y-17862D01*
X77540Y-17683D01*
X77915Y-17562D01*
X78303Y-17500D01*
X78697Y-17500D01*
X79085Y-17562D01*
X79460Y-17683D01*
X79810Y-17862D01*
X80129Y-18093D01*
X80407Y-18371D01*
X80638Y-18690D01*
X80817Y-19040D01*
X80938Y-19415D01*
X81000Y-19803D01*
X81000Y-20197D01*
X81000Y-10197D02*
X80938Y-10585D01*
X80817Y-10960D01*
X80638Y-11310D01*
X80407Y-11629D01*
X80129Y-11907D01*
X79810Y-12138D01*
X79460Y-12317D01*
X79085Y-12438D01*
X78697Y-12500D01*
X78303Y-12500D01*
X77915Y-12438D01*
X77540Y-12317D01*
X77190Y-12138D01*
X76871Y-11907D01*
X76593Y-11629D01*
X76362Y-11310D01*
X76183Y-10960D01*
X76062Y-10585D01*
X76000Y-10197D01*
X76000Y-9803D01*
X76062Y-9415D01*
X76183Y-9040D01*
X76362Y-8690D01*
X76593Y-8371D01*
X76871Y-8093D01*
X77190Y-7862D01*
X77540Y-7683D01*
X77915Y-7562D01*
X78303Y-7500D01*
X78697Y-7500D01*
X79085Y-7562D01*
X79460Y-7683D01*
X79810Y-7862D01*
X80129Y-8093D01*
X80407Y-8371D01*
X80638Y-8690D01*
X80817Y-9040D01*
X80938Y-9415D01*
X81000Y-9803D01*
X81000Y-10197D01*
X81000Y-197D02*
X80938Y-585D01*
X80817Y-960D01*
X80638Y-1310D01*
X80407Y-1629D01*
X80129Y-1907D01*
X79810Y-2138D01*
X79460Y-2317D01*
X79085Y-2438D01*
X78697Y-2500D01*
X78303Y-2500D01*
X77915Y-2438D01*
X77540Y-2317D01*
X77190Y-2138D01*
X76871Y-1907D01*
X76593Y-1629D01*
X76362Y-1310D01*
X76183Y-960D01*
X76062Y-585D01*
X76000Y-197D01*
X76000Y197D01*
X76062Y585D01*
X76183Y960D01*
X76362Y1310D01*
X76593Y1629D01*
X76871Y1907D01*
X77190Y2138D01*
X77540Y2317D01*
X77915Y2438D01*
X78303Y2500D01*
X78697Y2500D01*
X79085Y2438D01*
X79460Y2317D01*
X79810Y2138D01*
X80129Y1907D01*
X80407Y1629D01*
X80638Y1310D01*
X80817Y960D01*
X80938Y585D01*
X81000Y197D01*
X81000Y-197D01*
X81000Y9803D02*
X80938Y9415D01*
X80817Y9040D01*
X80638Y8690D01*
X80407Y8371D01*
X80129Y8093D01*
X79810Y7862D01*
X79460Y7683D01*
X79085Y7562D01*
X78697Y7500D01*
X78303Y7500D01*
X77915Y7562D01*
X77540Y7683D01*
X77190Y7862D01*
X76871Y8093D01*
X76593Y8371D01*
X76362Y8690D01*
X76183Y9040D01*
X76062Y9415D01*
X76000Y9803D01*
X76000Y10197D01*
X76062Y10585D01*
X76183Y10960D01*
X76362Y11310D01*
X76593Y11629D01*
X76871Y11907D01*
X77190Y12138D01*
X77540Y12317D01*
X77915Y12438D01*
X78303Y12500D01*
X78697Y12500D01*
X79085Y12438D01*
X79460Y12317D01*
X79810Y12138D01*
X80129Y11907D01*
X80407Y11629D01*
X80638Y11310D01*
X80817Y10960D01*
X80938Y10585D01*
X81000Y10197D01*
X81000Y9803D01*
X81000Y19803D02*
X80938Y19415D01*
X80817Y19040D01*
X80638Y18690D01*
X80407Y18371D01*
X80129Y18093D01*
X79810Y17862D01*
X79460Y17683D01*
X79085Y17562D01*
X78697Y17500D01*
X78303Y17500D01*
X77915Y17562D01*
X77540Y17683D01*
X77190Y17862D01*
X76871Y18093D01*
X76593Y18371D01*
X76362Y18690D01*
X76183Y19040D01*
X76062Y19415D01*
X76000Y19803D01*
X76000Y20197D01*
X76062Y20585D01*
X76183Y20960D01*
X76362Y21310D01*
X76593Y21629D01*
X76871Y21907D01*
X77190Y22138D01*
X77540Y22317D01*
X77915Y22438D01*
X78303Y22500D01*
X78697Y22500D01*
X79085Y22438D01*
X79460Y22317D01*
X79810Y22138D01*
X80129Y21907D01*
X80407Y21629D01*
X80638Y21310D01*
X80817Y20960D01*
X80938Y20585D01*
X81000Y20197D01*
X81000Y19803D01*
X-17500Y-98697D02*
X-17562Y-99085D01*
X-17683Y-99460D01*
X-17862Y-99810D01*
X-18093Y-100129D01*
X-18371Y-100407D01*
X-18690Y-100638D01*
X-19040Y-100817D01*
X-19415Y-100938D01*
X-19803Y-101000D01*
X-20197Y-101000D01*
X-20585Y-100938D01*
X-20960Y-100817D01*
X-21310Y-100638D01*
X-21629Y-100407D01*
X-21907Y-100129D01*
X-22138Y-99810D01*
X-22317Y-99460D01*
X-22438Y-99085D01*
X-22500Y-98697D01*
X-22500Y-98303D01*
X-22438Y-97915D01*
X-22317Y-97540D01*
X-22138Y-97190D01*
X-21907Y-96871D01*
X-21629Y-96593D01*
X-21310Y-96362D01*
X-20960Y-96183D01*
X-20585Y-96062D01*
X-20197Y-96000D01*
X-19803Y-96000D01*
X-19415Y-96062D01*
X-19040Y-96183D01*
X-18690Y-96362D01*
X-18371Y-96593D01*
X-18093Y-96871D01*
X-17862Y-97190D01*
X-17683Y-97540D01*
X-17562Y-97915D01*
X-17500Y-98303D01*
X-17500Y-98697D01*
X-7500Y-98697D02*
X-7562Y-99085D01*
X-7683Y-99460D01*
X-7862Y-99810D01*
X-8093Y-100129D01*
X-8371Y-100407D01*
X-8690Y-100638D01*
X-9040Y-100817D01*
X-9415Y-100938D01*
X-9803Y-101000D01*
X-10197Y-101000D01*
X-10585Y-100938D01*
X-10960Y-100817D01*
X-11310Y-100638D01*
X-11629Y-100407D01*
X-11907Y-100129D01*
X-12138Y-99810D01*
X-12317Y-99460D01*
X-12438Y-99085D01*
X-12500Y-98697D01*
X-12500Y-98303D01*
X-12438Y-97915D01*
X-12317Y-97540D01*
X-12138Y-97190D01*
X-11907Y-96871D01*
X-11629Y-96593D01*
X-11310Y-96362D01*
X-10960Y-96183D01*
X-10585Y-96062D01*
X-10197Y-96000D01*
X-9803Y-96000D01*
X-9415Y-96062D01*
X-9040Y-96183D01*
X-8690Y-96362D01*
X-8371Y-96593D01*
X-8093Y-96871D01*
X-7862Y-97190D01*
X-7683Y-97540D01*
X-7562Y-97915D01*
X-7500Y-98303D01*
X-7500Y-98697D01*
X2500Y-98697D02*
X2438Y-99085D01*
X2317Y-99460D01*
X2138Y-99810D01*
X1907Y-100129D01*
X1629Y-100407D01*
X1310Y-100638D01*
X960Y-100817D01*
X585Y-100938D01*
X197Y-101000D01*
X-197Y-101000D01*
X-585Y-100938D01*
X-960Y-100817D01*
X-1310Y-100638D01*
X-1629Y-100407D01*
X-1907Y-100129D01*
X-2138Y-99810D01*
X-2317Y-99460D01*
X-2438Y-99085D01*
X-2500Y-98697D01*
X-2500Y-98303D01*
X-2438Y-97915D01*
X-2317Y-97540D01*
X-2138Y-97190D01*
X-1907Y-96871D01*
X-1629Y-96593D01*
X-1310Y-96362D01*
X-960Y-96183D01*
X-585Y-96062D01*
X-197Y-96000D01*
X197Y-96000D01*
X585Y-96062D01*
X960Y-96183D01*
X1310Y-96362D01*
X1629Y-96593D01*
X1907Y-96871D01*
X2138Y-97190D01*
X2317Y-97540D01*
X2438Y-97915D01*
X2500Y-98303D01*
X2500Y-98697D01*
X12500Y-98697D02*
X12438Y-99085D01*
X12317Y-99460D01*
X12138Y-99810D01*
X11907Y-100129D01*
X11629Y-100407D01*
X11310Y-100638D01*
X10960Y-100817D01*
X10585Y-100938D01*
X10197Y-101000D01*
X9803Y-101000D01*
X9415Y-100938D01*
X9040Y-100817D01*
X8690Y-100638D01*
X8371Y-100407D01*
X8093Y-100129D01*
X7862Y-99810D01*
X7683Y-99460D01*
X7562Y-99085D01*
X7500Y-98697D01*
X7500Y-98303D01*
X7562Y-97915D01*
X7683Y-97540D01*
X7862Y-97190D01*
X8093Y-96871D01*
X8371Y-96593D01*
X8690Y-96362D01*
X9040Y-96183D01*
X9415Y-96062D01*
X9803Y-96000D01*
X10197Y-96000D01*
X10585Y-96062D01*
X10960Y-96183D01*
X11310Y-96362D01*
X11629Y-96593D01*
X11907Y-96871D01*
X12138Y-97190D01*
X12317Y-97540D01*
X12438Y-97915D01*
X12500Y-98303D01*
X12500Y-98697D01*
X22500Y-98697D02*
X22438Y-99085D01*
X22317Y-99460D01*
X22138Y-99810D01*
X21907Y-100129D01*
X21629Y-100407D01*
X21310Y-100638D01*
X20960Y-100817D01*
X20585Y-100938D01*
X20197Y-101000D01*
X19803Y-101000D01*
X19415Y-100938D01*
X19040Y-100817D01*
X18690Y-100638D01*
X18371Y-100407D01*
X18093Y-100129D01*
X17862Y-99810D01*
X17683Y-99460D01*
X17562Y-99085D01*
X17500Y-98697D01*
X17500Y-98303D01*
X17562Y-97915D01*
X17683Y-97540D01*
X17862Y-97190D01*
X18093Y-96871D01*
X18371Y-96593D01*
X18690Y-96362D01*
X19040Y-96183D01*
X19415Y-96062D01*
X19803Y-96000D01*
X20197Y-96000D01*
X20585Y-96062D01*
X20960Y-96183D01*
X21310Y-96362D01*
X21629Y-96593D01*
X21907Y-96871D01*
X22138Y-97190D01*
X22317Y-97540D01*
X22438Y-97915D01*
X22500Y-98303D01*
X22500Y-98697D01*
X-17500Y-78697D02*
X-17562Y-79085D01*
X-17683Y-79460D01*
X-17862Y-79810D01*
X-18093Y-80129D01*
X-18371Y-80407D01*
X-18690Y-80638D01*
X-19040Y-80817D01*
X-19415Y-80938D01*
X-19803Y-81000D01*
X-20197Y-81000D01*
X-20585Y-80938D01*
X-20960Y-80817D01*
X-21310Y-80638D01*
X-21629Y-80407D01*
X-21907Y-80129D01*
X-22138Y-79810D01*
X-22317Y-79460D01*
X-22438Y-79085D01*
X-22500Y-78697D01*
X-22500Y-78303D01*
X-22438Y-77915D01*
X-22317Y-77540D01*
X-22138Y-77190D01*
X-21907Y-76871D01*
X-21629Y-76593D01*
X-21310Y-76362D01*
X-20960Y-76183D01*
X-20585Y-76062D01*
X-20197Y-76000D01*
X-19803Y-76000D01*
X-19415Y-76062D01*
X-19040Y-76183D01*
X-18690Y-76362D01*
X-18371Y-76593D01*
X-18093Y-76871D01*
X-17862Y-77190D01*
X-17683Y-77540D01*
X-17562Y-77915D01*
X-17500Y-78303D01*
X-17500Y-78697D01*
X-7500Y-78697D02*
X-7562Y-79085D01*
X-7683Y-79460D01*
X-7862Y-79810D01*
X-8093Y-80129D01*
X-8371Y-80407D01*
X-8690Y-80638D01*
X-9040Y-80817D01*
X-9415Y-80938D01*
X-9803Y-81000D01*
X-10197Y-81000D01*
X-10585Y-80938D01*
X-10960Y-80817D01*
X-11310Y-80638D01*
X-11629Y-80407D01*
X-11907Y-80129D01*
X-12138Y-79810D01*
X-12317Y-79460D01*
X-12438Y-79085D01*
X-12500Y-78697D01*
X-12500Y-78303D01*
X-12438Y-77915D01*
X-12317Y-77540D01*
X-12138Y-77190D01*
X-11907Y-76871D01*
X-11629Y-76593D01*
X-11310Y-76362D01*
X-10960Y-76183D01*
X-10585Y-76062D01*
X-10197Y-76000D01*
X-9803Y-76000D01*
X-9415Y-76062D01*
X-9040Y-76183D01*
X-8690Y-76362D01*
X-8371Y-76593D01*
X-8093Y-76871D01*
X-7862Y-77190D01*
X-7683Y-77540D01*
X-7562Y-77915D01*
X-7500Y-78303D01*
X-7500Y-78697D01*
X2500Y-78697D02*
X2438Y-79085D01*
X2317Y-79460D01*
X2138Y-79810D01*
X1907Y-80129D01*
X1629Y-80407D01*
X1310Y-80638D01*
X960Y-80817D01*
X585Y-80938D01*
X197Y-81000D01*
X-197Y-81000D01*
X-585Y-80938D01*
X-960Y-80817D01*
X-1310Y-80638D01*
X-1629Y-80407D01*
X-1907Y-80129D01*
X-2138Y-79810D01*
X-2317Y-79460D01*
X-2438Y-79085D01*
X-2500Y-78697D01*
X-2500Y-78303D01*
X-2438Y-77915D01*
X-2317Y-77540D01*
X-2138Y-77190D01*
X-1907Y-76871D01*
X-1629Y-76593D01*
X-1310Y-76362D01*
X-960Y-76183D01*
X-585Y-76062D01*
X-197Y-76000D01*
X197Y-76000D01*
X585Y-76062D01*
X960Y-76183D01*
X1310Y-76362D01*
X1629Y-76593D01*
X1907Y-76871D01*
X2138Y-77190D01*
X2317Y-77540D01*
X2438Y-77915D01*
X2500Y-78303D01*
X2500Y-78697D01*
X12500Y-78697D02*
X12438Y-79085D01*
X12317Y-79460D01*
X12138Y-79810D01*
X11907Y-80129D01*
X11629Y-80407D01*
X11310Y-80638D01*
X10960Y-80817D01*
X10585Y-80938D01*
X10197Y-81000D01*
X9803Y-81000D01*
X9415Y-80938D01*
X9040Y-80817D01*
X8690Y-80638D01*
X8371Y-80407D01*
X8093Y-80129D01*
X7862Y-79810D01*
X7683Y-79460D01*
X7562Y-79085D01*
X7500Y-78697D01*
X7500Y-78303D01*
X7562Y-77915D01*
X7683Y-77540D01*
X7862Y-77190D01*
X8093Y-76871D01*
X8371Y-76593D01*
X8690Y-76362D01*
X9040Y-76183D01*
X9415Y-76062D01*
X9803Y-76000D01*
X10197Y-76000D01*
X10585Y-76062D01*
X10960Y-76183D01*
X11310Y-76362D01*
X11629Y-76593D01*
X11907Y-76871D01*
X12138Y-77190D01*
X12317Y-77540D01*
X12438Y-77915D01*
X12500Y-78303D01*
X12500Y-78697D01*
X22500Y-78697D02*
X22438Y-79085D01*
X22317Y-79460D01*
X22138Y-79810D01*
X21907Y-80129D01*
X21629Y-80407D01*
X21310Y-80638D01*
X20960Y-80817D01*
X20585Y-80938D01*
X20197Y-81000D01*
X19803Y-81000D01*
X19415Y-80938D01*
X19040Y-80817D01*
X18690Y-80638D01*
X18371Y-80407D01*
X18093Y-80129D01*
X17862Y-79810D01*
X17683Y-79460D01*
X17562Y-79085D01*
X17500Y-78697D01*
X17500Y-78303D01*
X17562Y-77915D01*
X17683Y-77540D01*
X17862Y-77190D01*
X18093Y-76871D01*
X18371Y-76593D01*
X18690Y-76362D01*
X19040Y-76183D01*
X19415Y-76062D01*
X19803Y-76000D01*
X20197Y-76000D01*
X20585Y-76062D01*
X20960Y-76183D01*
X21310Y-76362D01*
X21629Y-76593D01*
X21907Y-76871D01*
X22138Y-77190D01*
X22317Y-77540D01*
X22438Y-77915D01*
X22500Y-78303D01*
X22500Y-78697D01*
M02*
