G04 EAGLE Gerber X2 export*
%TF.Part,Single*%
%TF.FileFunction,Soldermask,Top,1*%
%TF.FilePolarity,Negative*%
%TF.GenerationSoftware,Autodesk,EAGLE,9.0.1*%
%TF.CreationDate,2018-12-20T16:05:16Z*%
G75*
%MOMM*%
%FSLAX34Y34*%
%LPD*%
%AMOC8*
5,1,8,0,0,1.08239X$1,22.5*%
G01*
%ADD10C,3.250000*%
%ADD11C,0.750000*%
%ADD12C,0.700000*%


D10*
X-125000Y-125000D03*
X125000Y-125000D03*
X-125000Y125000D03*
X125000Y125000D03*
D11*
X-20000Y78500D03*
X-10000Y78500D03*
X0Y78500D03*
X10000Y78500D03*
X20000Y78500D03*
X-20000Y98500D03*
X-10000Y98500D03*
X0Y98500D03*
X10000Y98500D03*
X20000Y98500D03*
X-78600Y-19900D03*
X-78600Y-9900D03*
X-78600Y100D03*
X-78600Y10100D03*
X-78600Y20100D03*
X-98600Y-19900D03*
X-98600Y-9900D03*
X-98600Y100D03*
X-98600Y10100D03*
X-98600Y20100D03*
X98500Y-20000D03*
X98500Y-10000D03*
X98500Y0D03*
X98500Y10000D03*
X98500Y20000D03*
X78500Y-20000D03*
X78500Y-10000D03*
X78500Y0D03*
X78500Y10000D03*
X78500Y20000D03*
X-20000Y-98500D03*
X-10000Y-98500D03*
X0Y-98500D03*
X10000Y-98500D03*
X20000Y-98500D03*
X-20000Y-78500D03*
X-10000Y-78500D03*
X0Y-78500D03*
X10000Y-78500D03*
X20000Y-78500D03*
D12*
X-28950Y33400D03*
X-67060Y22790D03*
X-32290Y28020D03*
X-67800Y31300D03*
X-28950Y-30400D03*
X-67160Y-41010D03*
X-32090Y-35880D03*
X-67500Y-32400D03*
X29250Y29700D03*
X67260Y40210D03*
X32490Y35080D03*
X67500Y31700D03*
X29150Y-34400D03*
X68160Y-37490D03*
X31590Y-28520D03*
X68000Y-30900D03*
M02*
